G75*
%MOIN*%
%OFA0B0*%
%FSLAX25Y25*%
%IPPOS*%
%LPD*%
%AMOC8*
5,1,8,0,0,1.08239X$1,22.5*
%
%ADD10C,0.04800*%
%ADD11R,0.05131X0.04737*%
%ADD12R,0.03280X0.04068*%
%ADD13C,0.01421*%
%ADD14R,0.07690X0.02375*%
%ADD15R,0.06548X0.08674*%
%ADD16R,0.10643X0.06410*%
%ADD17C,0.00400*%
%ADD18C,0.08200*%
%ADD19R,0.04737X0.05131*%
%ADD20R,0.07099X0.09855*%
%ADD21R,0.04737X0.04737*%
%ADD22R,0.03359X0.01981*%
%ADD23R,0.01981X0.03359*%
%ADD24C,0.03300*%
%ADD25C,0.04737*%
%ADD26C,0.05000*%
%ADD27C,0.06706*%
D10*
X0054500Y0077000D03*
X0064500Y0077000D03*
X0064500Y0117000D03*
X0054500Y0117000D03*
X0054500Y0137000D03*
X0064500Y0137000D03*
X0064500Y0177000D03*
X0054500Y0177000D03*
X0054500Y0197000D03*
X0064500Y0197000D03*
X0064500Y0237000D03*
X0054500Y0237000D03*
X0054500Y0257000D03*
X0064500Y0257000D03*
X0064500Y0297000D03*
X0054500Y0297000D03*
X0054500Y0317000D03*
X0064500Y0317000D03*
X0064500Y0357000D03*
X0054500Y0357000D03*
X0134500Y0357000D03*
X0144500Y0357000D03*
X0144500Y0317000D03*
X0134500Y0317000D03*
X0134500Y0297000D03*
X0144500Y0297000D03*
X0144500Y0257000D03*
X0134500Y0257000D03*
X0134500Y0237000D03*
X0144500Y0237000D03*
X0144500Y0197000D03*
X0134500Y0197000D03*
X0134500Y0177000D03*
X0144500Y0177000D03*
X0144500Y0137000D03*
X0134500Y0137000D03*
X0134500Y0117000D03*
X0144500Y0117000D03*
X0144500Y0077000D03*
X0134500Y0077000D03*
X0194500Y0077000D03*
X0204500Y0077000D03*
X0204500Y0117000D03*
X0194500Y0117000D03*
X0194500Y0137000D03*
X0204500Y0137000D03*
X0204500Y0177000D03*
X0194500Y0177000D03*
X0194500Y0197000D03*
X0204500Y0197000D03*
X0204500Y0237000D03*
X0194500Y0237000D03*
X0194500Y0257000D03*
X0204500Y0257000D03*
X0204500Y0297000D03*
X0194500Y0297000D03*
X0194500Y0317000D03*
X0204500Y0317000D03*
X0204500Y0357000D03*
X0194500Y0357000D03*
X0274500Y0357000D03*
X0284500Y0357000D03*
X0284500Y0317000D03*
X0274500Y0317000D03*
X0274500Y0297000D03*
X0284500Y0297000D03*
X0284500Y0257000D03*
X0274500Y0257000D03*
X0274500Y0237000D03*
X0284500Y0237000D03*
X0284500Y0197000D03*
X0274500Y0197000D03*
X0274500Y0177000D03*
X0284500Y0177000D03*
X0284500Y0137000D03*
X0274500Y0137000D03*
X0274500Y0117000D03*
X0284500Y0117000D03*
X0284500Y0077000D03*
X0274500Y0077000D03*
X0334500Y0077000D03*
X0344500Y0077000D03*
X0344500Y0117000D03*
X0334500Y0117000D03*
X0334500Y0137000D03*
X0344500Y0137000D03*
X0344500Y0177000D03*
X0334500Y0177000D03*
X0334500Y0197000D03*
X0344500Y0197000D03*
X0344500Y0237000D03*
X0334500Y0237000D03*
X0334500Y0257000D03*
X0344500Y0257000D03*
X0344500Y0297000D03*
X0334500Y0297000D03*
X0334500Y0317000D03*
X0344500Y0317000D03*
X0344500Y0357000D03*
X0334500Y0357000D03*
X0414500Y0357000D03*
X0424500Y0357000D03*
X0424500Y0317000D03*
X0414500Y0317000D03*
X0414500Y0297000D03*
X0424500Y0297000D03*
X0424500Y0257000D03*
X0414500Y0257000D03*
X0414500Y0237000D03*
X0424500Y0237000D03*
X0424500Y0197000D03*
X0414500Y0197000D03*
X0414500Y0177000D03*
X0424500Y0177000D03*
X0424500Y0137000D03*
X0414500Y0137000D03*
X0414500Y0117000D03*
X0424500Y0117000D03*
X0424500Y0077000D03*
X0414500Y0077000D03*
D11*
X0407846Y0087000D03*
X0407846Y0092000D03*
X0401154Y0092000D03*
X0401154Y0087000D03*
X0401154Y0107000D03*
X0407846Y0107000D03*
X0407846Y0147000D03*
X0407846Y0152000D03*
X0401154Y0152000D03*
X0401154Y0147000D03*
X0401154Y0167000D03*
X0407846Y0167000D03*
X0407846Y0207000D03*
X0407846Y0212000D03*
X0401154Y0212000D03*
X0401154Y0207000D03*
X0401154Y0227000D03*
X0407846Y0227000D03*
X0407846Y0267000D03*
X0407846Y0272000D03*
X0401154Y0272000D03*
X0401154Y0267000D03*
X0401154Y0287000D03*
X0407846Y0287000D03*
X0407846Y0327000D03*
X0407846Y0332000D03*
X0401154Y0332000D03*
X0401154Y0327000D03*
X0401154Y0347000D03*
X0407846Y0347000D03*
X0357846Y0347000D03*
X0351154Y0347000D03*
X0351154Y0327000D03*
X0357846Y0327000D03*
X0357846Y0287000D03*
X0351154Y0287000D03*
X0351154Y0267000D03*
X0357846Y0267000D03*
X0357846Y0227000D03*
X0351154Y0227000D03*
X0351154Y0207000D03*
X0357846Y0207000D03*
X0357846Y0167000D03*
X0351154Y0167000D03*
X0351154Y0147000D03*
X0357846Y0147000D03*
X0357846Y0107000D03*
X0351154Y0107000D03*
X0351154Y0087000D03*
X0357846Y0087000D03*
X0267846Y0087000D03*
X0267846Y0092000D03*
X0261154Y0092000D03*
X0261154Y0087000D03*
X0261154Y0107000D03*
X0267846Y0107000D03*
X0267846Y0147000D03*
X0267846Y0152000D03*
X0261154Y0152000D03*
X0261154Y0147000D03*
X0261154Y0167000D03*
X0267846Y0167000D03*
X0267846Y0207000D03*
X0267846Y0212000D03*
X0261154Y0212000D03*
X0261154Y0207000D03*
X0261154Y0227000D03*
X0267846Y0227000D03*
X0267846Y0267000D03*
X0267846Y0272000D03*
X0261154Y0272000D03*
X0261154Y0267000D03*
X0261154Y0287000D03*
X0267846Y0287000D03*
X0267846Y0327000D03*
X0267846Y0332000D03*
X0261154Y0332000D03*
X0261154Y0327000D03*
X0261154Y0347000D03*
X0267846Y0347000D03*
X0217846Y0347000D03*
X0211154Y0347000D03*
X0211154Y0327000D03*
X0217846Y0327000D03*
X0217846Y0287000D03*
X0211154Y0287000D03*
X0211154Y0267000D03*
X0217846Y0267000D03*
X0217846Y0227000D03*
X0211154Y0227000D03*
X0211154Y0207000D03*
X0217846Y0207000D03*
X0217846Y0167000D03*
X0211154Y0167000D03*
X0211154Y0147000D03*
X0217846Y0147000D03*
X0217846Y0107000D03*
X0211154Y0107000D03*
X0211154Y0087000D03*
X0217846Y0087000D03*
X0127846Y0087000D03*
X0127846Y0092000D03*
X0121154Y0092000D03*
X0121154Y0087000D03*
X0121154Y0107000D03*
X0127846Y0107000D03*
X0127846Y0147000D03*
X0127846Y0152000D03*
X0121154Y0152000D03*
X0121154Y0147000D03*
X0121154Y0167000D03*
X0127846Y0167000D03*
X0127846Y0207000D03*
X0127846Y0212000D03*
X0121154Y0212000D03*
X0121154Y0207000D03*
X0121154Y0227000D03*
X0127846Y0227000D03*
X0127846Y0267000D03*
X0127846Y0272000D03*
X0121154Y0272000D03*
X0121154Y0267000D03*
X0121154Y0287000D03*
X0127846Y0287000D03*
X0127846Y0327000D03*
X0127846Y0332000D03*
X0121154Y0332000D03*
X0121154Y0327000D03*
X0121154Y0347000D03*
X0127846Y0347000D03*
X0077846Y0347000D03*
X0071154Y0347000D03*
X0071154Y0327000D03*
X0077846Y0327000D03*
X0077846Y0287000D03*
X0071154Y0287000D03*
X0071154Y0267000D03*
X0077846Y0267000D03*
X0077846Y0227000D03*
X0071154Y0227000D03*
X0071154Y0207000D03*
X0077846Y0207000D03*
X0077846Y0167000D03*
X0071154Y0167000D03*
X0071154Y0147000D03*
X0077846Y0147000D03*
X0077846Y0107000D03*
X0071154Y0107000D03*
X0071154Y0087000D03*
X0077846Y0087000D03*
D12*
X0079028Y0092000D03*
X0069972Y0092000D03*
X0069972Y0102000D03*
X0079028Y0102000D03*
X0079028Y0152000D03*
X0069972Y0152000D03*
X0069972Y0162000D03*
X0079028Y0162000D03*
X0079028Y0212000D03*
X0069972Y0212000D03*
X0069972Y0222000D03*
X0079028Y0222000D03*
X0079028Y0272000D03*
X0069972Y0272000D03*
X0069972Y0282000D03*
X0079028Y0282000D03*
X0079028Y0332000D03*
X0069972Y0332000D03*
X0069972Y0342000D03*
X0079028Y0342000D03*
X0209972Y0342000D03*
X0219028Y0342000D03*
X0219028Y0332000D03*
X0209972Y0332000D03*
X0209972Y0282000D03*
X0219028Y0282000D03*
X0219028Y0272000D03*
X0209972Y0272000D03*
X0209972Y0222000D03*
X0219028Y0222000D03*
X0219028Y0212000D03*
X0209972Y0212000D03*
X0209972Y0162000D03*
X0219028Y0162000D03*
X0219028Y0152000D03*
X0209972Y0152000D03*
X0209972Y0102000D03*
X0219028Y0102000D03*
X0219028Y0092000D03*
X0209972Y0092000D03*
X0349972Y0092000D03*
X0359028Y0092000D03*
X0359028Y0102000D03*
X0349972Y0102000D03*
X0349972Y0152000D03*
X0359028Y0152000D03*
X0359028Y0162000D03*
X0349972Y0162000D03*
X0349972Y0212000D03*
X0359028Y0212000D03*
X0359028Y0222000D03*
X0349972Y0222000D03*
X0349972Y0272000D03*
X0359028Y0272000D03*
X0359028Y0282000D03*
X0349972Y0282000D03*
X0349972Y0332000D03*
X0359028Y0332000D03*
X0359028Y0342000D03*
X0349972Y0342000D03*
D13*
X0399389Y0340342D02*
X0399389Y0343658D01*
X0402705Y0343658D01*
X0402705Y0340342D01*
X0399389Y0340342D01*
X0399389Y0341762D02*
X0402705Y0341762D01*
X0402705Y0343182D02*
X0399389Y0343182D01*
X0406295Y0343658D02*
X0406295Y0340342D01*
X0406295Y0343658D02*
X0409611Y0343658D01*
X0409611Y0340342D01*
X0406295Y0340342D01*
X0406295Y0341762D02*
X0409611Y0341762D01*
X0409611Y0343182D02*
X0406295Y0343182D01*
X0406295Y0283658D02*
X0406295Y0280342D01*
X0406295Y0283658D02*
X0409611Y0283658D01*
X0409611Y0280342D01*
X0406295Y0280342D01*
X0406295Y0281762D02*
X0409611Y0281762D01*
X0409611Y0283182D02*
X0406295Y0283182D01*
X0399389Y0283658D02*
X0399389Y0280342D01*
X0399389Y0283658D02*
X0402705Y0283658D01*
X0402705Y0280342D01*
X0399389Y0280342D01*
X0399389Y0281762D02*
X0402705Y0281762D01*
X0402705Y0283182D02*
X0399389Y0283182D01*
X0399389Y0223658D02*
X0399389Y0220342D01*
X0399389Y0223658D02*
X0402705Y0223658D01*
X0402705Y0220342D01*
X0399389Y0220342D01*
X0399389Y0221762D02*
X0402705Y0221762D01*
X0402705Y0223182D02*
X0399389Y0223182D01*
X0406295Y0223658D02*
X0406295Y0220342D01*
X0406295Y0223658D02*
X0409611Y0223658D01*
X0409611Y0220342D01*
X0406295Y0220342D01*
X0406295Y0221762D02*
X0409611Y0221762D01*
X0409611Y0223182D02*
X0406295Y0223182D01*
X0406295Y0163658D02*
X0406295Y0160342D01*
X0406295Y0163658D02*
X0409611Y0163658D01*
X0409611Y0160342D01*
X0406295Y0160342D01*
X0406295Y0161762D02*
X0409611Y0161762D01*
X0409611Y0163182D02*
X0406295Y0163182D01*
X0399389Y0163658D02*
X0399389Y0160342D01*
X0399389Y0163658D02*
X0402705Y0163658D01*
X0402705Y0160342D01*
X0399389Y0160342D01*
X0399389Y0161762D02*
X0402705Y0161762D01*
X0402705Y0163182D02*
X0399389Y0163182D01*
X0399389Y0103658D02*
X0399389Y0100342D01*
X0399389Y0103658D02*
X0402705Y0103658D01*
X0402705Y0100342D01*
X0399389Y0100342D01*
X0399389Y0101762D02*
X0402705Y0101762D01*
X0402705Y0103182D02*
X0399389Y0103182D01*
X0406295Y0103658D02*
X0406295Y0100342D01*
X0406295Y0103658D02*
X0409611Y0103658D01*
X0409611Y0100342D01*
X0406295Y0100342D01*
X0406295Y0101762D02*
X0409611Y0101762D01*
X0409611Y0103182D02*
X0406295Y0103182D01*
X0266295Y0103658D02*
X0266295Y0100342D01*
X0266295Y0103658D02*
X0269611Y0103658D01*
X0269611Y0100342D01*
X0266295Y0100342D01*
X0266295Y0101762D02*
X0269611Y0101762D01*
X0269611Y0103182D02*
X0266295Y0103182D01*
X0259389Y0103658D02*
X0259389Y0100342D01*
X0259389Y0103658D02*
X0262705Y0103658D01*
X0262705Y0100342D01*
X0259389Y0100342D01*
X0259389Y0101762D02*
X0262705Y0101762D01*
X0262705Y0103182D02*
X0259389Y0103182D01*
X0259389Y0160342D02*
X0259389Y0163658D01*
X0262705Y0163658D01*
X0262705Y0160342D01*
X0259389Y0160342D01*
X0259389Y0161762D02*
X0262705Y0161762D01*
X0262705Y0163182D02*
X0259389Y0163182D01*
X0266295Y0163658D02*
X0266295Y0160342D01*
X0266295Y0163658D02*
X0269611Y0163658D01*
X0269611Y0160342D01*
X0266295Y0160342D01*
X0266295Y0161762D02*
X0269611Y0161762D01*
X0269611Y0163182D02*
X0266295Y0163182D01*
X0266295Y0220342D02*
X0266295Y0223658D01*
X0269611Y0223658D01*
X0269611Y0220342D01*
X0266295Y0220342D01*
X0266295Y0221762D02*
X0269611Y0221762D01*
X0269611Y0223182D02*
X0266295Y0223182D01*
X0259389Y0223658D02*
X0259389Y0220342D01*
X0259389Y0223658D02*
X0262705Y0223658D01*
X0262705Y0220342D01*
X0259389Y0220342D01*
X0259389Y0221762D02*
X0262705Y0221762D01*
X0262705Y0223182D02*
X0259389Y0223182D01*
X0259389Y0280342D02*
X0259389Y0283658D01*
X0262705Y0283658D01*
X0262705Y0280342D01*
X0259389Y0280342D01*
X0259389Y0281762D02*
X0262705Y0281762D01*
X0262705Y0283182D02*
X0259389Y0283182D01*
X0266295Y0283658D02*
X0266295Y0280342D01*
X0266295Y0283658D02*
X0269611Y0283658D01*
X0269611Y0280342D01*
X0266295Y0280342D01*
X0266295Y0281762D02*
X0269611Y0281762D01*
X0269611Y0283182D02*
X0266295Y0283182D01*
X0266295Y0340342D02*
X0266295Y0343658D01*
X0269611Y0343658D01*
X0269611Y0340342D01*
X0266295Y0340342D01*
X0266295Y0341762D02*
X0269611Y0341762D01*
X0269611Y0343182D02*
X0266295Y0343182D01*
X0259389Y0343658D02*
X0259389Y0340342D01*
X0259389Y0343658D02*
X0262705Y0343658D01*
X0262705Y0340342D01*
X0259389Y0340342D01*
X0259389Y0341762D02*
X0262705Y0341762D01*
X0262705Y0343182D02*
X0259389Y0343182D01*
X0126295Y0343658D02*
X0126295Y0340342D01*
X0126295Y0343658D02*
X0129611Y0343658D01*
X0129611Y0340342D01*
X0126295Y0340342D01*
X0126295Y0341762D02*
X0129611Y0341762D01*
X0129611Y0343182D02*
X0126295Y0343182D01*
X0119389Y0343658D02*
X0119389Y0340342D01*
X0119389Y0343658D02*
X0122705Y0343658D01*
X0122705Y0340342D01*
X0119389Y0340342D01*
X0119389Y0341762D02*
X0122705Y0341762D01*
X0122705Y0343182D02*
X0119389Y0343182D01*
X0119389Y0283658D02*
X0119389Y0280342D01*
X0119389Y0283658D02*
X0122705Y0283658D01*
X0122705Y0280342D01*
X0119389Y0280342D01*
X0119389Y0281762D02*
X0122705Y0281762D01*
X0122705Y0283182D02*
X0119389Y0283182D01*
X0126295Y0283658D02*
X0126295Y0280342D01*
X0126295Y0283658D02*
X0129611Y0283658D01*
X0129611Y0280342D01*
X0126295Y0280342D01*
X0126295Y0281762D02*
X0129611Y0281762D01*
X0129611Y0283182D02*
X0126295Y0283182D01*
X0126295Y0223658D02*
X0126295Y0220342D01*
X0126295Y0223658D02*
X0129611Y0223658D01*
X0129611Y0220342D01*
X0126295Y0220342D01*
X0126295Y0221762D02*
X0129611Y0221762D01*
X0129611Y0223182D02*
X0126295Y0223182D01*
X0119389Y0223658D02*
X0119389Y0220342D01*
X0119389Y0223658D02*
X0122705Y0223658D01*
X0122705Y0220342D01*
X0119389Y0220342D01*
X0119389Y0221762D02*
X0122705Y0221762D01*
X0122705Y0223182D02*
X0119389Y0223182D01*
X0119389Y0163658D02*
X0119389Y0160342D01*
X0119389Y0163658D02*
X0122705Y0163658D01*
X0122705Y0160342D01*
X0119389Y0160342D01*
X0119389Y0161762D02*
X0122705Y0161762D01*
X0122705Y0163182D02*
X0119389Y0163182D01*
X0126295Y0163658D02*
X0126295Y0160342D01*
X0126295Y0163658D02*
X0129611Y0163658D01*
X0129611Y0160342D01*
X0126295Y0160342D01*
X0126295Y0161762D02*
X0129611Y0161762D01*
X0129611Y0163182D02*
X0126295Y0163182D01*
X0126295Y0103658D02*
X0126295Y0100342D01*
X0126295Y0103658D02*
X0129611Y0103658D01*
X0129611Y0100342D01*
X0126295Y0100342D01*
X0126295Y0101762D02*
X0129611Y0101762D01*
X0129611Y0103182D02*
X0126295Y0103182D01*
X0119389Y0103658D02*
X0119389Y0100342D01*
X0119389Y0103658D02*
X0122705Y0103658D01*
X0122705Y0100342D01*
X0119389Y0100342D01*
X0119389Y0101762D02*
X0122705Y0101762D01*
X0122705Y0103182D02*
X0119389Y0103182D01*
D14*
X0060000Y0102118D03*
X0060000Y0099559D03*
X0060000Y0097000D03*
X0060000Y0094441D03*
X0060000Y0091882D03*
X0060000Y0151882D03*
X0060000Y0154441D03*
X0060000Y0157000D03*
X0060000Y0159559D03*
X0060000Y0162118D03*
X0060000Y0211882D03*
X0060000Y0214441D03*
X0060000Y0217000D03*
X0060000Y0219559D03*
X0060000Y0222118D03*
X0060000Y0271882D03*
X0060000Y0274441D03*
X0060000Y0277000D03*
X0060000Y0279559D03*
X0060000Y0282118D03*
X0060000Y0331882D03*
X0060000Y0334441D03*
X0060000Y0337000D03*
X0060000Y0339559D03*
X0060000Y0342118D03*
X0200000Y0342118D03*
X0200000Y0339559D03*
X0200000Y0337000D03*
X0200000Y0334441D03*
X0200000Y0331882D03*
X0200000Y0282118D03*
X0200000Y0279559D03*
X0200000Y0277000D03*
X0200000Y0274441D03*
X0200000Y0271882D03*
X0200000Y0222118D03*
X0200000Y0219559D03*
X0200000Y0217000D03*
X0200000Y0214441D03*
X0200000Y0211882D03*
X0200000Y0162118D03*
X0200000Y0159559D03*
X0200000Y0157000D03*
X0200000Y0154441D03*
X0200000Y0151882D03*
X0200000Y0102118D03*
X0200000Y0099559D03*
X0200000Y0097000D03*
X0200000Y0094441D03*
X0200000Y0091882D03*
X0340000Y0091882D03*
X0340000Y0094441D03*
X0340000Y0097000D03*
X0340000Y0099559D03*
X0340000Y0102118D03*
X0340000Y0151882D03*
X0340000Y0154441D03*
X0340000Y0157000D03*
X0340000Y0159559D03*
X0340000Y0162118D03*
X0340000Y0211882D03*
X0340000Y0214441D03*
X0340000Y0217000D03*
X0340000Y0219559D03*
X0340000Y0222118D03*
X0340000Y0271882D03*
X0340000Y0274441D03*
X0340000Y0277000D03*
X0340000Y0279559D03*
X0340000Y0282118D03*
X0340000Y0331882D03*
X0340000Y0334441D03*
X0340000Y0337000D03*
X0340000Y0339559D03*
X0340000Y0342118D03*
D15*
X0341083Y0348417D03*
X0341083Y0325583D03*
X0341083Y0288417D03*
X0341083Y0265583D03*
X0341083Y0228417D03*
X0341083Y0205583D03*
X0341083Y0168417D03*
X0341083Y0145583D03*
X0341083Y0108417D03*
X0341083Y0085583D03*
X0201083Y0085583D03*
X0201083Y0108417D03*
X0201083Y0145583D03*
X0201083Y0168417D03*
X0201083Y0205583D03*
X0201083Y0228417D03*
X0201083Y0265583D03*
X0201083Y0288417D03*
X0201083Y0325583D03*
X0201083Y0348417D03*
X0061083Y0348417D03*
X0061083Y0325583D03*
X0061083Y0288417D03*
X0061083Y0265583D03*
X0061083Y0228417D03*
X0061083Y0205583D03*
X0061083Y0168417D03*
X0061083Y0145583D03*
X0061083Y0108417D03*
X0061083Y0085583D03*
D16*
X0049469Y0093211D03*
X0049469Y0100789D03*
X0049469Y0153211D03*
X0049469Y0160789D03*
X0049469Y0213211D03*
X0049469Y0220789D03*
X0049469Y0273211D03*
X0049469Y0280789D03*
X0049469Y0333211D03*
X0049469Y0340789D03*
X0189469Y0340789D03*
X0189469Y0333211D03*
X0189469Y0280789D03*
X0189469Y0273211D03*
X0189469Y0220789D03*
X0189469Y0213211D03*
X0189469Y0160789D03*
X0189469Y0153211D03*
X0189469Y0100789D03*
X0189469Y0093211D03*
X0329469Y0093211D03*
X0329469Y0100789D03*
X0329469Y0153211D03*
X0329469Y0160789D03*
X0329469Y0213211D03*
X0329469Y0220789D03*
X0329469Y0273211D03*
X0329469Y0280789D03*
X0329469Y0333211D03*
X0329469Y0340789D03*
D17*
X0327303Y0344874D02*
X0326992Y0344865D01*
X0326686Y0344925D01*
X0326401Y0345052D01*
X0326152Y0345239D01*
X0325950Y0345477D01*
X0325807Y0345753D01*
X0325728Y0346055D01*
X0325728Y0348811D01*
X0325768Y0349161D01*
X0325884Y0349494D01*
X0326072Y0349793D01*
X0326321Y0350042D01*
X0326620Y0350230D01*
X0326953Y0350346D01*
X0327303Y0350386D01*
X0334390Y0350386D01*
X0334390Y0351961D01*
X0337539Y0351961D01*
X0337539Y0344874D01*
X0327303Y0344874D01*
X0326206Y0345198D02*
X0337539Y0345198D01*
X0337539Y0345597D02*
X0325888Y0345597D01*
X0325744Y0345995D02*
X0337539Y0345995D01*
X0337539Y0346394D02*
X0325728Y0346394D01*
X0325728Y0346792D02*
X0337539Y0346792D01*
X0337539Y0347191D02*
X0325728Y0347191D01*
X0325728Y0347589D02*
X0337539Y0347589D01*
X0337539Y0347988D02*
X0325728Y0347988D01*
X0325728Y0348386D02*
X0337539Y0348386D01*
X0337539Y0348785D02*
X0325728Y0348785D01*
X0325775Y0349183D02*
X0337539Y0349183D01*
X0337539Y0349582D02*
X0325939Y0349582D01*
X0326259Y0349980D02*
X0337539Y0349980D01*
X0337539Y0350379D02*
X0327240Y0350379D01*
X0334390Y0350777D02*
X0337539Y0350777D01*
X0337539Y0351176D02*
X0334390Y0351176D01*
X0334390Y0351574D02*
X0337539Y0351574D01*
X0337539Y0329126D02*
X0326909Y0329126D01*
X0326647Y0329096D01*
X0326397Y0329009D01*
X0326173Y0328868D01*
X0325986Y0328681D01*
X0325845Y0328457D01*
X0325758Y0328208D01*
X0325728Y0327945D01*
X0325728Y0324795D01*
X0325719Y0324484D01*
X0325779Y0324178D01*
X0325906Y0323893D01*
X0326093Y0323644D01*
X0326331Y0323442D01*
X0326608Y0323299D01*
X0326909Y0323220D01*
X0334390Y0323220D01*
X0334390Y0322039D01*
X0337539Y0322039D01*
X0337539Y0329126D01*
X0337539Y0328859D02*
X0326164Y0328859D01*
X0325847Y0328461D02*
X0337539Y0328461D01*
X0337539Y0328062D02*
X0325742Y0328062D01*
X0325728Y0327664D02*
X0337539Y0327664D01*
X0337539Y0327265D02*
X0325728Y0327265D01*
X0325728Y0326867D02*
X0337539Y0326867D01*
X0337539Y0326468D02*
X0325728Y0326468D01*
X0325728Y0326070D02*
X0337539Y0326070D01*
X0337539Y0325671D02*
X0325728Y0325671D01*
X0325728Y0325273D02*
X0337539Y0325273D01*
X0337539Y0324874D02*
X0325728Y0324874D01*
X0325721Y0324476D02*
X0337539Y0324476D01*
X0337539Y0324077D02*
X0325824Y0324077D01*
X0326067Y0323679D02*
X0337539Y0323679D01*
X0337539Y0323280D02*
X0326680Y0323280D01*
X0334390Y0322881D02*
X0337539Y0322881D01*
X0337539Y0322483D02*
X0334390Y0322483D01*
X0334390Y0322084D02*
X0337539Y0322084D01*
X0337539Y0291961D02*
X0334390Y0291961D01*
X0334390Y0290386D01*
X0327303Y0290386D01*
X0326953Y0290346D01*
X0326620Y0290230D01*
X0326321Y0290042D01*
X0326072Y0289793D01*
X0325884Y0289494D01*
X0325768Y0289161D01*
X0325728Y0288811D01*
X0325728Y0286055D01*
X0325807Y0285753D01*
X0325950Y0285477D01*
X0326152Y0285239D01*
X0326401Y0285052D01*
X0326686Y0284925D01*
X0326992Y0284865D01*
X0327303Y0284874D01*
X0337539Y0284874D01*
X0337539Y0291961D01*
X0337539Y0291798D02*
X0334390Y0291798D01*
X0334390Y0291399D02*
X0337539Y0291399D01*
X0337539Y0291001D02*
X0334390Y0291001D01*
X0334390Y0290602D02*
X0337539Y0290602D01*
X0337539Y0290204D02*
X0326578Y0290204D01*
X0326084Y0289805D02*
X0337539Y0289805D01*
X0337539Y0289407D02*
X0325854Y0289407D01*
X0325751Y0289008D02*
X0337539Y0289008D01*
X0337539Y0288610D02*
X0325728Y0288610D01*
X0325728Y0288211D02*
X0337539Y0288211D01*
X0337539Y0287812D02*
X0325728Y0287812D01*
X0325728Y0287414D02*
X0337539Y0287414D01*
X0337539Y0287015D02*
X0325728Y0287015D01*
X0325728Y0286617D02*
X0337539Y0286617D01*
X0337539Y0286218D02*
X0325728Y0286218D01*
X0325789Y0285820D02*
X0337539Y0285820D01*
X0337539Y0285421D02*
X0325997Y0285421D01*
X0326466Y0285023D02*
X0337539Y0285023D01*
X0337539Y0269126D02*
X0326909Y0269126D01*
X0326647Y0269096D01*
X0326397Y0269009D01*
X0326173Y0268868D01*
X0325986Y0268681D01*
X0325845Y0268457D01*
X0325758Y0268208D01*
X0325728Y0267945D01*
X0325728Y0264795D01*
X0325719Y0264484D01*
X0325779Y0264178D01*
X0325906Y0263893D01*
X0326093Y0263644D01*
X0326331Y0263442D01*
X0326608Y0263299D01*
X0326909Y0263220D01*
X0334390Y0263220D01*
X0334390Y0262039D01*
X0337539Y0262039D01*
X0337539Y0269126D01*
X0337539Y0269082D02*
X0326607Y0269082D01*
X0325989Y0268684D02*
X0337539Y0268684D01*
X0337539Y0268285D02*
X0325785Y0268285D01*
X0325728Y0267887D02*
X0337539Y0267887D01*
X0337539Y0267488D02*
X0325728Y0267488D01*
X0325728Y0267090D02*
X0337539Y0267090D01*
X0337539Y0266691D02*
X0325728Y0266691D01*
X0325728Y0266293D02*
X0337539Y0266293D01*
X0337539Y0265894D02*
X0325728Y0265894D01*
X0325728Y0265496D02*
X0337539Y0265496D01*
X0337539Y0265097D02*
X0325728Y0265097D01*
X0325725Y0264699D02*
X0337539Y0264699D01*
X0337539Y0264300D02*
X0325755Y0264300D01*
X0325902Y0263902D02*
X0337539Y0263902D01*
X0337539Y0263503D02*
X0326259Y0263503D01*
X0334390Y0263105D02*
X0337539Y0263105D01*
X0337539Y0262706D02*
X0334390Y0262706D01*
X0334390Y0262308D02*
X0337539Y0262308D01*
X0337539Y0231961D02*
X0334390Y0231961D01*
X0334390Y0230386D01*
X0327303Y0230386D01*
X0326953Y0230346D01*
X0326620Y0230230D01*
X0326321Y0230042D01*
X0326072Y0229793D01*
X0325884Y0229494D01*
X0325768Y0229161D01*
X0325728Y0228811D01*
X0325728Y0226055D01*
X0325807Y0225753D01*
X0325950Y0225477D01*
X0326152Y0225239D01*
X0326401Y0225052D01*
X0326686Y0224925D01*
X0326992Y0224865D01*
X0327303Y0224874D01*
X0337539Y0224874D01*
X0337539Y0231961D01*
X0337539Y0231622D02*
X0334390Y0231622D01*
X0334390Y0231224D02*
X0337539Y0231224D01*
X0337539Y0230825D02*
X0334390Y0230825D01*
X0334390Y0230427D02*
X0337539Y0230427D01*
X0337539Y0230028D02*
X0326307Y0230028D01*
X0325969Y0229630D02*
X0337539Y0229630D01*
X0337539Y0229231D02*
X0325792Y0229231D01*
X0325731Y0228833D02*
X0337539Y0228833D01*
X0337539Y0228434D02*
X0325728Y0228434D01*
X0325728Y0228036D02*
X0337539Y0228036D01*
X0337539Y0227637D02*
X0325728Y0227637D01*
X0325728Y0227239D02*
X0337539Y0227239D01*
X0337539Y0226840D02*
X0325728Y0226840D01*
X0325728Y0226442D02*
X0337539Y0226442D01*
X0337539Y0226043D02*
X0325731Y0226043D01*
X0325863Y0225645D02*
X0337539Y0225645D01*
X0337539Y0225246D02*
X0326146Y0225246D01*
X0326909Y0209126D02*
X0337539Y0209126D01*
X0337539Y0202039D01*
X0334390Y0202039D01*
X0334390Y0203220D01*
X0326909Y0203220D01*
X0326608Y0203299D01*
X0326331Y0203442D01*
X0326093Y0203644D01*
X0325906Y0203893D01*
X0325779Y0204178D01*
X0325719Y0204484D01*
X0325728Y0204795D01*
X0325728Y0207945D01*
X0325758Y0208208D01*
X0325845Y0208457D01*
X0325986Y0208681D01*
X0326173Y0208868D01*
X0326397Y0209009D01*
X0326647Y0209096D01*
X0326909Y0209126D01*
X0326235Y0208907D02*
X0337539Y0208907D01*
X0337539Y0208509D02*
X0325878Y0208509D01*
X0325747Y0208110D02*
X0337539Y0208110D01*
X0337539Y0207712D02*
X0325728Y0207712D01*
X0325728Y0207313D02*
X0337539Y0207313D01*
X0337539Y0206915D02*
X0325728Y0206915D01*
X0325728Y0206516D02*
X0337539Y0206516D01*
X0337539Y0206118D02*
X0325728Y0206118D01*
X0325728Y0205719D02*
X0337539Y0205719D01*
X0337539Y0205321D02*
X0325728Y0205321D01*
X0325728Y0204922D02*
X0337539Y0204922D01*
X0337539Y0204524D02*
X0325720Y0204524D01*
X0325803Y0204125D02*
X0337539Y0204125D01*
X0337539Y0203727D02*
X0326031Y0203727D01*
X0326551Y0203328D02*
X0337539Y0203328D01*
X0337539Y0202930D02*
X0334390Y0202930D01*
X0334390Y0202531D02*
X0337539Y0202531D01*
X0337539Y0202133D02*
X0334390Y0202133D01*
X0334390Y0171961D02*
X0337539Y0171961D01*
X0337539Y0164874D01*
X0327303Y0164874D01*
X0326992Y0164865D01*
X0326686Y0164925D01*
X0326401Y0165052D01*
X0326152Y0165239D01*
X0325950Y0165477D01*
X0325807Y0165753D01*
X0325728Y0166055D01*
X0325728Y0168811D01*
X0325768Y0169161D01*
X0325884Y0169494D01*
X0326072Y0169793D01*
X0326321Y0170042D01*
X0326620Y0170230D01*
X0326953Y0170346D01*
X0327303Y0170386D01*
X0334390Y0170386D01*
X0334390Y0171961D01*
X0334390Y0171846D02*
X0337539Y0171846D01*
X0337539Y0171447D02*
X0334390Y0171447D01*
X0334390Y0171049D02*
X0337539Y0171049D01*
X0337539Y0170650D02*
X0334390Y0170650D01*
X0337539Y0170252D02*
X0326682Y0170252D01*
X0326132Y0169853D02*
X0337539Y0169853D01*
X0337539Y0169455D02*
X0325870Y0169455D01*
X0325756Y0169056D02*
X0337539Y0169056D01*
X0337539Y0168658D02*
X0325728Y0168658D01*
X0325728Y0168259D02*
X0337539Y0168259D01*
X0337539Y0167861D02*
X0325728Y0167861D01*
X0325728Y0167462D02*
X0337539Y0167462D01*
X0337539Y0167064D02*
X0325728Y0167064D01*
X0325728Y0166665D02*
X0337539Y0166665D01*
X0337539Y0166267D02*
X0325728Y0166267D01*
X0325777Y0165868D02*
X0337539Y0165868D01*
X0337539Y0165470D02*
X0325956Y0165470D01*
X0326376Y0165071D02*
X0337539Y0165071D01*
X0337539Y0149126D02*
X0326909Y0149126D01*
X0326647Y0149096D01*
X0326397Y0149009D01*
X0326173Y0148868D01*
X0325986Y0148681D01*
X0325845Y0148457D01*
X0325758Y0148208D01*
X0325728Y0147945D01*
X0325728Y0144795D01*
X0325719Y0144484D01*
X0325779Y0144178D01*
X0325906Y0143893D01*
X0326093Y0143644D01*
X0326331Y0143442D01*
X0326608Y0143299D01*
X0326909Y0143220D01*
X0334390Y0143220D01*
X0334390Y0142039D01*
X0337539Y0142039D01*
X0337539Y0149126D01*
X0337539Y0148732D02*
X0326037Y0148732D01*
X0325802Y0148334D02*
X0337539Y0148334D01*
X0337539Y0147935D02*
X0325728Y0147935D01*
X0325728Y0147537D02*
X0337539Y0147537D01*
X0337539Y0147138D02*
X0325728Y0147138D01*
X0325728Y0146739D02*
X0337539Y0146739D01*
X0337539Y0146341D02*
X0325728Y0146341D01*
X0325728Y0145942D02*
X0337539Y0145942D01*
X0337539Y0145544D02*
X0325728Y0145544D01*
X0325728Y0145145D02*
X0337539Y0145145D01*
X0337539Y0144747D02*
X0325727Y0144747D01*
X0325746Y0144348D02*
X0337539Y0144348D01*
X0337539Y0143950D02*
X0325881Y0143950D01*
X0326202Y0143551D02*
X0337539Y0143551D01*
X0337539Y0143153D02*
X0334390Y0143153D01*
X0334390Y0142754D02*
X0337539Y0142754D01*
X0337539Y0142356D02*
X0334390Y0142356D01*
X0334390Y0111961D02*
X0337539Y0111961D01*
X0337539Y0104874D01*
X0327303Y0104874D01*
X0326992Y0104865D01*
X0326686Y0104925D01*
X0326401Y0105052D01*
X0326152Y0105239D01*
X0325950Y0105477D01*
X0325807Y0105753D01*
X0325728Y0106055D01*
X0325728Y0108811D01*
X0325768Y0109161D01*
X0325884Y0109494D01*
X0326072Y0109793D01*
X0326321Y0110042D01*
X0326620Y0110230D01*
X0326953Y0110346D01*
X0327303Y0110386D01*
X0334390Y0110386D01*
X0334390Y0111961D01*
X0334390Y0111670D02*
X0337539Y0111670D01*
X0337539Y0111272D02*
X0334390Y0111272D01*
X0334390Y0110873D02*
X0337539Y0110873D01*
X0337539Y0110475D02*
X0334390Y0110475D01*
X0337539Y0110076D02*
X0326376Y0110076D01*
X0326000Y0109678D02*
X0337539Y0109678D01*
X0337539Y0109279D02*
X0325809Y0109279D01*
X0325736Y0108881D02*
X0337539Y0108881D01*
X0337539Y0108482D02*
X0325728Y0108482D01*
X0325728Y0108084D02*
X0337539Y0108084D01*
X0337539Y0107685D02*
X0325728Y0107685D01*
X0325728Y0107287D02*
X0337539Y0107287D01*
X0337539Y0106888D02*
X0325728Y0106888D01*
X0325728Y0106490D02*
X0337539Y0106490D01*
X0337539Y0106091D02*
X0325728Y0106091D01*
X0325838Y0105693D02*
X0337539Y0105693D01*
X0337539Y0105294D02*
X0326105Y0105294D01*
X0326834Y0104896D02*
X0337539Y0104896D01*
X0337539Y0089126D02*
X0326909Y0089126D01*
X0326647Y0089096D01*
X0326397Y0089009D01*
X0326173Y0088868D01*
X0325986Y0088681D01*
X0325845Y0088457D01*
X0325758Y0088208D01*
X0325728Y0087945D01*
X0325728Y0084795D01*
X0325719Y0084484D01*
X0325779Y0084178D01*
X0325906Y0083893D01*
X0326093Y0083644D01*
X0326331Y0083442D01*
X0326608Y0083299D01*
X0326909Y0083220D01*
X0334390Y0083220D01*
X0334390Y0082039D01*
X0337539Y0082039D01*
X0337539Y0089126D01*
X0337539Y0088955D02*
X0326312Y0088955D01*
X0325908Y0088557D02*
X0337539Y0088557D01*
X0337539Y0088158D02*
X0325752Y0088158D01*
X0325728Y0087760D02*
X0337539Y0087760D01*
X0337539Y0087361D02*
X0325728Y0087361D01*
X0325728Y0086963D02*
X0337539Y0086963D01*
X0337539Y0086564D02*
X0325728Y0086564D01*
X0325728Y0086166D02*
X0337539Y0086166D01*
X0337539Y0085767D02*
X0325728Y0085767D01*
X0325728Y0085369D02*
X0337539Y0085369D01*
X0337539Y0084970D02*
X0325728Y0084970D01*
X0325722Y0084572D02*
X0337539Y0084572D01*
X0337539Y0084173D02*
X0325781Y0084173D01*
X0325995Y0083775D02*
X0337539Y0083775D01*
X0337539Y0083376D02*
X0326459Y0083376D01*
X0334390Y0082978D02*
X0337539Y0082978D01*
X0337539Y0082579D02*
X0334390Y0082579D01*
X0334390Y0082181D02*
X0337539Y0082181D01*
X0197539Y0082181D02*
X0194390Y0082181D01*
X0194390Y0082039D02*
X0194390Y0083220D01*
X0186909Y0083220D01*
X0186608Y0083299D01*
X0186331Y0083442D01*
X0186093Y0083644D01*
X0185906Y0083893D01*
X0185779Y0084178D01*
X0185719Y0084484D01*
X0185728Y0084795D01*
X0185728Y0087945D01*
X0185758Y0088208D01*
X0185845Y0088457D01*
X0185986Y0088681D01*
X0186173Y0088868D01*
X0186397Y0089009D01*
X0186647Y0089096D01*
X0186909Y0089126D01*
X0197539Y0089126D01*
X0197539Y0082039D01*
X0194390Y0082039D01*
X0194390Y0082579D02*
X0197539Y0082579D01*
X0197539Y0082978D02*
X0194390Y0082978D01*
X0197539Y0083376D02*
X0186459Y0083376D01*
X0185995Y0083775D02*
X0197539Y0083775D01*
X0197539Y0084173D02*
X0185781Y0084173D01*
X0185722Y0084572D02*
X0197539Y0084572D01*
X0197539Y0084970D02*
X0185728Y0084970D01*
X0185728Y0085369D02*
X0197539Y0085369D01*
X0197539Y0085767D02*
X0185728Y0085767D01*
X0185728Y0086166D02*
X0197539Y0086166D01*
X0197539Y0086564D02*
X0185728Y0086564D01*
X0185728Y0086963D02*
X0197539Y0086963D01*
X0197539Y0087361D02*
X0185728Y0087361D01*
X0185728Y0087760D02*
X0197539Y0087760D01*
X0197539Y0088158D02*
X0185752Y0088158D01*
X0185908Y0088557D02*
X0197539Y0088557D01*
X0197539Y0088955D02*
X0186312Y0088955D01*
X0186992Y0104865D02*
X0186686Y0104925D01*
X0186401Y0105052D01*
X0186152Y0105239D01*
X0185950Y0105477D01*
X0185807Y0105753D01*
X0185728Y0106055D01*
X0185728Y0108811D01*
X0185768Y0109161D01*
X0185884Y0109494D01*
X0186072Y0109793D01*
X0186321Y0110042D01*
X0186620Y0110230D01*
X0186953Y0110346D01*
X0187303Y0110386D01*
X0194390Y0110386D01*
X0194390Y0111961D01*
X0197539Y0111961D01*
X0197539Y0104874D01*
X0187303Y0104874D01*
X0186992Y0104865D01*
X0186834Y0104896D02*
X0197539Y0104896D01*
X0197539Y0105294D02*
X0186105Y0105294D01*
X0185838Y0105693D02*
X0197539Y0105693D01*
X0197539Y0106091D02*
X0185728Y0106091D01*
X0185728Y0106490D02*
X0197539Y0106490D01*
X0197539Y0106888D02*
X0185728Y0106888D01*
X0185728Y0107287D02*
X0197539Y0107287D01*
X0197539Y0107685D02*
X0185728Y0107685D01*
X0185728Y0108084D02*
X0197539Y0108084D01*
X0197539Y0108482D02*
X0185728Y0108482D01*
X0185736Y0108881D02*
X0197539Y0108881D01*
X0197539Y0109279D02*
X0185809Y0109279D01*
X0186000Y0109678D02*
X0197539Y0109678D01*
X0197539Y0110076D02*
X0186376Y0110076D01*
X0194390Y0110475D02*
X0197539Y0110475D01*
X0197539Y0110873D02*
X0194390Y0110873D01*
X0194390Y0111272D02*
X0197539Y0111272D01*
X0197539Y0111670D02*
X0194390Y0111670D01*
X0194390Y0142039D02*
X0194390Y0143220D01*
X0186909Y0143220D01*
X0186608Y0143299D01*
X0186331Y0143442D01*
X0186093Y0143644D01*
X0185906Y0143893D01*
X0185779Y0144178D01*
X0185719Y0144484D01*
X0185728Y0144795D01*
X0185728Y0147945D01*
X0185758Y0148208D01*
X0185845Y0148457D01*
X0185986Y0148681D01*
X0186173Y0148868D01*
X0186397Y0149009D01*
X0186647Y0149096D01*
X0186909Y0149126D01*
X0197539Y0149126D01*
X0197539Y0142039D01*
X0194390Y0142039D01*
X0194390Y0142356D02*
X0197539Y0142356D01*
X0197539Y0142754D02*
X0194390Y0142754D01*
X0194390Y0143153D02*
X0197539Y0143153D01*
X0197539Y0143551D02*
X0186202Y0143551D01*
X0185881Y0143950D02*
X0197539Y0143950D01*
X0197539Y0144348D02*
X0185746Y0144348D01*
X0185727Y0144747D02*
X0197539Y0144747D01*
X0197539Y0145145D02*
X0185728Y0145145D01*
X0185728Y0145544D02*
X0197539Y0145544D01*
X0197539Y0145942D02*
X0185728Y0145942D01*
X0185728Y0146341D02*
X0197539Y0146341D01*
X0197539Y0146739D02*
X0185728Y0146739D01*
X0185728Y0147138D02*
X0197539Y0147138D01*
X0197539Y0147537D02*
X0185728Y0147537D01*
X0185728Y0147935D02*
X0197539Y0147935D01*
X0197539Y0148334D02*
X0185802Y0148334D01*
X0186037Y0148732D02*
X0197539Y0148732D01*
X0197539Y0164874D02*
X0187303Y0164874D01*
X0186992Y0164865D01*
X0186686Y0164925D01*
X0186401Y0165052D01*
X0186152Y0165239D01*
X0185950Y0165477D01*
X0185807Y0165753D01*
X0185728Y0166055D01*
X0185728Y0168811D01*
X0185768Y0169161D01*
X0185884Y0169494D01*
X0186072Y0169793D01*
X0186321Y0170042D01*
X0186620Y0170230D01*
X0186953Y0170346D01*
X0187303Y0170386D01*
X0194390Y0170386D01*
X0194390Y0171961D01*
X0197539Y0171961D01*
X0197539Y0164874D01*
X0197539Y0165071D02*
X0186376Y0165071D01*
X0185956Y0165470D02*
X0197539Y0165470D01*
X0197539Y0165868D02*
X0185777Y0165868D01*
X0185728Y0166267D02*
X0197539Y0166267D01*
X0197539Y0166665D02*
X0185728Y0166665D01*
X0185728Y0167064D02*
X0197539Y0167064D01*
X0197539Y0167462D02*
X0185728Y0167462D01*
X0185728Y0167861D02*
X0197539Y0167861D01*
X0197539Y0168259D02*
X0185728Y0168259D01*
X0185728Y0168658D02*
X0197539Y0168658D01*
X0197539Y0169056D02*
X0185756Y0169056D01*
X0185870Y0169455D02*
X0197539Y0169455D01*
X0197539Y0169853D02*
X0186132Y0169853D01*
X0186682Y0170252D02*
X0197539Y0170252D01*
X0197539Y0170650D02*
X0194390Y0170650D01*
X0194390Y0171049D02*
X0197539Y0171049D01*
X0197539Y0171447D02*
X0194390Y0171447D01*
X0194390Y0171846D02*
X0197539Y0171846D01*
X0197539Y0202039D02*
X0194390Y0202039D01*
X0194390Y0203220D01*
X0186909Y0203220D01*
X0186608Y0203299D01*
X0186331Y0203442D01*
X0186093Y0203644D01*
X0185906Y0203893D01*
X0185779Y0204178D01*
X0185719Y0204484D01*
X0185728Y0204795D01*
X0185728Y0207945D01*
X0185758Y0208208D01*
X0185845Y0208457D01*
X0185986Y0208681D01*
X0186173Y0208868D01*
X0186397Y0209009D01*
X0186647Y0209096D01*
X0186909Y0209126D01*
X0197539Y0209126D01*
X0197539Y0202039D01*
X0197539Y0202133D02*
X0194390Y0202133D01*
X0194390Y0202531D02*
X0197539Y0202531D01*
X0197539Y0202930D02*
X0194390Y0202930D01*
X0197539Y0203328D02*
X0186551Y0203328D01*
X0186031Y0203727D02*
X0197539Y0203727D01*
X0197539Y0204125D02*
X0185803Y0204125D01*
X0185720Y0204524D02*
X0197539Y0204524D01*
X0197539Y0204922D02*
X0185728Y0204922D01*
X0185728Y0205321D02*
X0197539Y0205321D01*
X0197539Y0205719D02*
X0185728Y0205719D01*
X0185728Y0206118D02*
X0197539Y0206118D01*
X0197539Y0206516D02*
X0185728Y0206516D01*
X0185728Y0206915D02*
X0197539Y0206915D01*
X0197539Y0207313D02*
X0185728Y0207313D01*
X0185728Y0207712D02*
X0197539Y0207712D01*
X0197539Y0208110D02*
X0185747Y0208110D01*
X0185878Y0208509D02*
X0197539Y0208509D01*
X0197539Y0208907D02*
X0186235Y0208907D01*
X0186992Y0224865D02*
X0186686Y0224925D01*
X0186401Y0225052D01*
X0186152Y0225239D01*
X0185950Y0225477D01*
X0185807Y0225753D01*
X0185728Y0226055D01*
X0185728Y0228811D01*
X0185768Y0229161D01*
X0185884Y0229494D01*
X0186072Y0229793D01*
X0186321Y0230042D01*
X0186620Y0230230D01*
X0186953Y0230346D01*
X0187303Y0230386D01*
X0194390Y0230386D01*
X0194390Y0231961D01*
X0197539Y0231961D01*
X0197539Y0224874D01*
X0187303Y0224874D01*
X0186992Y0224865D01*
X0186146Y0225246D02*
X0197539Y0225246D01*
X0197539Y0225645D02*
X0185863Y0225645D01*
X0185731Y0226043D02*
X0197539Y0226043D01*
X0197539Y0226442D02*
X0185728Y0226442D01*
X0185728Y0226840D02*
X0197539Y0226840D01*
X0197539Y0227239D02*
X0185728Y0227239D01*
X0185728Y0227637D02*
X0197539Y0227637D01*
X0197539Y0228036D02*
X0185728Y0228036D01*
X0185728Y0228434D02*
X0197539Y0228434D01*
X0197539Y0228833D02*
X0185731Y0228833D01*
X0185792Y0229231D02*
X0197539Y0229231D01*
X0197539Y0229630D02*
X0185969Y0229630D01*
X0186307Y0230028D02*
X0197539Y0230028D01*
X0197539Y0230427D02*
X0194390Y0230427D01*
X0194390Y0230825D02*
X0197539Y0230825D01*
X0197539Y0231224D02*
X0194390Y0231224D01*
X0194390Y0231622D02*
X0197539Y0231622D01*
X0197539Y0262039D02*
X0194390Y0262039D01*
X0194390Y0263220D01*
X0186909Y0263220D01*
X0186608Y0263299D01*
X0186331Y0263442D01*
X0186093Y0263644D01*
X0185906Y0263893D01*
X0185779Y0264178D01*
X0185719Y0264484D01*
X0185728Y0264795D01*
X0185728Y0267945D01*
X0185758Y0268208D01*
X0185845Y0268457D01*
X0185986Y0268681D01*
X0186173Y0268868D01*
X0186397Y0269009D01*
X0186647Y0269096D01*
X0186909Y0269126D01*
X0197539Y0269126D01*
X0197539Y0262039D01*
X0197539Y0262308D02*
X0194390Y0262308D01*
X0194390Y0262706D02*
X0197539Y0262706D01*
X0197539Y0263105D02*
X0194390Y0263105D01*
X0197539Y0263503D02*
X0186259Y0263503D01*
X0185902Y0263902D02*
X0197539Y0263902D01*
X0197539Y0264300D02*
X0185755Y0264300D01*
X0185725Y0264699D02*
X0197539Y0264699D01*
X0197539Y0265097D02*
X0185728Y0265097D01*
X0185728Y0265496D02*
X0197539Y0265496D01*
X0197539Y0265894D02*
X0185728Y0265894D01*
X0185728Y0266293D02*
X0197539Y0266293D01*
X0197539Y0266691D02*
X0185728Y0266691D01*
X0185728Y0267090D02*
X0197539Y0267090D01*
X0197539Y0267488D02*
X0185728Y0267488D01*
X0185728Y0267887D02*
X0197539Y0267887D01*
X0197539Y0268285D02*
X0185785Y0268285D01*
X0185989Y0268684D02*
X0197539Y0268684D01*
X0197539Y0269082D02*
X0186607Y0269082D01*
X0186992Y0284865D02*
X0186686Y0284925D01*
X0186401Y0285052D01*
X0186152Y0285239D01*
X0185950Y0285477D01*
X0185807Y0285753D01*
X0185728Y0286055D01*
X0185728Y0288811D01*
X0185768Y0289161D01*
X0185884Y0289494D01*
X0186072Y0289793D01*
X0186321Y0290042D01*
X0186620Y0290230D01*
X0186953Y0290346D01*
X0187303Y0290386D01*
X0194390Y0290386D01*
X0194390Y0291961D01*
X0197539Y0291961D01*
X0197539Y0284874D01*
X0187303Y0284874D01*
X0186992Y0284865D01*
X0186466Y0285023D02*
X0197539Y0285023D01*
X0197539Y0285421D02*
X0185997Y0285421D01*
X0185789Y0285820D02*
X0197539Y0285820D01*
X0197539Y0286218D02*
X0185728Y0286218D01*
X0185728Y0286617D02*
X0197539Y0286617D01*
X0197539Y0287015D02*
X0185728Y0287015D01*
X0185728Y0287414D02*
X0197539Y0287414D01*
X0197539Y0287812D02*
X0185728Y0287812D01*
X0185728Y0288211D02*
X0197539Y0288211D01*
X0197539Y0288610D02*
X0185728Y0288610D01*
X0185751Y0289008D02*
X0197539Y0289008D01*
X0197539Y0289407D02*
X0185854Y0289407D01*
X0186084Y0289805D02*
X0197539Y0289805D01*
X0197539Y0290204D02*
X0186578Y0290204D01*
X0194390Y0290602D02*
X0197539Y0290602D01*
X0197539Y0291001D02*
X0194390Y0291001D01*
X0194390Y0291399D02*
X0197539Y0291399D01*
X0197539Y0291798D02*
X0194390Y0291798D01*
X0194390Y0322039D02*
X0194390Y0323220D01*
X0186909Y0323220D01*
X0186608Y0323299D01*
X0186331Y0323442D01*
X0186093Y0323644D01*
X0185906Y0323893D01*
X0185779Y0324178D01*
X0185719Y0324484D01*
X0185728Y0324795D01*
X0185728Y0327945D01*
X0185758Y0328208D01*
X0185845Y0328457D01*
X0185986Y0328681D01*
X0186173Y0328868D01*
X0186397Y0329009D01*
X0186647Y0329096D01*
X0186909Y0329126D01*
X0197539Y0329126D01*
X0197539Y0322039D01*
X0194390Y0322039D01*
X0194390Y0322084D02*
X0197539Y0322084D01*
X0197539Y0322483D02*
X0194390Y0322483D01*
X0194390Y0322881D02*
X0197539Y0322881D01*
X0197539Y0323280D02*
X0186680Y0323280D01*
X0186067Y0323679D02*
X0197539Y0323679D01*
X0197539Y0324077D02*
X0185824Y0324077D01*
X0185721Y0324476D02*
X0197539Y0324476D01*
X0197539Y0324874D02*
X0185728Y0324874D01*
X0185728Y0325273D02*
X0197539Y0325273D01*
X0197539Y0325671D02*
X0185728Y0325671D01*
X0185728Y0326070D02*
X0197539Y0326070D01*
X0197539Y0326468D02*
X0185728Y0326468D01*
X0185728Y0326867D02*
X0197539Y0326867D01*
X0197539Y0327265D02*
X0185728Y0327265D01*
X0185728Y0327664D02*
X0197539Y0327664D01*
X0197539Y0328062D02*
X0185742Y0328062D01*
X0185847Y0328461D02*
X0197539Y0328461D01*
X0197539Y0328859D02*
X0186164Y0328859D01*
X0186992Y0344865D02*
X0186686Y0344925D01*
X0186401Y0345052D01*
X0186152Y0345239D01*
X0185950Y0345477D01*
X0185807Y0345753D01*
X0185728Y0346055D01*
X0185728Y0348811D01*
X0185768Y0349161D01*
X0185884Y0349494D01*
X0186072Y0349793D01*
X0186321Y0350042D01*
X0186620Y0350230D01*
X0186953Y0350346D01*
X0187303Y0350386D01*
X0194390Y0350386D01*
X0194390Y0351961D01*
X0197539Y0351961D01*
X0197539Y0344874D01*
X0187303Y0344874D01*
X0186992Y0344865D01*
X0186206Y0345198D02*
X0197539Y0345198D01*
X0197539Y0345597D02*
X0185888Y0345597D01*
X0185744Y0345995D02*
X0197539Y0345995D01*
X0197539Y0346394D02*
X0185728Y0346394D01*
X0185728Y0346792D02*
X0197539Y0346792D01*
X0197539Y0347191D02*
X0185728Y0347191D01*
X0185728Y0347589D02*
X0197539Y0347589D01*
X0197539Y0347988D02*
X0185728Y0347988D01*
X0185728Y0348386D02*
X0197539Y0348386D01*
X0197539Y0348785D02*
X0185728Y0348785D01*
X0185775Y0349183D02*
X0197539Y0349183D01*
X0197539Y0349582D02*
X0185939Y0349582D01*
X0186259Y0349980D02*
X0197539Y0349980D01*
X0197539Y0350379D02*
X0187240Y0350379D01*
X0194390Y0350777D02*
X0197539Y0350777D01*
X0197539Y0351176D02*
X0194390Y0351176D01*
X0194390Y0351574D02*
X0197539Y0351574D01*
X0057539Y0351574D02*
X0054390Y0351574D01*
X0054390Y0351961D02*
X0057539Y0351961D01*
X0057539Y0344874D01*
X0047303Y0344874D01*
X0046992Y0344865D01*
X0046686Y0344925D01*
X0046401Y0345052D01*
X0046152Y0345239D01*
X0045950Y0345477D01*
X0045807Y0345753D01*
X0045728Y0346055D01*
X0045728Y0348811D01*
X0045768Y0349161D01*
X0045884Y0349494D01*
X0046072Y0349793D01*
X0046321Y0350042D01*
X0046620Y0350230D01*
X0046953Y0350346D01*
X0047303Y0350386D01*
X0054390Y0350386D01*
X0054390Y0351961D01*
X0054390Y0351176D02*
X0057539Y0351176D01*
X0057539Y0350777D02*
X0054390Y0350777D01*
X0057539Y0350379D02*
X0047240Y0350379D01*
X0046259Y0349980D02*
X0057539Y0349980D01*
X0057539Y0349582D02*
X0045939Y0349582D01*
X0045775Y0349183D02*
X0057539Y0349183D01*
X0057539Y0348785D02*
X0045728Y0348785D01*
X0045728Y0348386D02*
X0057539Y0348386D01*
X0057539Y0347988D02*
X0045728Y0347988D01*
X0045728Y0347589D02*
X0057539Y0347589D01*
X0057539Y0347191D02*
X0045728Y0347191D01*
X0045728Y0346792D02*
X0057539Y0346792D01*
X0057539Y0346394D02*
X0045728Y0346394D01*
X0045744Y0345995D02*
X0057539Y0345995D01*
X0057539Y0345597D02*
X0045888Y0345597D01*
X0046206Y0345198D02*
X0057539Y0345198D01*
X0057539Y0329126D02*
X0046909Y0329126D01*
X0046647Y0329096D01*
X0046397Y0329009D01*
X0046173Y0328868D01*
X0045986Y0328681D01*
X0045845Y0328457D01*
X0045758Y0328208D01*
X0045728Y0327945D01*
X0045728Y0324795D01*
X0045719Y0324484D01*
X0045779Y0324178D01*
X0045906Y0323893D01*
X0046093Y0323644D01*
X0046331Y0323442D01*
X0046608Y0323299D01*
X0046909Y0323220D01*
X0054390Y0323220D01*
X0054390Y0322039D01*
X0057539Y0322039D01*
X0057539Y0329126D01*
X0057539Y0328859D02*
X0046164Y0328859D01*
X0045847Y0328461D02*
X0057539Y0328461D01*
X0057539Y0328062D02*
X0045742Y0328062D01*
X0045728Y0327664D02*
X0057539Y0327664D01*
X0057539Y0327265D02*
X0045728Y0327265D01*
X0045728Y0326867D02*
X0057539Y0326867D01*
X0057539Y0326468D02*
X0045728Y0326468D01*
X0045728Y0326070D02*
X0057539Y0326070D01*
X0057539Y0325671D02*
X0045728Y0325671D01*
X0045728Y0325273D02*
X0057539Y0325273D01*
X0057539Y0324874D02*
X0045728Y0324874D01*
X0045721Y0324476D02*
X0057539Y0324476D01*
X0057539Y0324077D02*
X0045824Y0324077D01*
X0046067Y0323679D02*
X0057539Y0323679D01*
X0057539Y0323280D02*
X0046680Y0323280D01*
X0054390Y0322881D02*
X0057539Y0322881D01*
X0057539Y0322483D02*
X0054390Y0322483D01*
X0054390Y0322084D02*
X0057539Y0322084D01*
X0057539Y0291961D02*
X0054390Y0291961D01*
X0054390Y0290386D01*
X0047303Y0290386D01*
X0046953Y0290346D01*
X0046620Y0290230D01*
X0046321Y0290042D01*
X0046072Y0289793D01*
X0045884Y0289494D01*
X0045768Y0289161D01*
X0045728Y0288811D01*
X0045728Y0286055D01*
X0045807Y0285753D01*
X0045950Y0285477D01*
X0046152Y0285239D01*
X0046401Y0285052D01*
X0046686Y0284925D01*
X0046992Y0284865D01*
X0047303Y0284874D01*
X0057539Y0284874D01*
X0057539Y0291961D01*
X0057539Y0291798D02*
X0054390Y0291798D01*
X0054390Y0291399D02*
X0057539Y0291399D01*
X0057539Y0291001D02*
X0054390Y0291001D01*
X0054390Y0290602D02*
X0057539Y0290602D01*
X0057539Y0290204D02*
X0046578Y0290204D01*
X0046084Y0289805D02*
X0057539Y0289805D01*
X0057539Y0289407D02*
X0045854Y0289407D01*
X0045751Y0289008D02*
X0057539Y0289008D01*
X0057539Y0288610D02*
X0045728Y0288610D01*
X0045728Y0288211D02*
X0057539Y0288211D01*
X0057539Y0287812D02*
X0045728Y0287812D01*
X0045728Y0287414D02*
X0057539Y0287414D01*
X0057539Y0287015D02*
X0045728Y0287015D01*
X0045728Y0286617D02*
X0057539Y0286617D01*
X0057539Y0286218D02*
X0045728Y0286218D01*
X0045789Y0285820D02*
X0057539Y0285820D01*
X0057539Y0285421D02*
X0045997Y0285421D01*
X0046466Y0285023D02*
X0057539Y0285023D01*
X0057539Y0269126D02*
X0046909Y0269126D01*
X0046647Y0269096D01*
X0046397Y0269009D01*
X0046173Y0268868D01*
X0045986Y0268681D01*
X0045845Y0268457D01*
X0045758Y0268208D01*
X0045728Y0267945D01*
X0045728Y0264795D01*
X0045719Y0264484D01*
X0045779Y0264178D01*
X0045906Y0263893D01*
X0046093Y0263644D01*
X0046331Y0263442D01*
X0046608Y0263299D01*
X0046909Y0263220D01*
X0054390Y0263220D01*
X0054390Y0262039D01*
X0057539Y0262039D01*
X0057539Y0269126D01*
X0057539Y0269082D02*
X0046607Y0269082D01*
X0045989Y0268684D02*
X0057539Y0268684D01*
X0057539Y0268285D02*
X0045785Y0268285D01*
X0045728Y0267887D02*
X0057539Y0267887D01*
X0057539Y0267488D02*
X0045728Y0267488D01*
X0045728Y0267090D02*
X0057539Y0267090D01*
X0057539Y0266691D02*
X0045728Y0266691D01*
X0045728Y0266293D02*
X0057539Y0266293D01*
X0057539Y0265894D02*
X0045728Y0265894D01*
X0045728Y0265496D02*
X0057539Y0265496D01*
X0057539Y0265097D02*
X0045728Y0265097D01*
X0045725Y0264699D02*
X0057539Y0264699D01*
X0057539Y0264300D02*
X0045755Y0264300D01*
X0045902Y0263902D02*
X0057539Y0263902D01*
X0057539Y0263503D02*
X0046259Y0263503D01*
X0054390Y0263105D02*
X0057539Y0263105D01*
X0057539Y0262706D02*
X0054390Y0262706D01*
X0054390Y0262308D02*
X0057539Y0262308D01*
X0057539Y0231961D02*
X0054390Y0231961D01*
X0054390Y0230386D01*
X0047303Y0230386D01*
X0046953Y0230346D01*
X0046620Y0230230D01*
X0046321Y0230042D01*
X0046072Y0229793D01*
X0045884Y0229494D01*
X0045768Y0229161D01*
X0045728Y0228811D01*
X0045728Y0226055D01*
X0045807Y0225753D01*
X0045950Y0225477D01*
X0046152Y0225239D01*
X0046401Y0225052D01*
X0046686Y0224925D01*
X0046992Y0224865D01*
X0047303Y0224874D01*
X0057539Y0224874D01*
X0057539Y0231961D01*
X0057539Y0231622D02*
X0054390Y0231622D01*
X0054390Y0231224D02*
X0057539Y0231224D01*
X0057539Y0230825D02*
X0054390Y0230825D01*
X0054390Y0230427D02*
X0057539Y0230427D01*
X0057539Y0230028D02*
X0046307Y0230028D01*
X0045969Y0229630D02*
X0057539Y0229630D01*
X0057539Y0229231D02*
X0045792Y0229231D01*
X0045731Y0228833D02*
X0057539Y0228833D01*
X0057539Y0228434D02*
X0045728Y0228434D01*
X0045728Y0228036D02*
X0057539Y0228036D01*
X0057539Y0227637D02*
X0045728Y0227637D01*
X0045728Y0227239D02*
X0057539Y0227239D01*
X0057539Y0226840D02*
X0045728Y0226840D01*
X0045728Y0226442D02*
X0057539Y0226442D01*
X0057539Y0226043D02*
X0045731Y0226043D01*
X0045863Y0225645D02*
X0057539Y0225645D01*
X0057539Y0225246D02*
X0046146Y0225246D01*
X0046909Y0209126D02*
X0057539Y0209126D01*
X0057539Y0202039D01*
X0054390Y0202039D01*
X0054390Y0203220D01*
X0046909Y0203220D01*
X0046608Y0203299D01*
X0046331Y0203442D01*
X0046093Y0203644D01*
X0045906Y0203893D01*
X0045779Y0204178D01*
X0045719Y0204484D01*
X0045728Y0204795D01*
X0045728Y0207945D01*
X0045758Y0208208D01*
X0045845Y0208457D01*
X0045986Y0208681D01*
X0046173Y0208868D01*
X0046397Y0209009D01*
X0046647Y0209096D01*
X0046909Y0209126D01*
X0046235Y0208907D02*
X0057539Y0208907D01*
X0057539Y0208509D02*
X0045878Y0208509D01*
X0045747Y0208110D02*
X0057539Y0208110D01*
X0057539Y0207712D02*
X0045728Y0207712D01*
X0045728Y0207313D02*
X0057539Y0207313D01*
X0057539Y0206915D02*
X0045728Y0206915D01*
X0045728Y0206516D02*
X0057539Y0206516D01*
X0057539Y0206118D02*
X0045728Y0206118D01*
X0045728Y0205719D02*
X0057539Y0205719D01*
X0057539Y0205321D02*
X0045728Y0205321D01*
X0045728Y0204922D02*
X0057539Y0204922D01*
X0057539Y0204524D02*
X0045720Y0204524D01*
X0045803Y0204125D02*
X0057539Y0204125D01*
X0057539Y0203727D02*
X0046031Y0203727D01*
X0046551Y0203328D02*
X0057539Y0203328D01*
X0057539Y0202930D02*
X0054390Y0202930D01*
X0054390Y0202531D02*
X0057539Y0202531D01*
X0057539Y0202133D02*
X0054390Y0202133D01*
X0054390Y0171961D02*
X0057539Y0171961D01*
X0057539Y0164874D01*
X0047303Y0164874D01*
X0046992Y0164865D01*
X0046686Y0164925D01*
X0046401Y0165052D01*
X0046152Y0165239D01*
X0045950Y0165477D01*
X0045807Y0165753D01*
X0045728Y0166055D01*
X0045728Y0168811D01*
X0045768Y0169161D01*
X0045884Y0169494D01*
X0046072Y0169793D01*
X0046321Y0170042D01*
X0046620Y0170230D01*
X0046953Y0170346D01*
X0047303Y0170386D01*
X0054390Y0170386D01*
X0054390Y0171961D01*
X0054390Y0171846D02*
X0057539Y0171846D01*
X0057539Y0171447D02*
X0054390Y0171447D01*
X0054390Y0171049D02*
X0057539Y0171049D01*
X0057539Y0170650D02*
X0054390Y0170650D01*
X0057539Y0170252D02*
X0046682Y0170252D01*
X0046132Y0169853D02*
X0057539Y0169853D01*
X0057539Y0169455D02*
X0045870Y0169455D01*
X0045756Y0169056D02*
X0057539Y0169056D01*
X0057539Y0168658D02*
X0045728Y0168658D01*
X0045728Y0168259D02*
X0057539Y0168259D01*
X0057539Y0167861D02*
X0045728Y0167861D01*
X0045728Y0167462D02*
X0057539Y0167462D01*
X0057539Y0167064D02*
X0045728Y0167064D01*
X0045728Y0166665D02*
X0057539Y0166665D01*
X0057539Y0166267D02*
X0045728Y0166267D01*
X0045777Y0165868D02*
X0057539Y0165868D01*
X0057539Y0165470D02*
X0045956Y0165470D01*
X0046376Y0165071D02*
X0057539Y0165071D01*
X0057539Y0149126D02*
X0046909Y0149126D01*
X0046647Y0149096D01*
X0046397Y0149009D01*
X0046173Y0148868D01*
X0045986Y0148681D01*
X0045845Y0148457D01*
X0045758Y0148208D01*
X0045728Y0147945D01*
X0045728Y0144795D01*
X0045719Y0144484D01*
X0045779Y0144178D01*
X0045906Y0143893D01*
X0046093Y0143644D01*
X0046331Y0143442D01*
X0046608Y0143299D01*
X0046909Y0143220D01*
X0054390Y0143220D01*
X0054390Y0142039D01*
X0057539Y0142039D01*
X0057539Y0149126D01*
X0057539Y0148732D02*
X0046037Y0148732D01*
X0045802Y0148334D02*
X0057539Y0148334D01*
X0057539Y0147935D02*
X0045728Y0147935D01*
X0045728Y0147537D02*
X0057539Y0147537D01*
X0057539Y0147138D02*
X0045728Y0147138D01*
X0045728Y0146739D02*
X0057539Y0146739D01*
X0057539Y0146341D02*
X0045728Y0146341D01*
X0045728Y0145942D02*
X0057539Y0145942D01*
X0057539Y0145544D02*
X0045728Y0145544D01*
X0045728Y0145145D02*
X0057539Y0145145D01*
X0057539Y0144747D02*
X0045727Y0144747D01*
X0045746Y0144348D02*
X0057539Y0144348D01*
X0057539Y0143950D02*
X0045881Y0143950D01*
X0046202Y0143551D02*
X0057539Y0143551D01*
X0057539Y0143153D02*
X0054390Y0143153D01*
X0054390Y0142754D02*
X0057539Y0142754D01*
X0057539Y0142356D02*
X0054390Y0142356D01*
X0054390Y0111961D02*
X0057539Y0111961D01*
X0057539Y0104874D01*
X0047303Y0104874D01*
X0046992Y0104865D01*
X0046686Y0104925D01*
X0046401Y0105052D01*
X0046152Y0105239D01*
X0045950Y0105477D01*
X0045807Y0105753D01*
X0045728Y0106055D01*
X0045728Y0108811D01*
X0045768Y0109161D01*
X0045884Y0109494D01*
X0046072Y0109793D01*
X0046321Y0110042D01*
X0046620Y0110230D01*
X0046953Y0110346D01*
X0047303Y0110386D01*
X0054390Y0110386D01*
X0054390Y0111961D01*
X0054390Y0111670D02*
X0057539Y0111670D01*
X0057539Y0111272D02*
X0054390Y0111272D01*
X0054390Y0110873D02*
X0057539Y0110873D01*
X0057539Y0110475D02*
X0054390Y0110475D01*
X0057539Y0110076D02*
X0046376Y0110076D01*
X0046000Y0109678D02*
X0057539Y0109678D01*
X0057539Y0109279D02*
X0045809Y0109279D01*
X0045736Y0108881D02*
X0057539Y0108881D01*
X0057539Y0108482D02*
X0045728Y0108482D01*
X0045728Y0108084D02*
X0057539Y0108084D01*
X0057539Y0107685D02*
X0045728Y0107685D01*
X0045728Y0107287D02*
X0057539Y0107287D01*
X0057539Y0106888D02*
X0045728Y0106888D01*
X0045728Y0106490D02*
X0057539Y0106490D01*
X0057539Y0106091D02*
X0045728Y0106091D01*
X0045838Y0105693D02*
X0057539Y0105693D01*
X0057539Y0105294D02*
X0046105Y0105294D01*
X0046834Y0104896D02*
X0057539Y0104896D01*
X0057539Y0089126D02*
X0046909Y0089126D01*
X0046647Y0089096D01*
X0046397Y0089009D01*
X0046173Y0088868D01*
X0045986Y0088681D01*
X0045845Y0088457D01*
X0045758Y0088208D01*
X0045728Y0087945D01*
X0045728Y0084795D01*
X0045719Y0084484D01*
X0045779Y0084178D01*
X0045906Y0083893D01*
X0046093Y0083644D01*
X0046331Y0083442D01*
X0046608Y0083299D01*
X0046909Y0083220D01*
X0054390Y0083220D01*
X0054390Y0082039D01*
X0057539Y0082039D01*
X0057539Y0089126D01*
X0057539Y0088955D02*
X0046312Y0088955D01*
X0045908Y0088557D02*
X0057539Y0088557D01*
X0057539Y0088158D02*
X0045752Y0088158D01*
X0045728Y0087760D02*
X0057539Y0087760D01*
X0057539Y0087361D02*
X0045728Y0087361D01*
X0045728Y0086963D02*
X0057539Y0086963D01*
X0057539Y0086564D02*
X0045728Y0086564D01*
X0045728Y0086166D02*
X0057539Y0086166D01*
X0057539Y0085767D02*
X0045728Y0085767D01*
X0045728Y0085369D02*
X0057539Y0085369D01*
X0057539Y0084970D02*
X0045728Y0084970D01*
X0045722Y0084572D02*
X0057539Y0084572D01*
X0057539Y0084173D02*
X0045781Y0084173D01*
X0045995Y0083775D02*
X0057539Y0083775D01*
X0057539Y0083376D02*
X0046459Y0083376D01*
X0054390Y0082978D02*
X0057539Y0082978D01*
X0057539Y0082579D02*
X0054390Y0082579D01*
X0054390Y0082181D02*
X0057539Y0082181D01*
D18*
X0074500Y0077000D03*
X0084500Y0077000D03*
X0094500Y0077000D03*
X0104500Y0077000D03*
X0114500Y0077000D03*
X0124500Y0077000D03*
X0124500Y0117000D03*
X0114500Y0117000D03*
X0104500Y0117000D03*
X0094500Y0117000D03*
X0084500Y0117000D03*
X0074500Y0117000D03*
X0074500Y0137000D03*
X0084500Y0137000D03*
X0094500Y0137000D03*
X0104500Y0137000D03*
X0114500Y0137000D03*
X0124500Y0137000D03*
X0124500Y0177000D03*
X0114500Y0177000D03*
X0104500Y0177000D03*
X0094500Y0177000D03*
X0084500Y0177000D03*
X0074500Y0177000D03*
X0074500Y0197000D03*
X0084500Y0197000D03*
X0094500Y0197000D03*
X0104500Y0197000D03*
X0114500Y0197000D03*
X0124500Y0197000D03*
X0124500Y0237000D03*
X0114500Y0237000D03*
X0104500Y0237000D03*
X0094500Y0237000D03*
X0084500Y0237000D03*
X0074500Y0237000D03*
X0074500Y0257000D03*
X0084500Y0257000D03*
X0094500Y0257000D03*
X0104500Y0257000D03*
X0114500Y0257000D03*
X0124500Y0257000D03*
X0124500Y0297000D03*
X0114500Y0297000D03*
X0104500Y0297000D03*
X0094500Y0297000D03*
X0084500Y0297000D03*
X0074500Y0297000D03*
X0074500Y0317000D03*
X0084500Y0317000D03*
X0094500Y0317000D03*
X0104500Y0317000D03*
X0114500Y0317000D03*
X0124500Y0317000D03*
X0124500Y0357000D03*
X0114500Y0357000D03*
X0104500Y0357000D03*
X0094500Y0357000D03*
X0084500Y0357000D03*
X0074500Y0357000D03*
X0214500Y0357000D03*
X0224500Y0357000D03*
X0234500Y0357000D03*
X0244500Y0357000D03*
X0254500Y0357000D03*
X0264500Y0357000D03*
X0264500Y0317000D03*
X0254500Y0317000D03*
X0244500Y0317000D03*
X0234500Y0317000D03*
X0224500Y0317000D03*
X0214500Y0317000D03*
X0214500Y0297000D03*
X0224500Y0297000D03*
X0234500Y0297000D03*
X0244500Y0297000D03*
X0254500Y0297000D03*
X0264500Y0297000D03*
X0264500Y0257000D03*
X0254500Y0257000D03*
X0244500Y0257000D03*
X0234500Y0257000D03*
X0224500Y0257000D03*
X0214500Y0257000D03*
X0214500Y0237000D03*
X0224500Y0237000D03*
X0234500Y0237000D03*
X0244500Y0237000D03*
X0254500Y0237000D03*
X0264500Y0237000D03*
X0264500Y0197000D03*
X0254500Y0197000D03*
X0244500Y0197000D03*
X0234500Y0197000D03*
X0224500Y0197000D03*
X0214500Y0197000D03*
X0214500Y0177000D03*
X0224500Y0177000D03*
X0234500Y0177000D03*
X0244500Y0177000D03*
X0254500Y0177000D03*
X0264500Y0177000D03*
X0264500Y0137000D03*
X0254500Y0137000D03*
X0244500Y0137000D03*
X0234500Y0137000D03*
X0224500Y0137000D03*
X0214500Y0137000D03*
X0214500Y0117000D03*
X0224500Y0117000D03*
X0234500Y0117000D03*
X0244500Y0117000D03*
X0254500Y0117000D03*
X0264500Y0117000D03*
X0264500Y0077000D03*
X0254500Y0077000D03*
X0244500Y0077000D03*
X0234500Y0077000D03*
X0224500Y0077000D03*
X0214500Y0077000D03*
X0354500Y0077000D03*
X0364500Y0077000D03*
X0374500Y0077000D03*
X0384500Y0077000D03*
X0394500Y0077000D03*
X0404500Y0077000D03*
X0404500Y0117000D03*
X0394500Y0117000D03*
X0384500Y0117000D03*
X0374500Y0117000D03*
X0364500Y0117000D03*
X0354500Y0117000D03*
X0354500Y0137000D03*
X0364500Y0137000D03*
X0374500Y0137000D03*
X0384500Y0137000D03*
X0394500Y0137000D03*
X0404500Y0137000D03*
X0404500Y0177000D03*
X0394500Y0177000D03*
X0384500Y0177000D03*
X0374500Y0177000D03*
X0364500Y0177000D03*
X0354500Y0177000D03*
X0354500Y0197000D03*
X0364500Y0197000D03*
X0374500Y0197000D03*
X0384500Y0197000D03*
X0394500Y0197000D03*
X0404500Y0197000D03*
X0404500Y0237000D03*
X0394500Y0237000D03*
X0384500Y0237000D03*
X0374500Y0237000D03*
X0364500Y0237000D03*
X0354500Y0237000D03*
X0354500Y0257000D03*
X0364500Y0257000D03*
X0374500Y0257000D03*
X0384500Y0257000D03*
X0394500Y0257000D03*
X0404500Y0257000D03*
X0404500Y0297000D03*
X0394500Y0297000D03*
X0384500Y0297000D03*
X0374500Y0297000D03*
X0364500Y0297000D03*
X0354500Y0297000D03*
X0354500Y0317000D03*
X0364500Y0317000D03*
X0374500Y0317000D03*
X0384500Y0317000D03*
X0394500Y0317000D03*
X0404500Y0317000D03*
X0404500Y0357000D03*
X0394500Y0357000D03*
X0384500Y0357000D03*
X0374500Y0357000D03*
X0364500Y0357000D03*
X0354500Y0357000D03*
D19*
X0366500Y0347346D03*
X0366500Y0340654D03*
X0367000Y0333346D03*
X0367000Y0326654D03*
X0366500Y0287346D03*
X0366500Y0280654D03*
X0367000Y0273346D03*
X0367000Y0266654D03*
X0366500Y0227346D03*
X0366500Y0220654D03*
X0367000Y0213346D03*
X0367000Y0206654D03*
X0366500Y0167346D03*
X0366500Y0160654D03*
X0367000Y0153346D03*
X0367000Y0146654D03*
X0366500Y0107346D03*
X0366500Y0100654D03*
X0367000Y0093346D03*
X0367000Y0086654D03*
X0227000Y0086654D03*
X0227000Y0093346D03*
X0226500Y0100654D03*
X0226500Y0107346D03*
X0227000Y0146654D03*
X0227000Y0153346D03*
X0226500Y0160654D03*
X0226500Y0167346D03*
X0227000Y0206654D03*
X0227000Y0213346D03*
X0226500Y0220654D03*
X0226500Y0227346D03*
X0227000Y0266654D03*
X0227000Y0273346D03*
X0226500Y0280654D03*
X0226500Y0287346D03*
X0227000Y0326654D03*
X0227000Y0333346D03*
X0226500Y0340654D03*
X0226500Y0347346D03*
X0086500Y0347346D03*
X0086500Y0340654D03*
X0087000Y0333346D03*
X0087000Y0326654D03*
X0086500Y0287346D03*
X0086500Y0280654D03*
X0087000Y0273346D03*
X0087000Y0266654D03*
X0086500Y0227346D03*
X0086500Y0220654D03*
X0087000Y0213346D03*
X0087000Y0206654D03*
X0086500Y0167346D03*
X0086500Y0160654D03*
X0087000Y0153346D03*
X0087000Y0146654D03*
X0086500Y0107346D03*
X0086500Y0100654D03*
X0087000Y0093346D03*
X0087000Y0086654D03*
D20*
X0139500Y0084598D03*
X0139500Y0109402D03*
X0139500Y0144598D03*
X0139500Y0169402D03*
X0139500Y0204598D03*
X0139500Y0229402D03*
X0139500Y0264598D03*
X0139500Y0289402D03*
X0139500Y0324598D03*
X0139500Y0349402D03*
X0279500Y0349402D03*
X0279500Y0324598D03*
X0279500Y0289402D03*
X0279500Y0264598D03*
X0279500Y0229402D03*
X0279500Y0204598D03*
X0279500Y0169402D03*
X0279500Y0144598D03*
X0279500Y0109402D03*
X0279500Y0084598D03*
X0419500Y0084598D03*
X0419500Y0109402D03*
X0419500Y0144598D03*
X0419500Y0169402D03*
X0419500Y0204598D03*
X0419500Y0229402D03*
X0419500Y0264598D03*
X0419500Y0289402D03*
X0419500Y0324598D03*
X0419500Y0349402D03*
D21*
X0386000Y0337000D03*
X0386000Y0277000D03*
X0386000Y0217000D03*
X0386000Y0157000D03*
X0386000Y0097000D03*
X0246000Y0097000D03*
X0246000Y0157000D03*
X0246000Y0217000D03*
X0246000Y0277000D03*
X0246000Y0337000D03*
X0106000Y0337000D03*
X0106000Y0277000D03*
X0106000Y0217000D03*
X0106000Y0157000D03*
X0106000Y0097000D03*
D22*
X0113480Y0097000D03*
X0113480Y0095031D03*
X0113480Y0093063D03*
X0113480Y0098969D03*
X0113480Y0100937D03*
X0098520Y0100937D03*
X0098520Y0098969D03*
X0098520Y0097000D03*
X0098520Y0095031D03*
X0098520Y0093063D03*
X0098520Y0153063D03*
X0098520Y0155031D03*
X0098520Y0157000D03*
X0098520Y0158969D03*
X0098520Y0160937D03*
X0113480Y0160937D03*
X0113480Y0158969D03*
X0113480Y0157000D03*
X0113480Y0155031D03*
X0113480Y0153063D03*
X0113480Y0213063D03*
X0113480Y0215031D03*
X0113480Y0217000D03*
X0113480Y0218969D03*
X0113480Y0220937D03*
X0098520Y0220937D03*
X0098520Y0218969D03*
X0098520Y0217000D03*
X0098520Y0215031D03*
X0098520Y0213063D03*
X0098520Y0273063D03*
X0098520Y0275031D03*
X0098520Y0277000D03*
X0098520Y0278969D03*
X0098520Y0280937D03*
X0113480Y0280937D03*
X0113480Y0278969D03*
X0113480Y0277000D03*
X0113480Y0275031D03*
X0113480Y0273063D03*
X0113480Y0333063D03*
X0113480Y0335031D03*
X0113480Y0337000D03*
X0113480Y0338969D03*
X0113480Y0340937D03*
X0098520Y0340937D03*
X0098520Y0338969D03*
X0098520Y0337000D03*
X0098520Y0335031D03*
X0098520Y0333063D03*
X0238520Y0333063D03*
X0238520Y0335031D03*
X0238520Y0337000D03*
X0238520Y0338969D03*
X0238520Y0340937D03*
X0253480Y0340937D03*
X0253480Y0338969D03*
X0253480Y0337000D03*
X0253480Y0335031D03*
X0253480Y0333063D03*
X0253480Y0280937D03*
X0253480Y0278969D03*
X0253480Y0277000D03*
X0253480Y0275031D03*
X0253480Y0273063D03*
X0238520Y0273063D03*
X0238520Y0275031D03*
X0238520Y0277000D03*
X0238520Y0278969D03*
X0238520Y0280937D03*
X0238520Y0220937D03*
X0238520Y0218969D03*
X0238520Y0217000D03*
X0238520Y0215031D03*
X0238520Y0213063D03*
X0253480Y0213063D03*
X0253480Y0215031D03*
X0253480Y0217000D03*
X0253480Y0218969D03*
X0253480Y0220937D03*
X0253480Y0160937D03*
X0253480Y0158969D03*
X0253480Y0157000D03*
X0253480Y0155031D03*
X0253480Y0153063D03*
X0238520Y0153063D03*
X0238520Y0155031D03*
X0238520Y0157000D03*
X0238520Y0158969D03*
X0238520Y0160937D03*
X0238520Y0100937D03*
X0238520Y0098969D03*
X0238520Y0097000D03*
X0238520Y0095031D03*
X0238520Y0093063D03*
X0253480Y0093063D03*
X0253480Y0095031D03*
X0253480Y0097000D03*
X0253480Y0098969D03*
X0253480Y0100937D03*
X0378520Y0100937D03*
X0378520Y0098969D03*
X0378520Y0097000D03*
X0378520Y0095031D03*
X0378520Y0093063D03*
X0393480Y0093063D03*
X0393480Y0095031D03*
X0393480Y0097000D03*
X0393480Y0098969D03*
X0393480Y0100937D03*
X0393480Y0153063D03*
X0393480Y0155031D03*
X0393480Y0157000D03*
X0393480Y0158969D03*
X0393480Y0160937D03*
X0378520Y0160937D03*
X0378520Y0158969D03*
X0378520Y0157000D03*
X0378520Y0155031D03*
X0378520Y0153063D03*
X0378520Y0213063D03*
X0378520Y0215031D03*
X0378520Y0217000D03*
X0378520Y0218969D03*
X0378520Y0220937D03*
X0393480Y0220937D03*
X0393480Y0218969D03*
X0393480Y0217000D03*
X0393480Y0215031D03*
X0393480Y0213063D03*
X0393480Y0273063D03*
X0393480Y0275031D03*
X0393480Y0277000D03*
X0393480Y0278969D03*
X0393480Y0280937D03*
X0378520Y0280937D03*
X0378520Y0278969D03*
X0378520Y0277000D03*
X0378520Y0275031D03*
X0378520Y0273063D03*
X0378520Y0333063D03*
X0378520Y0335031D03*
X0378520Y0337000D03*
X0378520Y0338969D03*
X0378520Y0340937D03*
X0393480Y0340937D03*
X0393480Y0338969D03*
X0393480Y0337000D03*
X0393480Y0335031D03*
X0393480Y0333063D03*
D23*
X0389937Y0329520D03*
X0387969Y0329520D03*
X0386000Y0329520D03*
X0384031Y0329520D03*
X0382063Y0329520D03*
X0382063Y0344480D03*
X0384031Y0344480D03*
X0386000Y0344480D03*
X0387969Y0344480D03*
X0389937Y0344480D03*
X0389937Y0284480D03*
X0387969Y0284480D03*
X0386000Y0284480D03*
X0384031Y0284480D03*
X0382063Y0284480D03*
X0382063Y0269520D03*
X0384031Y0269520D03*
X0386000Y0269520D03*
X0387969Y0269520D03*
X0389937Y0269520D03*
X0389937Y0224480D03*
X0387969Y0224480D03*
X0386000Y0224480D03*
X0384031Y0224480D03*
X0382063Y0224480D03*
X0382063Y0209520D03*
X0384031Y0209520D03*
X0386000Y0209520D03*
X0387969Y0209520D03*
X0389937Y0209520D03*
X0389937Y0164480D03*
X0387969Y0164480D03*
X0386000Y0164480D03*
X0384031Y0164480D03*
X0382063Y0164480D03*
X0382063Y0149520D03*
X0384031Y0149520D03*
X0386000Y0149520D03*
X0387969Y0149520D03*
X0389937Y0149520D03*
X0389937Y0104480D03*
X0387969Y0104480D03*
X0386000Y0104480D03*
X0384031Y0104480D03*
X0382063Y0104480D03*
X0382063Y0089520D03*
X0384031Y0089520D03*
X0386000Y0089520D03*
X0387969Y0089520D03*
X0389937Y0089520D03*
X0249937Y0089520D03*
X0247969Y0089520D03*
X0246000Y0089520D03*
X0244031Y0089520D03*
X0242063Y0089520D03*
X0242063Y0104480D03*
X0244031Y0104480D03*
X0246000Y0104480D03*
X0247969Y0104480D03*
X0249937Y0104480D03*
X0249937Y0149520D03*
X0247969Y0149520D03*
X0246000Y0149520D03*
X0244031Y0149520D03*
X0242063Y0149520D03*
X0242063Y0164480D03*
X0244031Y0164480D03*
X0246000Y0164480D03*
X0247969Y0164480D03*
X0249937Y0164480D03*
X0249937Y0209520D03*
X0247969Y0209520D03*
X0246000Y0209520D03*
X0244031Y0209520D03*
X0242063Y0209520D03*
X0242063Y0224480D03*
X0244031Y0224480D03*
X0246000Y0224480D03*
X0247969Y0224480D03*
X0249937Y0224480D03*
X0249937Y0269520D03*
X0247969Y0269520D03*
X0246000Y0269520D03*
X0244031Y0269520D03*
X0242063Y0269520D03*
X0242063Y0284480D03*
X0244031Y0284480D03*
X0246000Y0284480D03*
X0247969Y0284480D03*
X0249937Y0284480D03*
X0249937Y0329520D03*
X0247969Y0329520D03*
X0246000Y0329520D03*
X0244031Y0329520D03*
X0242063Y0329520D03*
X0242063Y0344480D03*
X0244031Y0344480D03*
X0246000Y0344480D03*
X0247969Y0344480D03*
X0249937Y0344480D03*
X0109937Y0344480D03*
X0107969Y0344480D03*
X0106000Y0344480D03*
X0104031Y0344480D03*
X0102063Y0344480D03*
X0102063Y0329520D03*
X0104031Y0329520D03*
X0106000Y0329520D03*
X0107969Y0329520D03*
X0109937Y0329520D03*
X0109937Y0284480D03*
X0107969Y0284480D03*
X0106000Y0284480D03*
X0104031Y0284480D03*
X0102063Y0284480D03*
X0102063Y0269520D03*
X0104031Y0269520D03*
X0106000Y0269520D03*
X0107969Y0269520D03*
X0109937Y0269520D03*
X0109937Y0224480D03*
X0107969Y0224480D03*
X0106000Y0224480D03*
X0104031Y0224480D03*
X0102063Y0224480D03*
X0102063Y0209520D03*
X0104031Y0209520D03*
X0106000Y0209520D03*
X0107969Y0209520D03*
X0109937Y0209520D03*
X0109937Y0164480D03*
X0107969Y0164480D03*
X0106000Y0164480D03*
X0104031Y0164480D03*
X0102063Y0164480D03*
X0102063Y0149520D03*
X0104031Y0149520D03*
X0106000Y0149520D03*
X0107969Y0149520D03*
X0109937Y0149520D03*
X0109937Y0104480D03*
X0107969Y0104480D03*
X0106000Y0104480D03*
X0104031Y0104480D03*
X0102063Y0104480D03*
X0102063Y0089520D03*
X0104031Y0089520D03*
X0106000Y0089520D03*
X0107969Y0089520D03*
X0109937Y0089520D03*
D24*
X0146500Y0112500D03*
X0187500Y0140000D03*
X0146500Y0172500D03*
X0187500Y0200000D03*
X0146500Y0232500D03*
X0187500Y0260000D03*
X0146500Y0292500D03*
X0187500Y0320000D03*
X0146500Y0352500D03*
X0047500Y0320000D03*
X0047500Y0260000D03*
X0047500Y0200000D03*
X0047500Y0140000D03*
X0047500Y0080000D03*
X0187500Y0080000D03*
X0286500Y0112500D03*
X0327500Y0140000D03*
X0286500Y0172500D03*
X0327500Y0200000D03*
X0286500Y0232500D03*
X0327500Y0260000D03*
X0286500Y0292500D03*
X0327500Y0320000D03*
X0286500Y0352500D03*
X0426500Y0352500D03*
X0426500Y0292500D03*
X0426500Y0232500D03*
X0426500Y0172500D03*
X0426500Y0112500D03*
X0327500Y0080000D03*
D25*
X0366500Y0383250D03*
X0081500Y0383250D03*
D26*
X0077935Y0050750D02*
X0077937Y0050869D01*
X0077943Y0050988D01*
X0077953Y0051107D01*
X0077967Y0051225D01*
X0077985Y0051343D01*
X0078006Y0051460D01*
X0078032Y0051576D01*
X0078062Y0051692D01*
X0078095Y0051806D01*
X0078132Y0051919D01*
X0078173Y0052031D01*
X0078218Y0052142D01*
X0078266Y0052251D01*
X0078318Y0052358D01*
X0078374Y0052463D01*
X0078433Y0052567D01*
X0078495Y0052668D01*
X0078561Y0052768D01*
X0078630Y0052865D01*
X0078702Y0052959D01*
X0078778Y0053052D01*
X0078856Y0053141D01*
X0078937Y0053228D01*
X0079022Y0053313D01*
X0079109Y0053394D01*
X0079198Y0053472D01*
X0079291Y0053548D01*
X0079385Y0053620D01*
X0079482Y0053689D01*
X0079582Y0053755D01*
X0079683Y0053817D01*
X0079787Y0053876D01*
X0079892Y0053932D01*
X0079999Y0053984D01*
X0080108Y0054032D01*
X0080219Y0054077D01*
X0080331Y0054118D01*
X0080444Y0054155D01*
X0080558Y0054188D01*
X0080674Y0054218D01*
X0080790Y0054244D01*
X0080907Y0054265D01*
X0081025Y0054283D01*
X0081143Y0054297D01*
X0081262Y0054307D01*
X0081381Y0054313D01*
X0081500Y0054315D01*
X0081619Y0054313D01*
X0081738Y0054307D01*
X0081857Y0054297D01*
X0081975Y0054283D01*
X0082093Y0054265D01*
X0082210Y0054244D01*
X0082326Y0054218D01*
X0082442Y0054188D01*
X0082556Y0054155D01*
X0082669Y0054118D01*
X0082781Y0054077D01*
X0082892Y0054032D01*
X0083001Y0053984D01*
X0083108Y0053932D01*
X0083213Y0053876D01*
X0083317Y0053817D01*
X0083418Y0053755D01*
X0083518Y0053689D01*
X0083615Y0053620D01*
X0083709Y0053548D01*
X0083802Y0053472D01*
X0083891Y0053394D01*
X0083978Y0053313D01*
X0084063Y0053228D01*
X0084144Y0053141D01*
X0084222Y0053052D01*
X0084298Y0052959D01*
X0084370Y0052865D01*
X0084439Y0052768D01*
X0084505Y0052668D01*
X0084567Y0052567D01*
X0084626Y0052463D01*
X0084682Y0052358D01*
X0084734Y0052251D01*
X0084782Y0052142D01*
X0084827Y0052031D01*
X0084868Y0051919D01*
X0084905Y0051806D01*
X0084938Y0051692D01*
X0084968Y0051576D01*
X0084994Y0051460D01*
X0085015Y0051343D01*
X0085033Y0051225D01*
X0085047Y0051107D01*
X0085057Y0050988D01*
X0085063Y0050869D01*
X0085065Y0050750D01*
X0085063Y0050631D01*
X0085057Y0050512D01*
X0085047Y0050393D01*
X0085033Y0050275D01*
X0085015Y0050157D01*
X0084994Y0050040D01*
X0084968Y0049924D01*
X0084938Y0049808D01*
X0084905Y0049694D01*
X0084868Y0049581D01*
X0084827Y0049469D01*
X0084782Y0049358D01*
X0084734Y0049249D01*
X0084682Y0049142D01*
X0084626Y0049037D01*
X0084567Y0048933D01*
X0084505Y0048832D01*
X0084439Y0048732D01*
X0084370Y0048635D01*
X0084298Y0048541D01*
X0084222Y0048448D01*
X0084144Y0048359D01*
X0084063Y0048272D01*
X0083978Y0048187D01*
X0083891Y0048106D01*
X0083802Y0048028D01*
X0083709Y0047952D01*
X0083615Y0047880D01*
X0083518Y0047811D01*
X0083418Y0047745D01*
X0083317Y0047683D01*
X0083213Y0047624D01*
X0083108Y0047568D01*
X0083001Y0047516D01*
X0082892Y0047468D01*
X0082781Y0047423D01*
X0082669Y0047382D01*
X0082556Y0047345D01*
X0082442Y0047312D01*
X0082326Y0047282D01*
X0082210Y0047256D01*
X0082093Y0047235D01*
X0081975Y0047217D01*
X0081857Y0047203D01*
X0081738Y0047193D01*
X0081619Y0047187D01*
X0081500Y0047185D01*
X0081381Y0047187D01*
X0081262Y0047193D01*
X0081143Y0047203D01*
X0081025Y0047217D01*
X0080907Y0047235D01*
X0080790Y0047256D01*
X0080674Y0047282D01*
X0080558Y0047312D01*
X0080444Y0047345D01*
X0080331Y0047382D01*
X0080219Y0047423D01*
X0080108Y0047468D01*
X0079999Y0047516D01*
X0079892Y0047568D01*
X0079787Y0047624D01*
X0079683Y0047683D01*
X0079582Y0047745D01*
X0079482Y0047811D01*
X0079385Y0047880D01*
X0079291Y0047952D01*
X0079198Y0048028D01*
X0079109Y0048106D01*
X0079022Y0048187D01*
X0078937Y0048272D01*
X0078856Y0048359D01*
X0078778Y0048448D01*
X0078702Y0048541D01*
X0078630Y0048635D01*
X0078561Y0048732D01*
X0078495Y0048832D01*
X0078433Y0048933D01*
X0078374Y0049037D01*
X0078318Y0049142D01*
X0078266Y0049249D01*
X0078218Y0049358D01*
X0078173Y0049469D01*
X0078132Y0049581D01*
X0078095Y0049694D01*
X0078062Y0049808D01*
X0078032Y0049924D01*
X0078006Y0050040D01*
X0077985Y0050157D01*
X0077967Y0050275D01*
X0077953Y0050393D01*
X0077943Y0050512D01*
X0077937Y0050631D01*
X0077935Y0050750D01*
D27*
X0081500Y0050750D03*
M02*
