G75*
%MOIN*%
%OFA0B0*%
%FSLAX25Y25*%
%IPPOS*%
%LPD*%
%AMOC8*
5,1,8,0,0,1.08239X$1,22.5*
%
%ADD10C,0.04800*%
%ADD11R,0.05131X0.04737*%
%ADD12R,0.03280X0.04068*%
%ADD13C,0.01421*%
%ADD14R,0.07690X0.02375*%
%ADD15R,0.06548X0.08674*%
%ADD16R,0.10643X0.06410*%
%ADD17C,0.00400*%
%ADD18C,0.08200*%
%ADD19R,0.04737X0.05131*%
%ADD20R,0.07099X0.09855*%
%ADD21R,0.04737X0.04737*%
%ADD22R,0.03359X0.01981*%
%ADD23R,0.01981X0.03359*%
%ADD24C,0.04737*%
%ADD25C,0.05000*%
%ADD26C,0.06706*%
D10*
X0038750Y0028750D03*
X0048750Y0028750D03*
X0048750Y0068750D03*
X0048750Y0070750D03*
X0038750Y0070750D03*
X0038750Y0068750D03*
X0038750Y0110750D03*
X0038750Y0112750D03*
X0048750Y0112750D03*
X0048750Y0110750D03*
X0048750Y0152750D03*
X0048750Y0154750D03*
X0038750Y0154750D03*
X0038750Y0152750D03*
X0038750Y0194750D03*
X0038750Y0196750D03*
X0048750Y0196750D03*
X0048750Y0194750D03*
X0048750Y0236750D03*
X0048750Y0238750D03*
X0038750Y0238750D03*
X0038750Y0236750D03*
X0038750Y0278750D03*
X0038750Y0280750D03*
X0048750Y0280750D03*
X0048750Y0278750D03*
X0048750Y0320750D03*
X0048750Y0322750D03*
X0038750Y0322750D03*
X0038750Y0320750D03*
X0038750Y0362750D03*
X0048750Y0362750D03*
X0118750Y0362750D03*
X0128750Y0362750D03*
X0145750Y0362750D03*
X0155750Y0362750D03*
X0155750Y0322750D03*
X0155750Y0320750D03*
X0145750Y0320750D03*
X0145750Y0322750D03*
X0128750Y0322750D03*
X0128750Y0320750D03*
X0118750Y0320750D03*
X0118750Y0322750D03*
X0118750Y0280750D03*
X0118750Y0278750D03*
X0128750Y0278750D03*
X0128750Y0280750D03*
X0145750Y0280750D03*
X0145750Y0278750D03*
X0155750Y0278750D03*
X0155750Y0280750D03*
X0155750Y0238750D03*
X0155750Y0236750D03*
X0145750Y0236750D03*
X0145750Y0238750D03*
X0128750Y0238750D03*
X0128750Y0236750D03*
X0118750Y0236750D03*
X0118750Y0238750D03*
X0118750Y0196750D03*
X0118750Y0194750D03*
X0128750Y0194750D03*
X0128750Y0196750D03*
X0145750Y0196750D03*
X0145750Y0194750D03*
X0155750Y0194750D03*
X0155750Y0196750D03*
X0155750Y0154750D03*
X0155750Y0152750D03*
X0145750Y0152750D03*
X0145750Y0154750D03*
X0128750Y0154750D03*
X0128750Y0152750D03*
X0118750Y0152750D03*
X0118750Y0154750D03*
X0118750Y0112750D03*
X0118750Y0110750D03*
X0128750Y0110750D03*
X0128750Y0112750D03*
X0145750Y0112750D03*
X0145750Y0110750D03*
X0155750Y0110750D03*
X0155750Y0112750D03*
X0155750Y0070750D03*
X0155750Y0068750D03*
X0145750Y0068750D03*
X0145750Y0070750D03*
X0128750Y0070750D03*
X0128750Y0068750D03*
X0118750Y0068750D03*
X0118750Y0070750D03*
X0118750Y0028750D03*
X0128750Y0028750D03*
X0145750Y0028750D03*
X0155750Y0028750D03*
X0225750Y0028750D03*
X0235750Y0028750D03*
X0252750Y0028750D03*
X0262750Y0028750D03*
X0262750Y0068750D03*
X0262750Y0070750D03*
X0252750Y0070750D03*
X0252750Y0068750D03*
X0235750Y0068750D03*
X0235750Y0070750D03*
X0225750Y0070750D03*
X0225750Y0068750D03*
X0225750Y0110750D03*
X0225750Y0112750D03*
X0235750Y0112750D03*
X0235750Y0110750D03*
X0252750Y0110750D03*
X0252750Y0112750D03*
X0262750Y0112750D03*
X0262750Y0110750D03*
X0262750Y0152750D03*
X0262750Y0154750D03*
X0252750Y0154750D03*
X0252750Y0152750D03*
X0235750Y0152750D03*
X0235750Y0154750D03*
X0225750Y0154750D03*
X0225750Y0152750D03*
X0225750Y0194750D03*
X0225750Y0196750D03*
X0235750Y0196750D03*
X0235750Y0194750D03*
X0252750Y0194750D03*
X0252750Y0196750D03*
X0262750Y0196750D03*
X0262750Y0194750D03*
X0262750Y0236750D03*
X0262750Y0238750D03*
X0252750Y0238750D03*
X0252750Y0236750D03*
X0235750Y0236750D03*
X0235750Y0238750D03*
X0225750Y0238750D03*
X0225750Y0236750D03*
X0225750Y0278750D03*
X0225750Y0280750D03*
X0235750Y0280750D03*
X0235750Y0278750D03*
X0252750Y0278750D03*
X0252750Y0280750D03*
X0262750Y0280750D03*
X0262750Y0278750D03*
X0262750Y0320750D03*
X0262750Y0322750D03*
X0252750Y0322750D03*
X0252750Y0320750D03*
X0235750Y0320750D03*
X0235750Y0322750D03*
X0225750Y0322750D03*
X0225750Y0320750D03*
X0225750Y0362750D03*
X0235750Y0362750D03*
X0252750Y0362750D03*
X0262750Y0362750D03*
X0332750Y0362750D03*
X0342750Y0362750D03*
X0342750Y0322750D03*
X0342750Y0320750D03*
X0332750Y0320750D03*
X0332750Y0322750D03*
X0332750Y0280750D03*
X0332750Y0278750D03*
X0342750Y0278750D03*
X0342750Y0280750D03*
X0342750Y0238750D03*
X0342750Y0236750D03*
X0332750Y0236750D03*
X0332750Y0238750D03*
X0332750Y0196750D03*
X0332750Y0194750D03*
X0342750Y0194750D03*
X0342750Y0196750D03*
X0342750Y0154750D03*
X0342750Y0152750D03*
X0332750Y0152750D03*
X0332750Y0154750D03*
X0332750Y0112750D03*
X0332750Y0110750D03*
X0342750Y0110750D03*
X0342750Y0112750D03*
X0342750Y0070750D03*
X0342750Y0068750D03*
X0332750Y0068750D03*
X0332750Y0070750D03*
X0332750Y0028750D03*
X0342750Y0028750D03*
D11*
X0326096Y0038750D03*
X0319404Y0038750D03*
X0319404Y0043750D03*
X0326096Y0043750D03*
X0326096Y0058750D03*
X0319404Y0058750D03*
X0319404Y0080750D03*
X0319404Y0085750D03*
X0326096Y0085750D03*
X0326096Y0080750D03*
X0326096Y0100750D03*
X0319404Y0100750D03*
X0319404Y0122750D03*
X0319404Y0127750D03*
X0326096Y0127750D03*
X0326096Y0122750D03*
X0326096Y0142750D03*
X0319404Y0142750D03*
X0319404Y0164750D03*
X0319404Y0169750D03*
X0326096Y0169750D03*
X0326096Y0164750D03*
X0326096Y0184750D03*
X0319404Y0184750D03*
X0319404Y0206750D03*
X0319404Y0211750D03*
X0326096Y0211750D03*
X0326096Y0206750D03*
X0326096Y0226750D03*
X0319404Y0226750D03*
X0319404Y0248750D03*
X0319404Y0253750D03*
X0326096Y0253750D03*
X0326096Y0248750D03*
X0326096Y0268750D03*
X0319404Y0268750D03*
X0319404Y0290750D03*
X0319404Y0295750D03*
X0326096Y0295750D03*
X0326096Y0290750D03*
X0326096Y0310750D03*
X0319404Y0310750D03*
X0319404Y0332750D03*
X0319404Y0337750D03*
X0326096Y0337750D03*
X0326096Y0332750D03*
X0326096Y0352750D03*
X0319404Y0352750D03*
X0276096Y0352750D03*
X0269404Y0352750D03*
X0269404Y0332750D03*
X0276096Y0332750D03*
X0276096Y0310750D03*
X0269404Y0310750D03*
X0269404Y0290750D03*
X0276096Y0290750D03*
X0276096Y0268750D03*
X0269404Y0268750D03*
X0269404Y0248750D03*
X0276096Y0248750D03*
X0276096Y0226750D03*
X0269404Y0226750D03*
X0269404Y0206750D03*
X0276096Y0206750D03*
X0276096Y0184750D03*
X0269404Y0184750D03*
X0269404Y0164750D03*
X0276096Y0164750D03*
X0276096Y0142750D03*
X0269404Y0142750D03*
X0269404Y0122750D03*
X0276096Y0122750D03*
X0276096Y0100750D03*
X0269404Y0100750D03*
X0269404Y0080750D03*
X0276096Y0080750D03*
X0276096Y0058750D03*
X0269404Y0058750D03*
X0269404Y0038750D03*
X0276096Y0038750D03*
X0219096Y0038750D03*
X0219096Y0043750D03*
X0212404Y0043750D03*
X0212404Y0038750D03*
X0212404Y0058750D03*
X0219096Y0058750D03*
X0219096Y0080750D03*
X0219096Y0085750D03*
X0212404Y0085750D03*
X0212404Y0080750D03*
X0212404Y0100750D03*
X0219096Y0100750D03*
X0219096Y0122750D03*
X0219096Y0127750D03*
X0212404Y0127750D03*
X0212404Y0122750D03*
X0212404Y0142750D03*
X0219096Y0142750D03*
X0219096Y0164750D03*
X0219096Y0169750D03*
X0212404Y0169750D03*
X0212404Y0164750D03*
X0212404Y0184750D03*
X0219096Y0184750D03*
X0219096Y0206750D03*
X0219096Y0211750D03*
X0212404Y0211750D03*
X0212404Y0206750D03*
X0212404Y0226750D03*
X0219096Y0226750D03*
X0219096Y0248750D03*
X0219096Y0253750D03*
X0212404Y0253750D03*
X0212404Y0248750D03*
X0212404Y0268750D03*
X0219096Y0268750D03*
X0219096Y0290750D03*
X0219096Y0295750D03*
X0212404Y0295750D03*
X0212404Y0290750D03*
X0212404Y0310750D03*
X0219096Y0310750D03*
X0219096Y0332750D03*
X0219096Y0337750D03*
X0212404Y0337750D03*
X0212404Y0332750D03*
X0212404Y0352750D03*
X0219096Y0352750D03*
X0169096Y0352750D03*
X0162404Y0352750D03*
X0162404Y0332750D03*
X0169096Y0332750D03*
X0169096Y0310750D03*
X0162404Y0310750D03*
X0162404Y0290750D03*
X0169096Y0290750D03*
X0169096Y0268750D03*
X0162404Y0268750D03*
X0162404Y0248750D03*
X0169096Y0248750D03*
X0169096Y0226750D03*
X0162404Y0226750D03*
X0162404Y0206750D03*
X0169096Y0206750D03*
X0169096Y0184750D03*
X0162404Y0184750D03*
X0162404Y0164750D03*
X0169096Y0164750D03*
X0169096Y0142750D03*
X0162404Y0142750D03*
X0162404Y0122750D03*
X0169096Y0122750D03*
X0169096Y0100750D03*
X0162404Y0100750D03*
X0162404Y0080750D03*
X0169096Y0080750D03*
X0169096Y0058750D03*
X0162404Y0058750D03*
X0162404Y0038750D03*
X0169096Y0038750D03*
X0112096Y0038750D03*
X0105404Y0038750D03*
X0105404Y0043750D03*
X0112096Y0043750D03*
X0112096Y0058750D03*
X0105404Y0058750D03*
X0105404Y0080750D03*
X0105404Y0085750D03*
X0112096Y0085750D03*
X0112096Y0080750D03*
X0112096Y0100750D03*
X0105404Y0100750D03*
X0105404Y0122750D03*
X0105404Y0127750D03*
X0112096Y0127750D03*
X0112096Y0122750D03*
X0112096Y0142750D03*
X0105404Y0142750D03*
X0105404Y0164750D03*
X0105404Y0169750D03*
X0112096Y0169750D03*
X0112096Y0164750D03*
X0112096Y0184750D03*
X0105404Y0184750D03*
X0105404Y0206750D03*
X0105404Y0211750D03*
X0112096Y0211750D03*
X0112096Y0206750D03*
X0112096Y0226750D03*
X0105404Y0226750D03*
X0105404Y0248750D03*
X0105404Y0253750D03*
X0112096Y0253750D03*
X0112096Y0248750D03*
X0112096Y0268750D03*
X0105404Y0268750D03*
X0105404Y0290750D03*
X0105404Y0295750D03*
X0112096Y0295750D03*
X0112096Y0290750D03*
X0112096Y0310750D03*
X0105404Y0310750D03*
X0105404Y0332750D03*
X0105404Y0337750D03*
X0112096Y0337750D03*
X0112096Y0332750D03*
X0112096Y0352750D03*
X0105404Y0352750D03*
X0062096Y0352750D03*
X0055404Y0352750D03*
X0055404Y0332750D03*
X0062096Y0332750D03*
X0062096Y0310750D03*
X0055404Y0310750D03*
X0055404Y0290750D03*
X0062096Y0290750D03*
X0062096Y0268750D03*
X0055404Y0268750D03*
X0055404Y0248750D03*
X0062096Y0248750D03*
X0062096Y0226750D03*
X0055404Y0226750D03*
X0055404Y0206750D03*
X0062096Y0206750D03*
X0062096Y0184750D03*
X0055404Y0184750D03*
X0055404Y0164750D03*
X0062096Y0164750D03*
X0062096Y0142750D03*
X0055404Y0142750D03*
X0055404Y0122750D03*
X0062096Y0122750D03*
X0062096Y0100750D03*
X0055404Y0100750D03*
X0055404Y0080750D03*
X0062096Y0080750D03*
X0062096Y0058750D03*
X0055404Y0058750D03*
X0055404Y0038750D03*
X0062096Y0038750D03*
D12*
X0063278Y0043750D03*
X0054222Y0043750D03*
X0054222Y0053750D03*
X0063278Y0053750D03*
X0063278Y0085750D03*
X0054222Y0085750D03*
X0054222Y0095750D03*
X0063278Y0095750D03*
X0063278Y0127750D03*
X0054222Y0127750D03*
X0054222Y0137750D03*
X0063278Y0137750D03*
X0063278Y0169750D03*
X0054222Y0169750D03*
X0054222Y0179750D03*
X0063278Y0179750D03*
X0063278Y0211750D03*
X0054222Y0211750D03*
X0054222Y0221750D03*
X0063278Y0221750D03*
X0063278Y0253750D03*
X0054222Y0253750D03*
X0054222Y0263750D03*
X0063278Y0263750D03*
X0063278Y0295750D03*
X0054222Y0295750D03*
X0054222Y0305750D03*
X0063278Y0305750D03*
X0063278Y0337750D03*
X0054222Y0337750D03*
X0054222Y0347750D03*
X0063278Y0347750D03*
X0161222Y0347750D03*
X0170278Y0347750D03*
X0170278Y0337750D03*
X0161222Y0337750D03*
X0161222Y0305750D03*
X0170278Y0305750D03*
X0170278Y0295750D03*
X0161222Y0295750D03*
X0161222Y0263750D03*
X0170278Y0263750D03*
X0170278Y0253750D03*
X0161222Y0253750D03*
X0161222Y0221750D03*
X0170278Y0221750D03*
X0170278Y0211750D03*
X0161222Y0211750D03*
X0161222Y0179750D03*
X0170278Y0179750D03*
X0170278Y0169750D03*
X0161222Y0169750D03*
X0161222Y0137750D03*
X0170278Y0137750D03*
X0170278Y0127750D03*
X0161222Y0127750D03*
X0161222Y0095750D03*
X0170278Y0095750D03*
X0170278Y0085750D03*
X0161222Y0085750D03*
X0161222Y0053750D03*
X0170278Y0053750D03*
X0170278Y0043750D03*
X0161222Y0043750D03*
X0268222Y0043750D03*
X0277278Y0043750D03*
X0277278Y0053750D03*
X0268222Y0053750D03*
X0268222Y0085750D03*
X0277278Y0085750D03*
X0277278Y0095750D03*
X0268222Y0095750D03*
X0268222Y0127750D03*
X0277278Y0127750D03*
X0277278Y0137750D03*
X0268222Y0137750D03*
X0268222Y0169750D03*
X0277278Y0169750D03*
X0277278Y0179750D03*
X0268222Y0179750D03*
X0268222Y0211750D03*
X0277278Y0211750D03*
X0277278Y0221750D03*
X0268222Y0221750D03*
X0268222Y0253750D03*
X0277278Y0253750D03*
X0277278Y0263750D03*
X0268222Y0263750D03*
X0268222Y0295750D03*
X0277278Y0295750D03*
X0277278Y0305750D03*
X0268222Y0305750D03*
X0268222Y0337750D03*
X0277278Y0337750D03*
X0277278Y0347750D03*
X0268222Y0347750D03*
D13*
X0217545Y0346092D02*
X0217545Y0349408D01*
X0220861Y0349408D01*
X0220861Y0346092D01*
X0217545Y0346092D01*
X0217545Y0347512D02*
X0220861Y0347512D01*
X0220861Y0348932D02*
X0217545Y0348932D01*
X0210639Y0349408D02*
X0210639Y0346092D01*
X0210639Y0349408D02*
X0213955Y0349408D01*
X0213955Y0346092D01*
X0210639Y0346092D01*
X0210639Y0347512D02*
X0213955Y0347512D01*
X0213955Y0348932D02*
X0210639Y0348932D01*
X0210639Y0307408D02*
X0210639Y0304092D01*
X0210639Y0307408D02*
X0213955Y0307408D01*
X0213955Y0304092D01*
X0210639Y0304092D01*
X0210639Y0305512D02*
X0213955Y0305512D01*
X0213955Y0306932D02*
X0210639Y0306932D01*
X0217545Y0307408D02*
X0217545Y0304092D01*
X0217545Y0307408D02*
X0220861Y0307408D01*
X0220861Y0304092D01*
X0217545Y0304092D01*
X0217545Y0305512D02*
X0220861Y0305512D01*
X0220861Y0306932D02*
X0217545Y0306932D01*
X0217545Y0265408D02*
X0217545Y0262092D01*
X0217545Y0265408D02*
X0220861Y0265408D01*
X0220861Y0262092D01*
X0217545Y0262092D01*
X0217545Y0263512D02*
X0220861Y0263512D01*
X0220861Y0264932D02*
X0217545Y0264932D01*
X0210639Y0265408D02*
X0210639Y0262092D01*
X0210639Y0265408D02*
X0213955Y0265408D01*
X0213955Y0262092D01*
X0210639Y0262092D01*
X0210639Y0263512D02*
X0213955Y0263512D01*
X0213955Y0264932D02*
X0210639Y0264932D01*
X0210639Y0223408D02*
X0210639Y0220092D01*
X0210639Y0223408D02*
X0213955Y0223408D01*
X0213955Y0220092D01*
X0210639Y0220092D01*
X0210639Y0221512D02*
X0213955Y0221512D01*
X0213955Y0222932D02*
X0210639Y0222932D01*
X0217545Y0223408D02*
X0217545Y0220092D01*
X0217545Y0223408D02*
X0220861Y0223408D01*
X0220861Y0220092D01*
X0217545Y0220092D01*
X0217545Y0221512D02*
X0220861Y0221512D01*
X0220861Y0222932D02*
X0217545Y0222932D01*
X0217545Y0181408D02*
X0217545Y0178092D01*
X0217545Y0181408D02*
X0220861Y0181408D01*
X0220861Y0178092D01*
X0217545Y0178092D01*
X0217545Y0179512D02*
X0220861Y0179512D01*
X0220861Y0180932D02*
X0217545Y0180932D01*
X0210639Y0181408D02*
X0210639Y0178092D01*
X0210639Y0181408D02*
X0213955Y0181408D01*
X0213955Y0178092D01*
X0210639Y0178092D01*
X0210639Y0179512D02*
X0213955Y0179512D01*
X0213955Y0180932D02*
X0210639Y0180932D01*
X0210639Y0139408D02*
X0210639Y0136092D01*
X0210639Y0139408D02*
X0213955Y0139408D01*
X0213955Y0136092D01*
X0210639Y0136092D01*
X0210639Y0137512D02*
X0213955Y0137512D01*
X0213955Y0138932D02*
X0210639Y0138932D01*
X0217545Y0139408D02*
X0217545Y0136092D01*
X0217545Y0139408D02*
X0220861Y0139408D01*
X0220861Y0136092D01*
X0217545Y0136092D01*
X0217545Y0137512D02*
X0220861Y0137512D01*
X0220861Y0138932D02*
X0217545Y0138932D01*
X0217545Y0097408D02*
X0217545Y0094092D01*
X0217545Y0097408D02*
X0220861Y0097408D01*
X0220861Y0094092D01*
X0217545Y0094092D01*
X0217545Y0095512D02*
X0220861Y0095512D01*
X0220861Y0096932D02*
X0217545Y0096932D01*
X0210639Y0097408D02*
X0210639Y0094092D01*
X0210639Y0097408D02*
X0213955Y0097408D01*
X0213955Y0094092D01*
X0210639Y0094092D01*
X0210639Y0095512D02*
X0213955Y0095512D01*
X0213955Y0096932D02*
X0210639Y0096932D01*
X0210639Y0055408D02*
X0210639Y0052092D01*
X0210639Y0055408D02*
X0213955Y0055408D01*
X0213955Y0052092D01*
X0210639Y0052092D01*
X0210639Y0053512D02*
X0213955Y0053512D01*
X0213955Y0054932D02*
X0210639Y0054932D01*
X0217545Y0055408D02*
X0217545Y0052092D01*
X0217545Y0055408D02*
X0220861Y0055408D01*
X0220861Y0052092D01*
X0217545Y0052092D01*
X0217545Y0053512D02*
X0220861Y0053512D01*
X0220861Y0054932D02*
X0217545Y0054932D01*
X0317639Y0055408D02*
X0317639Y0052092D01*
X0317639Y0055408D02*
X0320955Y0055408D01*
X0320955Y0052092D01*
X0317639Y0052092D01*
X0317639Y0053512D02*
X0320955Y0053512D01*
X0320955Y0054932D02*
X0317639Y0054932D01*
X0324545Y0055408D02*
X0324545Y0052092D01*
X0324545Y0055408D02*
X0327861Y0055408D01*
X0327861Y0052092D01*
X0324545Y0052092D01*
X0324545Y0053512D02*
X0327861Y0053512D01*
X0327861Y0054932D02*
X0324545Y0054932D01*
X0324545Y0094092D02*
X0324545Y0097408D01*
X0327861Y0097408D01*
X0327861Y0094092D01*
X0324545Y0094092D01*
X0324545Y0095512D02*
X0327861Y0095512D01*
X0327861Y0096932D02*
X0324545Y0096932D01*
X0317639Y0097408D02*
X0317639Y0094092D01*
X0317639Y0097408D02*
X0320955Y0097408D01*
X0320955Y0094092D01*
X0317639Y0094092D01*
X0317639Y0095512D02*
X0320955Y0095512D01*
X0320955Y0096932D02*
X0317639Y0096932D01*
X0317639Y0136092D02*
X0317639Y0139408D01*
X0320955Y0139408D01*
X0320955Y0136092D01*
X0317639Y0136092D01*
X0317639Y0137512D02*
X0320955Y0137512D01*
X0320955Y0138932D02*
X0317639Y0138932D01*
X0324545Y0139408D02*
X0324545Y0136092D01*
X0324545Y0139408D02*
X0327861Y0139408D01*
X0327861Y0136092D01*
X0324545Y0136092D01*
X0324545Y0137512D02*
X0327861Y0137512D01*
X0327861Y0138932D02*
X0324545Y0138932D01*
X0324545Y0178092D02*
X0324545Y0181408D01*
X0327861Y0181408D01*
X0327861Y0178092D01*
X0324545Y0178092D01*
X0324545Y0179512D02*
X0327861Y0179512D01*
X0327861Y0180932D02*
X0324545Y0180932D01*
X0317639Y0181408D02*
X0317639Y0178092D01*
X0317639Y0181408D02*
X0320955Y0181408D01*
X0320955Y0178092D01*
X0317639Y0178092D01*
X0317639Y0179512D02*
X0320955Y0179512D01*
X0320955Y0180932D02*
X0317639Y0180932D01*
X0317639Y0220092D02*
X0317639Y0223408D01*
X0320955Y0223408D01*
X0320955Y0220092D01*
X0317639Y0220092D01*
X0317639Y0221512D02*
X0320955Y0221512D01*
X0320955Y0222932D02*
X0317639Y0222932D01*
X0324545Y0223408D02*
X0324545Y0220092D01*
X0324545Y0223408D02*
X0327861Y0223408D01*
X0327861Y0220092D01*
X0324545Y0220092D01*
X0324545Y0221512D02*
X0327861Y0221512D01*
X0327861Y0222932D02*
X0324545Y0222932D01*
X0324545Y0262092D02*
X0324545Y0265408D01*
X0327861Y0265408D01*
X0327861Y0262092D01*
X0324545Y0262092D01*
X0324545Y0263512D02*
X0327861Y0263512D01*
X0327861Y0264932D02*
X0324545Y0264932D01*
X0317639Y0265408D02*
X0317639Y0262092D01*
X0317639Y0265408D02*
X0320955Y0265408D01*
X0320955Y0262092D01*
X0317639Y0262092D01*
X0317639Y0263512D02*
X0320955Y0263512D01*
X0320955Y0264932D02*
X0317639Y0264932D01*
X0317639Y0304092D02*
X0317639Y0307408D01*
X0320955Y0307408D01*
X0320955Y0304092D01*
X0317639Y0304092D01*
X0317639Y0305512D02*
X0320955Y0305512D01*
X0320955Y0306932D02*
X0317639Y0306932D01*
X0324545Y0307408D02*
X0324545Y0304092D01*
X0324545Y0307408D02*
X0327861Y0307408D01*
X0327861Y0304092D01*
X0324545Y0304092D01*
X0324545Y0305512D02*
X0327861Y0305512D01*
X0327861Y0306932D02*
X0324545Y0306932D01*
X0324545Y0346092D02*
X0324545Y0349408D01*
X0327861Y0349408D01*
X0327861Y0346092D01*
X0324545Y0346092D01*
X0324545Y0347512D02*
X0327861Y0347512D01*
X0327861Y0348932D02*
X0324545Y0348932D01*
X0317639Y0349408D02*
X0317639Y0346092D01*
X0317639Y0349408D02*
X0320955Y0349408D01*
X0320955Y0346092D01*
X0317639Y0346092D01*
X0317639Y0347512D02*
X0320955Y0347512D01*
X0320955Y0348932D02*
X0317639Y0348932D01*
X0110545Y0349408D02*
X0110545Y0346092D01*
X0110545Y0349408D02*
X0113861Y0349408D01*
X0113861Y0346092D01*
X0110545Y0346092D01*
X0110545Y0347512D02*
X0113861Y0347512D01*
X0113861Y0348932D02*
X0110545Y0348932D01*
X0103639Y0349408D02*
X0103639Y0346092D01*
X0103639Y0349408D02*
X0106955Y0349408D01*
X0106955Y0346092D01*
X0103639Y0346092D01*
X0103639Y0347512D02*
X0106955Y0347512D01*
X0106955Y0348932D02*
X0103639Y0348932D01*
X0103639Y0307408D02*
X0103639Y0304092D01*
X0103639Y0307408D02*
X0106955Y0307408D01*
X0106955Y0304092D01*
X0103639Y0304092D01*
X0103639Y0305512D02*
X0106955Y0305512D01*
X0106955Y0306932D02*
X0103639Y0306932D01*
X0110545Y0307408D02*
X0110545Y0304092D01*
X0110545Y0307408D02*
X0113861Y0307408D01*
X0113861Y0304092D01*
X0110545Y0304092D01*
X0110545Y0305512D02*
X0113861Y0305512D01*
X0113861Y0306932D02*
X0110545Y0306932D01*
X0110545Y0265408D02*
X0110545Y0262092D01*
X0110545Y0265408D02*
X0113861Y0265408D01*
X0113861Y0262092D01*
X0110545Y0262092D01*
X0110545Y0263512D02*
X0113861Y0263512D01*
X0113861Y0264932D02*
X0110545Y0264932D01*
X0103639Y0265408D02*
X0103639Y0262092D01*
X0103639Y0265408D02*
X0106955Y0265408D01*
X0106955Y0262092D01*
X0103639Y0262092D01*
X0103639Y0263512D02*
X0106955Y0263512D01*
X0106955Y0264932D02*
X0103639Y0264932D01*
X0103639Y0223408D02*
X0103639Y0220092D01*
X0103639Y0223408D02*
X0106955Y0223408D01*
X0106955Y0220092D01*
X0103639Y0220092D01*
X0103639Y0221512D02*
X0106955Y0221512D01*
X0106955Y0222932D02*
X0103639Y0222932D01*
X0110545Y0223408D02*
X0110545Y0220092D01*
X0110545Y0223408D02*
X0113861Y0223408D01*
X0113861Y0220092D01*
X0110545Y0220092D01*
X0110545Y0221512D02*
X0113861Y0221512D01*
X0113861Y0222932D02*
X0110545Y0222932D01*
X0110545Y0181408D02*
X0110545Y0178092D01*
X0110545Y0181408D02*
X0113861Y0181408D01*
X0113861Y0178092D01*
X0110545Y0178092D01*
X0110545Y0179512D02*
X0113861Y0179512D01*
X0113861Y0180932D02*
X0110545Y0180932D01*
X0103639Y0181408D02*
X0103639Y0178092D01*
X0103639Y0181408D02*
X0106955Y0181408D01*
X0106955Y0178092D01*
X0103639Y0178092D01*
X0103639Y0179512D02*
X0106955Y0179512D01*
X0106955Y0180932D02*
X0103639Y0180932D01*
X0103639Y0139408D02*
X0103639Y0136092D01*
X0103639Y0139408D02*
X0106955Y0139408D01*
X0106955Y0136092D01*
X0103639Y0136092D01*
X0103639Y0137512D02*
X0106955Y0137512D01*
X0106955Y0138932D02*
X0103639Y0138932D01*
X0110545Y0139408D02*
X0110545Y0136092D01*
X0110545Y0139408D02*
X0113861Y0139408D01*
X0113861Y0136092D01*
X0110545Y0136092D01*
X0110545Y0137512D02*
X0113861Y0137512D01*
X0113861Y0138932D02*
X0110545Y0138932D01*
X0110545Y0097408D02*
X0110545Y0094092D01*
X0110545Y0097408D02*
X0113861Y0097408D01*
X0113861Y0094092D01*
X0110545Y0094092D01*
X0110545Y0095512D02*
X0113861Y0095512D01*
X0113861Y0096932D02*
X0110545Y0096932D01*
X0103639Y0097408D02*
X0103639Y0094092D01*
X0103639Y0097408D02*
X0106955Y0097408D01*
X0106955Y0094092D01*
X0103639Y0094092D01*
X0103639Y0095512D02*
X0106955Y0095512D01*
X0106955Y0096932D02*
X0103639Y0096932D01*
X0103639Y0055408D02*
X0103639Y0052092D01*
X0103639Y0055408D02*
X0106955Y0055408D01*
X0106955Y0052092D01*
X0103639Y0052092D01*
X0103639Y0053512D02*
X0106955Y0053512D01*
X0106955Y0054932D02*
X0103639Y0054932D01*
X0110545Y0055408D02*
X0110545Y0052092D01*
X0110545Y0055408D02*
X0113861Y0055408D01*
X0113861Y0052092D01*
X0110545Y0052092D01*
X0110545Y0053512D02*
X0113861Y0053512D01*
X0113861Y0054932D02*
X0110545Y0054932D01*
D14*
X0150990Y0053744D03*
X0150990Y0051185D03*
X0150990Y0048626D03*
X0150990Y0046067D03*
X0150990Y0043508D03*
X0150990Y0085508D03*
X0150990Y0088067D03*
X0150990Y0090626D03*
X0150990Y0093185D03*
X0150990Y0095744D03*
X0150990Y0127508D03*
X0150990Y0130067D03*
X0150990Y0132626D03*
X0150990Y0135185D03*
X0150990Y0137744D03*
X0150990Y0169508D03*
X0150990Y0172067D03*
X0150990Y0174626D03*
X0150990Y0177185D03*
X0150990Y0179744D03*
X0150990Y0211508D03*
X0150990Y0214067D03*
X0150990Y0216626D03*
X0150990Y0219185D03*
X0150990Y0221744D03*
X0150990Y0253508D03*
X0150990Y0256067D03*
X0150990Y0258626D03*
X0150990Y0261185D03*
X0150990Y0263744D03*
X0150990Y0295508D03*
X0150990Y0298067D03*
X0150990Y0300626D03*
X0150990Y0303185D03*
X0150990Y0305744D03*
X0150990Y0337508D03*
X0150990Y0340067D03*
X0150990Y0342626D03*
X0150990Y0345185D03*
X0150990Y0347744D03*
X0257990Y0347744D03*
X0257990Y0345185D03*
X0257990Y0342626D03*
X0257990Y0340067D03*
X0257990Y0337508D03*
X0257990Y0305744D03*
X0257990Y0303185D03*
X0257990Y0300626D03*
X0257990Y0298067D03*
X0257990Y0295508D03*
X0257990Y0263744D03*
X0257990Y0261185D03*
X0257990Y0258626D03*
X0257990Y0256067D03*
X0257990Y0253508D03*
X0257990Y0221744D03*
X0257990Y0219185D03*
X0257990Y0216626D03*
X0257990Y0214067D03*
X0257990Y0211508D03*
X0257990Y0179744D03*
X0257990Y0177185D03*
X0257990Y0174626D03*
X0257990Y0172067D03*
X0257990Y0169508D03*
X0257990Y0137744D03*
X0257990Y0135185D03*
X0257990Y0132626D03*
X0257990Y0130067D03*
X0257990Y0127508D03*
X0257990Y0095744D03*
X0257990Y0093185D03*
X0257990Y0090626D03*
X0257990Y0088067D03*
X0257990Y0085508D03*
X0257990Y0053744D03*
X0257990Y0051185D03*
X0257990Y0048626D03*
X0257990Y0046067D03*
X0257990Y0043508D03*
X0043990Y0043508D03*
X0043990Y0046067D03*
X0043990Y0048626D03*
X0043990Y0051185D03*
X0043990Y0053744D03*
X0043990Y0085508D03*
X0043990Y0088067D03*
X0043990Y0090626D03*
X0043990Y0093185D03*
X0043990Y0095744D03*
X0043990Y0127508D03*
X0043990Y0130067D03*
X0043990Y0132626D03*
X0043990Y0135185D03*
X0043990Y0137744D03*
X0043990Y0169508D03*
X0043990Y0172067D03*
X0043990Y0174626D03*
X0043990Y0177185D03*
X0043990Y0179744D03*
X0043990Y0211508D03*
X0043990Y0214067D03*
X0043990Y0216626D03*
X0043990Y0219185D03*
X0043990Y0221744D03*
X0043990Y0253508D03*
X0043990Y0256067D03*
X0043990Y0258626D03*
X0043990Y0261185D03*
X0043990Y0263744D03*
X0043990Y0295508D03*
X0043990Y0298067D03*
X0043990Y0300626D03*
X0043990Y0303185D03*
X0043990Y0305744D03*
X0043990Y0337508D03*
X0043990Y0340067D03*
X0043990Y0342626D03*
X0043990Y0345185D03*
X0043990Y0347744D03*
D15*
X0045073Y0353748D03*
X0045073Y0331604D03*
X0045073Y0311748D03*
X0045073Y0289604D03*
X0045073Y0269748D03*
X0045073Y0247604D03*
X0045073Y0227748D03*
X0045073Y0205604D03*
X0045073Y0185748D03*
X0045073Y0163604D03*
X0045073Y0143748D03*
X0045073Y0121604D03*
X0045073Y0101748D03*
X0045073Y0079604D03*
X0045073Y0059748D03*
X0045073Y0037604D03*
X0152073Y0037604D03*
X0152073Y0059748D03*
X0152073Y0079604D03*
X0152073Y0101748D03*
X0152073Y0121604D03*
X0152073Y0143748D03*
X0152073Y0163604D03*
X0152073Y0185748D03*
X0152073Y0205604D03*
X0152073Y0227748D03*
X0152073Y0247604D03*
X0152073Y0269748D03*
X0152073Y0289604D03*
X0152073Y0311748D03*
X0152073Y0331604D03*
X0152073Y0353748D03*
X0259073Y0353748D03*
X0259073Y0331604D03*
X0259073Y0311748D03*
X0259073Y0289604D03*
X0259073Y0269748D03*
X0259073Y0247604D03*
X0259073Y0227748D03*
X0259073Y0205604D03*
X0259073Y0185748D03*
X0259073Y0163604D03*
X0259073Y0143748D03*
X0259073Y0121604D03*
X0259073Y0101748D03*
X0259073Y0079604D03*
X0259073Y0059748D03*
X0259073Y0037604D03*
D16*
X0247428Y0044828D03*
X0247439Y0052603D03*
X0247428Y0086828D03*
X0247439Y0094603D03*
X0247428Y0128828D03*
X0247439Y0136603D03*
X0247428Y0170828D03*
X0247439Y0178603D03*
X0247428Y0212828D03*
X0247439Y0220603D03*
X0247428Y0254828D03*
X0247439Y0262603D03*
X0247428Y0296828D03*
X0247439Y0304603D03*
X0247428Y0338828D03*
X0247439Y0346603D03*
X0140439Y0346603D03*
X0140428Y0338828D03*
X0140439Y0304603D03*
X0140428Y0296828D03*
X0140439Y0262603D03*
X0140428Y0254828D03*
X0140439Y0220603D03*
X0140428Y0212828D03*
X0140439Y0178603D03*
X0140428Y0170828D03*
X0140439Y0136603D03*
X0140428Y0128828D03*
X0140439Y0094603D03*
X0140428Y0086828D03*
X0140439Y0052603D03*
X0140428Y0044828D03*
X0033428Y0044828D03*
X0033439Y0052603D03*
X0033428Y0086828D03*
X0033439Y0094603D03*
X0033428Y0128828D03*
X0033439Y0136603D03*
X0033428Y0170828D03*
X0033439Y0178603D03*
X0033428Y0212828D03*
X0033439Y0220603D03*
X0033428Y0254828D03*
X0033439Y0262603D03*
X0033428Y0296828D03*
X0033439Y0304603D03*
X0033428Y0338828D03*
X0033439Y0346603D03*
D17*
X0030199Y0035665D02*
X0030453Y0035427D01*
X0030753Y0035252D01*
X0031084Y0035148D01*
X0031430Y0035120D01*
X0038325Y0035120D01*
X0038325Y0033317D01*
X0041630Y0033317D01*
X0041630Y0041220D01*
X0031230Y0041120D01*
X0030909Y0041073D01*
X0030606Y0040955D01*
X0030337Y0040772D01*
X0030115Y0040535D01*
X0029952Y0040254D01*
X0029855Y0039944D01*
X0029830Y0039620D01*
X0029830Y0036620D01*
X0029880Y0036276D01*
X0030005Y0035952D01*
X0030199Y0035665D01*
X0030348Y0035525D02*
X0041630Y0035525D01*
X0041630Y0035923D02*
X0030025Y0035923D01*
X0029873Y0036322D02*
X0041630Y0036322D01*
X0041630Y0036720D02*
X0029830Y0036720D01*
X0029830Y0037119D02*
X0041630Y0037119D01*
X0041630Y0037517D02*
X0029830Y0037517D01*
X0029830Y0037916D02*
X0041630Y0037916D01*
X0041630Y0038314D02*
X0029830Y0038314D01*
X0029830Y0038713D02*
X0041630Y0038713D01*
X0041630Y0039111D02*
X0029830Y0039111D01*
X0029830Y0039510D02*
X0041630Y0039510D01*
X0041630Y0039908D02*
X0029852Y0039908D01*
X0029983Y0040307D02*
X0041630Y0040307D01*
X0041630Y0040705D02*
X0030274Y0040705D01*
X0031121Y0041104D02*
X0041630Y0041104D01*
X0041630Y0035126D02*
X0031353Y0035126D01*
X0038325Y0034728D02*
X0041630Y0034728D01*
X0041630Y0034329D02*
X0038325Y0034329D01*
X0038325Y0033931D02*
X0041630Y0033931D01*
X0041630Y0033532D02*
X0038325Y0033532D01*
X0038230Y0056120D02*
X0031830Y0056220D01*
X0031330Y0056220D01*
X0031006Y0056245D01*
X0030696Y0056342D01*
X0030415Y0056505D01*
X0030178Y0056727D01*
X0029995Y0056996D01*
X0029877Y0057299D01*
X0029830Y0057620D01*
X0029830Y0060520D01*
X0029858Y0060866D01*
X0029962Y0061197D01*
X0030137Y0061497D01*
X0030374Y0061751D01*
X0030662Y0061945D01*
X0030986Y0062070D01*
X0031330Y0062120D01*
X0038286Y0062100D01*
X0038286Y0064000D01*
X0041630Y0064020D01*
X0041630Y0056120D01*
X0038230Y0056120D01*
X0041630Y0056247D02*
X0031000Y0056247D01*
X0030264Y0056646D02*
X0041630Y0056646D01*
X0041630Y0057044D02*
X0029976Y0057044D01*
X0029856Y0057443D02*
X0041630Y0057443D01*
X0041630Y0057841D02*
X0029830Y0057841D01*
X0029830Y0058240D02*
X0041630Y0058240D01*
X0041630Y0058638D02*
X0029830Y0058638D01*
X0029830Y0059037D02*
X0041630Y0059037D01*
X0041630Y0059435D02*
X0029830Y0059435D01*
X0029830Y0059834D02*
X0041630Y0059834D01*
X0041630Y0060232D02*
X0029830Y0060232D01*
X0029839Y0060631D02*
X0041630Y0060631D01*
X0041630Y0061029D02*
X0029909Y0061029D01*
X0030096Y0061428D02*
X0041630Y0061428D01*
X0041630Y0061826D02*
X0030487Y0061826D01*
X0038286Y0062225D02*
X0041630Y0062225D01*
X0041630Y0062623D02*
X0038286Y0062623D01*
X0038286Y0063022D02*
X0041630Y0063022D01*
X0041630Y0063420D02*
X0038286Y0063420D01*
X0038286Y0063819D02*
X0041630Y0063819D01*
X0041630Y0075317D02*
X0038325Y0075317D01*
X0038325Y0077120D01*
X0031430Y0077120D01*
X0031084Y0077148D01*
X0030753Y0077252D01*
X0030453Y0077427D01*
X0030199Y0077665D01*
X0030005Y0077952D01*
X0029880Y0078276D01*
X0029830Y0078620D01*
X0029830Y0081620D01*
X0029855Y0081944D01*
X0029952Y0082254D01*
X0030115Y0082535D01*
X0030337Y0082772D01*
X0030606Y0082955D01*
X0030909Y0083073D01*
X0031230Y0083120D01*
X0041630Y0083220D01*
X0041630Y0075317D01*
X0041630Y0075376D02*
X0038325Y0075376D01*
X0038325Y0075774D02*
X0041630Y0075774D01*
X0041630Y0076173D02*
X0038325Y0076173D01*
X0038325Y0076571D02*
X0041630Y0076571D01*
X0041630Y0076970D02*
X0038325Y0076970D01*
X0041630Y0077368D02*
X0030553Y0077368D01*
X0030130Y0077767D02*
X0041630Y0077767D01*
X0041630Y0078165D02*
X0029923Y0078165D01*
X0029838Y0078564D02*
X0041630Y0078564D01*
X0041630Y0078962D02*
X0029830Y0078962D01*
X0029830Y0079361D02*
X0041630Y0079361D01*
X0041630Y0079759D02*
X0029830Y0079759D01*
X0029830Y0080158D02*
X0041630Y0080158D01*
X0041630Y0080556D02*
X0029830Y0080556D01*
X0029830Y0080955D02*
X0041630Y0080955D01*
X0041630Y0081353D02*
X0029830Y0081353D01*
X0029840Y0081752D02*
X0041630Y0081752D01*
X0041630Y0082151D02*
X0029920Y0082151D01*
X0030128Y0082549D02*
X0041630Y0082549D01*
X0041630Y0082948D02*
X0030595Y0082948D01*
X0031330Y0098220D02*
X0031006Y0098245D01*
X0030696Y0098342D01*
X0030415Y0098505D01*
X0030178Y0098727D01*
X0029995Y0098996D01*
X0029877Y0099299D01*
X0029830Y0099620D01*
X0029830Y0102520D01*
X0029858Y0102866D01*
X0029962Y0103197D01*
X0030137Y0103497D01*
X0030374Y0103751D01*
X0030662Y0103945D01*
X0030986Y0104070D01*
X0031330Y0104120D01*
X0038286Y0104100D01*
X0038286Y0106000D01*
X0041630Y0106020D01*
X0041630Y0098120D01*
X0038230Y0098120D01*
X0031830Y0098220D01*
X0031330Y0098220D01*
X0030442Y0098489D02*
X0041630Y0098489D01*
X0041630Y0098888D02*
X0030068Y0098888D01*
X0029882Y0099287D02*
X0041630Y0099287D01*
X0041630Y0099685D02*
X0029830Y0099685D01*
X0029830Y0100084D02*
X0041630Y0100084D01*
X0041630Y0100482D02*
X0029830Y0100482D01*
X0029830Y0100881D02*
X0041630Y0100881D01*
X0041630Y0101279D02*
X0029830Y0101279D01*
X0029830Y0101678D02*
X0041630Y0101678D01*
X0041630Y0102076D02*
X0029830Y0102076D01*
X0029830Y0102475D02*
X0041630Y0102475D01*
X0041630Y0102873D02*
X0029860Y0102873D01*
X0030005Y0103272D02*
X0041630Y0103272D01*
X0041630Y0103670D02*
X0030299Y0103670D01*
X0030983Y0104069D02*
X0041630Y0104069D01*
X0041630Y0104467D02*
X0038286Y0104467D01*
X0038286Y0104866D02*
X0041630Y0104866D01*
X0041630Y0105264D02*
X0038286Y0105264D01*
X0038286Y0105663D02*
X0041630Y0105663D01*
X0041630Y0117317D02*
X0038325Y0117317D01*
X0038325Y0119120D01*
X0031430Y0119120D01*
X0031084Y0119148D01*
X0030753Y0119252D01*
X0030453Y0119427D01*
X0030199Y0119665D01*
X0030005Y0119952D01*
X0029880Y0120276D01*
X0029830Y0120620D01*
X0029830Y0123620D01*
X0029855Y0123944D01*
X0029952Y0124254D01*
X0030115Y0124535D01*
X0030337Y0124772D01*
X0030606Y0124955D01*
X0030909Y0125073D01*
X0031230Y0125120D01*
X0041630Y0125220D01*
X0041630Y0117317D01*
X0041630Y0117618D02*
X0038325Y0117618D01*
X0038325Y0118017D02*
X0041630Y0118017D01*
X0041630Y0118415D02*
X0038325Y0118415D01*
X0038325Y0118814D02*
X0041630Y0118814D01*
X0041630Y0119212D02*
X0030879Y0119212D01*
X0030257Y0119611D02*
X0041630Y0119611D01*
X0041630Y0120009D02*
X0029983Y0120009D01*
X0029861Y0120408D02*
X0041630Y0120408D01*
X0041630Y0120806D02*
X0029830Y0120806D01*
X0029830Y0121205D02*
X0041630Y0121205D01*
X0041630Y0121603D02*
X0029830Y0121603D01*
X0029830Y0122002D02*
X0041630Y0122002D01*
X0041630Y0122400D02*
X0029830Y0122400D01*
X0029830Y0122799D02*
X0041630Y0122799D01*
X0041630Y0123197D02*
X0029830Y0123197D01*
X0029830Y0123596D02*
X0041630Y0123596D01*
X0041630Y0123994D02*
X0029871Y0123994D01*
X0030032Y0124393D02*
X0041630Y0124393D01*
X0041630Y0124791D02*
X0030365Y0124791D01*
X0038482Y0125190D02*
X0041630Y0125190D01*
X0041630Y0140120D02*
X0038230Y0140120D01*
X0031830Y0140220D01*
X0031330Y0140220D01*
X0031006Y0140245D01*
X0030696Y0140342D01*
X0030415Y0140505D01*
X0030178Y0140727D01*
X0029995Y0140996D01*
X0029877Y0141299D01*
X0029830Y0141620D01*
X0029830Y0144520D01*
X0029858Y0144866D01*
X0029962Y0145197D01*
X0030137Y0145497D01*
X0030374Y0145751D01*
X0030662Y0145945D01*
X0030986Y0146070D01*
X0031330Y0146120D01*
X0038286Y0146100D01*
X0038286Y0148000D01*
X0041630Y0148020D01*
X0041630Y0140120D01*
X0041630Y0140333D02*
X0030724Y0140333D01*
X0030174Y0140732D02*
X0041630Y0140732D01*
X0041630Y0141130D02*
X0029943Y0141130D01*
X0029843Y0141529D02*
X0041630Y0141529D01*
X0041630Y0141927D02*
X0029830Y0141927D01*
X0029830Y0142326D02*
X0041630Y0142326D01*
X0041630Y0142724D02*
X0029830Y0142724D01*
X0029830Y0143123D02*
X0041630Y0143123D01*
X0041630Y0143521D02*
X0029830Y0143521D01*
X0029830Y0143920D02*
X0041630Y0143920D01*
X0041630Y0144318D02*
X0029830Y0144318D01*
X0029846Y0144717D02*
X0041630Y0144717D01*
X0041630Y0145115D02*
X0029936Y0145115D01*
X0030152Y0145514D02*
X0041630Y0145514D01*
X0041630Y0145912D02*
X0030614Y0145912D01*
X0038286Y0146311D02*
X0041630Y0146311D01*
X0041630Y0146709D02*
X0038286Y0146709D01*
X0038286Y0147108D02*
X0041630Y0147108D01*
X0041630Y0147506D02*
X0038286Y0147506D01*
X0038286Y0147905D02*
X0041630Y0147905D01*
X0041630Y0159317D02*
X0038325Y0159317D01*
X0038325Y0161120D01*
X0031430Y0161120D01*
X0031084Y0161148D01*
X0030753Y0161252D01*
X0030453Y0161427D01*
X0030199Y0161665D01*
X0030005Y0161952D01*
X0029880Y0162276D01*
X0029830Y0162620D01*
X0029830Y0165620D01*
X0029855Y0165944D01*
X0029952Y0166254D01*
X0030115Y0166535D01*
X0030337Y0166772D01*
X0030606Y0166955D01*
X0030909Y0167073D01*
X0031230Y0167120D01*
X0041630Y0167220D01*
X0041630Y0159317D01*
X0041630Y0159462D02*
X0038325Y0159462D01*
X0038325Y0159860D02*
X0041630Y0159860D01*
X0041630Y0160259D02*
X0038325Y0160259D01*
X0038325Y0160657D02*
X0041630Y0160657D01*
X0041630Y0161056D02*
X0038325Y0161056D01*
X0041630Y0161454D02*
X0030424Y0161454D01*
X0030072Y0161853D02*
X0041630Y0161853D01*
X0041630Y0162251D02*
X0029890Y0162251D01*
X0029830Y0162650D02*
X0041630Y0162650D01*
X0041630Y0163048D02*
X0029830Y0163048D01*
X0029830Y0163447D02*
X0041630Y0163447D01*
X0041630Y0163845D02*
X0029830Y0163845D01*
X0029830Y0164244D02*
X0041630Y0164244D01*
X0041630Y0164642D02*
X0029830Y0164642D01*
X0029830Y0165041D02*
X0041630Y0165041D01*
X0041630Y0165439D02*
X0029830Y0165439D01*
X0029847Y0165838D02*
X0041630Y0165838D01*
X0041630Y0166236D02*
X0029946Y0166236D01*
X0030208Y0166635D02*
X0041630Y0166635D01*
X0041630Y0167033D02*
X0030808Y0167033D01*
X0031330Y0182220D02*
X0031006Y0182245D01*
X0030696Y0182342D01*
X0030415Y0182505D01*
X0030178Y0182727D01*
X0029995Y0182996D01*
X0029877Y0183299D01*
X0029830Y0183620D01*
X0029830Y0186520D01*
X0029858Y0186866D01*
X0029962Y0187197D01*
X0030137Y0187497D01*
X0030374Y0187751D01*
X0030662Y0187945D01*
X0030986Y0188070D01*
X0031330Y0188120D01*
X0038286Y0188100D01*
X0038286Y0190000D01*
X0041630Y0190020D01*
X0041630Y0182120D01*
X0038230Y0182120D01*
X0031830Y0182220D01*
X0031330Y0182220D01*
X0030340Y0182575D02*
X0041630Y0182575D01*
X0041630Y0182177D02*
X0034591Y0182177D01*
X0030010Y0182974D02*
X0041630Y0182974D01*
X0041630Y0183372D02*
X0029867Y0183372D01*
X0029830Y0183771D02*
X0041630Y0183771D01*
X0041630Y0184169D02*
X0029830Y0184169D01*
X0029830Y0184568D02*
X0041630Y0184568D01*
X0041630Y0184966D02*
X0029830Y0184966D01*
X0029830Y0185365D02*
X0041630Y0185365D01*
X0041630Y0185763D02*
X0029830Y0185763D01*
X0029830Y0186162D02*
X0041630Y0186162D01*
X0041630Y0186560D02*
X0029833Y0186560D01*
X0029887Y0186959D02*
X0041630Y0186959D01*
X0041630Y0187358D02*
X0030055Y0187358D01*
X0030382Y0187756D02*
X0041630Y0187756D01*
X0041630Y0188155D02*
X0038286Y0188155D01*
X0038286Y0188553D02*
X0041630Y0188553D01*
X0041630Y0188952D02*
X0038286Y0188952D01*
X0038286Y0189350D02*
X0041630Y0189350D01*
X0041630Y0189749D02*
X0038286Y0189749D01*
X0038325Y0201317D02*
X0038325Y0203120D01*
X0031430Y0203120D01*
X0031084Y0203148D01*
X0030753Y0203252D01*
X0030453Y0203427D01*
X0030199Y0203665D01*
X0030005Y0203952D01*
X0029880Y0204276D01*
X0029830Y0204620D01*
X0029830Y0207620D01*
X0029855Y0207944D01*
X0029952Y0208254D01*
X0030115Y0208535D01*
X0030337Y0208772D01*
X0030606Y0208955D01*
X0030909Y0209073D01*
X0031230Y0209120D01*
X0041630Y0209220D01*
X0041630Y0201317D01*
X0038325Y0201317D01*
X0038325Y0201704D02*
X0041630Y0201704D01*
X0041630Y0202102D02*
X0038325Y0202102D01*
X0038325Y0202501D02*
X0041630Y0202501D01*
X0041630Y0202899D02*
X0038325Y0202899D01*
X0041630Y0203298D02*
X0030674Y0203298D01*
X0030178Y0203696D02*
X0041630Y0203696D01*
X0041630Y0204095D02*
X0029950Y0204095D01*
X0029848Y0204493D02*
X0041630Y0204493D01*
X0041630Y0204892D02*
X0029830Y0204892D01*
X0029830Y0205291D02*
X0041630Y0205291D01*
X0041630Y0205689D02*
X0029830Y0205689D01*
X0029830Y0206088D02*
X0041630Y0206088D01*
X0041630Y0206486D02*
X0029830Y0206486D01*
X0029830Y0206885D02*
X0041630Y0206885D01*
X0041630Y0207283D02*
X0029830Y0207283D01*
X0029835Y0207682D02*
X0041630Y0207682D01*
X0041630Y0208080D02*
X0029898Y0208080D01*
X0030082Y0208479D02*
X0041630Y0208479D01*
X0041630Y0208877D02*
X0030491Y0208877D01*
X0031330Y0224220D02*
X0031006Y0224245D01*
X0030696Y0224342D01*
X0030415Y0224505D01*
X0030178Y0224727D01*
X0029995Y0224996D01*
X0029877Y0225299D01*
X0029830Y0225620D01*
X0029830Y0228520D01*
X0029858Y0228866D01*
X0029962Y0229197D01*
X0030137Y0229497D01*
X0030374Y0229751D01*
X0030662Y0229945D01*
X0030986Y0230070D01*
X0031330Y0230120D01*
X0038286Y0230100D01*
X0038286Y0232000D01*
X0041630Y0232020D01*
X0041630Y0224120D01*
X0038230Y0224120D01*
X0031830Y0224220D01*
X0031330Y0224220D01*
X0030563Y0224419D02*
X0041630Y0224419D01*
X0041630Y0224818D02*
X0030116Y0224818D01*
X0029910Y0225216D02*
X0041630Y0225216D01*
X0041630Y0225615D02*
X0029831Y0225615D01*
X0029830Y0226013D02*
X0041630Y0226013D01*
X0041630Y0226412D02*
X0029830Y0226412D01*
X0029830Y0226810D02*
X0041630Y0226810D01*
X0041630Y0227209D02*
X0029830Y0227209D01*
X0029830Y0227607D02*
X0041630Y0227607D01*
X0041630Y0228006D02*
X0029830Y0228006D01*
X0029830Y0228404D02*
X0041630Y0228404D01*
X0041630Y0228803D02*
X0029853Y0228803D01*
X0029964Y0229201D02*
X0041630Y0229201D01*
X0041630Y0229600D02*
X0030233Y0229600D01*
X0030801Y0229998D02*
X0041630Y0229998D01*
X0041630Y0230397D02*
X0038286Y0230397D01*
X0038286Y0230795D02*
X0041630Y0230795D01*
X0041630Y0231194D02*
X0038286Y0231194D01*
X0038286Y0231592D02*
X0041630Y0231592D01*
X0041630Y0231991D02*
X0038286Y0231991D01*
X0038325Y0243317D02*
X0038325Y0245120D01*
X0031430Y0245120D01*
X0031084Y0245148D01*
X0030753Y0245252D01*
X0030453Y0245427D01*
X0030199Y0245665D01*
X0030005Y0245952D01*
X0029880Y0246276D01*
X0029830Y0246620D01*
X0029830Y0249620D01*
X0029855Y0249944D01*
X0029952Y0250254D01*
X0030115Y0250535D01*
X0030337Y0250772D01*
X0030606Y0250955D01*
X0030909Y0251073D01*
X0031230Y0251120D01*
X0041630Y0251220D01*
X0041630Y0243317D01*
X0038325Y0243317D01*
X0038325Y0243548D02*
X0041630Y0243548D01*
X0041630Y0243946D02*
X0038325Y0243946D01*
X0038325Y0244345D02*
X0041630Y0244345D01*
X0041630Y0244743D02*
X0038325Y0244743D01*
X0041630Y0245142D02*
X0031160Y0245142D01*
X0030332Y0245540D02*
X0041630Y0245540D01*
X0041630Y0245939D02*
X0030014Y0245939D01*
X0029871Y0246337D02*
X0041630Y0246337D01*
X0041630Y0246736D02*
X0029830Y0246736D01*
X0029830Y0247134D02*
X0041630Y0247134D01*
X0041630Y0247533D02*
X0029830Y0247533D01*
X0029830Y0247931D02*
X0041630Y0247931D01*
X0041630Y0248330D02*
X0029830Y0248330D01*
X0029830Y0248728D02*
X0041630Y0248728D01*
X0041630Y0249127D02*
X0029830Y0249127D01*
X0029830Y0249525D02*
X0041630Y0249525D01*
X0041630Y0249924D02*
X0029854Y0249924D01*
X0029992Y0250322D02*
X0041630Y0250322D01*
X0041630Y0250721D02*
X0030289Y0250721D01*
X0031225Y0251119D02*
X0041630Y0251119D01*
X0041630Y0266120D02*
X0038230Y0266120D01*
X0031830Y0266220D01*
X0031330Y0266220D01*
X0031006Y0266245D01*
X0030696Y0266342D01*
X0030415Y0266505D01*
X0030178Y0266727D01*
X0029995Y0266996D01*
X0029877Y0267299D01*
X0029830Y0267620D01*
X0029830Y0270520D01*
X0029858Y0270866D01*
X0029962Y0271197D01*
X0030137Y0271497D01*
X0030374Y0271751D01*
X0030662Y0271945D01*
X0030986Y0272070D01*
X0031330Y0272120D01*
X0038286Y0272100D01*
X0038286Y0274000D01*
X0041630Y0274020D01*
X0041630Y0266120D01*
X0041630Y0266263D02*
X0030950Y0266263D01*
X0030248Y0266661D02*
X0041630Y0266661D01*
X0041630Y0267060D02*
X0029970Y0267060D01*
X0029854Y0267458D02*
X0041630Y0267458D01*
X0041630Y0267857D02*
X0029830Y0267857D01*
X0029830Y0268255D02*
X0041630Y0268255D01*
X0041630Y0268654D02*
X0029830Y0268654D01*
X0029830Y0269052D02*
X0041630Y0269052D01*
X0041630Y0269451D02*
X0029830Y0269451D01*
X0029830Y0269849D02*
X0041630Y0269849D01*
X0041630Y0270248D02*
X0029830Y0270248D01*
X0029840Y0270646D02*
X0041630Y0270646D01*
X0041630Y0271045D02*
X0029914Y0271045D01*
X0030105Y0271443D02*
X0041630Y0271443D01*
X0041630Y0271842D02*
X0030510Y0271842D01*
X0038286Y0272240D02*
X0041630Y0272240D01*
X0041630Y0272639D02*
X0038286Y0272639D01*
X0038286Y0273037D02*
X0041630Y0273037D01*
X0041630Y0273436D02*
X0038286Y0273436D01*
X0038286Y0273834D02*
X0041630Y0273834D01*
X0041630Y0285317D02*
X0038325Y0285317D01*
X0038325Y0287120D01*
X0031430Y0287120D01*
X0031084Y0287148D01*
X0030753Y0287252D01*
X0030453Y0287427D01*
X0030199Y0287665D01*
X0030005Y0287952D01*
X0029880Y0288276D01*
X0029830Y0288620D01*
X0029830Y0291620D01*
X0029855Y0291944D01*
X0029952Y0292254D01*
X0030115Y0292535D01*
X0030337Y0292772D01*
X0030606Y0292955D01*
X0030909Y0293073D01*
X0031230Y0293120D01*
X0041630Y0293220D01*
X0041630Y0285317D01*
X0041630Y0285391D02*
X0038325Y0285391D01*
X0038325Y0285790D02*
X0041630Y0285790D01*
X0041630Y0286188D02*
X0038325Y0286188D01*
X0038325Y0286587D02*
X0041630Y0286587D01*
X0041630Y0286985D02*
X0038325Y0286985D01*
X0041630Y0287384D02*
X0030527Y0287384D01*
X0030120Y0287782D02*
X0041630Y0287782D01*
X0041630Y0288181D02*
X0029917Y0288181D01*
X0029836Y0288579D02*
X0041630Y0288579D01*
X0041630Y0288978D02*
X0029830Y0288978D01*
X0029830Y0289376D02*
X0041630Y0289376D01*
X0041630Y0289775D02*
X0029830Y0289775D01*
X0029830Y0290173D02*
X0041630Y0290173D01*
X0041630Y0290572D02*
X0029830Y0290572D01*
X0029830Y0290970D02*
X0041630Y0290970D01*
X0041630Y0291369D02*
X0029830Y0291369D01*
X0029841Y0291767D02*
X0041630Y0291767D01*
X0041630Y0292166D02*
X0029924Y0292166D01*
X0030143Y0292564D02*
X0041630Y0292564D01*
X0041630Y0292963D02*
X0030627Y0292963D01*
X0031330Y0308220D02*
X0031006Y0308245D01*
X0030696Y0308342D01*
X0030415Y0308505D01*
X0030178Y0308727D01*
X0029995Y0308996D01*
X0029877Y0309299D01*
X0029830Y0309620D01*
X0029830Y0312520D01*
X0029858Y0312866D01*
X0029962Y0313197D01*
X0030137Y0313497D01*
X0030374Y0313751D01*
X0030662Y0313945D01*
X0030986Y0314070D01*
X0031330Y0314120D01*
X0038286Y0314100D01*
X0038286Y0316000D01*
X0041630Y0316020D01*
X0041630Y0308120D01*
X0038230Y0308120D01*
X0031830Y0308220D01*
X0031330Y0308220D01*
X0030415Y0308505D02*
X0041630Y0308505D01*
X0041630Y0308903D02*
X0030058Y0308903D01*
X0029877Y0309302D02*
X0041630Y0309302D01*
X0041630Y0309700D02*
X0029830Y0309700D01*
X0029830Y0310099D02*
X0041630Y0310099D01*
X0041630Y0310498D02*
X0029830Y0310498D01*
X0029830Y0310896D02*
X0041630Y0310896D01*
X0041630Y0311295D02*
X0029830Y0311295D01*
X0029830Y0311693D02*
X0041630Y0311693D01*
X0041630Y0312092D02*
X0029830Y0312092D01*
X0029830Y0312490D02*
X0041630Y0312490D01*
X0041630Y0312889D02*
X0029865Y0312889D01*
X0030014Y0313287D02*
X0041630Y0313287D01*
X0041630Y0313686D02*
X0030313Y0313686D01*
X0031083Y0314084D02*
X0041630Y0314084D01*
X0041630Y0314483D02*
X0038286Y0314483D01*
X0038286Y0314881D02*
X0041630Y0314881D01*
X0041630Y0315280D02*
X0038286Y0315280D01*
X0038286Y0315678D02*
X0041630Y0315678D01*
X0041630Y0327317D02*
X0038325Y0327317D01*
X0038325Y0329120D01*
X0031430Y0329120D01*
X0031084Y0329148D01*
X0030753Y0329252D01*
X0030453Y0329427D01*
X0030199Y0329665D01*
X0030005Y0329952D01*
X0029880Y0330276D01*
X0029830Y0330620D01*
X0029830Y0333620D01*
X0029855Y0333944D01*
X0029952Y0334254D01*
X0030115Y0334535D01*
X0030337Y0334772D01*
X0030606Y0334955D01*
X0030909Y0335073D01*
X0031230Y0335120D01*
X0041630Y0335220D01*
X0041630Y0327317D01*
X0041630Y0327633D02*
X0038325Y0327633D01*
X0038325Y0328032D02*
X0041630Y0328032D01*
X0041630Y0328431D02*
X0038325Y0328431D01*
X0038325Y0328829D02*
X0041630Y0328829D01*
X0041630Y0329228D02*
X0030830Y0329228D01*
X0030240Y0329626D02*
X0041630Y0329626D01*
X0041630Y0330025D02*
X0029977Y0330025D01*
X0029859Y0330423D02*
X0041630Y0330423D01*
X0041630Y0330822D02*
X0029830Y0330822D01*
X0029830Y0331220D02*
X0041630Y0331220D01*
X0041630Y0331619D02*
X0029830Y0331619D01*
X0029830Y0332017D02*
X0041630Y0332017D01*
X0041630Y0332416D02*
X0029830Y0332416D01*
X0029830Y0332814D02*
X0041630Y0332814D01*
X0041630Y0333213D02*
X0029830Y0333213D01*
X0029830Y0333611D02*
X0041630Y0333611D01*
X0041630Y0334010D02*
X0029876Y0334010D01*
X0030041Y0334408D02*
X0041630Y0334408D01*
X0041630Y0334807D02*
X0030387Y0334807D01*
X0040091Y0335205D02*
X0041630Y0335205D01*
X0041630Y0350120D02*
X0038230Y0350120D01*
X0031830Y0350220D01*
X0031330Y0350220D01*
X0031006Y0350245D01*
X0030696Y0350342D01*
X0030415Y0350505D01*
X0030178Y0350727D01*
X0029995Y0350996D01*
X0029877Y0351299D01*
X0029830Y0351620D01*
X0029830Y0354520D01*
X0029858Y0354866D01*
X0029962Y0355197D01*
X0030137Y0355497D01*
X0030374Y0355751D01*
X0030662Y0355945D01*
X0030986Y0356070D01*
X0031330Y0356120D01*
X0038286Y0356100D01*
X0038286Y0358000D01*
X0041630Y0358020D01*
X0041630Y0350120D01*
X0041630Y0350349D02*
X0030684Y0350349D01*
X0030164Y0350747D02*
X0041630Y0350747D01*
X0041630Y0351146D02*
X0029937Y0351146D01*
X0029841Y0351544D02*
X0041630Y0351544D01*
X0041630Y0351943D02*
X0029830Y0351943D01*
X0029830Y0352341D02*
X0041630Y0352341D01*
X0041630Y0352740D02*
X0029830Y0352740D01*
X0029830Y0353138D02*
X0041630Y0353138D01*
X0041630Y0353537D02*
X0029830Y0353537D01*
X0029830Y0353935D02*
X0041630Y0353935D01*
X0041630Y0354334D02*
X0029830Y0354334D01*
X0029847Y0354732D02*
X0041630Y0354732D01*
X0041630Y0355131D02*
X0029941Y0355131D01*
X0030167Y0355529D02*
X0041630Y0355529D01*
X0041630Y0355928D02*
X0030637Y0355928D01*
X0038286Y0356326D02*
X0041630Y0356326D01*
X0041630Y0356725D02*
X0038286Y0356725D01*
X0038286Y0357123D02*
X0041630Y0357123D01*
X0041630Y0357522D02*
X0038286Y0357522D01*
X0038286Y0357920D02*
X0041630Y0357920D01*
X0136830Y0354520D02*
X0136830Y0351620D01*
X0136877Y0351299D01*
X0136995Y0350996D01*
X0137178Y0350727D01*
X0137415Y0350505D01*
X0137696Y0350342D01*
X0138006Y0350245D01*
X0138330Y0350220D01*
X0138830Y0350220D01*
X0145230Y0350120D01*
X0148630Y0350120D01*
X0148630Y0358020D01*
X0145286Y0358000D01*
X0145286Y0356100D01*
X0138330Y0356120D01*
X0137986Y0356070D01*
X0137662Y0355945D01*
X0137374Y0355751D01*
X0137137Y0355497D01*
X0136962Y0355197D01*
X0136858Y0354866D01*
X0136830Y0354520D01*
X0136830Y0354334D02*
X0148630Y0354334D01*
X0148630Y0354732D02*
X0136847Y0354732D01*
X0136941Y0355131D02*
X0148630Y0355131D01*
X0148630Y0355529D02*
X0137167Y0355529D01*
X0137637Y0355928D02*
X0148630Y0355928D01*
X0148630Y0356326D02*
X0145286Y0356326D01*
X0145286Y0356725D02*
X0148630Y0356725D01*
X0148630Y0357123D02*
X0145286Y0357123D01*
X0145286Y0357522D02*
X0148630Y0357522D01*
X0148630Y0357920D02*
X0145286Y0357920D01*
X0148630Y0353935D02*
X0136830Y0353935D01*
X0136830Y0353537D02*
X0148630Y0353537D01*
X0148630Y0353138D02*
X0136830Y0353138D01*
X0136830Y0352740D02*
X0148630Y0352740D01*
X0148630Y0352341D02*
X0136830Y0352341D01*
X0136830Y0351943D02*
X0148630Y0351943D01*
X0148630Y0351544D02*
X0136841Y0351544D01*
X0136937Y0351146D02*
X0148630Y0351146D01*
X0148630Y0350747D02*
X0137164Y0350747D01*
X0137684Y0350349D02*
X0148630Y0350349D01*
X0148630Y0335220D02*
X0138230Y0335120D01*
X0137909Y0335073D01*
X0137606Y0334955D01*
X0137337Y0334772D01*
X0137115Y0334535D01*
X0136952Y0334254D01*
X0136855Y0333944D01*
X0136830Y0333620D01*
X0136830Y0330620D01*
X0136880Y0330276D01*
X0137005Y0329952D01*
X0137199Y0329665D01*
X0137453Y0329427D01*
X0137753Y0329252D01*
X0138084Y0329148D01*
X0138430Y0329120D01*
X0145325Y0329120D01*
X0145325Y0327317D01*
X0148630Y0327317D01*
X0148630Y0335220D01*
X0148630Y0335205D02*
X0147091Y0335205D01*
X0148630Y0334807D02*
X0137387Y0334807D01*
X0137041Y0334408D02*
X0148630Y0334408D01*
X0148630Y0334010D02*
X0136876Y0334010D01*
X0136830Y0333611D02*
X0148630Y0333611D01*
X0148630Y0333213D02*
X0136830Y0333213D01*
X0136830Y0332814D02*
X0148630Y0332814D01*
X0148630Y0332416D02*
X0136830Y0332416D01*
X0136830Y0332017D02*
X0148630Y0332017D01*
X0148630Y0331619D02*
X0136830Y0331619D01*
X0136830Y0331220D02*
X0148630Y0331220D01*
X0148630Y0330822D02*
X0136830Y0330822D01*
X0136859Y0330423D02*
X0148630Y0330423D01*
X0148630Y0330025D02*
X0136977Y0330025D01*
X0137240Y0329626D02*
X0148630Y0329626D01*
X0148630Y0329228D02*
X0137830Y0329228D01*
X0145325Y0328829D02*
X0148630Y0328829D01*
X0148630Y0328431D02*
X0145325Y0328431D01*
X0145325Y0328032D02*
X0148630Y0328032D01*
X0148630Y0327633D02*
X0145325Y0327633D01*
X0145286Y0316000D02*
X0148630Y0316020D01*
X0148630Y0308120D01*
X0145230Y0308120D01*
X0138830Y0308220D01*
X0138330Y0308220D01*
X0138006Y0308245D01*
X0137696Y0308342D01*
X0137415Y0308505D01*
X0137178Y0308727D01*
X0136995Y0308996D01*
X0136877Y0309299D01*
X0136830Y0309620D01*
X0136830Y0312520D01*
X0136858Y0312866D01*
X0136962Y0313197D01*
X0137137Y0313497D01*
X0137374Y0313751D01*
X0137662Y0313945D01*
X0137986Y0314070D01*
X0138330Y0314120D01*
X0145286Y0314100D01*
X0145286Y0316000D01*
X0145286Y0315678D02*
X0148630Y0315678D01*
X0148630Y0315280D02*
X0145286Y0315280D01*
X0145286Y0314881D02*
X0148630Y0314881D01*
X0148630Y0314483D02*
X0145286Y0314483D01*
X0148630Y0314084D02*
X0138083Y0314084D01*
X0137313Y0313686D02*
X0148630Y0313686D01*
X0148630Y0313287D02*
X0137014Y0313287D01*
X0136865Y0312889D02*
X0148630Y0312889D01*
X0148630Y0312490D02*
X0136830Y0312490D01*
X0136830Y0312092D02*
X0148630Y0312092D01*
X0148630Y0311693D02*
X0136830Y0311693D01*
X0136830Y0311295D02*
X0148630Y0311295D01*
X0148630Y0310896D02*
X0136830Y0310896D01*
X0136830Y0310498D02*
X0148630Y0310498D01*
X0148630Y0310099D02*
X0136830Y0310099D01*
X0136830Y0309700D02*
X0148630Y0309700D01*
X0148630Y0309302D02*
X0136877Y0309302D01*
X0137058Y0308903D02*
X0148630Y0308903D01*
X0148630Y0308505D02*
X0137415Y0308505D01*
X0138230Y0293120D02*
X0148630Y0293220D01*
X0148630Y0285317D01*
X0145325Y0285317D01*
X0145325Y0287120D01*
X0138430Y0287120D01*
X0138084Y0287148D01*
X0137753Y0287252D01*
X0137453Y0287427D01*
X0137199Y0287665D01*
X0137005Y0287952D01*
X0136880Y0288276D01*
X0136830Y0288620D01*
X0136830Y0291620D01*
X0136855Y0291944D01*
X0136952Y0292254D01*
X0137115Y0292535D01*
X0137337Y0292772D01*
X0137606Y0292955D01*
X0137909Y0293073D01*
X0138230Y0293120D01*
X0137627Y0292963D02*
X0148630Y0292963D01*
X0148630Y0292564D02*
X0137143Y0292564D01*
X0136924Y0292166D02*
X0148630Y0292166D01*
X0148630Y0291767D02*
X0136841Y0291767D01*
X0136830Y0291369D02*
X0148630Y0291369D01*
X0148630Y0290970D02*
X0136830Y0290970D01*
X0136830Y0290572D02*
X0148630Y0290572D01*
X0148630Y0290173D02*
X0136830Y0290173D01*
X0136830Y0289775D02*
X0148630Y0289775D01*
X0148630Y0289376D02*
X0136830Y0289376D01*
X0136830Y0288978D02*
X0148630Y0288978D01*
X0148630Y0288579D02*
X0136836Y0288579D01*
X0136917Y0288181D02*
X0148630Y0288181D01*
X0148630Y0287782D02*
X0137120Y0287782D01*
X0137527Y0287384D02*
X0148630Y0287384D01*
X0148630Y0286985D02*
X0145325Y0286985D01*
X0145325Y0286587D02*
X0148630Y0286587D01*
X0148630Y0286188D02*
X0145325Y0286188D01*
X0145325Y0285790D02*
X0148630Y0285790D01*
X0148630Y0285391D02*
X0145325Y0285391D01*
X0145286Y0274000D02*
X0148630Y0274020D01*
X0148630Y0266120D01*
X0145230Y0266120D01*
X0138830Y0266220D01*
X0138330Y0266220D01*
X0138006Y0266245D01*
X0137696Y0266342D01*
X0137415Y0266505D01*
X0137178Y0266727D01*
X0136995Y0266996D01*
X0136877Y0267299D01*
X0136830Y0267620D01*
X0136830Y0270520D01*
X0136858Y0270866D01*
X0136962Y0271197D01*
X0137137Y0271497D01*
X0137374Y0271751D01*
X0137662Y0271945D01*
X0137986Y0272070D01*
X0138330Y0272120D01*
X0145286Y0272100D01*
X0145286Y0274000D01*
X0145286Y0273834D02*
X0148630Y0273834D01*
X0148630Y0273436D02*
X0145286Y0273436D01*
X0145286Y0273037D02*
X0148630Y0273037D01*
X0148630Y0272639D02*
X0145286Y0272639D01*
X0145286Y0272240D02*
X0148630Y0272240D01*
X0148630Y0271842D02*
X0137510Y0271842D01*
X0137105Y0271443D02*
X0148630Y0271443D01*
X0148630Y0271045D02*
X0136914Y0271045D01*
X0136840Y0270646D02*
X0148630Y0270646D01*
X0148630Y0270248D02*
X0136830Y0270248D01*
X0136830Y0269849D02*
X0148630Y0269849D01*
X0148630Y0269451D02*
X0136830Y0269451D01*
X0136830Y0269052D02*
X0148630Y0269052D01*
X0148630Y0268654D02*
X0136830Y0268654D01*
X0136830Y0268255D02*
X0148630Y0268255D01*
X0148630Y0267857D02*
X0136830Y0267857D01*
X0136854Y0267458D02*
X0148630Y0267458D01*
X0148630Y0267060D02*
X0136970Y0267060D01*
X0137248Y0266661D02*
X0148630Y0266661D01*
X0148630Y0266263D02*
X0137950Y0266263D01*
X0138230Y0251120D02*
X0148630Y0251220D01*
X0148630Y0243317D01*
X0145325Y0243317D01*
X0145325Y0245120D01*
X0138430Y0245120D01*
X0138084Y0245148D01*
X0137753Y0245252D01*
X0137453Y0245427D01*
X0137199Y0245665D01*
X0137005Y0245952D01*
X0136880Y0246276D01*
X0136830Y0246620D01*
X0136830Y0249620D01*
X0136855Y0249944D01*
X0136952Y0250254D01*
X0137115Y0250535D01*
X0137337Y0250772D01*
X0137606Y0250955D01*
X0137909Y0251073D01*
X0138230Y0251120D01*
X0138225Y0251119D02*
X0148630Y0251119D01*
X0148630Y0250721D02*
X0137289Y0250721D01*
X0136992Y0250322D02*
X0148630Y0250322D01*
X0148630Y0249924D02*
X0136854Y0249924D01*
X0136830Y0249525D02*
X0148630Y0249525D01*
X0148630Y0249127D02*
X0136830Y0249127D01*
X0136830Y0248728D02*
X0148630Y0248728D01*
X0148630Y0248330D02*
X0136830Y0248330D01*
X0136830Y0247931D02*
X0148630Y0247931D01*
X0148630Y0247533D02*
X0136830Y0247533D01*
X0136830Y0247134D02*
X0148630Y0247134D01*
X0148630Y0246736D02*
X0136830Y0246736D01*
X0136871Y0246337D02*
X0148630Y0246337D01*
X0148630Y0245939D02*
X0137014Y0245939D01*
X0137332Y0245540D02*
X0148630Y0245540D01*
X0148630Y0245142D02*
X0138160Y0245142D01*
X0145325Y0244743D02*
X0148630Y0244743D01*
X0148630Y0244345D02*
X0145325Y0244345D01*
X0145325Y0243946D02*
X0148630Y0243946D01*
X0148630Y0243548D02*
X0145325Y0243548D01*
X0145286Y0232000D02*
X0148630Y0232020D01*
X0148630Y0224120D01*
X0145230Y0224120D01*
X0138830Y0224220D01*
X0138330Y0224220D01*
X0138006Y0224245D01*
X0137696Y0224342D01*
X0137415Y0224505D01*
X0137178Y0224727D01*
X0136995Y0224996D01*
X0136877Y0225299D01*
X0136830Y0225620D01*
X0136830Y0228520D01*
X0136858Y0228866D01*
X0136962Y0229197D01*
X0137137Y0229497D01*
X0137374Y0229751D01*
X0137662Y0229945D01*
X0137986Y0230070D01*
X0138330Y0230120D01*
X0145286Y0230100D01*
X0145286Y0232000D01*
X0145286Y0231991D02*
X0148630Y0231991D01*
X0148630Y0231592D02*
X0145286Y0231592D01*
X0145286Y0231194D02*
X0148630Y0231194D01*
X0148630Y0230795D02*
X0145286Y0230795D01*
X0145286Y0230397D02*
X0148630Y0230397D01*
X0148630Y0229998D02*
X0137801Y0229998D01*
X0137233Y0229600D02*
X0148630Y0229600D01*
X0148630Y0229201D02*
X0136964Y0229201D01*
X0136853Y0228803D02*
X0148630Y0228803D01*
X0148630Y0228404D02*
X0136830Y0228404D01*
X0136830Y0228006D02*
X0148630Y0228006D01*
X0148630Y0227607D02*
X0136830Y0227607D01*
X0136830Y0227209D02*
X0148630Y0227209D01*
X0148630Y0226810D02*
X0136830Y0226810D01*
X0136830Y0226412D02*
X0148630Y0226412D01*
X0148630Y0226013D02*
X0136830Y0226013D01*
X0136831Y0225615D02*
X0148630Y0225615D01*
X0148630Y0225216D02*
X0136910Y0225216D01*
X0137116Y0224818D02*
X0148630Y0224818D01*
X0148630Y0224419D02*
X0137563Y0224419D01*
X0138230Y0209120D02*
X0148630Y0209220D01*
X0148630Y0201317D01*
X0145325Y0201317D01*
X0145325Y0203120D01*
X0138430Y0203120D01*
X0138084Y0203148D01*
X0137753Y0203252D01*
X0137453Y0203427D01*
X0137199Y0203665D01*
X0137005Y0203952D01*
X0136880Y0204276D01*
X0136830Y0204620D01*
X0136830Y0207620D01*
X0136855Y0207944D01*
X0136952Y0208254D01*
X0137115Y0208535D01*
X0137337Y0208772D01*
X0137606Y0208955D01*
X0137909Y0209073D01*
X0138230Y0209120D01*
X0137491Y0208877D02*
X0148630Y0208877D01*
X0148630Y0208479D02*
X0137082Y0208479D01*
X0136898Y0208080D02*
X0148630Y0208080D01*
X0148630Y0207682D02*
X0136835Y0207682D01*
X0136830Y0207283D02*
X0148630Y0207283D01*
X0148630Y0206885D02*
X0136830Y0206885D01*
X0136830Y0206486D02*
X0148630Y0206486D01*
X0148630Y0206088D02*
X0136830Y0206088D01*
X0136830Y0205689D02*
X0148630Y0205689D01*
X0148630Y0205291D02*
X0136830Y0205291D01*
X0136830Y0204892D02*
X0148630Y0204892D01*
X0148630Y0204493D02*
X0136848Y0204493D01*
X0136950Y0204095D02*
X0148630Y0204095D01*
X0148630Y0203696D02*
X0137178Y0203696D01*
X0137674Y0203298D02*
X0148630Y0203298D01*
X0148630Y0202899D02*
X0145325Y0202899D01*
X0145325Y0202501D02*
X0148630Y0202501D01*
X0148630Y0202102D02*
X0145325Y0202102D01*
X0145325Y0201704D02*
X0148630Y0201704D01*
X0148630Y0190020D02*
X0145286Y0190000D01*
X0145286Y0188100D01*
X0138330Y0188120D01*
X0137986Y0188070D01*
X0137662Y0187945D01*
X0137374Y0187751D01*
X0137137Y0187497D01*
X0136962Y0187197D01*
X0136858Y0186866D01*
X0136830Y0186520D01*
X0136830Y0183620D01*
X0136877Y0183299D01*
X0136995Y0182996D01*
X0137178Y0182727D01*
X0137415Y0182505D01*
X0137696Y0182342D01*
X0138006Y0182245D01*
X0138330Y0182220D01*
X0138830Y0182220D01*
X0145230Y0182120D01*
X0148630Y0182120D01*
X0148630Y0190020D01*
X0148630Y0189749D02*
X0145286Y0189749D01*
X0145286Y0189350D02*
X0148630Y0189350D01*
X0148630Y0188952D02*
X0145286Y0188952D01*
X0145286Y0188553D02*
X0148630Y0188553D01*
X0148630Y0188155D02*
X0145286Y0188155D01*
X0148630Y0187756D02*
X0137382Y0187756D01*
X0137055Y0187358D02*
X0148630Y0187358D01*
X0148630Y0186959D02*
X0136887Y0186959D01*
X0136833Y0186560D02*
X0148630Y0186560D01*
X0148630Y0186162D02*
X0136830Y0186162D01*
X0136830Y0185763D02*
X0148630Y0185763D01*
X0148630Y0185365D02*
X0136830Y0185365D01*
X0136830Y0184966D02*
X0148630Y0184966D01*
X0148630Y0184568D02*
X0136830Y0184568D01*
X0136830Y0184169D02*
X0148630Y0184169D01*
X0148630Y0183771D02*
X0136830Y0183771D01*
X0136867Y0183372D02*
X0148630Y0183372D01*
X0148630Y0182974D02*
X0137010Y0182974D01*
X0137340Y0182575D02*
X0148630Y0182575D01*
X0148630Y0182177D02*
X0141591Y0182177D01*
X0138230Y0167120D02*
X0148630Y0167220D01*
X0148630Y0159317D01*
X0145325Y0159317D01*
X0145325Y0161120D01*
X0138430Y0161120D01*
X0138084Y0161148D01*
X0137753Y0161252D01*
X0137453Y0161427D01*
X0137199Y0161665D01*
X0137005Y0161952D01*
X0136880Y0162276D01*
X0136830Y0162620D01*
X0136830Y0165620D01*
X0136855Y0165944D01*
X0136952Y0166254D01*
X0137115Y0166535D01*
X0137337Y0166772D01*
X0137606Y0166955D01*
X0137909Y0167073D01*
X0138230Y0167120D01*
X0137808Y0167033D02*
X0148630Y0167033D01*
X0148630Y0166635D02*
X0137208Y0166635D01*
X0136946Y0166236D02*
X0148630Y0166236D01*
X0148630Y0165838D02*
X0136847Y0165838D01*
X0136830Y0165439D02*
X0148630Y0165439D01*
X0148630Y0165041D02*
X0136830Y0165041D01*
X0136830Y0164642D02*
X0148630Y0164642D01*
X0148630Y0164244D02*
X0136830Y0164244D01*
X0136830Y0163845D02*
X0148630Y0163845D01*
X0148630Y0163447D02*
X0136830Y0163447D01*
X0136830Y0163048D02*
X0148630Y0163048D01*
X0148630Y0162650D02*
X0136830Y0162650D01*
X0136890Y0162251D02*
X0148630Y0162251D01*
X0148630Y0161853D02*
X0137072Y0161853D01*
X0137424Y0161454D02*
X0148630Y0161454D01*
X0148630Y0161056D02*
X0145325Y0161056D01*
X0145325Y0160657D02*
X0148630Y0160657D01*
X0148630Y0160259D02*
X0145325Y0160259D01*
X0145325Y0159860D02*
X0148630Y0159860D01*
X0148630Y0159462D02*
X0145325Y0159462D01*
X0145286Y0148000D02*
X0148630Y0148020D01*
X0148630Y0140120D01*
X0145230Y0140120D01*
X0138830Y0140220D01*
X0138330Y0140220D01*
X0138006Y0140245D01*
X0137696Y0140342D01*
X0137415Y0140505D01*
X0137178Y0140727D01*
X0136995Y0140996D01*
X0136877Y0141299D01*
X0136830Y0141620D01*
X0136830Y0144520D01*
X0136858Y0144866D01*
X0136962Y0145197D01*
X0137137Y0145497D01*
X0137374Y0145751D01*
X0137662Y0145945D01*
X0137986Y0146070D01*
X0138330Y0146120D01*
X0145286Y0146100D01*
X0145286Y0148000D01*
X0145286Y0147905D02*
X0148630Y0147905D01*
X0148630Y0147506D02*
X0145286Y0147506D01*
X0145286Y0147108D02*
X0148630Y0147108D01*
X0148630Y0146709D02*
X0145286Y0146709D01*
X0145286Y0146311D02*
X0148630Y0146311D01*
X0148630Y0145912D02*
X0137614Y0145912D01*
X0137152Y0145514D02*
X0148630Y0145514D01*
X0148630Y0145115D02*
X0136936Y0145115D01*
X0136846Y0144717D02*
X0148630Y0144717D01*
X0148630Y0144318D02*
X0136830Y0144318D01*
X0136830Y0143920D02*
X0148630Y0143920D01*
X0148630Y0143521D02*
X0136830Y0143521D01*
X0136830Y0143123D02*
X0148630Y0143123D01*
X0148630Y0142724D02*
X0136830Y0142724D01*
X0136830Y0142326D02*
X0148630Y0142326D01*
X0148630Y0141927D02*
X0136830Y0141927D01*
X0136843Y0141529D02*
X0148630Y0141529D01*
X0148630Y0141130D02*
X0136943Y0141130D01*
X0137174Y0140732D02*
X0148630Y0140732D01*
X0148630Y0140333D02*
X0137724Y0140333D01*
X0138230Y0125120D02*
X0148630Y0125220D01*
X0148630Y0117317D01*
X0145325Y0117317D01*
X0145325Y0119120D01*
X0138430Y0119120D01*
X0138084Y0119148D01*
X0137753Y0119252D01*
X0137453Y0119427D01*
X0137199Y0119665D01*
X0137005Y0119952D01*
X0136880Y0120276D01*
X0136830Y0120620D01*
X0136830Y0123620D01*
X0136855Y0123944D01*
X0136952Y0124254D01*
X0137115Y0124535D01*
X0137337Y0124772D01*
X0137606Y0124955D01*
X0137909Y0125073D01*
X0138230Y0125120D01*
X0137365Y0124791D02*
X0148630Y0124791D01*
X0148630Y0124393D02*
X0137032Y0124393D01*
X0136871Y0123994D02*
X0148630Y0123994D01*
X0148630Y0123596D02*
X0136830Y0123596D01*
X0136830Y0123197D02*
X0148630Y0123197D01*
X0148630Y0122799D02*
X0136830Y0122799D01*
X0136830Y0122400D02*
X0148630Y0122400D01*
X0148630Y0122002D02*
X0136830Y0122002D01*
X0136830Y0121603D02*
X0148630Y0121603D01*
X0148630Y0121205D02*
X0136830Y0121205D01*
X0136830Y0120806D02*
X0148630Y0120806D01*
X0148630Y0120408D02*
X0136861Y0120408D01*
X0136983Y0120009D02*
X0148630Y0120009D01*
X0148630Y0119611D02*
X0137257Y0119611D01*
X0137879Y0119212D02*
X0148630Y0119212D01*
X0148630Y0118814D02*
X0145325Y0118814D01*
X0145325Y0118415D02*
X0148630Y0118415D01*
X0148630Y0118017D02*
X0145325Y0118017D01*
X0145325Y0117618D02*
X0148630Y0117618D01*
X0148630Y0125190D02*
X0145482Y0125190D01*
X0145286Y0106000D02*
X0148630Y0106020D01*
X0148630Y0098120D01*
X0145230Y0098120D01*
X0138830Y0098220D01*
X0138330Y0098220D01*
X0138006Y0098245D01*
X0137696Y0098342D01*
X0137415Y0098505D01*
X0137178Y0098727D01*
X0136995Y0098996D01*
X0136877Y0099299D01*
X0136830Y0099620D01*
X0136830Y0102520D01*
X0136858Y0102866D01*
X0136962Y0103197D01*
X0137137Y0103497D01*
X0137374Y0103751D01*
X0137662Y0103945D01*
X0137986Y0104070D01*
X0138330Y0104120D01*
X0145286Y0104100D01*
X0145286Y0106000D01*
X0145286Y0105663D02*
X0148630Y0105663D01*
X0148630Y0105264D02*
X0145286Y0105264D01*
X0145286Y0104866D02*
X0148630Y0104866D01*
X0148630Y0104467D02*
X0145286Y0104467D01*
X0148630Y0104069D02*
X0137983Y0104069D01*
X0137299Y0103670D02*
X0148630Y0103670D01*
X0148630Y0103272D02*
X0137005Y0103272D01*
X0136860Y0102873D02*
X0148630Y0102873D01*
X0148630Y0102475D02*
X0136830Y0102475D01*
X0136830Y0102076D02*
X0148630Y0102076D01*
X0148630Y0101678D02*
X0136830Y0101678D01*
X0136830Y0101279D02*
X0148630Y0101279D01*
X0148630Y0100881D02*
X0136830Y0100881D01*
X0136830Y0100482D02*
X0148630Y0100482D01*
X0148630Y0100084D02*
X0136830Y0100084D01*
X0136830Y0099685D02*
X0148630Y0099685D01*
X0148630Y0099287D02*
X0136882Y0099287D01*
X0137068Y0098888D02*
X0148630Y0098888D01*
X0148630Y0098489D02*
X0137442Y0098489D01*
X0138230Y0083120D02*
X0148630Y0083220D01*
X0148630Y0075317D01*
X0145325Y0075317D01*
X0145325Y0077120D01*
X0138430Y0077120D01*
X0138084Y0077148D01*
X0137753Y0077252D01*
X0137453Y0077427D01*
X0137199Y0077665D01*
X0137005Y0077952D01*
X0136880Y0078276D01*
X0136830Y0078620D01*
X0136830Y0081620D01*
X0136855Y0081944D01*
X0136952Y0082254D01*
X0137115Y0082535D01*
X0137337Y0082772D01*
X0137606Y0082955D01*
X0137909Y0083073D01*
X0138230Y0083120D01*
X0137595Y0082948D02*
X0148630Y0082948D01*
X0148630Y0082549D02*
X0137128Y0082549D01*
X0136920Y0082151D02*
X0148630Y0082151D01*
X0148630Y0081752D02*
X0136840Y0081752D01*
X0136830Y0081353D02*
X0148630Y0081353D01*
X0148630Y0080955D02*
X0136830Y0080955D01*
X0136830Y0080556D02*
X0148630Y0080556D01*
X0148630Y0080158D02*
X0136830Y0080158D01*
X0136830Y0079759D02*
X0148630Y0079759D01*
X0148630Y0079361D02*
X0136830Y0079361D01*
X0136830Y0078962D02*
X0148630Y0078962D01*
X0148630Y0078564D02*
X0136838Y0078564D01*
X0136923Y0078165D02*
X0148630Y0078165D01*
X0148630Y0077767D02*
X0137130Y0077767D01*
X0137553Y0077368D02*
X0148630Y0077368D01*
X0148630Y0076970D02*
X0145325Y0076970D01*
X0145325Y0076571D02*
X0148630Y0076571D01*
X0148630Y0076173D02*
X0145325Y0076173D01*
X0145325Y0075774D02*
X0148630Y0075774D01*
X0148630Y0075376D02*
X0145325Y0075376D01*
X0145286Y0064000D02*
X0148630Y0064020D01*
X0148630Y0056120D01*
X0145230Y0056120D01*
X0138830Y0056220D01*
X0138330Y0056220D01*
X0138006Y0056245D01*
X0137696Y0056342D01*
X0137415Y0056505D01*
X0137178Y0056727D01*
X0136995Y0056996D01*
X0136877Y0057299D01*
X0136830Y0057620D01*
X0136830Y0060520D01*
X0136858Y0060866D01*
X0136962Y0061197D01*
X0137137Y0061497D01*
X0137374Y0061751D01*
X0137662Y0061945D01*
X0137986Y0062070D01*
X0138330Y0062120D01*
X0145286Y0062100D01*
X0145286Y0064000D01*
X0145286Y0063819D02*
X0148630Y0063819D01*
X0148630Y0063420D02*
X0145286Y0063420D01*
X0145286Y0063022D02*
X0148630Y0063022D01*
X0148630Y0062623D02*
X0145286Y0062623D01*
X0145286Y0062225D02*
X0148630Y0062225D01*
X0148630Y0061826D02*
X0137487Y0061826D01*
X0137096Y0061428D02*
X0148630Y0061428D01*
X0148630Y0061029D02*
X0136909Y0061029D01*
X0136839Y0060631D02*
X0148630Y0060631D01*
X0148630Y0060232D02*
X0136830Y0060232D01*
X0136830Y0059834D02*
X0148630Y0059834D01*
X0148630Y0059435D02*
X0136830Y0059435D01*
X0136830Y0059037D02*
X0148630Y0059037D01*
X0148630Y0058638D02*
X0136830Y0058638D01*
X0136830Y0058240D02*
X0148630Y0058240D01*
X0148630Y0057841D02*
X0136830Y0057841D01*
X0136856Y0057443D02*
X0148630Y0057443D01*
X0148630Y0057044D02*
X0136976Y0057044D01*
X0137264Y0056646D02*
X0148630Y0056646D01*
X0148630Y0056247D02*
X0138000Y0056247D01*
X0138230Y0041120D02*
X0148630Y0041220D01*
X0148630Y0033317D01*
X0145325Y0033317D01*
X0145325Y0035120D01*
X0138430Y0035120D01*
X0138084Y0035148D01*
X0137753Y0035252D01*
X0137453Y0035427D01*
X0137199Y0035665D01*
X0137005Y0035952D01*
X0136880Y0036276D01*
X0136830Y0036620D01*
X0136830Y0039620D01*
X0136855Y0039944D01*
X0136952Y0040254D01*
X0137115Y0040535D01*
X0137337Y0040772D01*
X0137606Y0040955D01*
X0137909Y0041073D01*
X0138230Y0041120D01*
X0138121Y0041104D02*
X0148630Y0041104D01*
X0148630Y0040705D02*
X0137274Y0040705D01*
X0136983Y0040307D02*
X0148630Y0040307D01*
X0148630Y0039908D02*
X0136852Y0039908D01*
X0136830Y0039510D02*
X0148630Y0039510D01*
X0148630Y0039111D02*
X0136830Y0039111D01*
X0136830Y0038713D02*
X0148630Y0038713D01*
X0148630Y0038314D02*
X0136830Y0038314D01*
X0136830Y0037916D02*
X0148630Y0037916D01*
X0148630Y0037517D02*
X0136830Y0037517D01*
X0136830Y0037119D02*
X0148630Y0037119D01*
X0148630Y0036720D02*
X0136830Y0036720D01*
X0136873Y0036322D02*
X0148630Y0036322D01*
X0148630Y0035923D02*
X0137025Y0035923D01*
X0137348Y0035525D02*
X0148630Y0035525D01*
X0148630Y0035126D02*
X0138353Y0035126D01*
X0145325Y0034728D02*
X0148630Y0034728D01*
X0148630Y0034329D02*
X0145325Y0034329D01*
X0145325Y0033931D02*
X0148630Y0033931D01*
X0148630Y0033532D02*
X0145325Y0033532D01*
X0243830Y0036620D02*
X0243830Y0039620D01*
X0243855Y0039944D01*
X0243952Y0040254D01*
X0244115Y0040535D01*
X0244337Y0040772D01*
X0244606Y0040955D01*
X0244909Y0041073D01*
X0245230Y0041120D01*
X0255630Y0041220D01*
X0255630Y0033317D01*
X0252325Y0033317D01*
X0252325Y0035120D01*
X0245430Y0035120D01*
X0245084Y0035148D01*
X0244753Y0035252D01*
X0244453Y0035427D01*
X0244199Y0035665D01*
X0244005Y0035952D01*
X0243880Y0036276D01*
X0243830Y0036620D01*
X0243830Y0036720D02*
X0255630Y0036720D01*
X0255630Y0036322D02*
X0243873Y0036322D01*
X0244025Y0035923D02*
X0255630Y0035923D01*
X0255630Y0035525D02*
X0244348Y0035525D01*
X0245353Y0035126D02*
X0255630Y0035126D01*
X0255630Y0034728D02*
X0252325Y0034728D01*
X0252325Y0034329D02*
X0255630Y0034329D01*
X0255630Y0033931D02*
X0252325Y0033931D01*
X0252325Y0033532D02*
X0255630Y0033532D01*
X0255630Y0037119D02*
X0243830Y0037119D01*
X0243830Y0037517D02*
X0255630Y0037517D01*
X0255630Y0037916D02*
X0243830Y0037916D01*
X0243830Y0038314D02*
X0255630Y0038314D01*
X0255630Y0038713D02*
X0243830Y0038713D01*
X0243830Y0039111D02*
X0255630Y0039111D01*
X0255630Y0039510D02*
X0243830Y0039510D01*
X0243852Y0039908D02*
X0255630Y0039908D01*
X0255630Y0040307D02*
X0243983Y0040307D01*
X0244274Y0040705D02*
X0255630Y0040705D01*
X0255630Y0041104D02*
X0245121Y0041104D01*
X0245330Y0056220D02*
X0245006Y0056245D01*
X0244696Y0056342D01*
X0244415Y0056505D01*
X0244178Y0056727D01*
X0243995Y0056996D01*
X0243877Y0057299D01*
X0243830Y0057620D01*
X0243830Y0060520D01*
X0243858Y0060866D01*
X0243962Y0061197D01*
X0244137Y0061497D01*
X0244374Y0061751D01*
X0244662Y0061945D01*
X0244986Y0062070D01*
X0245330Y0062120D01*
X0252286Y0062100D01*
X0252286Y0064000D01*
X0255630Y0064020D01*
X0255630Y0056120D01*
X0252230Y0056120D01*
X0245830Y0056220D01*
X0245330Y0056220D01*
X0245000Y0056247D02*
X0255630Y0056247D01*
X0255630Y0056646D02*
X0244264Y0056646D01*
X0243976Y0057044D02*
X0255630Y0057044D01*
X0255630Y0057443D02*
X0243856Y0057443D01*
X0243830Y0057841D02*
X0255630Y0057841D01*
X0255630Y0058240D02*
X0243830Y0058240D01*
X0243830Y0058638D02*
X0255630Y0058638D01*
X0255630Y0059037D02*
X0243830Y0059037D01*
X0243830Y0059435D02*
X0255630Y0059435D01*
X0255630Y0059834D02*
X0243830Y0059834D01*
X0243830Y0060232D02*
X0255630Y0060232D01*
X0255630Y0060631D02*
X0243839Y0060631D01*
X0243909Y0061029D02*
X0255630Y0061029D01*
X0255630Y0061428D02*
X0244096Y0061428D01*
X0244487Y0061826D02*
X0255630Y0061826D01*
X0255630Y0062225D02*
X0252286Y0062225D01*
X0252286Y0062623D02*
X0255630Y0062623D01*
X0255630Y0063022D02*
X0252286Y0063022D01*
X0252286Y0063420D02*
X0255630Y0063420D01*
X0255630Y0063819D02*
X0252286Y0063819D01*
X0252325Y0075317D02*
X0252325Y0077120D01*
X0245430Y0077120D01*
X0245084Y0077148D01*
X0244753Y0077252D01*
X0244453Y0077427D01*
X0244199Y0077665D01*
X0244005Y0077952D01*
X0243880Y0078276D01*
X0243830Y0078620D01*
X0243830Y0081620D01*
X0243855Y0081944D01*
X0243952Y0082254D01*
X0244115Y0082535D01*
X0244337Y0082772D01*
X0244606Y0082955D01*
X0244909Y0083073D01*
X0245230Y0083120D01*
X0255630Y0083220D01*
X0255630Y0075317D01*
X0252325Y0075317D01*
X0252325Y0075376D02*
X0255630Y0075376D01*
X0255630Y0075774D02*
X0252325Y0075774D01*
X0252325Y0076173D02*
X0255630Y0076173D01*
X0255630Y0076571D02*
X0252325Y0076571D01*
X0252325Y0076970D02*
X0255630Y0076970D01*
X0255630Y0077368D02*
X0244553Y0077368D01*
X0244130Y0077767D02*
X0255630Y0077767D01*
X0255630Y0078165D02*
X0243923Y0078165D01*
X0243838Y0078564D02*
X0255630Y0078564D01*
X0255630Y0078962D02*
X0243830Y0078962D01*
X0243830Y0079361D02*
X0255630Y0079361D01*
X0255630Y0079759D02*
X0243830Y0079759D01*
X0243830Y0080158D02*
X0255630Y0080158D01*
X0255630Y0080556D02*
X0243830Y0080556D01*
X0243830Y0080955D02*
X0255630Y0080955D01*
X0255630Y0081353D02*
X0243830Y0081353D01*
X0243840Y0081752D02*
X0255630Y0081752D01*
X0255630Y0082151D02*
X0243920Y0082151D01*
X0244128Y0082549D02*
X0255630Y0082549D01*
X0255630Y0082948D02*
X0244595Y0082948D01*
X0245330Y0098220D02*
X0245006Y0098245D01*
X0244696Y0098342D01*
X0244415Y0098505D01*
X0244178Y0098727D01*
X0243995Y0098996D01*
X0243877Y0099299D01*
X0243830Y0099620D01*
X0243830Y0102520D01*
X0243858Y0102866D01*
X0243962Y0103197D01*
X0244137Y0103497D01*
X0244374Y0103751D01*
X0244662Y0103945D01*
X0244986Y0104070D01*
X0245330Y0104120D01*
X0252286Y0104100D01*
X0252286Y0106000D01*
X0255630Y0106020D01*
X0255630Y0098120D01*
X0252230Y0098120D01*
X0245830Y0098220D01*
X0245330Y0098220D01*
X0244442Y0098489D02*
X0255630Y0098489D01*
X0255630Y0098888D02*
X0244068Y0098888D01*
X0243882Y0099287D02*
X0255630Y0099287D01*
X0255630Y0099685D02*
X0243830Y0099685D01*
X0243830Y0100084D02*
X0255630Y0100084D01*
X0255630Y0100482D02*
X0243830Y0100482D01*
X0243830Y0100881D02*
X0255630Y0100881D01*
X0255630Y0101279D02*
X0243830Y0101279D01*
X0243830Y0101678D02*
X0255630Y0101678D01*
X0255630Y0102076D02*
X0243830Y0102076D01*
X0243830Y0102475D02*
X0255630Y0102475D01*
X0255630Y0102873D02*
X0243860Y0102873D01*
X0244005Y0103272D02*
X0255630Y0103272D01*
X0255630Y0103670D02*
X0244299Y0103670D01*
X0244983Y0104069D02*
X0255630Y0104069D01*
X0255630Y0104467D02*
X0252286Y0104467D01*
X0252286Y0104866D02*
X0255630Y0104866D01*
X0255630Y0105264D02*
X0252286Y0105264D01*
X0252286Y0105663D02*
X0255630Y0105663D01*
X0255630Y0117317D02*
X0252325Y0117317D01*
X0252325Y0119120D01*
X0245430Y0119120D01*
X0245084Y0119148D01*
X0244753Y0119252D01*
X0244453Y0119427D01*
X0244199Y0119665D01*
X0244005Y0119952D01*
X0243880Y0120276D01*
X0243830Y0120620D01*
X0243830Y0123620D01*
X0243855Y0123944D01*
X0243952Y0124254D01*
X0244115Y0124535D01*
X0244337Y0124772D01*
X0244606Y0124955D01*
X0244909Y0125073D01*
X0245230Y0125120D01*
X0255630Y0125220D01*
X0255630Y0117317D01*
X0255630Y0117618D02*
X0252325Y0117618D01*
X0252325Y0118017D02*
X0255630Y0118017D01*
X0255630Y0118415D02*
X0252325Y0118415D01*
X0252325Y0118814D02*
X0255630Y0118814D01*
X0255630Y0119212D02*
X0244879Y0119212D01*
X0244257Y0119611D02*
X0255630Y0119611D01*
X0255630Y0120009D02*
X0243983Y0120009D01*
X0243861Y0120408D02*
X0255630Y0120408D01*
X0255630Y0120806D02*
X0243830Y0120806D01*
X0243830Y0121205D02*
X0255630Y0121205D01*
X0255630Y0121603D02*
X0243830Y0121603D01*
X0243830Y0122002D02*
X0255630Y0122002D01*
X0255630Y0122400D02*
X0243830Y0122400D01*
X0243830Y0122799D02*
X0255630Y0122799D01*
X0255630Y0123197D02*
X0243830Y0123197D01*
X0243830Y0123596D02*
X0255630Y0123596D01*
X0255630Y0123994D02*
X0243871Y0123994D01*
X0244032Y0124393D02*
X0255630Y0124393D01*
X0255630Y0124791D02*
X0244365Y0124791D01*
X0252482Y0125190D02*
X0255630Y0125190D01*
X0255630Y0140120D02*
X0252230Y0140120D01*
X0245830Y0140220D01*
X0245330Y0140220D01*
X0245006Y0140245D01*
X0244696Y0140342D01*
X0244415Y0140505D01*
X0244178Y0140727D01*
X0243995Y0140996D01*
X0243877Y0141299D01*
X0243830Y0141620D01*
X0243830Y0144520D01*
X0243858Y0144866D01*
X0243962Y0145197D01*
X0244137Y0145497D01*
X0244374Y0145751D01*
X0244662Y0145945D01*
X0244986Y0146070D01*
X0245330Y0146120D01*
X0252286Y0146100D01*
X0252286Y0148000D01*
X0255630Y0148020D01*
X0255630Y0140120D01*
X0255630Y0140333D02*
X0244724Y0140333D01*
X0244174Y0140732D02*
X0255630Y0140732D01*
X0255630Y0141130D02*
X0243943Y0141130D01*
X0243843Y0141529D02*
X0255630Y0141529D01*
X0255630Y0141927D02*
X0243830Y0141927D01*
X0243830Y0142326D02*
X0255630Y0142326D01*
X0255630Y0142724D02*
X0243830Y0142724D01*
X0243830Y0143123D02*
X0255630Y0143123D01*
X0255630Y0143521D02*
X0243830Y0143521D01*
X0243830Y0143920D02*
X0255630Y0143920D01*
X0255630Y0144318D02*
X0243830Y0144318D01*
X0243846Y0144717D02*
X0255630Y0144717D01*
X0255630Y0145115D02*
X0243936Y0145115D01*
X0244152Y0145514D02*
X0255630Y0145514D01*
X0255630Y0145912D02*
X0244614Y0145912D01*
X0252286Y0146311D02*
X0255630Y0146311D01*
X0255630Y0146709D02*
X0252286Y0146709D01*
X0252286Y0147108D02*
X0255630Y0147108D01*
X0255630Y0147506D02*
X0252286Y0147506D01*
X0252286Y0147905D02*
X0255630Y0147905D01*
X0255630Y0159317D02*
X0252325Y0159317D01*
X0252325Y0161120D01*
X0245430Y0161120D01*
X0245084Y0161148D01*
X0244753Y0161252D01*
X0244453Y0161427D01*
X0244199Y0161665D01*
X0244005Y0161952D01*
X0243880Y0162276D01*
X0243830Y0162620D01*
X0243830Y0165620D01*
X0243855Y0165944D01*
X0243952Y0166254D01*
X0244115Y0166535D01*
X0244337Y0166772D01*
X0244606Y0166955D01*
X0244909Y0167073D01*
X0245230Y0167120D01*
X0255630Y0167220D01*
X0255630Y0159317D01*
X0255630Y0159462D02*
X0252325Y0159462D01*
X0252325Y0159860D02*
X0255630Y0159860D01*
X0255630Y0160259D02*
X0252325Y0160259D01*
X0252325Y0160657D02*
X0255630Y0160657D01*
X0255630Y0161056D02*
X0252325Y0161056D01*
X0255630Y0161454D02*
X0244424Y0161454D01*
X0244072Y0161853D02*
X0255630Y0161853D01*
X0255630Y0162251D02*
X0243890Y0162251D01*
X0243830Y0162650D02*
X0255630Y0162650D01*
X0255630Y0163048D02*
X0243830Y0163048D01*
X0243830Y0163447D02*
X0255630Y0163447D01*
X0255630Y0163845D02*
X0243830Y0163845D01*
X0243830Y0164244D02*
X0255630Y0164244D01*
X0255630Y0164642D02*
X0243830Y0164642D01*
X0243830Y0165041D02*
X0255630Y0165041D01*
X0255630Y0165439D02*
X0243830Y0165439D01*
X0243847Y0165838D02*
X0255630Y0165838D01*
X0255630Y0166236D02*
X0243946Y0166236D01*
X0244208Y0166635D02*
X0255630Y0166635D01*
X0255630Y0167033D02*
X0244808Y0167033D01*
X0245330Y0182220D02*
X0245006Y0182245D01*
X0244696Y0182342D01*
X0244415Y0182505D01*
X0244178Y0182727D01*
X0243995Y0182996D01*
X0243877Y0183299D01*
X0243830Y0183620D01*
X0243830Y0186520D01*
X0243858Y0186866D01*
X0243962Y0187197D01*
X0244137Y0187497D01*
X0244374Y0187751D01*
X0244662Y0187945D01*
X0244986Y0188070D01*
X0245330Y0188120D01*
X0252286Y0188100D01*
X0252286Y0190000D01*
X0255630Y0190020D01*
X0255630Y0182120D01*
X0252230Y0182120D01*
X0245830Y0182220D01*
X0245330Y0182220D01*
X0244340Y0182575D02*
X0255630Y0182575D01*
X0255630Y0182177D02*
X0248591Y0182177D01*
X0244010Y0182974D02*
X0255630Y0182974D01*
X0255630Y0183372D02*
X0243867Y0183372D01*
X0243830Y0183771D02*
X0255630Y0183771D01*
X0255630Y0184169D02*
X0243830Y0184169D01*
X0243830Y0184568D02*
X0255630Y0184568D01*
X0255630Y0184966D02*
X0243830Y0184966D01*
X0243830Y0185365D02*
X0255630Y0185365D01*
X0255630Y0185763D02*
X0243830Y0185763D01*
X0243830Y0186162D02*
X0255630Y0186162D01*
X0255630Y0186560D02*
X0243833Y0186560D01*
X0243887Y0186959D02*
X0255630Y0186959D01*
X0255630Y0187358D02*
X0244055Y0187358D01*
X0244382Y0187756D02*
X0255630Y0187756D01*
X0255630Y0188155D02*
X0252286Y0188155D01*
X0252286Y0188553D02*
X0255630Y0188553D01*
X0255630Y0188952D02*
X0252286Y0188952D01*
X0252286Y0189350D02*
X0255630Y0189350D01*
X0255630Y0189749D02*
X0252286Y0189749D01*
X0252325Y0201317D02*
X0252325Y0203120D01*
X0245430Y0203120D01*
X0245084Y0203148D01*
X0244753Y0203252D01*
X0244453Y0203427D01*
X0244199Y0203665D01*
X0244005Y0203952D01*
X0243880Y0204276D01*
X0243830Y0204620D01*
X0243830Y0207620D01*
X0243855Y0207944D01*
X0243952Y0208254D01*
X0244115Y0208535D01*
X0244337Y0208772D01*
X0244606Y0208955D01*
X0244909Y0209073D01*
X0245230Y0209120D01*
X0255630Y0209220D01*
X0255630Y0201317D01*
X0252325Y0201317D01*
X0252325Y0201704D02*
X0255630Y0201704D01*
X0255630Y0202102D02*
X0252325Y0202102D01*
X0252325Y0202501D02*
X0255630Y0202501D01*
X0255630Y0202899D02*
X0252325Y0202899D01*
X0255630Y0203298D02*
X0244674Y0203298D01*
X0244178Y0203696D02*
X0255630Y0203696D01*
X0255630Y0204095D02*
X0243950Y0204095D01*
X0243848Y0204493D02*
X0255630Y0204493D01*
X0255630Y0204892D02*
X0243830Y0204892D01*
X0243830Y0205291D02*
X0255630Y0205291D01*
X0255630Y0205689D02*
X0243830Y0205689D01*
X0243830Y0206088D02*
X0255630Y0206088D01*
X0255630Y0206486D02*
X0243830Y0206486D01*
X0243830Y0206885D02*
X0255630Y0206885D01*
X0255630Y0207283D02*
X0243830Y0207283D01*
X0243835Y0207682D02*
X0255630Y0207682D01*
X0255630Y0208080D02*
X0243898Y0208080D01*
X0244082Y0208479D02*
X0255630Y0208479D01*
X0255630Y0208877D02*
X0244491Y0208877D01*
X0245330Y0224220D02*
X0245006Y0224245D01*
X0244696Y0224342D01*
X0244415Y0224505D01*
X0244178Y0224727D01*
X0243995Y0224996D01*
X0243877Y0225299D01*
X0243830Y0225620D01*
X0243830Y0228520D01*
X0243858Y0228866D01*
X0243962Y0229197D01*
X0244137Y0229497D01*
X0244374Y0229751D01*
X0244662Y0229945D01*
X0244986Y0230070D01*
X0245330Y0230120D01*
X0252286Y0230100D01*
X0252286Y0232000D01*
X0255630Y0232020D01*
X0255630Y0224120D01*
X0252230Y0224120D01*
X0245830Y0224220D01*
X0245330Y0224220D01*
X0244563Y0224419D02*
X0255630Y0224419D01*
X0255630Y0224818D02*
X0244116Y0224818D01*
X0243910Y0225216D02*
X0255630Y0225216D01*
X0255630Y0225615D02*
X0243831Y0225615D01*
X0243830Y0226013D02*
X0255630Y0226013D01*
X0255630Y0226412D02*
X0243830Y0226412D01*
X0243830Y0226810D02*
X0255630Y0226810D01*
X0255630Y0227209D02*
X0243830Y0227209D01*
X0243830Y0227607D02*
X0255630Y0227607D01*
X0255630Y0228006D02*
X0243830Y0228006D01*
X0243830Y0228404D02*
X0255630Y0228404D01*
X0255630Y0228803D02*
X0243853Y0228803D01*
X0243964Y0229201D02*
X0255630Y0229201D01*
X0255630Y0229600D02*
X0244233Y0229600D01*
X0244801Y0229998D02*
X0255630Y0229998D01*
X0255630Y0230397D02*
X0252286Y0230397D01*
X0252286Y0230795D02*
X0255630Y0230795D01*
X0255630Y0231194D02*
X0252286Y0231194D01*
X0252286Y0231592D02*
X0255630Y0231592D01*
X0255630Y0231991D02*
X0252286Y0231991D01*
X0252325Y0243317D02*
X0252325Y0245120D01*
X0245430Y0245120D01*
X0245084Y0245148D01*
X0244753Y0245252D01*
X0244453Y0245427D01*
X0244199Y0245665D01*
X0244005Y0245952D01*
X0243880Y0246276D01*
X0243830Y0246620D01*
X0243830Y0249620D01*
X0243855Y0249944D01*
X0243952Y0250254D01*
X0244115Y0250535D01*
X0244337Y0250772D01*
X0244606Y0250955D01*
X0244909Y0251073D01*
X0245230Y0251120D01*
X0255630Y0251220D01*
X0255630Y0243317D01*
X0252325Y0243317D01*
X0252325Y0243548D02*
X0255630Y0243548D01*
X0255630Y0243946D02*
X0252325Y0243946D01*
X0252325Y0244345D02*
X0255630Y0244345D01*
X0255630Y0244743D02*
X0252325Y0244743D01*
X0255630Y0245142D02*
X0245160Y0245142D01*
X0244332Y0245540D02*
X0255630Y0245540D01*
X0255630Y0245939D02*
X0244014Y0245939D01*
X0243871Y0246337D02*
X0255630Y0246337D01*
X0255630Y0246736D02*
X0243830Y0246736D01*
X0243830Y0247134D02*
X0255630Y0247134D01*
X0255630Y0247533D02*
X0243830Y0247533D01*
X0243830Y0247931D02*
X0255630Y0247931D01*
X0255630Y0248330D02*
X0243830Y0248330D01*
X0243830Y0248728D02*
X0255630Y0248728D01*
X0255630Y0249127D02*
X0243830Y0249127D01*
X0243830Y0249525D02*
X0255630Y0249525D01*
X0255630Y0249924D02*
X0243854Y0249924D01*
X0243992Y0250322D02*
X0255630Y0250322D01*
X0255630Y0250721D02*
X0244289Y0250721D01*
X0245225Y0251119D02*
X0255630Y0251119D01*
X0255630Y0266120D02*
X0252230Y0266120D01*
X0245830Y0266220D01*
X0245330Y0266220D01*
X0245006Y0266245D01*
X0244696Y0266342D01*
X0244415Y0266505D01*
X0244178Y0266727D01*
X0243995Y0266996D01*
X0243877Y0267299D01*
X0243830Y0267620D01*
X0243830Y0270520D01*
X0243858Y0270866D01*
X0243962Y0271197D01*
X0244137Y0271497D01*
X0244374Y0271751D01*
X0244662Y0271945D01*
X0244986Y0272070D01*
X0245330Y0272120D01*
X0252286Y0272100D01*
X0252286Y0274000D01*
X0255630Y0274020D01*
X0255630Y0266120D01*
X0255630Y0266263D02*
X0244950Y0266263D01*
X0244248Y0266661D02*
X0255630Y0266661D01*
X0255630Y0267060D02*
X0243970Y0267060D01*
X0243854Y0267458D02*
X0255630Y0267458D01*
X0255630Y0267857D02*
X0243830Y0267857D01*
X0243830Y0268255D02*
X0255630Y0268255D01*
X0255630Y0268654D02*
X0243830Y0268654D01*
X0243830Y0269052D02*
X0255630Y0269052D01*
X0255630Y0269451D02*
X0243830Y0269451D01*
X0243830Y0269849D02*
X0255630Y0269849D01*
X0255630Y0270248D02*
X0243830Y0270248D01*
X0243840Y0270646D02*
X0255630Y0270646D01*
X0255630Y0271045D02*
X0243914Y0271045D01*
X0244105Y0271443D02*
X0255630Y0271443D01*
X0255630Y0271842D02*
X0244510Y0271842D01*
X0252286Y0272240D02*
X0255630Y0272240D01*
X0255630Y0272639D02*
X0252286Y0272639D01*
X0252286Y0273037D02*
X0255630Y0273037D01*
X0255630Y0273436D02*
X0252286Y0273436D01*
X0252286Y0273834D02*
X0255630Y0273834D01*
X0255630Y0285317D02*
X0252325Y0285317D01*
X0252325Y0287120D01*
X0245430Y0287120D01*
X0245084Y0287148D01*
X0244753Y0287252D01*
X0244453Y0287427D01*
X0244199Y0287665D01*
X0244005Y0287952D01*
X0243880Y0288276D01*
X0243830Y0288620D01*
X0243830Y0291620D01*
X0243855Y0291944D01*
X0243952Y0292254D01*
X0244115Y0292535D01*
X0244337Y0292772D01*
X0244606Y0292955D01*
X0244909Y0293073D01*
X0245230Y0293120D01*
X0255630Y0293220D01*
X0255630Y0285317D01*
X0255630Y0285391D02*
X0252325Y0285391D01*
X0252325Y0285790D02*
X0255630Y0285790D01*
X0255630Y0286188D02*
X0252325Y0286188D01*
X0252325Y0286587D02*
X0255630Y0286587D01*
X0255630Y0286985D02*
X0252325Y0286985D01*
X0255630Y0287384D02*
X0244527Y0287384D01*
X0244120Y0287782D02*
X0255630Y0287782D01*
X0255630Y0288181D02*
X0243917Y0288181D01*
X0243836Y0288579D02*
X0255630Y0288579D01*
X0255630Y0288978D02*
X0243830Y0288978D01*
X0243830Y0289376D02*
X0255630Y0289376D01*
X0255630Y0289775D02*
X0243830Y0289775D01*
X0243830Y0290173D02*
X0255630Y0290173D01*
X0255630Y0290572D02*
X0243830Y0290572D01*
X0243830Y0290970D02*
X0255630Y0290970D01*
X0255630Y0291369D02*
X0243830Y0291369D01*
X0243841Y0291767D02*
X0255630Y0291767D01*
X0255630Y0292166D02*
X0243924Y0292166D01*
X0244143Y0292564D02*
X0255630Y0292564D01*
X0255630Y0292963D02*
X0244627Y0292963D01*
X0245330Y0308220D02*
X0245006Y0308245D01*
X0244696Y0308342D01*
X0244415Y0308505D01*
X0244178Y0308727D01*
X0243995Y0308996D01*
X0243877Y0309299D01*
X0243830Y0309620D01*
X0243830Y0312520D01*
X0243858Y0312866D01*
X0243962Y0313197D01*
X0244137Y0313497D01*
X0244374Y0313751D01*
X0244662Y0313945D01*
X0244986Y0314070D01*
X0245330Y0314120D01*
X0252286Y0314100D01*
X0252286Y0316000D01*
X0255630Y0316020D01*
X0255630Y0308120D01*
X0252230Y0308120D01*
X0245830Y0308220D01*
X0245330Y0308220D01*
X0244415Y0308505D02*
X0255630Y0308505D01*
X0255630Y0308903D02*
X0244058Y0308903D01*
X0243877Y0309302D02*
X0255630Y0309302D01*
X0255630Y0309700D02*
X0243830Y0309700D01*
X0243830Y0310099D02*
X0255630Y0310099D01*
X0255630Y0310498D02*
X0243830Y0310498D01*
X0243830Y0310896D02*
X0255630Y0310896D01*
X0255630Y0311295D02*
X0243830Y0311295D01*
X0243830Y0311693D02*
X0255630Y0311693D01*
X0255630Y0312092D02*
X0243830Y0312092D01*
X0243830Y0312490D02*
X0255630Y0312490D01*
X0255630Y0312889D02*
X0243865Y0312889D01*
X0244014Y0313287D02*
X0255630Y0313287D01*
X0255630Y0313686D02*
X0244313Y0313686D01*
X0245083Y0314084D02*
X0255630Y0314084D01*
X0255630Y0314483D02*
X0252286Y0314483D01*
X0252286Y0314881D02*
X0255630Y0314881D01*
X0255630Y0315280D02*
X0252286Y0315280D01*
X0252286Y0315678D02*
X0255630Y0315678D01*
X0255630Y0327317D02*
X0252325Y0327317D01*
X0252325Y0329120D01*
X0245430Y0329120D01*
X0245084Y0329148D01*
X0244753Y0329252D01*
X0244453Y0329427D01*
X0244199Y0329665D01*
X0244005Y0329952D01*
X0243880Y0330276D01*
X0243830Y0330620D01*
X0243830Y0333620D01*
X0243855Y0333944D01*
X0243952Y0334254D01*
X0244115Y0334535D01*
X0244337Y0334772D01*
X0244606Y0334955D01*
X0244909Y0335073D01*
X0245230Y0335120D01*
X0255630Y0335220D01*
X0255630Y0327317D01*
X0255630Y0327633D02*
X0252325Y0327633D01*
X0252325Y0328032D02*
X0255630Y0328032D01*
X0255630Y0328431D02*
X0252325Y0328431D01*
X0252325Y0328829D02*
X0255630Y0328829D01*
X0255630Y0329228D02*
X0244830Y0329228D01*
X0244240Y0329626D02*
X0255630Y0329626D01*
X0255630Y0330025D02*
X0243977Y0330025D01*
X0243859Y0330423D02*
X0255630Y0330423D01*
X0255630Y0330822D02*
X0243830Y0330822D01*
X0243830Y0331220D02*
X0255630Y0331220D01*
X0255630Y0331619D02*
X0243830Y0331619D01*
X0243830Y0332017D02*
X0255630Y0332017D01*
X0255630Y0332416D02*
X0243830Y0332416D01*
X0243830Y0332814D02*
X0255630Y0332814D01*
X0255630Y0333213D02*
X0243830Y0333213D01*
X0243830Y0333611D02*
X0255630Y0333611D01*
X0255630Y0334010D02*
X0243876Y0334010D01*
X0244041Y0334408D02*
X0255630Y0334408D01*
X0255630Y0334807D02*
X0244387Y0334807D01*
X0254091Y0335205D02*
X0255630Y0335205D01*
X0255630Y0350120D02*
X0252230Y0350120D01*
X0245830Y0350220D01*
X0245330Y0350220D01*
X0245006Y0350245D01*
X0244696Y0350342D01*
X0244415Y0350505D01*
X0244178Y0350727D01*
X0243995Y0350996D01*
X0243877Y0351299D01*
X0243830Y0351620D01*
X0243830Y0354520D01*
X0243858Y0354866D01*
X0243962Y0355197D01*
X0244137Y0355497D01*
X0244374Y0355751D01*
X0244662Y0355945D01*
X0244986Y0356070D01*
X0245330Y0356120D01*
X0252286Y0356100D01*
X0252286Y0358000D01*
X0255630Y0358020D01*
X0255630Y0350120D01*
X0255630Y0350349D02*
X0244684Y0350349D01*
X0244164Y0350747D02*
X0255630Y0350747D01*
X0255630Y0351146D02*
X0243937Y0351146D01*
X0243841Y0351544D02*
X0255630Y0351544D01*
X0255630Y0351943D02*
X0243830Y0351943D01*
X0243830Y0352341D02*
X0255630Y0352341D01*
X0255630Y0352740D02*
X0243830Y0352740D01*
X0243830Y0353138D02*
X0255630Y0353138D01*
X0255630Y0353537D02*
X0243830Y0353537D01*
X0243830Y0353935D02*
X0255630Y0353935D01*
X0255630Y0354334D02*
X0243830Y0354334D01*
X0243847Y0354732D02*
X0255630Y0354732D01*
X0255630Y0355131D02*
X0243941Y0355131D01*
X0244167Y0355529D02*
X0255630Y0355529D01*
X0255630Y0355928D02*
X0244637Y0355928D01*
X0252286Y0356326D02*
X0255630Y0356326D01*
X0255630Y0356725D02*
X0252286Y0356725D01*
X0252286Y0357123D02*
X0255630Y0357123D01*
X0255630Y0357522D02*
X0252286Y0357522D01*
X0252286Y0357920D02*
X0255630Y0357920D01*
D18*
X0272750Y0362750D03*
X0282750Y0362750D03*
X0292750Y0362750D03*
X0302750Y0362750D03*
X0312750Y0362750D03*
X0322750Y0362750D03*
X0322750Y0322750D03*
X0322750Y0320750D03*
X0312750Y0320750D03*
X0312750Y0322750D03*
X0302750Y0322750D03*
X0302750Y0320750D03*
X0292750Y0320750D03*
X0292750Y0322750D03*
X0282750Y0322750D03*
X0282750Y0320750D03*
X0272750Y0320750D03*
X0272750Y0322750D03*
X0272750Y0280750D03*
X0272750Y0278750D03*
X0282750Y0278750D03*
X0282750Y0280750D03*
X0292750Y0280750D03*
X0292750Y0278750D03*
X0302750Y0278750D03*
X0302750Y0280750D03*
X0312750Y0280750D03*
X0312750Y0278750D03*
X0322750Y0278750D03*
X0322750Y0280750D03*
X0322750Y0238750D03*
X0322750Y0236750D03*
X0312750Y0236750D03*
X0312750Y0238750D03*
X0302750Y0238750D03*
X0302750Y0236750D03*
X0292750Y0236750D03*
X0292750Y0238750D03*
X0282750Y0238750D03*
X0282750Y0236750D03*
X0272750Y0236750D03*
X0272750Y0238750D03*
X0272750Y0196750D03*
X0272750Y0194750D03*
X0282750Y0194750D03*
X0282750Y0196750D03*
X0292750Y0196750D03*
X0292750Y0194750D03*
X0302750Y0194750D03*
X0302750Y0196750D03*
X0312750Y0196750D03*
X0312750Y0194750D03*
X0322750Y0194750D03*
X0322750Y0196750D03*
X0322750Y0154750D03*
X0322750Y0152750D03*
X0312750Y0152750D03*
X0312750Y0154750D03*
X0302750Y0154750D03*
X0302750Y0152750D03*
X0292750Y0152750D03*
X0292750Y0154750D03*
X0282750Y0154750D03*
X0282750Y0152750D03*
X0272750Y0152750D03*
X0272750Y0154750D03*
X0272750Y0112750D03*
X0272750Y0110750D03*
X0282750Y0110750D03*
X0282750Y0112750D03*
X0292750Y0112750D03*
X0292750Y0110750D03*
X0302750Y0110750D03*
X0302750Y0112750D03*
X0312750Y0112750D03*
X0312750Y0110750D03*
X0322750Y0110750D03*
X0322750Y0112750D03*
X0322750Y0070750D03*
X0322750Y0068750D03*
X0312750Y0068750D03*
X0312750Y0070750D03*
X0302750Y0070750D03*
X0302750Y0068750D03*
X0292750Y0068750D03*
X0292750Y0070750D03*
X0282750Y0070750D03*
X0282750Y0068750D03*
X0272750Y0068750D03*
X0272750Y0070750D03*
X0272750Y0028750D03*
X0282750Y0028750D03*
X0292750Y0028750D03*
X0302750Y0028750D03*
X0312750Y0028750D03*
X0322750Y0028750D03*
X0215750Y0028750D03*
X0205750Y0028750D03*
X0195750Y0028750D03*
X0185750Y0028750D03*
X0175750Y0028750D03*
X0165750Y0028750D03*
X0165750Y0068750D03*
X0165750Y0070750D03*
X0175750Y0070750D03*
X0175750Y0068750D03*
X0185750Y0068750D03*
X0185750Y0070750D03*
X0195750Y0070750D03*
X0195750Y0068750D03*
X0205750Y0068750D03*
X0205750Y0070750D03*
X0215750Y0070750D03*
X0215750Y0068750D03*
X0215750Y0110750D03*
X0215750Y0112750D03*
X0205750Y0112750D03*
X0205750Y0110750D03*
X0195750Y0110750D03*
X0195750Y0112750D03*
X0185750Y0112750D03*
X0185750Y0110750D03*
X0175750Y0110750D03*
X0175750Y0112750D03*
X0165750Y0112750D03*
X0165750Y0110750D03*
X0165750Y0152750D03*
X0165750Y0154750D03*
X0175750Y0154750D03*
X0175750Y0152750D03*
X0185750Y0152750D03*
X0185750Y0154750D03*
X0195750Y0154750D03*
X0195750Y0152750D03*
X0205750Y0152750D03*
X0205750Y0154750D03*
X0215750Y0154750D03*
X0215750Y0152750D03*
X0215750Y0194750D03*
X0215750Y0196750D03*
X0205750Y0196750D03*
X0205750Y0194750D03*
X0195750Y0194750D03*
X0195750Y0196750D03*
X0185750Y0196750D03*
X0185750Y0194750D03*
X0175750Y0194750D03*
X0175750Y0196750D03*
X0165750Y0196750D03*
X0165750Y0194750D03*
X0165750Y0236750D03*
X0165750Y0238750D03*
X0175750Y0238750D03*
X0175750Y0236750D03*
X0185750Y0236750D03*
X0185750Y0238750D03*
X0195750Y0238750D03*
X0195750Y0236750D03*
X0205750Y0236750D03*
X0205750Y0238750D03*
X0215750Y0238750D03*
X0215750Y0236750D03*
X0215750Y0278750D03*
X0215750Y0280750D03*
X0205750Y0280750D03*
X0205750Y0278750D03*
X0195750Y0278750D03*
X0195750Y0280750D03*
X0185750Y0280750D03*
X0185750Y0278750D03*
X0175750Y0278750D03*
X0175750Y0280750D03*
X0165750Y0280750D03*
X0165750Y0278750D03*
X0165750Y0320750D03*
X0165750Y0322750D03*
X0175750Y0322750D03*
X0175750Y0320750D03*
X0185750Y0320750D03*
X0185750Y0322750D03*
X0195750Y0322750D03*
X0195750Y0320750D03*
X0205750Y0320750D03*
X0205750Y0322750D03*
X0215750Y0322750D03*
X0215750Y0320750D03*
X0215750Y0362750D03*
X0205750Y0362750D03*
X0195750Y0362750D03*
X0185750Y0362750D03*
X0175750Y0362750D03*
X0165750Y0362750D03*
X0108750Y0362750D03*
X0098750Y0362750D03*
X0088750Y0362750D03*
X0078750Y0362750D03*
X0068750Y0362750D03*
X0058750Y0362750D03*
X0058750Y0322750D03*
X0058750Y0320750D03*
X0068750Y0320750D03*
X0068750Y0322750D03*
X0078750Y0322750D03*
X0078750Y0320750D03*
X0088750Y0320750D03*
X0088750Y0322750D03*
X0098750Y0322750D03*
X0098750Y0320750D03*
X0108750Y0320750D03*
X0108750Y0322750D03*
X0108750Y0280750D03*
X0108750Y0278750D03*
X0098750Y0278750D03*
X0098750Y0280750D03*
X0088750Y0280750D03*
X0088750Y0278750D03*
X0078750Y0278750D03*
X0078750Y0280750D03*
X0068750Y0280750D03*
X0068750Y0278750D03*
X0058750Y0278750D03*
X0058750Y0280750D03*
X0058750Y0238750D03*
X0058750Y0236750D03*
X0068750Y0236750D03*
X0068750Y0238750D03*
X0078750Y0238750D03*
X0078750Y0236750D03*
X0088750Y0236750D03*
X0088750Y0238750D03*
X0098750Y0238750D03*
X0098750Y0236750D03*
X0108750Y0236750D03*
X0108750Y0238750D03*
X0108750Y0196750D03*
X0108750Y0194750D03*
X0098750Y0194750D03*
X0098750Y0196750D03*
X0088750Y0196750D03*
X0088750Y0194750D03*
X0078750Y0194750D03*
X0078750Y0196750D03*
X0068750Y0196750D03*
X0068750Y0194750D03*
X0058750Y0194750D03*
X0058750Y0196750D03*
X0058750Y0154750D03*
X0058750Y0152750D03*
X0068750Y0152750D03*
X0068750Y0154750D03*
X0078750Y0154750D03*
X0078750Y0152750D03*
X0088750Y0152750D03*
X0088750Y0154750D03*
X0098750Y0154750D03*
X0098750Y0152750D03*
X0108750Y0152750D03*
X0108750Y0154750D03*
X0108750Y0112750D03*
X0108750Y0110750D03*
X0098750Y0110750D03*
X0098750Y0112750D03*
X0088750Y0112750D03*
X0088750Y0110750D03*
X0078750Y0110750D03*
X0078750Y0112750D03*
X0068750Y0112750D03*
X0068750Y0110750D03*
X0058750Y0110750D03*
X0058750Y0112750D03*
X0058750Y0070750D03*
X0058750Y0068750D03*
X0068750Y0068750D03*
X0068750Y0070750D03*
X0078750Y0070750D03*
X0078750Y0068750D03*
X0088750Y0068750D03*
X0088750Y0070750D03*
X0098750Y0070750D03*
X0098750Y0068750D03*
X0108750Y0068750D03*
X0108750Y0070750D03*
X0108750Y0028750D03*
X0098750Y0028750D03*
X0088750Y0028750D03*
X0078750Y0028750D03*
X0068750Y0028750D03*
X0058750Y0028750D03*
D19*
X0071250Y0038404D03*
X0071250Y0045096D03*
X0070750Y0052404D03*
X0070750Y0059096D03*
X0071250Y0080404D03*
X0071250Y0087096D03*
X0070750Y0094404D03*
X0070750Y0101096D03*
X0071250Y0122404D03*
X0071250Y0129096D03*
X0070750Y0136404D03*
X0070750Y0143096D03*
X0071250Y0164404D03*
X0071250Y0171096D03*
X0070750Y0178404D03*
X0070750Y0185096D03*
X0071250Y0206404D03*
X0071250Y0213096D03*
X0070750Y0220404D03*
X0070750Y0227096D03*
X0071250Y0248404D03*
X0071250Y0255096D03*
X0070750Y0262404D03*
X0070750Y0269096D03*
X0071250Y0290404D03*
X0071250Y0297096D03*
X0070750Y0304404D03*
X0070750Y0311096D03*
X0071250Y0332404D03*
X0071250Y0339096D03*
X0070750Y0346404D03*
X0070750Y0353096D03*
X0177750Y0353096D03*
X0177750Y0346404D03*
X0178250Y0339096D03*
X0178250Y0332404D03*
X0177750Y0311096D03*
X0177750Y0304404D03*
X0178250Y0297096D03*
X0178250Y0290404D03*
X0177750Y0269096D03*
X0177750Y0262404D03*
X0178250Y0255096D03*
X0178250Y0248404D03*
X0177750Y0227096D03*
X0177750Y0220404D03*
X0178250Y0213096D03*
X0178250Y0206404D03*
X0177750Y0185096D03*
X0177750Y0178404D03*
X0178250Y0171096D03*
X0178250Y0164404D03*
X0177750Y0143096D03*
X0177750Y0136404D03*
X0178250Y0129096D03*
X0178250Y0122404D03*
X0177750Y0101096D03*
X0177750Y0094404D03*
X0178250Y0087096D03*
X0178250Y0080404D03*
X0177750Y0059096D03*
X0177750Y0052404D03*
X0178250Y0045096D03*
X0178250Y0038404D03*
X0285250Y0038404D03*
X0285250Y0045096D03*
X0284750Y0052404D03*
X0284750Y0059096D03*
X0285250Y0080404D03*
X0285250Y0087096D03*
X0284750Y0094404D03*
X0284750Y0101096D03*
X0285250Y0122404D03*
X0285250Y0129096D03*
X0284750Y0136404D03*
X0284750Y0143096D03*
X0285250Y0164404D03*
X0285250Y0171096D03*
X0284750Y0178404D03*
X0284750Y0185096D03*
X0285250Y0206404D03*
X0285250Y0213096D03*
X0284750Y0220404D03*
X0284750Y0227096D03*
X0285250Y0248404D03*
X0285250Y0255096D03*
X0284750Y0262404D03*
X0284750Y0269096D03*
X0285250Y0290404D03*
X0285250Y0297096D03*
X0284750Y0304404D03*
X0284750Y0311096D03*
X0285250Y0332404D03*
X0285250Y0339096D03*
X0284750Y0346404D03*
X0284750Y0353096D03*
D20*
X0337750Y0355152D03*
X0337750Y0330348D03*
X0337750Y0313152D03*
X0337750Y0288348D03*
X0337750Y0271152D03*
X0337750Y0246348D03*
X0337750Y0229152D03*
X0337750Y0204348D03*
X0337750Y0187152D03*
X0337750Y0162348D03*
X0337750Y0145152D03*
X0337750Y0120348D03*
X0337750Y0103152D03*
X0337750Y0078348D03*
X0337750Y0061152D03*
X0337750Y0036348D03*
X0230750Y0036348D03*
X0230750Y0061152D03*
X0230750Y0078348D03*
X0230750Y0103152D03*
X0230750Y0120348D03*
X0230750Y0145152D03*
X0230750Y0162348D03*
X0230750Y0187152D03*
X0230750Y0204348D03*
X0230750Y0229152D03*
X0230750Y0246348D03*
X0230750Y0271152D03*
X0230750Y0288348D03*
X0230750Y0313152D03*
X0230750Y0330348D03*
X0230750Y0355152D03*
X0123750Y0355152D03*
X0123750Y0330348D03*
X0123750Y0313152D03*
X0123750Y0288348D03*
X0123750Y0271152D03*
X0123750Y0246348D03*
X0123750Y0229152D03*
X0123750Y0204348D03*
X0123750Y0187152D03*
X0123750Y0162348D03*
X0123750Y0145152D03*
X0123750Y0120348D03*
X0123750Y0103152D03*
X0123750Y0078348D03*
X0123750Y0061152D03*
X0123750Y0036348D03*
D21*
X0090250Y0051750D03*
X0090250Y0093750D03*
X0090250Y0135750D03*
X0090250Y0177750D03*
X0090250Y0219750D03*
X0090250Y0261750D03*
X0090250Y0303750D03*
X0090250Y0345750D03*
X0197250Y0345750D03*
X0197250Y0303750D03*
X0197250Y0261750D03*
X0197250Y0219750D03*
X0197250Y0177750D03*
X0197250Y0135750D03*
X0197250Y0093750D03*
X0197250Y0051750D03*
X0304250Y0051750D03*
X0304250Y0093750D03*
X0304250Y0135750D03*
X0304250Y0177750D03*
X0304250Y0219750D03*
X0304250Y0261750D03*
X0304250Y0303750D03*
X0304250Y0345750D03*
D22*
X0296770Y0345750D03*
X0296770Y0347719D03*
X0296770Y0349687D03*
X0296770Y0343781D03*
X0296770Y0341813D03*
X0311730Y0341813D03*
X0311730Y0343781D03*
X0311730Y0345750D03*
X0311730Y0347719D03*
X0311730Y0349687D03*
X0311730Y0307687D03*
X0311730Y0305719D03*
X0311730Y0303750D03*
X0311730Y0301781D03*
X0311730Y0299813D03*
X0296770Y0299813D03*
X0296770Y0301781D03*
X0296770Y0303750D03*
X0296770Y0305719D03*
X0296770Y0307687D03*
X0296770Y0265687D03*
X0296770Y0263719D03*
X0296770Y0261750D03*
X0296770Y0259781D03*
X0296770Y0257813D03*
X0311730Y0257813D03*
X0311730Y0259781D03*
X0311730Y0261750D03*
X0311730Y0263719D03*
X0311730Y0265687D03*
X0311730Y0223687D03*
X0311730Y0221719D03*
X0311730Y0219750D03*
X0311730Y0217781D03*
X0311730Y0215813D03*
X0296770Y0215813D03*
X0296770Y0217781D03*
X0296770Y0219750D03*
X0296770Y0221719D03*
X0296770Y0223687D03*
X0296770Y0181687D03*
X0296770Y0179719D03*
X0296770Y0177750D03*
X0296770Y0175781D03*
X0296770Y0173813D03*
X0311730Y0173813D03*
X0311730Y0175781D03*
X0311730Y0177750D03*
X0311730Y0179719D03*
X0311730Y0181687D03*
X0311730Y0139687D03*
X0311730Y0137719D03*
X0311730Y0135750D03*
X0311730Y0133781D03*
X0311730Y0131813D03*
X0296770Y0131813D03*
X0296770Y0133781D03*
X0296770Y0135750D03*
X0296770Y0137719D03*
X0296770Y0139687D03*
X0296770Y0097687D03*
X0296770Y0095719D03*
X0296770Y0093750D03*
X0296770Y0091781D03*
X0296770Y0089813D03*
X0311730Y0089813D03*
X0311730Y0091781D03*
X0311730Y0093750D03*
X0311730Y0095719D03*
X0311730Y0097687D03*
X0311730Y0055687D03*
X0311730Y0053719D03*
X0311730Y0051750D03*
X0311730Y0049781D03*
X0311730Y0047813D03*
X0296770Y0047813D03*
X0296770Y0049781D03*
X0296770Y0051750D03*
X0296770Y0053719D03*
X0296770Y0055687D03*
X0204730Y0055687D03*
X0204730Y0053719D03*
X0204730Y0051750D03*
X0204730Y0049781D03*
X0204730Y0047813D03*
X0189770Y0047813D03*
X0189770Y0049781D03*
X0189770Y0051750D03*
X0189770Y0053719D03*
X0189770Y0055687D03*
X0189770Y0089813D03*
X0189770Y0091781D03*
X0189770Y0093750D03*
X0189770Y0095719D03*
X0189770Y0097687D03*
X0204730Y0097687D03*
X0204730Y0095719D03*
X0204730Y0093750D03*
X0204730Y0091781D03*
X0204730Y0089813D03*
X0204730Y0131813D03*
X0204730Y0133781D03*
X0204730Y0135750D03*
X0204730Y0137719D03*
X0204730Y0139687D03*
X0189770Y0139687D03*
X0189770Y0137719D03*
X0189770Y0135750D03*
X0189770Y0133781D03*
X0189770Y0131813D03*
X0189770Y0173813D03*
X0189770Y0175781D03*
X0189770Y0177750D03*
X0189770Y0179719D03*
X0189770Y0181687D03*
X0204730Y0181687D03*
X0204730Y0179719D03*
X0204730Y0177750D03*
X0204730Y0175781D03*
X0204730Y0173813D03*
X0204730Y0215813D03*
X0204730Y0217781D03*
X0204730Y0219750D03*
X0204730Y0221719D03*
X0204730Y0223687D03*
X0189770Y0223687D03*
X0189770Y0221719D03*
X0189770Y0219750D03*
X0189770Y0217781D03*
X0189770Y0215813D03*
X0189770Y0257813D03*
X0189770Y0259781D03*
X0189770Y0261750D03*
X0189770Y0263719D03*
X0189770Y0265687D03*
X0204730Y0265687D03*
X0204730Y0263719D03*
X0204730Y0261750D03*
X0204730Y0259781D03*
X0204730Y0257813D03*
X0204730Y0299813D03*
X0204730Y0301781D03*
X0204730Y0303750D03*
X0204730Y0305719D03*
X0204730Y0307687D03*
X0189770Y0307687D03*
X0189770Y0305719D03*
X0189770Y0303750D03*
X0189770Y0301781D03*
X0189770Y0299813D03*
X0189770Y0341813D03*
X0189770Y0343781D03*
X0189770Y0345750D03*
X0189770Y0347719D03*
X0189770Y0349687D03*
X0204730Y0349687D03*
X0204730Y0347719D03*
X0204730Y0345750D03*
X0204730Y0343781D03*
X0204730Y0341813D03*
X0097730Y0341813D03*
X0097730Y0343781D03*
X0097730Y0345750D03*
X0097730Y0347719D03*
X0097730Y0349687D03*
X0082770Y0349687D03*
X0082770Y0347719D03*
X0082770Y0345750D03*
X0082770Y0343781D03*
X0082770Y0341813D03*
X0082770Y0307687D03*
X0082770Y0305719D03*
X0082770Y0303750D03*
X0082770Y0301781D03*
X0082770Y0299813D03*
X0097730Y0299813D03*
X0097730Y0301781D03*
X0097730Y0303750D03*
X0097730Y0305719D03*
X0097730Y0307687D03*
X0097730Y0265687D03*
X0097730Y0263719D03*
X0097730Y0261750D03*
X0097730Y0259781D03*
X0097730Y0257813D03*
X0082770Y0257813D03*
X0082770Y0259781D03*
X0082770Y0261750D03*
X0082770Y0263719D03*
X0082770Y0265687D03*
X0082770Y0223687D03*
X0082770Y0221719D03*
X0082770Y0219750D03*
X0082770Y0217781D03*
X0082770Y0215813D03*
X0097730Y0215813D03*
X0097730Y0217781D03*
X0097730Y0219750D03*
X0097730Y0221719D03*
X0097730Y0223687D03*
X0097730Y0181687D03*
X0097730Y0179719D03*
X0097730Y0177750D03*
X0097730Y0175781D03*
X0097730Y0173813D03*
X0082770Y0173813D03*
X0082770Y0175781D03*
X0082770Y0177750D03*
X0082770Y0179719D03*
X0082770Y0181687D03*
X0082770Y0139687D03*
X0082770Y0137719D03*
X0082770Y0135750D03*
X0082770Y0133781D03*
X0082770Y0131813D03*
X0097730Y0131813D03*
X0097730Y0133781D03*
X0097730Y0135750D03*
X0097730Y0137719D03*
X0097730Y0139687D03*
X0097730Y0097687D03*
X0097730Y0095719D03*
X0097730Y0093750D03*
X0097730Y0091781D03*
X0097730Y0089813D03*
X0082770Y0089813D03*
X0082770Y0091781D03*
X0082770Y0093750D03*
X0082770Y0095719D03*
X0082770Y0097687D03*
X0082770Y0055687D03*
X0082770Y0053719D03*
X0082770Y0051750D03*
X0082770Y0049781D03*
X0082770Y0047813D03*
X0097730Y0047813D03*
X0097730Y0049781D03*
X0097730Y0051750D03*
X0097730Y0053719D03*
X0097730Y0055687D03*
D23*
X0094187Y0059230D03*
X0092219Y0059230D03*
X0090250Y0059230D03*
X0088281Y0059230D03*
X0086313Y0059230D03*
X0086313Y0044270D03*
X0088281Y0044270D03*
X0090250Y0044270D03*
X0092219Y0044270D03*
X0094187Y0044270D03*
X0094187Y0086270D03*
X0092219Y0086270D03*
X0090250Y0086270D03*
X0088281Y0086270D03*
X0086313Y0086270D03*
X0086313Y0101230D03*
X0088281Y0101230D03*
X0090250Y0101230D03*
X0092219Y0101230D03*
X0094187Y0101230D03*
X0094187Y0128270D03*
X0092219Y0128270D03*
X0090250Y0128270D03*
X0088281Y0128270D03*
X0086313Y0128270D03*
X0086313Y0143230D03*
X0088281Y0143230D03*
X0090250Y0143230D03*
X0092219Y0143230D03*
X0094187Y0143230D03*
X0094187Y0170270D03*
X0092219Y0170270D03*
X0090250Y0170270D03*
X0088281Y0170270D03*
X0086313Y0170270D03*
X0086313Y0185230D03*
X0088281Y0185230D03*
X0090250Y0185230D03*
X0092219Y0185230D03*
X0094187Y0185230D03*
X0094187Y0212270D03*
X0092219Y0212270D03*
X0090250Y0212270D03*
X0088281Y0212270D03*
X0086313Y0212270D03*
X0086313Y0227230D03*
X0088281Y0227230D03*
X0090250Y0227230D03*
X0092219Y0227230D03*
X0094187Y0227230D03*
X0094187Y0254270D03*
X0092219Y0254270D03*
X0090250Y0254270D03*
X0088281Y0254270D03*
X0086313Y0254270D03*
X0086313Y0269230D03*
X0088281Y0269230D03*
X0090250Y0269230D03*
X0092219Y0269230D03*
X0094187Y0269230D03*
X0094187Y0296270D03*
X0092219Y0296270D03*
X0090250Y0296270D03*
X0088281Y0296270D03*
X0086313Y0296270D03*
X0086313Y0311230D03*
X0088281Y0311230D03*
X0090250Y0311230D03*
X0092219Y0311230D03*
X0094187Y0311230D03*
X0094187Y0338270D03*
X0092219Y0338270D03*
X0090250Y0338270D03*
X0088281Y0338270D03*
X0086313Y0338270D03*
X0086313Y0353230D03*
X0088281Y0353230D03*
X0090250Y0353230D03*
X0092219Y0353230D03*
X0094187Y0353230D03*
X0193313Y0353230D03*
X0195281Y0353230D03*
X0197250Y0353230D03*
X0199219Y0353230D03*
X0201187Y0353230D03*
X0201187Y0338270D03*
X0199219Y0338270D03*
X0197250Y0338270D03*
X0195281Y0338270D03*
X0193313Y0338270D03*
X0193313Y0311230D03*
X0195281Y0311230D03*
X0197250Y0311230D03*
X0199219Y0311230D03*
X0201187Y0311230D03*
X0201187Y0296270D03*
X0199219Y0296270D03*
X0197250Y0296270D03*
X0195281Y0296270D03*
X0193313Y0296270D03*
X0193313Y0269230D03*
X0195281Y0269230D03*
X0197250Y0269230D03*
X0199219Y0269230D03*
X0201187Y0269230D03*
X0201187Y0254270D03*
X0199219Y0254270D03*
X0197250Y0254270D03*
X0195281Y0254270D03*
X0193313Y0254270D03*
X0193313Y0227230D03*
X0195281Y0227230D03*
X0197250Y0227230D03*
X0199219Y0227230D03*
X0201187Y0227230D03*
X0201187Y0212270D03*
X0199219Y0212270D03*
X0197250Y0212270D03*
X0195281Y0212270D03*
X0193313Y0212270D03*
X0193313Y0185230D03*
X0195281Y0185230D03*
X0197250Y0185230D03*
X0199219Y0185230D03*
X0201187Y0185230D03*
X0201187Y0170270D03*
X0199219Y0170270D03*
X0197250Y0170270D03*
X0195281Y0170270D03*
X0193313Y0170270D03*
X0193313Y0143230D03*
X0195281Y0143230D03*
X0197250Y0143230D03*
X0199219Y0143230D03*
X0201187Y0143230D03*
X0201187Y0128270D03*
X0199219Y0128270D03*
X0197250Y0128270D03*
X0195281Y0128270D03*
X0193313Y0128270D03*
X0193313Y0101230D03*
X0195281Y0101230D03*
X0197250Y0101230D03*
X0199219Y0101230D03*
X0201187Y0101230D03*
X0201187Y0086270D03*
X0199219Y0086270D03*
X0197250Y0086270D03*
X0195281Y0086270D03*
X0193313Y0086270D03*
X0193313Y0059230D03*
X0195281Y0059230D03*
X0197250Y0059230D03*
X0199219Y0059230D03*
X0201187Y0059230D03*
X0201187Y0044270D03*
X0199219Y0044270D03*
X0197250Y0044270D03*
X0195281Y0044270D03*
X0193313Y0044270D03*
X0300313Y0044270D03*
X0302281Y0044270D03*
X0304250Y0044270D03*
X0306219Y0044270D03*
X0308187Y0044270D03*
X0308187Y0059230D03*
X0306219Y0059230D03*
X0304250Y0059230D03*
X0302281Y0059230D03*
X0300313Y0059230D03*
X0300313Y0086270D03*
X0302281Y0086270D03*
X0304250Y0086270D03*
X0306219Y0086270D03*
X0308187Y0086270D03*
X0308187Y0101230D03*
X0306219Y0101230D03*
X0304250Y0101230D03*
X0302281Y0101230D03*
X0300313Y0101230D03*
X0300313Y0128270D03*
X0302281Y0128270D03*
X0304250Y0128270D03*
X0306219Y0128270D03*
X0308187Y0128270D03*
X0308187Y0143230D03*
X0306219Y0143230D03*
X0304250Y0143230D03*
X0302281Y0143230D03*
X0300313Y0143230D03*
X0300313Y0170270D03*
X0302281Y0170270D03*
X0304250Y0170270D03*
X0306219Y0170270D03*
X0308187Y0170270D03*
X0308187Y0185230D03*
X0306219Y0185230D03*
X0304250Y0185230D03*
X0302281Y0185230D03*
X0300313Y0185230D03*
X0300313Y0212270D03*
X0302281Y0212270D03*
X0304250Y0212270D03*
X0306219Y0212270D03*
X0308187Y0212270D03*
X0308187Y0227230D03*
X0306219Y0227230D03*
X0304250Y0227230D03*
X0302281Y0227230D03*
X0300313Y0227230D03*
X0300313Y0254270D03*
X0302281Y0254270D03*
X0304250Y0254270D03*
X0306219Y0254270D03*
X0308187Y0254270D03*
X0308187Y0269230D03*
X0306219Y0269230D03*
X0304250Y0269230D03*
X0302281Y0269230D03*
X0300313Y0269230D03*
X0300313Y0296270D03*
X0302281Y0296270D03*
X0304250Y0296270D03*
X0306219Y0296270D03*
X0308187Y0296270D03*
X0308187Y0311230D03*
X0306219Y0311230D03*
X0304250Y0311230D03*
X0302281Y0311230D03*
X0300313Y0311230D03*
X0300313Y0338270D03*
X0302281Y0338270D03*
X0304250Y0338270D03*
X0306219Y0338270D03*
X0308187Y0338270D03*
X0308187Y0353230D03*
X0306219Y0353230D03*
X0304250Y0353230D03*
X0302281Y0353230D03*
X0300313Y0353230D03*
D24*
X0320750Y0371000D03*
X0055750Y0371000D03*
D25*
X0052185Y0020500D02*
X0052187Y0020619D01*
X0052193Y0020738D01*
X0052203Y0020857D01*
X0052217Y0020975D01*
X0052235Y0021093D01*
X0052256Y0021210D01*
X0052282Y0021326D01*
X0052312Y0021442D01*
X0052345Y0021556D01*
X0052382Y0021669D01*
X0052423Y0021781D01*
X0052468Y0021892D01*
X0052516Y0022001D01*
X0052568Y0022108D01*
X0052624Y0022213D01*
X0052683Y0022317D01*
X0052745Y0022418D01*
X0052811Y0022518D01*
X0052880Y0022615D01*
X0052952Y0022709D01*
X0053028Y0022802D01*
X0053106Y0022891D01*
X0053187Y0022978D01*
X0053272Y0023063D01*
X0053359Y0023144D01*
X0053448Y0023222D01*
X0053541Y0023298D01*
X0053635Y0023370D01*
X0053732Y0023439D01*
X0053832Y0023505D01*
X0053933Y0023567D01*
X0054037Y0023626D01*
X0054142Y0023682D01*
X0054249Y0023734D01*
X0054358Y0023782D01*
X0054469Y0023827D01*
X0054581Y0023868D01*
X0054694Y0023905D01*
X0054808Y0023938D01*
X0054924Y0023968D01*
X0055040Y0023994D01*
X0055157Y0024015D01*
X0055275Y0024033D01*
X0055393Y0024047D01*
X0055512Y0024057D01*
X0055631Y0024063D01*
X0055750Y0024065D01*
X0055869Y0024063D01*
X0055988Y0024057D01*
X0056107Y0024047D01*
X0056225Y0024033D01*
X0056343Y0024015D01*
X0056460Y0023994D01*
X0056576Y0023968D01*
X0056692Y0023938D01*
X0056806Y0023905D01*
X0056919Y0023868D01*
X0057031Y0023827D01*
X0057142Y0023782D01*
X0057251Y0023734D01*
X0057358Y0023682D01*
X0057463Y0023626D01*
X0057567Y0023567D01*
X0057668Y0023505D01*
X0057768Y0023439D01*
X0057865Y0023370D01*
X0057959Y0023298D01*
X0058052Y0023222D01*
X0058141Y0023144D01*
X0058228Y0023063D01*
X0058313Y0022978D01*
X0058394Y0022891D01*
X0058472Y0022802D01*
X0058548Y0022709D01*
X0058620Y0022615D01*
X0058689Y0022518D01*
X0058755Y0022418D01*
X0058817Y0022317D01*
X0058876Y0022213D01*
X0058932Y0022108D01*
X0058984Y0022001D01*
X0059032Y0021892D01*
X0059077Y0021781D01*
X0059118Y0021669D01*
X0059155Y0021556D01*
X0059188Y0021442D01*
X0059218Y0021326D01*
X0059244Y0021210D01*
X0059265Y0021093D01*
X0059283Y0020975D01*
X0059297Y0020857D01*
X0059307Y0020738D01*
X0059313Y0020619D01*
X0059315Y0020500D01*
X0059313Y0020381D01*
X0059307Y0020262D01*
X0059297Y0020143D01*
X0059283Y0020025D01*
X0059265Y0019907D01*
X0059244Y0019790D01*
X0059218Y0019674D01*
X0059188Y0019558D01*
X0059155Y0019444D01*
X0059118Y0019331D01*
X0059077Y0019219D01*
X0059032Y0019108D01*
X0058984Y0018999D01*
X0058932Y0018892D01*
X0058876Y0018787D01*
X0058817Y0018683D01*
X0058755Y0018582D01*
X0058689Y0018482D01*
X0058620Y0018385D01*
X0058548Y0018291D01*
X0058472Y0018198D01*
X0058394Y0018109D01*
X0058313Y0018022D01*
X0058228Y0017937D01*
X0058141Y0017856D01*
X0058052Y0017778D01*
X0057959Y0017702D01*
X0057865Y0017630D01*
X0057768Y0017561D01*
X0057668Y0017495D01*
X0057567Y0017433D01*
X0057463Y0017374D01*
X0057358Y0017318D01*
X0057251Y0017266D01*
X0057142Y0017218D01*
X0057031Y0017173D01*
X0056919Y0017132D01*
X0056806Y0017095D01*
X0056692Y0017062D01*
X0056576Y0017032D01*
X0056460Y0017006D01*
X0056343Y0016985D01*
X0056225Y0016967D01*
X0056107Y0016953D01*
X0055988Y0016943D01*
X0055869Y0016937D01*
X0055750Y0016935D01*
X0055631Y0016937D01*
X0055512Y0016943D01*
X0055393Y0016953D01*
X0055275Y0016967D01*
X0055157Y0016985D01*
X0055040Y0017006D01*
X0054924Y0017032D01*
X0054808Y0017062D01*
X0054694Y0017095D01*
X0054581Y0017132D01*
X0054469Y0017173D01*
X0054358Y0017218D01*
X0054249Y0017266D01*
X0054142Y0017318D01*
X0054037Y0017374D01*
X0053933Y0017433D01*
X0053832Y0017495D01*
X0053732Y0017561D01*
X0053635Y0017630D01*
X0053541Y0017702D01*
X0053448Y0017778D01*
X0053359Y0017856D01*
X0053272Y0017937D01*
X0053187Y0018022D01*
X0053106Y0018109D01*
X0053028Y0018198D01*
X0052952Y0018291D01*
X0052880Y0018385D01*
X0052811Y0018482D01*
X0052745Y0018582D01*
X0052683Y0018683D01*
X0052624Y0018787D01*
X0052568Y0018892D01*
X0052516Y0018999D01*
X0052468Y0019108D01*
X0052423Y0019219D01*
X0052382Y0019331D01*
X0052345Y0019444D01*
X0052312Y0019558D01*
X0052282Y0019674D01*
X0052256Y0019790D01*
X0052235Y0019907D01*
X0052217Y0020025D01*
X0052203Y0020143D01*
X0052193Y0020262D01*
X0052187Y0020381D01*
X0052185Y0020500D01*
D26*
X0055750Y0020500D03*
M02*
