G75*
%MOIN*%
%OFA0B0*%
%FSLAX25Y25*%
%IPPOS*%
%LPD*%
%AMOC8*
5,1,8,0,0,1.08239X$1,22.5*
%
%ADD10R,0.04331X0.03937*%
%ADD11R,0.02480X0.03268*%
%ADD12C,0.01181*%
%ADD13R,0.05748X0.07874*%
%ADD14R,0.09843X0.05610*%
%ADD15C,0.00400*%
%ADD16C,0.00197*%
%ADD17R,0.03937X0.04331*%
%ADD18R,0.06299X0.09055*%
%ADD19R,0.01969X0.01969*%
%ADD20R,0.00800X0.01900*%
%ADD21R,0.01900X0.00800*%
D10*
X0055404Y0038750D03*
X0062096Y0038750D03*
X0062096Y0058750D03*
X0055404Y0058750D03*
X0055404Y0080750D03*
X0062096Y0080750D03*
X0062096Y0100750D03*
X0055404Y0100750D03*
X0055404Y0122750D03*
X0062096Y0122750D03*
X0062096Y0142750D03*
X0055404Y0142750D03*
X0055404Y0164750D03*
X0062096Y0164750D03*
X0062096Y0184750D03*
X0055404Y0184750D03*
X0055404Y0206750D03*
X0062096Y0206750D03*
X0062096Y0226750D03*
X0055404Y0226750D03*
X0055404Y0248750D03*
X0062096Y0248750D03*
X0062096Y0268750D03*
X0055404Y0268750D03*
X0055404Y0290750D03*
X0062096Y0290750D03*
X0062096Y0310750D03*
X0055404Y0310750D03*
X0055404Y0332750D03*
X0062096Y0332750D03*
X0062096Y0352750D03*
X0055404Y0352750D03*
X0105404Y0352750D03*
X0112096Y0352750D03*
X0112096Y0337750D03*
X0112096Y0332750D03*
X0105404Y0332750D03*
X0105404Y0337750D03*
X0105404Y0310750D03*
X0112096Y0310750D03*
X0112096Y0295750D03*
X0112096Y0290750D03*
X0105404Y0290750D03*
X0105404Y0295750D03*
X0105404Y0268750D03*
X0112096Y0268750D03*
X0112096Y0253750D03*
X0112096Y0248750D03*
X0105404Y0248750D03*
X0105404Y0253750D03*
X0105404Y0226750D03*
X0112096Y0226750D03*
X0112096Y0211750D03*
X0112096Y0206750D03*
X0105404Y0206750D03*
X0105404Y0211750D03*
X0105404Y0184750D03*
X0112096Y0184750D03*
X0112096Y0169750D03*
X0112096Y0164750D03*
X0105404Y0164750D03*
X0105404Y0169750D03*
X0105404Y0142750D03*
X0112096Y0142750D03*
X0112096Y0127750D03*
X0112096Y0122750D03*
X0105404Y0122750D03*
X0105404Y0127750D03*
X0105404Y0100750D03*
X0112096Y0100750D03*
X0112096Y0085750D03*
X0112096Y0080750D03*
X0105404Y0080750D03*
X0105404Y0085750D03*
X0105404Y0058750D03*
X0112096Y0058750D03*
X0112096Y0043750D03*
X0105404Y0043750D03*
X0105404Y0038750D03*
X0112096Y0038750D03*
X0162404Y0038750D03*
X0169096Y0038750D03*
X0169096Y0058750D03*
X0162404Y0058750D03*
X0162404Y0080750D03*
X0169096Y0080750D03*
X0169096Y0100750D03*
X0162404Y0100750D03*
X0162404Y0122750D03*
X0169096Y0122750D03*
X0169096Y0142750D03*
X0162404Y0142750D03*
X0162404Y0164750D03*
X0169096Y0164750D03*
X0169096Y0184750D03*
X0162404Y0184750D03*
X0162404Y0206750D03*
X0169096Y0206750D03*
X0169096Y0226750D03*
X0162404Y0226750D03*
X0162404Y0248750D03*
X0169096Y0248750D03*
X0169096Y0268750D03*
X0162404Y0268750D03*
X0162404Y0290750D03*
X0169096Y0290750D03*
X0169096Y0310750D03*
X0162404Y0310750D03*
X0162404Y0332750D03*
X0169096Y0332750D03*
X0169096Y0352750D03*
X0162404Y0352750D03*
X0212404Y0352750D03*
X0219096Y0352750D03*
X0219096Y0337750D03*
X0219096Y0332750D03*
X0212404Y0332750D03*
X0212404Y0337750D03*
X0212404Y0310750D03*
X0219096Y0310750D03*
X0219096Y0295750D03*
X0219096Y0290750D03*
X0212404Y0290750D03*
X0212404Y0295750D03*
X0212404Y0268750D03*
X0219096Y0268750D03*
X0219096Y0253750D03*
X0219096Y0248750D03*
X0212404Y0248750D03*
X0212404Y0253750D03*
X0212404Y0226750D03*
X0219096Y0226750D03*
X0219096Y0211750D03*
X0219096Y0206750D03*
X0212404Y0206750D03*
X0212404Y0211750D03*
X0212404Y0184750D03*
X0219096Y0184750D03*
X0219096Y0169750D03*
X0219096Y0164750D03*
X0212404Y0164750D03*
X0212404Y0169750D03*
X0212404Y0142750D03*
X0219096Y0142750D03*
X0219096Y0127750D03*
X0219096Y0122750D03*
X0212404Y0122750D03*
X0212404Y0127750D03*
X0212404Y0100750D03*
X0219096Y0100750D03*
X0219096Y0085750D03*
X0219096Y0080750D03*
X0212404Y0080750D03*
X0212404Y0085750D03*
X0212404Y0058750D03*
X0219096Y0058750D03*
X0219096Y0043750D03*
X0219096Y0038750D03*
X0212404Y0038750D03*
X0212404Y0043750D03*
X0269404Y0038750D03*
X0276096Y0038750D03*
X0276096Y0058750D03*
X0269404Y0058750D03*
X0269404Y0080750D03*
X0276096Y0080750D03*
X0276096Y0100750D03*
X0269404Y0100750D03*
X0269404Y0122750D03*
X0276096Y0122750D03*
X0276096Y0142750D03*
X0269404Y0142750D03*
X0269404Y0164750D03*
X0276096Y0164750D03*
X0276096Y0184750D03*
X0269404Y0184750D03*
X0269404Y0206750D03*
X0276096Y0206750D03*
X0276096Y0226750D03*
X0269404Y0226750D03*
X0269404Y0248750D03*
X0276096Y0248750D03*
X0276096Y0268750D03*
X0269404Y0268750D03*
X0269404Y0290750D03*
X0276096Y0290750D03*
X0276096Y0310750D03*
X0269404Y0310750D03*
X0269404Y0332750D03*
X0276096Y0332750D03*
X0276096Y0352750D03*
X0269404Y0352750D03*
X0319404Y0352750D03*
X0326096Y0352750D03*
X0326096Y0337750D03*
X0326096Y0332750D03*
X0319404Y0332750D03*
X0319404Y0337750D03*
X0319404Y0310750D03*
X0326096Y0310750D03*
X0326096Y0295750D03*
X0326096Y0290750D03*
X0319404Y0290750D03*
X0319404Y0295750D03*
X0319404Y0268750D03*
X0326096Y0268750D03*
X0326096Y0253750D03*
X0326096Y0248750D03*
X0319404Y0248750D03*
X0319404Y0253750D03*
X0319404Y0226750D03*
X0326096Y0226750D03*
X0326096Y0211750D03*
X0326096Y0206750D03*
X0319404Y0206750D03*
X0319404Y0211750D03*
X0319404Y0184750D03*
X0326096Y0184750D03*
X0326096Y0169750D03*
X0326096Y0164750D03*
X0319404Y0164750D03*
X0319404Y0169750D03*
X0319404Y0142750D03*
X0326096Y0142750D03*
X0326096Y0127750D03*
X0326096Y0122750D03*
X0319404Y0122750D03*
X0319404Y0127750D03*
X0319404Y0100750D03*
X0326096Y0100750D03*
X0326096Y0085750D03*
X0326096Y0080750D03*
X0319404Y0080750D03*
X0319404Y0085750D03*
X0319404Y0058750D03*
X0326096Y0058750D03*
X0326096Y0043750D03*
X0319404Y0043750D03*
X0319404Y0038750D03*
X0326096Y0038750D03*
D11*
X0277278Y0043750D03*
X0268222Y0043750D03*
X0268222Y0053750D03*
X0277278Y0053750D03*
X0277278Y0085750D03*
X0268222Y0085750D03*
X0268222Y0095750D03*
X0277278Y0095750D03*
X0277278Y0127750D03*
X0268222Y0127750D03*
X0268222Y0137750D03*
X0277278Y0137750D03*
X0277278Y0169750D03*
X0268222Y0169750D03*
X0268222Y0179750D03*
X0277278Y0179750D03*
X0277278Y0211750D03*
X0268222Y0211750D03*
X0268222Y0221750D03*
X0277278Y0221750D03*
X0277278Y0253750D03*
X0268222Y0253750D03*
X0268222Y0263750D03*
X0277278Y0263750D03*
X0277278Y0295750D03*
X0268222Y0295750D03*
X0268222Y0305750D03*
X0277278Y0305750D03*
X0277278Y0337750D03*
X0268222Y0337750D03*
X0268222Y0347750D03*
X0277278Y0347750D03*
X0170278Y0347750D03*
X0161222Y0347750D03*
X0161222Y0337750D03*
X0170278Y0337750D03*
X0170278Y0305750D03*
X0161222Y0305750D03*
X0161222Y0295750D03*
X0170278Y0295750D03*
X0170278Y0263750D03*
X0161222Y0263750D03*
X0161222Y0253750D03*
X0170278Y0253750D03*
X0170278Y0221750D03*
X0161222Y0221750D03*
X0161222Y0211750D03*
X0170278Y0211750D03*
X0170278Y0179750D03*
X0161222Y0179750D03*
X0161222Y0169750D03*
X0170278Y0169750D03*
X0170278Y0137750D03*
X0161222Y0137750D03*
X0161222Y0127750D03*
X0170278Y0127750D03*
X0170278Y0095750D03*
X0161222Y0095750D03*
X0161222Y0085750D03*
X0170278Y0085750D03*
X0170278Y0053750D03*
X0161222Y0053750D03*
X0161222Y0043750D03*
X0170278Y0043750D03*
X0063278Y0043750D03*
X0054222Y0043750D03*
X0054222Y0053750D03*
X0063278Y0053750D03*
X0063278Y0085750D03*
X0054222Y0085750D03*
X0054222Y0095750D03*
X0063278Y0095750D03*
X0063278Y0127750D03*
X0054222Y0127750D03*
X0054222Y0137750D03*
X0063278Y0137750D03*
X0063278Y0169750D03*
X0054222Y0169750D03*
X0054222Y0179750D03*
X0063278Y0179750D03*
X0063278Y0211750D03*
X0054222Y0211750D03*
X0054222Y0221750D03*
X0063278Y0221750D03*
X0063278Y0253750D03*
X0054222Y0253750D03*
X0054222Y0263750D03*
X0063278Y0263750D03*
X0063278Y0295750D03*
X0054222Y0295750D03*
X0054222Y0305750D03*
X0063278Y0305750D03*
X0063278Y0337750D03*
X0054222Y0337750D03*
X0054222Y0347750D03*
X0063278Y0347750D03*
D12*
X0103919Y0346372D02*
X0103919Y0349128D01*
X0106675Y0349128D01*
X0106675Y0346372D01*
X0103919Y0346372D01*
X0103919Y0347552D02*
X0106675Y0347552D01*
X0106675Y0348732D02*
X0103919Y0348732D01*
X0110825Y0349128D02*
X0110825Y0346372D01*
X0110825Y0349128D02*
X0113581Y0349128D01*
X0113581Y0346372D01*
X0110825Y0346372D01*
X0110825Y0347552D02*
X0113581Y0347552D01*
X0113581Y0348732D02*
X0110825Y0348732D01*
X0110825Y0307128D02*
X0110825Y0304372D01*
X0110825Y0307128D02*
X0113581Y0307128D01*
X0113581Y0304372D01*
X0110825Y0304372D01*
X0110825Y0305552D02*
X0113581Y0305552D01*
X0113581Y0306732D02*
X0110825Y0306732D01*
X0103919Y0307128D02*
X0103919Y0304372D01*
X0103919Y0307128D02*
X0106675Y0307128D01*
X0106675Y0304372D01*
X0103919Y0304372D01*
X0103919Y0305552D02*
X0106675Y0305552D01*
X0106675Y0306732D02*
X0103919Y0306732D01*
X0103919Y0265128D02*
X0103919Y0262372D01*
X0103919Y0265128D02*
X0106675Y0265128D01*
X0106675Y0262372D01*
X0103919Y0262372D01*
X0103919Y0263552D02*
X0106675Y0263552D01*
X0106675Y0264732D02*
X0103919Y0264732D01*
X0110825Y0265128D02*
X0110825Y0262372D01*
X0110825Y0265128D02*
X0113581Y0265128D01*
X0113581Y0262372D01*
X0110825Y0262372D01*
X0110825Y0263552D02*
X0113581Y0263552D01*
X0113581Y0264732D02*
X0110825Y0264732D01*
X0110825Y0223128D02*
X0110825Y0220372D01*
X0110825Y0223128D02*
X0113581Y0223128D01*
X0113581Y0220372D01*
X0110825Y0220372D01*
X0110825Y0221552D02*
X0113581Y0221552D01*
X0113581Y0222732D02*
X0110825Y0222732D01*
X0103919Y0223128D02*
X0103919Y0220372D01*
X0103919Y0223128D02*
X0106675Y0223128D01*
X0106675Y0220372D01*
X0103919Y0220372D01*
X0103919Y0221552D02*
X0106675Y0221552D01*
X0106675Y0222732D02*
X0103919Y0222732D01*
X0103919Y0181128D02*
X0103919Y0178372D01*
X0103919Y0181128D02*
X0106675Y0181128D01*
X0106675Y0178372D01*
X0103919Y0178372D01*
X0103919Y0179552D02*
X0106675Y0179552D01*
X0106675Y0180732D02*
X0103919Y0180732D01*
X0110825Y0181128D02*
X0110825Y0178372D01*
X0110825Y0181128D02*
X0113581Y0181128D01*
X0113581Y0178372D01*
X0110825Y0178372D01*
X0110825Y0179552D02*
X0113581Y0179552D01*
X0113581Y0180732D02*
X0110825Y0180732D01*
X0110825Y0139128D02*
X0110825Y0136372D01*
X0110825Y0139128D02*
X0113581Y0139128D01*
X0113581Y0136372D01*
X0110825Y0136372D01*
X0110825Y0137552D02*
X0113581Y0137552D01*
X0113581Y0138732D02*
X0110825Y0138732D01*
X0103919Y0139128D02*
X0103919Y0136372D01*
X0103919Y0139128D02*
X0106675Y0139128D01*
X0106675Y0136372D01*
X0103919Y0136372D01*
X0103919Y0137552D02*
X0106675Y0137552D01*
X0106675Y0138732D02*
X0103919Y0138732D01*
X0103919Y0097128D02*
X0103919Y0094372D01*
X0103919Y0097128D02*
X0106675Y0097128D01*
X0106675Y0094372D01*
X0103919Y0094372D01*
X0103919Y0095552D02*
X0106675Y0095552D01*
X0106675Y0096732D02*
X0103919Y0096732D01*
X0110825Y0097128D02*
X0110825Y0094372D01*
X0110825Y0097128D02*
X0113581Y0097128D01*
X0113581Y0094372D01*
X0110825Y0094372D01*
X0110825Y0095552D02*
X0113581Y0095552D01*
X0113581Y0096732D02*
X0110825Y0096732D01*
X0110825Y0055128D02*
X0110825Y0052372D01*
X0110825Y0055128D02*
X0113581Y0055128D01*
X0113581Y0052372D01*
X0110825Y0052372D01*
X0110825Y0053552D02*
X0113581Y0053552D01*
X0113581Y0054732D02*
X0110825Y0054732D01*
X0103919Y0055128D02*
X0103919Y0052372D01*
X0103919Y0055128D02*
X0106675Y0055128D01*
X0106675Y0052372D01*
X0103919Y0052372D01*
X0103919Y0053552D02*
X0106675Y0053552D01*
X0106675Y0054732D02*
X0103919Y0054732D01*
X0210919Y0055128D02*
X0210919Y0052372D01*
X0210919Y0055128D02*
X0213675Y0055128D01*
X0213675Y0052372D01*
X0210919Y0052372D01*
X0210919Y0053552D02*
X0213675Y0053552D01*
X0213675Y0054732D02*
X0210919Y0054732D01*
X0217825Y0055128D02*
X0217825Y0052372D01*
X0217825Y0055128D02*
X0220581Y0055128D01*
X0220581Y0052372D01*
X0217825Y0052372D01*
X0217825Y0053552D02*
X0220581Y0053552D01*
X0220581Y0054732D02*
X0217825Y0054732D01*
X0217825Y0094372D02*
X0217825Y0097128D01*
X0220581Y0097128D01*
X0220581Y0094372D01*
X0217825Y0094372D01*
X0217825Y0095552D02*
X0220581Y0095552D01*
X0220581Y0096732D02*
X0217825Y0096732D01*
X0210919Y0097128D02*
X0210919Y0094372D01*
X0210919Y0097128D02*
X0213675Y0097128D01*
X0213675Y0094372D01*
X0210919Y0094372D01*
X0210919Y0095552D02*
X0213675Y0095552D01*
X0213675Y0096732D02*
X0210919Y0096732D01*
X0210919Y0136372D02*
X0210919Y0139128D01*
X0213675Y0139128D01*
X0213675Y0136372D01*
X0210919Y0136372D01*
X0210919Y0137552D02*
X0213675Y0137552D01*
X0213675Y0138732D02*
X0210919Y0138732D01*
X0217825Y0139128D02*
X0217825Y0136372D01*
X0217825Y0139128D02*
X0220581Y0139128D01*
X0220581Y0136372D01*
X0217825Y0136372D01*
X0217825Y0137552D02*
X0220581Y0137552D01*
X0220581Y0138732D02*
X0217825Y0138732D01*
X0217825Y0178372D02*
X0217825Y0181128D01*
X0220581Y0181128D01*
X0220581Y0178372D01*
X0217825Y0178372D01*
X0217825Y0179552D02*
X0220581Y0179552D01*
X0220581Y0180732D02*
X0217825Y0180732D01*
X0210919Y0181128D02*
X0210919Y0178372D01*
X0210919Y0181128D02*
X0213675Y0181128D01*
X0213675Y0178372D01*
X0210919Y0178372D01*
X0210919Y0179552D02*
X0213675Y0179552D01*
X0213675Y0180732D02*
X0210919Y0180732D01*
X0210919Y0220372D02*
X0210919Y0223128D01*
X0213675Y0223128D01*
X0213675Y0220372D01*
X0210919Y0220372D01*
X0210919Y0221552D02*
X0213675Y0221552D01*
X0213675Y0222732D02*
X0210919Y0222732D01*
X0217825Y0223128D02*
X0217825Y0220372D01*
X0217825Y0223128D02*
X0220581Y0223128D01*
X0220581Y0220372D01*
X0217825Y0220372D01*
X0217825Y0221552D02*
X0220581Y0221552D01*
X0220581Y0222732D02*
X0217825Y0222732D01*
X0217825Y0262372D02*
X0217825Y0265128D01*
X0220581Y0265128D01*
X0220581Y0262372D01*
X0217825Y0262372D01*
X0217825Y0263552D02*
X0220581Y0263552D01*
X0220581Y0264732D02*
X0217825Y0264732D01*
X0210919Y0265128D02*
X0210919Y0262372D01*
X0210919Y0265128D02*
X0213675Y0265128D01*
X0213675Y0262372D01*
X0210919Y0262372D01*
X0210919Y0263552D02*
X0213675Y0263552D01*
X0213675Y0264732D02*
X0210919Y0264732D01*
X0210919Y0304372D02*
X0210919Y0307128D01*
X0213675Y0307128D01*
X0213675Y0304372D01*
X0210919Y0304372D01*
X0210919Y0305552D02*
X0213675Y0305552D01*
X0213675Y0306732D02*
X0210919Y0306732D01*
X0217825Y0307128D02*
X0217825Y0304372D01*
X0217825Y0307128D02*
X0220581Y0307128D01*
X0220581Y0304372D01*
X0217825Y0304372D01*
X0217825Y0305552D02*
X0220581Y0305552D01*
X0220581Y0306732D02*
X0217825Y0306732D01*
X0217825Y0346372D02*
X0217825Y0349128D01*
X0220581Y0349128D01*
X0220581Y0346372D01*
X0217825Y0346372D01*
X0217825Y0347552D02*
X0220581Y0347552D01*
X0220581Y0348732D02*
X0217825Y0348732D01*
X0210919Y0349128D02*
X0210919Y0346372D01*
X0210919Y0349128D02*
X0213675Y0349128D01*
X0213675Y0346372D01*
X0210919Y0346372D01*
X0210919Y0347552D02*
X0213675Y0347552D01*
X0213675Y0348732D02*
X0210919Y0348732D01*
X0317919Y0349128D02*
X0317919Y0346372D01*
X0317919Y0349128D02*
X0320675Y0349128D01*
X0320675Y0346372D01*
X0317919Y0346372D01*
X0317919Y0347552D02*
X0320675Y0347552D01*
X0320675Y0348732D02*
X0317919Y0348732D01*
X0324825Y0349128D02*
X0324825Y0346372D01*
X0324825Y0349128D02*
X0327581Y0349128D01*
X0327581Y0346372D01*
X0324825Y0346372D01*
X0324825Y0347552D02*
X0327581Y0347552D01*
X0327581Y0348732D02*
X0324825Y0348732D01*
X0324825Y0307128D02*
X0324825Y0304372D01*
X0324825Y0307128D02*
X0327581Y0307128D01*
X0327581Y0304372D01*
X0324825Y0304372D01*
X0324825Y0305552D02*
X0327581Y0305552D01*
X0327581Y0306732D02*
X0324825Y0306732D01*
X0317919Y0307128D02*
X0317919Y0304372D01*
X0317919Y0307128D02*
X0320675Y0307128D01*
X0320675Y0304372D01*
X0317919Y0304372D01*
X0317919Y0305552D02*
X0320675Y0305552D01*
X0320675Y0306732D02*
X0317919Y0306732D01*
X0317919Y0265128D02*
X0317919Y0262372D01*
X0317919Y0265128D02*
X0320675Y0265128D01*
X0320675Y0262372D01*
X0317919Y0262372D01*
X0317919Y0263552D02*
X0320675Y0263552D01*
X0320675Y0264732D02*
X0317919Y0264732D01*
X0324825Y0265128D02*
X0324825Y0262372D01*
X0324825Y0265128D02*
X0327581Y0265128D01*
X0327581Y0262372D01*
X0324825Y0262372D01*
X0324825Y0263552D02*
X0327581Y0263552D01*
X0327581Y0264732D02*
X0324825Y0264732D01*
X0324825Y0223128D02*
X0324825Y0220372D01*
X0324825Y0223128D02*
X0327581Y0223128D01*
X0327581Y0220372D01*
X0324825Y0220372D01*
X0324825Y0221552D02*
X0327581Y0221552D01*
X0327581Y0222732D02*
X0324825Y0222732D01*
X0317919Y0223128D02*
X0317919Y0220372D01*
X0317919Y0223128D02*
X0320675Y0223128D01*
X0320675Y0220372D01*
X0317919Y0220372D01*
X0317919Y0221552D02*
X0320675Y0221552D01*
X0320675Y0222732D02*
X0317919Y0222732D01*
X0317919Y0181128D02*
X0317919Y0178372D01*
X0317919Y0181128D02*
X0320675Y0181128D01*
X0320675Y0178372D01*
X0317919Y0178372D01*
X0317919Y0179552D02*
X0320675Y0179552D01*
X0320675Y0180732D02*
X0317919Y0180732D01*
X0324825Y0181128D02*
X0324825Y0178372D01*
X0324825Y0181128D02*
X0327581Y0181128D01*
X0327581Y0178372D01*
X0324825Y0178372D01*
X0324825Y0179552D02*
X0327581Y0179552D01*
X0327581Y0180732D02*
X0324825Y0180732D01*
X0324825Y0139128D02*
X0324825Y0136372D01*
X0324825Y0139128D02*
X0327581Y0139128D01*
X0327581Y0136372D01*
X0324825Y0136372D01*
X0324825Y0137552D02*
X0327581Y0137552D01*
X0327581Y0138732D02*
X0324825Y0138732D01*
X0317919Y0139128D02*
X0317919Y0136372D01*
X0317919Y0139128D02*
X0320675Y0139128D01*
X0320675Y0136372D01*
X0317919Y0136372D01*
X0317919Y0137552D02*
X0320675Y0137552D01*
X0320675Y0138732D02*
X0317919Y0138732D01*
X0317919Y0097128D02*
X0317919Y0094372D01*
X0317919Y0097128D02*
X0320675Y0097128D01*
X0320675Y0094372D01*
X0317919Y0094372D01*
X0317919Y0095552D02*
X0320675Y0095552D01*
X0320675Y0096732D02*
X0317919Y0096732D01*
X0324825Y0097128D02*
X0324825Y0094372D01*
X0324825Y0097128D02*
X0327581Y0097128D01*
X0327581Y0094372D01*
X0324825Y0094372D01*
X0324825Y0095552D02*
X0327581Y0095552D01*
X0327581Y0096732D02*
X0324825Y0096732D01*
X0324825Y0055128D02*
X0324825Y0052372D01*
X0324825Y0055128D02*
X0327581Y0055128D01*
X0327581Y0052372D01*
X0324825Y0052372D01*
X0324825Y0053552D02*
X0327581Y0053552D01*
X0327581Y0054732D02*
X0324825Y0054732D01*
X0317919Y0055128D02*
X0317919Y0052372D01*
X0317919Y0055128D02*
X0320675Y0055128D01*
X0320675Y0052372D01*
X0317919Y0052372D01*
X0317919Y0053552D02*
X0320675Y0053552D01*
X0320675Y0054732D02*
X0317919Y0054732D01*
D13*
X0259073Y0059748D03*
X0259073Y0079604D03*
X0259073Y0101748D03*
X0259073Y0121604D03*
X0259073Y0143748D03*
X0259073Y0163604D03*
X0259073Y0185748D03*
X0259073Y0205604D03*
X0259073Y0227748D03*
X0259073Y0247604D03*
X0259073Y0269748D03*
X0259073Y0289604D03*
X0259073Y0311748D03*
X0259073Y0331604D03*
X0259073Y0353748D03*
X0152073Y0353748D03*
X0152073Y0331604D03*
X0152073Y0311748D03*
X0152073Y0289604D03*
X0152073Y0269748D03*
X0152073Y0247604D03*
X0152073Y0227748D03*
X0152073Y0205604D03*
X0152073Y0185748D03*
X0152073Y0163604D03*
X0152073Y0143748D03*
X0152073Y0121604D03*
X0152073Y0101748D03*
X0152073Y0079604D03*
X0152073Y0059748D03*
X0152073Y0037604D03*
X0259073Y0037604D03*
X0045073Y0037604D03*
X0045073Y0059748D03*
X0045073Y0079604D03*
X0045073Y0101748D03*
X0045073Y0121604D03*
X0045073Y0143748D03*
X0045073Y0163604D03*
X0045073Y0185748D03*
X0045073Y0205604D03*
X0045073Y0227748D03*
X0045073Y0247604D03*
X0045073Y0269748D03*
X0045073Y0289604D03*
X0045073Y0311748D03*
X0045073Y0331604D03*
X0045073Y0353748D03*
D14*
X0033439Y0346603D03*
X0033428Y0338828D03*
X0033439Y0304603D03*
X0033428Y0296828D03*
X0033439Y0262603D03*
X0033428Y0254828D03*
X0033439Y0220603D03*
X0033428Y0212828D03*
X0033439Y0178603D03*
X0033428Y0170828D03*
X0033439Y0136603D03*
X0033428Y0128828D03*
X0033439Y0094603D03*
X0033428Y0086828D03*
X0033439Y0052603D03*
X0033428Y0044828D03*
X0140428Y0044828D03*
X0140439Y0052603D03*
X0140428Y0086828D03*
X0140439Y0094603D03*
X0140428Y0128828D03*
X0140439Y0136603D03*
X0140428Y0170828D03*
X0140439Y0178603D03*
X0140428Y0212828D03*
X0140439Y0220603D03*
X0140428Y0254828D03*
X0140439Y0262603D03*
X0140428Y0296828D03*
X0140439Y0304603D03*
X0140428Y0338828D03*
X0140439Y0346603D03*
X0247439Y0346603D03*
X0247428Y0338828D03*
X0247439Y0304603D03*
X0247428Y0296828D03*
X0247439Y0262603D03*
X0247428Y0254828D03*
X0247439Y0220603D03*
X0247428Y0212828D03*
X0247439Y0178603D03*
X0247428Y0170828D03*
X0247439Y0136603D03*
X0247428Y0128828D03*
X0247439Y0094603D03*
X0247428Y0086828D03*
X0247439Y0052603D03*
X0247428Y0044828D03*
D15*
X0030809Y0035539D02*
X0030582Y0035682D01*
X0030392Y0035872D01*
X0030249Y0036099D01*
X0030160Y0036353D01*
X0030130Y0036620D01*
X0030130Y0039520D01*
X0030163Y0039809D01*
X0030259Y0040084D01*
X0030414Y0040331D01*
X0030619Y0040536D01*
X0030866Y0040691D01*
X0031141Y0040787D01*
X0031430Y0040820D01*
X0041430Y0040820D01*
X0041430Y0033420D01*
X0038330Y0033420D01*
X0038330Y0035320D01*
X0038322Y0035358D01*
X0038301Y0035391D01*
X0038268Y0035412D01*
X0038230Y0035420D01*
X0031330Y0035420D01*
X0031063Y0035450D01*
X0030809Y0035539D01*
X0030850Y0035525D02*
X0041430Y0035525D01*
X0041430Y0035923D02*
X0030359Y0035923D01*
X0030171Y0036322D02*
X0041430Y0036322D01*
X0041430Y0036720D02*
X0030130Y0036720D01*
X0030130Y0037119D02*
X0041430Y0037119D01*
X0041430Y0037517D02*
X0030130Y0037517D01*
X0030130Y0037916D02*
X0041430Y0037916D01*
X0041430Y0038314D02*
X0030130Y0038314D01*
X0030130Y0038713D02*
X0041430Y0038713D01*
X0041430Y0039111D02*
X0030130Y0039111D01*
X0030130Y0039510D02*
X0041430Y0039510D01*
X0041430Y0039908D02*
X0030197Y0039908D01*
X0030399Y0040307D02*
X0041430Y0040307D01*
X0041430Y0040705D02*
X0030906Y0040705D01*
X0038330Y0035126D02*
X0041430Y0035126D01*
X0041430Y0034728D02*
X0038330Y0034728D01*
X0038330Y0034329D02*
X0041430Y0034329D01*
X0041430Y0033931D02*
X0038330Y0033931D01*
X0038330Y0033532D02*
X0041430Y0033532D01*
X0041430Y0056483D02*
X0031430Y0056483D01*
X0031141Y0056516D01*
X0030866Y0056612D01*
X0030619Y0056767D01*
X0030414Y0056973D01*
X0030259Y0057219D01*
X0030163Y0057494D01*
X0030130Y0057783D01*
X0030130Y0060683D01*
X0030160Y0060950D01*
X0030249Y0061204D01*
X0030392Y0061431D01*
X0030582Y0061621D01*
X0030809Y0061764D01*
X0031063Y0061853D01*
X0031330Y0061883D01*
X0038230Y0061883D01*
X0038268Y0061891D01*
X0038301Y0061912D01*
X0038322Y0061945D01*
X0038330Y0061983D01*
X0038330Y0063883D01*
X0041430Y0063883D01*
X0041430Y0056483D01*
X0041430Y0056646D02*
X0030812Y0056646D01*
X0030369Y0057044D02*
X0041430Y0057044D01*
X0041430Y0057443D02*
X0030180Y0057443D01*
X0030130Y0057841D02*
X0041430Y0057841D01*
X0041430Y0058240D02*
X0030130Y0058240D01*
X0030130Y0058638D02*
X0041430Y0058638D01*
X0041430Y0059037D02*
X0030130Y0059037D01*
X0030130Y0059435D02*
X0041430Y0059435D01*
X0041430Y0059834D02*
X0030130Y0059834D01*
X0030130Y0060232D02*
X0041430Y0060232D01*
X0041430Y0060631D02*
X0030130Y0060631D01*
X0030188Y0061029D02*
X0041430Y0061029D01*
X0041430Y0061428D02*
X0030390Y0061428D01*
X0030987Y0061826D02*
X0041430Y0061826D01*
X0041430Y0062225D02*
X0038330Y0062225D01*
X0038330Y0062623D02*
X0041430Y0062623D01*
X0041430Y0063022D02*
X0038330Y0063022D01*
X0038330Y0063420D02*
X0041430Y0063420D01*
X0041430Y0063819D02*
X0038330Y0063819D01*
X0038330Y0075420D02*
X0041430Y0075420D01*
X0041430Y0082820D01*
X0031430Y0082820D01*
X0031141Y0082787D01*
X0030866Y0082691D01*
X0030619Y0082536D01*
X0030414Y0082331D01*
X0030259Y0082084D01*
X0030163Y0081809D01*
X0030130Y0081520D01*
X0030130Y0078620D01*
X0030160Y0078353D01*
X0030249Y0078099D01*
X0030392Y0077872D01*
X0030582Y0077682D01*
X0030809Y0077539D01*
X0031063Y0077450D01*
X0031330Y0077420D01*
X0038230Y0077420D01*
X0038268Y0077412D01*
X0038301Y0077391D01*
X0038322Y0077358D01*
X0038330Y0077320D01*
X0038330Y0075420D01*
X0038330Y0075774D02*
X0041430Y0075774D01*
X0041430Y0076173D02*
X0038330Y0076173D01*
X0038330Y0076571D02*
X0041430Y0076571D01*
X0041430Y0076970D02*
X0038330Y0076970D01*
X0038316Y0077368D02*
X0041430Y0077368D01*
X0041430Y0077767D02*
X0030497Y0077767D01*
X0030226Y0078165D02*
X0041430Y0078165D01*
X0041430Y0078564D02*
X0030136Y0078564D01*
X0030130Y0078962D02*
X0041430Y0078962D01*
X0041430Y0079361D02*
X0030130Y0079361D01*
X0030130Y0079759D02*
X0041430Y0079759D01*
X0041430Y0080158D02*
X0030130Y0080158D01*
X0030130Y0080556D02*
X0041430Y0080556D01*
X0041430Y0080955D02*
X0030130Y0080955D01*
X0030130Y0081353D02*
X0041430Y0081353D01*
X0041430Y0081752D02*
X0030156Y0081752D01*
X0030301Y0082151D02*
X0041430Y0082151D01*
X0041430Y0082549D02*
X0030640Y0082549D01*
X0031430Y0098483D02*
X0031141Y0098516D01*
X0030866Y0098612D01*
X0030619Y0098767D01*
X0030414Y0098973D01*
X0030259Y0099219D01*
X0030163Y0099494D01*
X0030130Y0099783D01*
X0030130Y0102683D01*
X0030160Y0102950D01*
X0030249Y0103204D01*
X0030392Y0103431D01*
X0030582Y0103621D01*
X0030809Y0103764D01*
X0031063Y0103853D01*
X0031330Y0103883D01*
X0038230Y0103883D01*
X0038268Y0103891D01*
X0038301Y0103912D01*
X0038322Y0103945D01*
X0038330Y0103983D01*
X0038330Y0105883D01*
X0041430Y0105883D01*
X0041430Y0098483D01*
X0031430Y0098483D01*
X0031374Y0098489D02*
X0041430Y0098489D01*
X0041430Y0098888D02*
X0030498Y0098888D01*
X0030235Y0099287D02*
X0041430Y0099287D01*
X0041430Y0099685D02*
X0030141Y0099685D01*
X0030130Y0100084D02*
X0041430Y0100084D01*
X0041430Y0100482D02*
X0030130Y0100482D01*
X0030130Y0100881D02*
X0041430Y0100881D01*
X0041430Y0101279D02*
X0030130Y0101279D01*
X0030130Y0101678D02*
X0041430Y0101678D01*
X0041430Y0102076D02*
X0030130Y0102076D01*
X0030130Y0102475D02*
X0041430Y0102475D01*
X0041430Y0102873D02*
X0030151Y0102873D01*
X0030291Y0103272D02*
X0041430Y0103272D01*
X0041430Y0103670D02*
X0030659Y0103670D01*
X0038330Y0104069D02*
X0041430Y0104069D01*
X0041430Y0104467D02*
X0038330Y0104467D01*
X0038330Y0104866D02*
X0041430Y0104866D01*
X0041430Y0105264D02*
X0038330Y0105264D01*
X0038330Y0105663D02*
X0041430Y0105663D01*
X0041430Y0117420D02*
X0038330Y0117420D01*
X0038330Y0119320D01*
X0038322Y0119358D01*
X0038301Y0119391D01*
X0038268Y0119412D01*
X0038230Y0119420D01*
X0031330Y0119420D01*
X0031063Y0119450D01*
X0030809Y0119539D01*
X0030582Y0119682D01*
X0030392Y0119872D01*
X0030249Y0120099D01*
X0030160Y0120353D01*
X0030130Y0120620D01*
X0030130Y0123520D01*
X0030163Y0123809D01*
X0030259Y0124084D01*
X0030414Y0124331D01*
X0030619Y0124536D01*
X0030866Y0124691D01*
X0031141Y0124787D01*
X0031430Y0124820D01*
X0041430Y0124820D01*
X0041430Y0117420D01*
X0041430Y0117618D02*
X0038330Y0117618D01*
X0038330Y0118017D02*
X0041430Y0118017D01*
X0041430Y0118415D02*
X0038330Y0118415D01*
X0038330Y0118814D02*
X0041430Y0118814D01*
X0041430Y0119212D02*
X0038330Y0119212D01*
X0041430Y0119611D02*
X0030695Y0119611D01*
X0030306Y0120009D02*
X0041430Y0120009D01*
X0041430Y0120408D02*
X0030154Y0120408D01*
X0030130Y0120806D02*
X0041430Y0120806D01*
X0041430Y0121205D02*
X0030130Y0121205D01*
X0030130Y0121603D02*
X0041430Y0121603D01*
X0041430Y0122002D02*
X0030130Y0122002D01*
X0030130Y0122400D02*
X0041430Y0122400D01*
X0041430Y0122799D02*
X0030130Y0122799D01*
X0030130Y0123197D02*
X0041430Y0123197D01*
X0041430Y0123596D02*
X0030139Y0123596D01*
X0030227Y0123994D02*
X0041430Y0123994D01*
X0041430Y0124393D02*
X0030476Y0124393D01*
X0031175Y0124791D02*
X0041430Y0124791D01*
X0041430Y0140483D02*
X0031430Y0140483D01*
X0031141Y0140516D01*
X0030866Y0140612D01*
X0030619Y0140767D01*
X0030414Y0140973D01*
X0030259Y0141219D01*
X0030163Y0141494D01*
X0030130Y0141783D01*
X0030130Y0144683D01*
X0030160Y0144950D01*
X0030249Y0145204D01*
X0030392Y0145431D01*
X0030582Y0145621D01*
X0030809Y0145764D01*
X0031063Y0145853D01*
X0031330Y0145883D01*
X0038230Y0145883D01*
X0038268Y0145891D01*
X0038301Y0145912D01*
X0038322Y0145945D01*
X0038330Y0145983D01*
X0038330Y0147883D01*
X0041430Y0147883D01*
X0041430Y0140483D01*
X0041430Y0140732D02*
X0030675Y0140732D01*
X0030315Y0141130D02*
X0041430Y0141130D01*
X0041430Y0141529D02*
X0030159Y0141529D01*
X0030130Y0141927D02*
X0041430Y0141927D01*
X0041430Y0142326D02*
X0030130Y0142326D01*
X0030130Y0142724D02*
X0041430Y0142724D01*
X0041430Y0143123D02*
X0030130Y0143123D01*
X0030130Y0143521D02*
X0041430Y0143521D01*
X0041430Y0143920D02*
X0030130Y0143920D01*
X0030130Y0144318D02*
X0041430Y0144318D01*
X0041430Y0144717D02*
X0030134Y0144717D01*
X0030218Y0145115D02*
X0041430Y0145115D01*
X0041430Y0145514D02*
X0030474Y0145514D01*
X0038301Y0145912D02*
X0041430Y0145912D01*
X0041430Y0146311D02*
X0038330Y0146311D01*
X0038330Y0146709D02*
X0041430Y0146709D01*
X0041430Y0147108D02*
X0038330Y0147108D01*
X0038330Y0147506D02*
X0041430Y0147506D01*
X0041430Y0159420D02*
X0038330Y0159420D01*
X0038330Y0161320D01*
X0038322Y0161358D01*
X0038301Y0161391D01*
X0038268Y0161412D01*
X0038230Y0161420D01*
X0031330Y0161420D01*
X0031063Y0161450D01*
X0030809Y0161539D01*
X0030582Y0161682D01*
X0030392Y0161872D01*
X0030249Y0162099D01*
X0030160Y0162353D01*
X0030130Y0162620D01*
X0030130Y0165520D01*
X0030163Y0165809D01*
X0030259Y0166084D01*
X0030414Y0166331D01*
X0030619Y0166536D01*
X0030866Y0166691D01*
X0031141Y0166787D01*
X0031430Y0166820D01*
X0041430Y0166820D01*
X0041430Y0159420D01*
X0041430Y0159462D02*
X0038330Y0159462D01*
X0038330Y0159860D02*
X0041430Y0159860D01*
X0041430Y0160259D02*
X0038330Y0160259D01*
X0038330Y0160657D02*
X0041430Y0160657D01*
X0041430Y0161056D02*
X0038330Y0161056D01*
X0041430Y0161454D02*
X0031051Y0161454D01*
X0030411Y0161853D02*
X0041430Y0161853D01*
X0041430Y0162251D02*
X0030196Y0162251D01*
X0030130Y0162650D02*
X0041430Y0162650D01*
X0041430Y0163048D02*
X0030130Y0163048D01*
X0030130Y0163447D02*
X0041430Y0163447D01*
X0041430Y0163845D02*
X0030130Y0163845D01*
X0030130Y0164244D02*
X0041430Y0164244D01*
X0041430Y0164642D02*
X0030130Y0164642D01*
X0030130Y0165041D02*
X0041430Y0165041D01*
X0041430Y0165439D02*
X0030130Y0165439D01*
X0030173Y0165838D02*
X0041430Y0165838D01*
X0041430Y0166236D02*
X0030354Y0166236D01*
X0030776Y0166635D02*
X0041430Y0166635D01*
X0041430Y0182483D02*
X0031430Y0182483D01*
X0031141Y0182516D01*
X0030866Y0182612D01*
X0030619Y0182767D01*
X0030414Y0182973D01*
X0030259Y0183219D01*
X0030163Y0183494D01*
X0030130Y0183783D01*
X0030130Y0186683D01*
X0030160Y0186950D01*
X0030249Y0187204D01*
X0030392Y0187431D01*
X0030582Y0187621D01*
X0030809Y0187764D01*
X0031063Y0187853D01*
X0031330Y0187883D01*
X0038230Y0187883D01*
X0038268Y0187891D01*
X0038301Y0187912D01*
X0038322Y0187945D01*
X0038330Y0187983D01*
X0038330Y0189883D01*
X0041430Y0189883D01*
X0041430Y0182483D01*
X0041430Y0182575D02*
X0030970Y0182575D01*
X0030413Y0182974D02*
X0041430Y0182974D01*
X0041430Y0183372D02*
X0030205Y0183372D01*
X0030131Y0183771D02*
X0041430Y0183771D01*
X0041430Y0184169D02*
X0030130Y0184169D01*
X0030130Y0184568D02*
X0041430Y0184568D01*
X0041430Y0184966D02*
X0030130Y0184966D01*
X0030130Y0185365D02*
X0041430Y0185365D01*
X0041430Y0185763D02*
X0030130Y0185763D01*
X0030130Y0186162D02*
X0041430Y0186162D01*
X0041430Y0186560D02*
X0030130Y0186560D01*
X0030163Y0186959D02*
X0041430Y0186959D01*
X0041430Y0187358D02*
X0030345Y0187358D01*
X0030796Y0187756D02*
X0041430Y0187756D01*
X0041430Y0188155D02*
X0038330Y0188155D01*
X0038330Y0188553D02*
X0041430Y0188553D01*
X0041430Y0188952D02*
X0038330Y0188952D01*
X0038330Y0189350D02*
X0041430Y0189350D01*
X0041430Y0189749D02*
X0038330Y0189749D01*
X0038330Y0201420D02*
X0041430Y0201420D01*
X0041430Y0208820D01*
X0031430Y0208820D01*
X0031141Y0208787D01*
X0030866Y0208691D01*
X0030619Y0208536D01*
X0030414Y0208331D01*
X0030259Y0208084D01*
X0030163Y0207809D01*
X0030130Y0207520D01*
X0030130Y0204620D01*
X0030160Y0204353D01*
X0030249Y0204099D01*
X0030392Y0203872D01*
X0030582Y0203682D01*
X0030809Y0203539D01*
X0031063Y0203450D01*
X0031330Y0203420D01*
X0038230Y0203420D01*
X0038268Y0203412D01*
X0038301Y0203391D01*
X0038322Y0203358D01*
X0038330Y0203320D01*
X0038330Y0201420D01*
X0038330Y0201704D02*
X0041430Y0201704D01*
X0041430Y0202102D02*
X0038330Y0202102D01*
X0038330Y0202501D02*
X0041430Y0202501D01*
X0041430Y0202899D02*
X0038330Y0202899D01*
X0038330Y0203298D02*
X0041430Y0203298D01*
X0041430Y0203696D02*
X0030567Y0203696D01*
X0030252Y0204095D02*
X0041430Y0204095D01*
X0041430Y0204493D02*
X0030144Y0204493D01*
X0030130Y0204892D02*
X0041430Y0204892D01*
X0041430Y0205291D02*
X0030130Y0205291D01*
X0030130Y0205689D02*
X0041430Y0205689D01*
X0041430Y0206088D02*
X0030130Y0206088D01*
X0030130Y0206486D02*
X0041430Y0206486D01*
X0041430Y0206885D02*
X0030130Y0206885D01*
X0030130Y0207283D02*
X0041430Y0207283D01*
X0041430Y0207682D02*
X0030148Y0207682D01*
X0030257Y0208080D02*
X0041430Y0208080D01*
X0041430Y0208479D02*
X0030562Y0208479D01*
X0031430Y0224483D02*
X0031141Y0224516D01*
X0030866Y0224612D01*
X0030619Y0224767D01*
X0030414Y0224973D01*
X0030259Y0225219D01*
X0030163Y0225494D01*
X0030130Y0225783D01*
X0030130Y0228683D01*
X0030160Y0228950D01*
X0030249Y0229204D01*
X0030392Y0229431D01*
X0030582Y0229621D01*
X0030809Y0229764D01*
X0031063Y0229853D01*
X0031330Y0229883D01*
X0038230Y0229883D01*
X0038268Y0229891D01*
X0038301Y0229912D01*
X0038322Y0229945D01*
X0038330Y0229983D01*
X0038330Y0231883D01*
X0041430Y0231883D01*
X0041430Y0224483D01*
X0031430Y0224483D01*
X0030569Y0224818D02*
X0041430Y0224818D01*
X0041430Y0225216D02*
X0030261Y0225216D01*
X0030149Y0225615D02*
X0041430Y0225615D01*
X0041430Y0226013D02*
X0030130Y0226013D01*
X0030130Y0226412D02*
X0041430Y0226412D01*
X0041430Y0226810D02*
X0030130Y0226810D01*
X0030130Y0227209D02*
X0041430Y0227209D01*
X0041430Y0227607D02*
X0030130Y0227607D01*
X0030130Y0228006D02*
X0041430Y0228006D01*
X0041430Y0228404D02*
X0030130Y0228404D01*
X0030143Y0228803D02*
X0041430Y0228803D01*
X0041430Y0229201D02*
X0030248Y0229201D01*
X0030560Y0229600D02*
X0041430Y0229600D01*
X0041430Y0229998D02*
X0038330Y0229998D01*
X0038330Y0230397D02*
X0041430Y0230397D01*
X0041430Y0230795D02*
X0038330Y0230795D01*
X0038330Y0231194D02*
X0041430Y0231194D01*
X0041430Y0231592D02*
X0038330Y0231592D01*
X0038330Y0243420D02*
X0041430Y0243420D01*
X0041430Y0250820D01*
X0031430Y0250820D01*
X0031141Y0250787D01*
X0030866Y0250691D01*
X0030619Y0250536D01*
X0030414Y0250331D01*
X0030259Y0250084D01*
X0030163Y0249809D01*
X0030130Y0249520D01*
X0030130Y0246620D01*
X0030160Y0246353D01*
X0030249Y0246099D01*
X0030392Y0245872D01*
X0030582Y0245682D01*
X0030809Y0245539D01*
X0031063Y0245450D01*
X0031330Y0245420D01*
X0038230Y0245420D01*
X0038268Y0245412D01*
X0038301Y0245391D01*
X0038322Y0245358D01*
X0038330Y0245320D01*
X0038330Y0243420D01*
X0038330Y0243548D02*
X0041430Y0243548D01*
X0041430Y0243946D02*
X0038330Y0243946D01*
X0038330Y0244345D02*
X0041430Y0244345D01*
X0041430Y0244743D02*
X0038330Y0244743D01*
X0038330Y0245142D02*
X0041430Y0245142D01*
X0041430Y0245540D02*
X0030807Y0245540D01*
X0030350Y0245939D02*
X0041430Y0245939D01*
X0041430Y0246337D02*
X0030166Y0246337D01*
X0030130Y0246736D02*
X0041430Y0246736D01*
X0041430Y0247134D02*
X0030130Y0247134D01*
X0030130Y0247533D02*
X0041430Y0247533D01*
X0041430Y0247931D02*
X0030130Y0247931D01*
X0030130Y0248330D02*
X0041430Y0248330D01*
X0041430Y0248728D02*
X0030130Y0248728D01*
X0030130Y0249127D02*
X0041430Y0249127D01*
X0041430Y0249525D02*
X0030131Y0249525D01*
X0030203Y0249924D02*
X0041430Y0249924D01*
X0041430Y0250322D02*
X0030408Y0250322D01*
X0030950Y0250721D02*
X0041430Y0250721D01*
X0041430Y0266483D02*
X0031430Y0266483D01*
X0031141Y0266516D01*
X0030866Y0266612D01*
X0030619Y0266767D01*
X0030414Y0266973D01*
X0030259Y0267219D01*
X0030163Y0267494D01*
X0030130Y0267783D01*
X0030130Y0270683D01*
X0030160Y0270950D01*
X0030249Y0271204D01*
X0030392Y0271431D01*
X0030582Y0271621D01*
X0030809Y0271764D01*
X0031063Y0271853D01*
X0031330Y0271883D01*
X0038230Y0271883D01*
X0038268Y0271891D01*
X0038301Y0271912D01*
X0038322Y0271945D01*
X0038330Y0271983D01*
X0038330Y0273883D01*
X0041430Y0273883D01*
X0041430Y0266483D01*
X0041430Y0266661D02*
X0030787Y0266661D01*
X0030359Y0267060D02*
X0041430Y0267060D01*
X0041430Y0267458D02*
X0030175Y0267458D01*
X0030130Y0267857D02*
X0041430Y0267857D01*
X0041430Y0268255D02*
X0030130Y0268255D01*
X0030130Y0268654D02*
X0041430Y0268654D01*
X0041430Y0269052D02*
X0030130Y0269052D01*
X0030130Y0269451D02*
X0041430Y0269451D01*
X0041430Y0269849D02*
X0030130Y0269849D01*
X0030130Y0270248D02*
X0041430Y0270248D01*
X0041430Y0270646D02*
X0030130Y0270646D01*
X0030193Y0271045D02*
X0041430Y0271045D01*
X0041430Y0271443D02*
X0030404Y0271443D01*
X0031031Y0271842D02*
X0041430Y0271842D01*
X0041430Y0272240D02*
X0038330Y0272240D01*
X0038330Y0272639D02*
X0041430Y0272639D01*
X0041430Y0273037D02*
X0038330Y0273037D01*
X0038330Y0273436D02*
X0041430Y0273436D01*
X0041430Y0273834D02*
X0038330Y0273834D01*
X0038330Y0285420D02*
X0041430Y0285420D01*
X0041430Y0292820D01*
X0031430Y0292820D01*
X0031141Y0292787D01*
X0030866Y0292691D01*
X0030619Y0292536D01*
X0030414Y0292331D01*
X0030259Y0292084D01*
X0030163Y0291809D01*
X0030130Y0291520D01*
X0030130Y0288620D01*
X0030160Y0288353D01*
X0030249Y0288099D01*
X0030392Y0287872D01*
X0030582Y0287682D01*
X0030809Y0287539D01*
X0031063Y0287450D01*
X0031330Y0287420D01*
X0038230Y0287420D01*
X0038268Y0287412D01*
X0038301Y0287391D01*
X0038322Y0287358D01*
X0038330Y0287320D01*
X0038330Y0285420D01*
X0038330Y0285790D02*
X0041430Y0285790D01*
X0041430Y0286188D02*
X0038330Y0286188D01*
X0038330Y0286587D02*
X0041430Y0286587D01*
X0041430Y0286985D02*
X0038330Y0286985D01*
X0038305Y0287384D02*
X0041430Y0287384D01*
X0041430Y0287782D02*
X0030481Y0287782D01*
X0030220Y0288181D02*
X0041430Y0288181D01*
X0041430Y0288579D02*
X0030135Y0288579D01*
X0030130Y0288978D02*
X0041430Y0288978D01*
X0041430Y0289376D02*
X0030130Y0289376D01*
X0030130Y0289775D02*
X0041430Y0289775D01*
X0041430Y0290173D02*
X0030130Y0290173D01*
X0030130Y0290572D02*
X0041430Y0290572D01*
X0041430Y0290970D02*
X0030130Y0290970D01*
X0030130Y0291369D02*
X0041430Y0291369D01*
X0041430Y0291767D02*
X0030158Y0291767D01*
X0030310Y0292166D02*
X0041430Y0292166D01*
X0041430Y0292564D02*
X0030664Y0292564D01*
X0031430Y0308483D02*
X0031141Y0308516D01*
X0030866Y0308612D01*
X0030619Y0308767D01*
X0030414Y0308973D01*
X0030259Y0309219D01*
X0030163Y0309494D01*
X0030130Y0309783D01*
X0030130Y0312683D01*
X0030160Y0312950D01*
X0030249Y0313204D01*
X0030392Y0313431D01*
X0030582Y0313621D01*
X0030809Y0313764D01*
X0031063Y0313853D01*
X0031330Y0313883D01*
X0038230Y0313883D01*
X0038268Y0313891D01*
X0038301Y0313912D01*
X0038322Y0313945D01*
X0038330Y0313983D01*
X0038330Y0315883D01*
X0041430Y0315883D01*
X0041430Y0308483D01*
X0031430Y0308483D01*
X0031237Y0308505D02*
X0041430Y0308505D01*
X0041430Y0308903D02*
X0030483Y0308903D01*
X0030230Y0309302D02*
X0041430Y0309302D01*
X0041430Y0309700D02*
X0030139Y0309700D01*
X0030130Y0310099D02*
X0041430Y0310099D01*
X0041430Y0310498D02*
X0030130Y0310498D01*
X0030130Y0310896D02*
X0041430Y0310896D01*
X0041430Y0311295D02*
X0030130Y0311295D01*
X0030130Y0311693D02*
X0041430Y0311693D01*
X0041430Y0312092D02*
X0030130Y0312092D01*
X0030130Y0312490D02*
X0041430Y0312490D01*
X0041430Y0312889D02*
X0030153Y0312889D01*
X0030301Y0313287D02*
X0041430Y0313287D01*
X0041430Y0313686D02*
X0030684Y0313686D01*
X0038330Y0314084D02*
X0041430Y0314084D01*
X0041430Y0314483D02*
X0038330Y0314483D01*
X0038330Y0314881D02*
X0041430Y0314881D01*
X0041430Y0315280D02*
X0038330Y0315280D01*
X0038330Y0315678D02*
X0041430Y0315678D01*
X0041430Y0327420D02*
X0038330Y0327420D01*
X0038330Y0329320D01*
X0038322Y0329358D01*
X0038301Y0329391D01*
X0038268Y0329412D01*
X0038230Y0329420D01*
X0031330Y0329420D01*
X0031063Y0329450D01*
X0030809Y0329539D01*
X0030582Y0329682D01*
X0030392Y0329872D01*
X0030249Y0330099D01*
X0030160Y0330353D01*
X0030130Y0330620D01*
X0030130Y0333520D01*
X0030163Y0333809D01*
X0030259Y0334084D01*
X0030414Y0334331D01*
X0030619Y0334536D01*
X0030866Y0334691D01*
X0031141Y0334787D01*
X0031430Y0334820D01*
X0041430Y0334820D01*
X0041430Y0327420D01*
X0041430Y0327633D02*
X0038330Y0327633D01*
X0038330Y0328032D02*
X0041430Y0328032D01*
X0041430Y0328431D02*
X0038330Y0328431D01*
X0038330Y0328829D02*
X0041430Y0328829D01*
X0041430Y0329228D02*
X0038330Y0329228D01*
X0041430Y0329626D02*
X0030671Y0329626D01*
X0030296Y0330025D02*
X0041430Y0330025D01*
X0041430Y0330423D02*
X0030152Y0330423D01*
X0030130Y0330822D02*
X0041430Y0330822D01*
X0041430Y0331220D02*
X0030130Y0331220D01*
X0030130Y0331619D02*
X0041430Y0331619D01*
X0041430Y0332017D02*
X0030130Y0332017D01*
X0030130Y0332416D02*
X0041430Y0332416D01*
X0041430Y0332814D02*
X0030130Y0332814D01*
X0030130Y0333213D02*
X0041430Y0333213D01*
X0041430Y0333611D02*
X0030140Y0333611D01*
X0030233Y0334010D02*
X0041430Y0334010D01*
X0041430Y0334408D02*
X0030491Y0334408D01*
X0031312Y0334807D02*
X0041430Y0334807D01*
X0041430Y0350483D02*
X0031430Y0350483D01*
X0031141Y0350516D01*
X0030866Y0350612D01*
X0030619Y0350767D01*
X0030414Y0350973D01*
X0030259Y0351219D01*
X0030163Y0351494D01*
X0030130Y0351783D01*
X0030130Y0354683D01*
X0030160Y0354950D01*
X0030249Y0355204D01*
X0030392Y0355431D01*
X0030582Y0355621D01*
X0030809Y0355764D01*
X0031063Y0355853D01*
X0031330Y0355883D01*
X0038230Y0355883D01*
X0038268Y0355891D01*
X0038301Y0355912D01*
X0038322Y0355945D01*
X0038330Y0355983D01*
X0038330Y0357883D01*
X0041430Y0357883D01*
X0041430Y0350483D01*
X0041430Y0350747D02*
X0030651Y0350747D01*
X0030305Y0351146D02*
X0041430Y0351146D01*
X0041430Y0351544D02*
X0030157Y0351544D01*
X0030130Y0351943D02*
X0041430Y0351943D01*
X0041430Y0352341D02*
X0030130Y0352341D01*
X0030130Y0352740D02*
X0041430Y0352740D01*
X0041430Y0353138D02*
X0030130Y0353138D01*
X0030130Y0353537D02*
X0041430Y0353537D01*
X0041430Y0353935D02*
X0030130Y0353935D01*
X0030130Y0354334D02*
X0041430Y0354334D01*
X0041430Y0354732D02*
X0030136Y0354732D01*
X0030223Y0355131D02*
X0041430Y0355131D01*
X0041430Y0355529D02*
X0030490Y0355529D01*
X0038311Y0355928D02*
X0041430Y0355928D01*
X0041430Y0356326D02*
X0038330Y0356326D01*
X0038330Y0356725D02*
X0041430Y0356725D01*
X0041430Y0357123D02*
X0038330Y0357123D01*
X0038330Y0357522D02*
X0041430Y0357522D01*
X0137130Y0354683D02*
X0137130Y0351783D01*
X0137163Y0351494D01*
X0137259Y0351219D01*
X0137414Y0350973D01*
X0137619Y0350767D01*
X0137866Y0350612D01*
X0138141Y0350516D01*
X0138430Y0350483D01*
X0148430Y0350483D01*
X0148430Y0357883D01*
X0145330Y0357883D01*
X0145330Y0355983D01*
X0145322Y0355945D01*
X0145301Y0355912D01*
X0145268Y0355891D01*
X0145230Y0355883D01*
X0138330Y0355883D01*
X0138063Y0355853D01*
X0137809Y0355764D01*
X0137582Y0355621D01*
X0137392Y0355431D01*
X0137249Y0355204D01*
X0137160Y0354950D01*
X0137130Y0354683D01*
X0137136Y0354732D02*
X0148430Y0354732D01*
X0148430Y0354334D02*
X0137130Y0354334D01*
X0137130Y0353935D02*
X0148430Y0353935D01*
X0148430Y0353537D02*
X0137130Y0353537D01*
X0137130Y0353138D02*
X0148430Y0353138D01*
X0148430Y0352740D02*
X0137130Y0352740D01*
X0137130Y0352341D02*
X0148430Y0352341D01*
X0148430Y0351943D02*
X0137130Y0351943D01*
X0137157Y0351544D02*
X0148430Y0351544D01*
X0148430Y0351146D02*
X0137305Y0351146D01*
X0137651Y0350747D02*
X0148430Y0350747D01*
X0148430Y0355131D02*
X0137223Y0355131D01*
X0137490Y0355529D02*
X0148430Y0355529D01*
X0148430Y0355928D02*
X0145311Y0355928D01*
X0145330Y0356326D02*
X0148430Y0356326D01*
X0148430Y0356725D02*
X0145330Y0356725D01*
X0145330Y0357123D02*
X0148430Y0357123D01*
X0148430Y0357522D02*
X0145330Y0357522D01*
X0148430Y0334820D02*
X0138430Y0334820D01*
X0138141Y0334787D01*
X0137866Y0334691D01*
X0137619Y0334536D01*
X0137414Y0334331D01*
X0137259Y0334084D01*
X0137163Y0333809D01*
X0137130Y0333520D01*
X0137130Y0330620D01*
X0137160Y0330353D01*
X0137249Y0330099D01*
X0137392Y0329872D01*
X0137582Y0329682D01*
X0137809Y0329539D01*
X0138063Y0329450D01*
X0138330Y0329420D01*
X0145230Y0329420D01*
X0145268Y0329412D01*
X0145301Y0329391D01*
X0145322Y0329358D01*
X0145330Y0329320D01*
X0145330Y0327420D01*
X0148430Y0327420D01*
X0148430Y0334820D01*
X0148430Y0334807D02*
X0138312Y0334807D01*
X0137491Y0334408D02*
X0148430Y0334408D01*
X0148430Y0334010D02*
X0137233Y0334010D01*
X0137140Y0333611D02*
X0148430Y0333611D01*
X0148430Y0333213D02*
X0137130Y0333213D01*
X0137130Y0332814D02*
X0148430Y0332814D01*
X0148430Y0332416D02*
X0137130Y0332416D01*
X0137130Y0332017D02*
X0148430Y0332017D01*
X0148430Y0331619D02*
X0137130Y0331619D01*
X0137130Y0331220D02*
X0148430Y0331220D01*
X0148430Y0330822D02*
X0137130Y0330822D01*
X0137152Y0330423D02*
X0148430Y0330423D01*
X0148430Y0330025D02*
X0137296Y0330025D01*
X0137671Y0329626D02*
X0148430Y0329626D01*
X0148430Y0329228D02*
X0145330Y0329228D01*
X0145330Y0328829D02*
X0148430Y0328829D01*
X0148430Y0328431D02*
X0145330Y0328431D01*
X0145330Y0328032D02*
X0148430Y0328032D01*
X0148430Y0327633D02*
X0145330Y0327633D01*
X0145330Y0315883D02*
X0148430Y0315883D01*
X0148430Y0308483D01*
X0138430Y0308483D01*
X0138141Y0308516D01*
X0137866Y0308612D01*
X0137619Y0308767D01*
X0137414Y0308973D01*
X0137259Y0309219D01*
X0137163Y0309494D01*
X0137130Y0309783D01*
X0137130Y0312683D01*
X0137160Y0312950D01*
X0137249Y0313204D01*
X0137392Y0313431D01*
X0137582Y0313621D01*
X0137809Y0313764D01*
X0138063Y0313853D01*
X0138330Y0313883D01*
X0145230Y0313883D01*
X0145268Y0313891D01*
X0145301Y0313912D01*
X0145322Y0313945D01*
X0145330Y0313983D01*
X0145330Y0315883D01*
X0145330Y0315678D02*
X0148430Y0315678D01*
X0148430Y0315280D02*
X0145330Y0315280D01*
X0145330Y0314881D02*
X0148430Y0314881D01*
X0148430Y0314483D02*
X0145330Y0314483D01*
X0145330Y0314084D02*
X0148430Y0314084D01*
X0148430Y0313686D02*
X0137684Y0313686D01*
X0137301Y0313287D02*
X0148430Y0313287D01*
X0148430Y0312889D02*
X0137153Y0312889D01*
X0137130Y0312490D02*
X0148430Y0312490D01*
X0148430Y0312092D02*
X0137130Y0312092D01*
X0137130Y0311693D02*
X0148430Y0311693D01*
X0148430Y0311295D02*
X0137130Y0311295D01*
X0137130Y0310896D02*
X0148430Y0310896D01*
X0148430Y0310498D02*
X0137130Y0310498D01*
X0137130Y0310099D02*
X0148430Y0310099D01*
X0148430Y0309700D02*
X0137139Y0309700D01*
X0137230Y0309302D02*
X0148430Y0309302D01*
X0148430Y0308903D02*
X0137483Y0308903D01*
X0138237Y0308505D02*
X0148430Y0308505D01*
X0148430Y0292820D02*
X0138430Y0292820D01*
X0138141Y0292787D01*
X0137866Y0292691D01*
X0137619Y0292536D01*
X0137414Y0292331D01*
X0137259Y0292084D01*
X0137163Y0291809D01*
X0137130Y0291520D01*
X0137130Y0288620D01*
X0137160Y0288353D01*
X0137249Y0288099D01*
X0137392Y0287872D01*
X0137582Y0287682D01*
X0137809Y0287539D01*
X0138063Y0287450D01*
X0138330Y0287420D01*
X0145230Y0287420D01*
X0145268Y0287412D01*
X0145301Y0287391D01*
X0145322Y0287358D01*
X0145330Y0287320D01*
X0145330Y0285420D01*
X0148430Y0285420D01*
X0148430Y0292820D01*
X0148430Y0292564D02*
X0137664Y0292564D01*
X0137310Y0292166D02*
X0148430Y0292166D01*
X0148430Y0291767D02*
X0137158Y0291767D01*
X0137130Y0291369D02*
X0148430Y0291369D01*
X0148430Y0290970D02*
X0137130Y0290970D01*
X0137130Y0290572D02*
X0148430Y0290572D01*
X0148430Y0290173D02*
X0137130Y0290173D01*
X0137130Y0289775D02*
X0148430Y0289775D01*
X0148430Y0289376D02*
X0137130Y0289376D01*
X0137130Y0288978D02*
X0148430Y0288978D01*
X0148430Y0288579D02*
X0137135Y0288579D01*
X0137220Y0288181D02*
X0148430Y0288181D01*
X0148430Y0287782D02*
X0137481Y0287782D01*
X0145305Y0287384D02*
X0148430Y0287384D01*
X0148430Y0286985D02*
X0145330Y0286985D01*
X0145330Y0286587D02*
X0148430Y0286587D01*
X0148430Y0286188D02*
X0145330Y0286188D01*
X0145330Y0285790D02*
X0148430Y0285790D01*
X0148430Y0273883D02*
X0145330Y0273883D01*
X0145330Y0271983D01*
X0145322Y0271945D01*
X0145301Y0271912D01*
X0145268Y0271891D01*
X0145230Y0271883D01*
X0138330Y0271883D01*
X0138063Y0271853D01*
X0137809Y0271764D01*
X0137582Y0271621D01*
X0137392Y0271431D01*
X0137249Y0271204D01*
X0137160Y0270950D01*
X0137130Y0270683D01*
X0137130Y0267783D01*
X0137163Y0267494D01*
X0137259Y0267219D01*
X0137414Y0266973D01*
X0137619Y0266767D01*
X0137866Y0266612D01*
X0138141Y0266516D01*
X0138430Y0266483D01*
X0148430Y0266483D01*
X0148430Y0273883D01*
X0148430Y0273834D02*
X0145330Y0273834D01*
X0145330Y0273436D02*
X0148430Y0273436D01*
X0148430Y0273037D02*
X0145330Y0273037D01*
X0145330Y0272639D02*
X0148430Y0272639D01*
X0148430Y0272240D02*
X0145330Y0272240D01*
X0148430Y0271842D02*
X0138031Y0271842D01*
X0137404Y0271443D02*
X0148430Y0271443D01*
X0148430Y0271045D02*
X0137193Y0271045D01*
X0137130Y0270646D02*
X0148430Y0270646D01*
X0148430Y0270248D02*
X0137130Y0270248D01*
X0137130Y0269849D02*
X0148430Y0269849D01*
X0148430Y0269451D02*
X0137130Y0269451D01*
X0137130Y0269052D02*
X0148430Y0269052D01*
X0148430Y0268654D02*
X0137130Y0268654D01*
X0137130Y0268255D02*
X0148430Y0268255D01*
X0148430Y0267857D02*
X0137130Y0267857D01*
X0137175Y0267458D02*
X0148430Y0267458D01*
X0148430Y0267060D02*
X0137359Y0267060D01*
X0137787Y0266661D02*
X0148430Y0266661D01*
X0148430Y0250820D02*
X0138430Y0250820D01*
X0138141Y0250787D01*
X0137866Y0250691D01*
X0137619Y0250536D01*
X0137414Y0250331D01*
X0137259Y0250084D01*
X0137163Y0249809D01*
X0137130Y0249520D01*
X0137130Y0246620D01*
X0137160Y0246353D01*
X0137249Y0246099D01*
X0137392Y0245872D01*
X0137582Y0245682D01*
X0137809Y0245539D01*
X0138063Y0245450D01*
X0138330Y0245420D01*
X0145230Y0245420D01*
X0145268Y0245412D01*
X0145301Y0245391D01*
X0145322Y0245358D01*
X0145330Y0245320D01*
X0145330Y0243420D01*
X0148430Y0243420D01*
X0148430Y0250820D01*
X0148430Y0250721D02*
X0137950Y0250721D01*
X0137408Y0250322D02*
X0148430Y0250322D01*
X0148430Y0249924D02*
X0137203Y0249924D01*
X0137131Y0249525D02*
X0148430Y0249525D01*
X0148430Y0249127D02*
X0137130Y0249127D01*
X0137130Y0248728D02*
X0148430Y0248728D01*
X0148430Y0248330D02*
X0137130Y0248330D01*
X0137130Y0247931D02*
X0148430Y0247931D01*
X0148430Y0247533D02*
X0137130Y0247533D01*
X0137130Y0247134D02*
X0148430Y0247134D01*
X0148430Y0246736D02*
X0137130Y0246736D01*
X0137166Y0246337D02*
X0148430Y0246337D01*
X0148430Y0245939D02*
X0137350Y0245939D01*
X0137807Y0245540D02*
X0148430Y0245540D01*
X0148430Y0245142D02*
X0145330Y0245142D01*
X0145330Y0244743D02*
X0148430Y0244743D01*
X0148430Y0244345D02*
X0145330Y0244345D01*
X0145330Y0243946D02*
X0148430Y0243946D01*
X0148430Y0243548D02*
X0145330Y0243548D01*
X0145330Y0231883D02*
X0148430Y0231883D01*
X0148430Y0224483D01*
X0138430Y0224483D01*
X0138141Y0224516D01*
X0137866Y0224612D01*
X0137619Y0224767D01*
X0137414Y0224973D01*
X0137259Y0225219D01*
X0137163Y0225494D01*
X0137130Y0225783D01*
X0137130Y0228683D01*
X0137160Y0228950D01*
X0137249Y0229204D01*
X0137392Y0229431D01*
X0137582Y0229621D01*
X0137809Y0229764D01*
X0138063Y0229853D01*
X0138330Y0229883D01*
X0145230Y0229883D01*
X0145268Y0229891D01*
X0145301Y0229912D01*
X0145322Y0229945D01*
X0145330Y0229983D01*
X0145330Y0231883D01*
X0145330Y0231592D02*
X0148430Y0231592D01*
X0148430Y0231194D02*
X0145330Y0231194D01*
X0145330Y0230795D02*
X0148430Y0230795D01*
X0148430Y0230397D02*
X0145330Y0230397D01*
X0145330Y0229998D02*
X0148430Y0229998D01*
X0148430Y0229600D02*
X0137560Y0229600D01*
X0137248Y0229201D02*
X0148430Y0229201D01*
X0148430Y0228803D02*
X0137143Y0228803D01*
X0137130Y0228404D02*
X0148430Y0228404D01*
X0148430Y0228006D02*
X0137130Y0228006D01*
X0137130Y0227607D02*
X0148430Y0227607D01*
X0148430Y0227209D02*
X0137130Y0227209D01*
X0137130Y0226810D02*
X0148430Y0226810D01*
X0148430Y0226412D02*
X0137130Y0226412D01*
X0137130Y0226013D02*
X0148430Y0226013D01*
X0148430Y0225615D02*
X0137149Y0225615D01*
X0137261Y0225216D02*
X0148430Y0225216D01*
X0148430Y0224818D02*
X0137569Y0224818D01*
X0138430Y0208820D02*
X0138141Y0208787D01*
X0137866Y0208691D01*
X0137619Y0208536D01*
X0137414Y0208331D01*
X0137259Y0208084D01*
X0137163Y0207809D01*
X0137130Y0207520D01*
X0137130Y0204620D01*
X0137160Y0204353D01*
X0137249Y0204099D01*
X0137392Y0203872D01*
X0137582Y0203682D01*
X0137809Y0203539D01*
X0138063Y0203450D01*
X0138330Y0203420D01*
X0145230Y0203420D01*
X0145268Y0203412D01*
X0145301Y0203391D01*
X0145322Y0203358D01*
X0145330Y0203320D01*
X0145330Y0201420D01*
X0148430Y0201420D01*
X0148430Y0208820D01*
X0138430Y0208820D01*
X0137562Y0208479D02*
X0148430Y0208479D01*
X0148430Y0208080D02*
X0137257Y0208080D01*
X0137148Y0207682D02*
X0148430Y0207682D01*
X0148430Y0207283D02*
X0137130Y0207283D01*
X0137130Y0206885D02*
X0148430Y0206885D01*
X0148430Y0206486D02*
X0137130Y0206486D01*
X0137130Y0206088D02*
X0148430Y0206088D01*
X0148430Y0205689D02*
X0137130Y0205689D01*
X0137130Y0205291D02*
X0148430Y0205291D01*
X0148430Y0204892D02*
X0137130Y0204892D01*
X0137144Y0204493D02*
X0148430Y0204493D01*
X0148430Y0204095D02*
X0137252Y0204095D01*
X0137567Y0203696D02*
X0148430Y0203696D01*
X0148430Y0203298D02*
X0145330Y0203298D01*
X0145330Y0202899D02*
X0148430Y0202899D01*
X0148430Y0202501D02*
X0145330Y0202501D01*
X0145330Y0202102D02*
X0148430Y0202102D01*
X0148430Y0201704D02*
X0145330Y0201704D01*
X0145330Y0189883D02*
X0148430Y0189883D01*
X0148430Y0182483D01*
X0138430Y0182483D01*
X0138141Y0182516D01*
X0137866Y0182612D01*
X0137619Y0182767D01*
X0137414Y0182973D01*
X0137259Y0183219D01*
X0137163Y0183494D01*
X0137130Y0183783D01*
X0137130Y0186683D01*
X0137160Y0186950D01*
X0137249Y0187204D01*
X0137392Y0187431D01*
X0137582Y0187621D01*
X0137809Y0187764D01*
X0138063Y0187853D01*
X0138330Y0187883D01*
X0145230Y0187883D01*
X0145268Y0187891D01*
X0145301Y0187912D01*
X0145322Y0187945D01*
X0145330Y0187983D01*
X0145330Y0189883D01*
X0145330Y0189749D02*
X0148430Y0189749D01*
X0148430Y0189350D02*
X0145330Y0189350D01*
X0145330Y0188952D02*
X0148430Y0188952D01*
X0148430Y0188553D02*
X0145330Y0188553D01*
X0145330Y0188155D02*
X0148430Y0188155D01*
X0148430Y0187756D02*
X0137796Y0187756D01*
X0137345Y0187358D02*
X0148430Y0187358D01*
X0148430Y0186959D02*
X0137163Y0186959D01*
X0137130Y0186560D02*
X0148430Y0186560D01*
X0148430Y0186162D02*
X0137130Y0186162D01*
X0137130Y0185763D02*
X0148430Y0185763D01*
X0148430Y0185365D02*
X0137130Y0185365D01*
X0137130Y0184966D02*
X0148430Y0184966D01*
X0148430Y0184568D02*
X0137130Y0184568D01*
X0137130Y0184169D02*
X0148430Y0184169D01*
X0148430Y0183771D02*
X0137131Y0183771D01*
X0137205Y0183372D02*
X0148430Y0183372D01*
X0148430Y0182974D02*
X0137413Y0182974D01*
X0137970Y0182575D02*
X0148430Y0182575D01*
X0148430Y0166820D02*
X0138430Y0166820D01*
X0138141Y0166787D01*
X0137866Y0166691D01*
X0137619Y0166536D01*
X0137414Y0166331D01*
X0137259Y0166084D01*
X0137163Y0165809D01*
X0137130Y0165520D01*
X0137130Y0162620D01*
X0137160Y0162353D01*
X0137249Y0162099D01*
X0137392Y0161872D01*
X0137582Y0161682D01*
X0137809Y0161539D01*
X0138063Y0161450D01*
X0138330Y0161420D01*
X0145230Y0161420D01*
X0145268Y0161412D01*
X0145301Y0161391D01*
X0145322Y0161358D01*
X0145330Y0161320D01*
X0145330Y0159420D01*
X0148430Y0159420D01*
X0148430Y0166820D01*
X0148430Y0166635D02*
X0137776Y0166635D01*
X0137354Y0166236D02*
X0148430Y0166236D01*
X0148430Y0165838D02*
X0137173Y0165838D01*
X0137130Y0165439D02*
X0148430Y0165439D01*
X0148430Y0165041D02*
X0137130Y0165041D01*
X0137130Y0164642D02*
X0148430Y0164642D01*
X0148430Y0164244D02*
X0137130Y0164244D01*
X0137130Y0163845D02*
X0148430Y0163845D01*
X0148430Y0163447D02*
X0137130Y0163447D01*
X0137130Y0163048D02*
X0148430Y0163048D01*
X0148430Y0162650D02*
X0137130Y0162650D01*
X0137196Y0162251D02*
X0148430Y0162251D01*
X0148430Y0161853D02*
X0137411Y0161853D01*
X0138051Y0161454D02*
X0148430Y0161454D01*
X0148430Y0161056D02*
X0145330Y0161056D01*
X0145330Y0160657D02*
X0148430Y0160657D01*
X0148430Y0160259D02*
X0145330Y0160259D01*
X0145330Y0159860D02*
X0148430Y0159860D01*
X0148430Y0159462D02*
X0145330Y0159462D01*
X0145330Y0147883D02*
X0148430Y0147883D01*
X0148430Y0140483D01*
X0138430Y0140483D01*
X0138141Y0140516D01*
X0137866Y0140612D01*
X0137619Y0140767D01*
X0137414Y0140973D01*
X0137259Y0141219D01*
X0137163Y0141494D01*
X0137130Y0141783D01*
X0137130Y0144683D01*
X0137160Y0144950D01*
X0137249Y0145204D01*
X0137392Y0145431D01*
X0137582Y0145621D01*
X0137809Y0145764D01*
X0138063Y0145853D01*
X0138330Y0145883D01*
X0145230Y0145883D01*
X0145268Y0145891D01*
X0145301Y0145912D01*
X0145322Y0145945D01*
X0145330Y0145983D01*
X0145330Y0147883D01*
X0145330Y0147506D02*
X0148430Y0147506D01*
X0148430Y0147108D02*
X0145330Y0147108D01*
X0145330Y0146709D02*
X0148430Y0146709D01*
X0148430Y0146311D02*
X0145330Y0146311D01*
X0145301Y0145912D02*
X0148430Y0145912D01*
X0148430Y0145514D02*
X0137474Y0145514D01*
X0137218Y0145115D02*
X0148430Y0145115D01*
X0148430Y0144717D02*
X0137134Y0144717D01*
X0137130Y0144318D02*
X0148430Y0144318D01*
X0148430Y0143920D02*
X0137130Y0143920D01*
X0137130Y0143521D02*
X0148430Y0143521D01*
X0148430Y0143123D02*
X0137130Y0143123D01*
X0137130Y0142724D02*
X0148430Y0142724D01*
X0148430Y0142326D02*
X0137130Y0142326D01*
X0137130Y0141927D02*
X0148430Y0141927D01*
X0148430Y0141529D02*
X0137159Y0141529D01*
X0137315Y0141130D02*
X0148430Y0141130D01*
X0148430Y0140732D02*
X0137675Y0140732D01*
X0138430Y0124820D02*
X0138141Y0124787D01*
X0137866Y0124691D01*
X0137619Y0124536D01*
X0137414Y0124331D01*
X0137259Y0124084D01*
X0137163Y0123809D01*
X0137130Y0123520D01*
X0137130Y0120620D01*
X0137160Y0120353D01*
X0137249Y0120099D01*
X0137392Y0119872D01*
X0137582Y0119682D01*
X0137809Y0119539D01*
X0138063Y0119450D01*
X0138330Y0119420D01*
X0145230Y0119420D01*
X0145268Y0119412D01*
X0145301Y0119391D01*
X0145322Y0119358D01*
X0145330Y0119320D01*
X0145330Y0117420D01*
X0148430Y0117420D01*
X0148430Y0124820D01*
X0138430Y0124820D01*
X0138175Y0124791D02*
X0148430Y0124791D01*
X0148430Y0124393D02*
X0137476Y0124393D01*
X0137227Y0123994D02*
X0148430Y0123994D01*
X0148430Y0123596D02*
X0137139Y0123596D01*
X0137130Y0123197D02*
X0148430Y0123197D01*
X0148430Y0122799D02*
X0137130Y0122799D01*
X0137130Y0122400D02*
X0148430Y0122400D01*
X0148430Y0122002D02*
X0137130Y0122002D01*
X0137130Y0121603D02*
X0148430Y0121603D01*
X0148430Y0121205D02*
X0137130Y0121205D01*
X0137130Y0120806D02*
X0148430Y0120806D01*
X0148430Y0120408D02*
X0137154Y0120408D01*
X0137306Y0120009D02*
X0148430Y0120009D01*
X0148430Y0119611D02*
X0137695Y0119611D01*
X0145330Y0119212D02*
X0148430Y0119212D01*
X0148430Y0118814D02*
X0145330Y0118814D01*
X0145330Y0118415D02*
X0148430Y0118415D01*
X0148430Y0118017D02*
X0145330Y0118017D01*
X0145330Y0117618D02*
X0148430Y0117618D01*
X0148430Y0105883D02*
X0145330Y0105883D01*
X0145330Y0103983D01*
X0145322Y0103945D01*
X0145301Y0103912D01*
X0145268Y0103891D01*
X0145230Y0103883D01*
X0138330Y0103883D01*
X0138063Y0103853D01*
X0137809Y0103764D01*
X0137582Y0103621D01*
X0137392Y0103431D01*
X0137249Y0103204D01*
X0137160Y0102950D01*
X0137130Y0102683D01*
X0137130Y0099783D01*
X0137163Y0099494D01*
X0137259Y0099219D01*
X0137414Y0098973D01*
X0137619Y0098767D01*
X0137866Y0098612D01*
X0138141Y0098516D01*
X0138430Y0098483D01*
X0148430Y0098483D01*
X0148430Y0105883D01*
X0148430Y0105663D02*
X0145330Y0105663D01*
X0145330Y0105264D02*
X0148430Y0105264D01*
X0148430Y0104866D02*
X0145330Y0104866D01*
X0145330Y0104467D02*
X0148430Y0104467D01*
X0148430Y0104069D02*
X0145330Y0104069D01*
X0148430Y0103670D02*
X0137659Y0103670D01*
X0137291Y0103272D02*
X0148430Y0103272D01*
X0148430Y0102873D02*
X0137151Y0102873D01*
X0137130Y0102475D02*
X0148430Y0102475D01*
X0148430Y0102076D02*
X0137130Y0102076D01*
X0137130Y0101678D02*
X0148430Y0101678D01*
X0148430Y0101279D02*
X0137130Y0101279D01*
X0137130Y0100881D02*
X0148430Y0100881D01*
X0148430Y0100482D02*
X0137130Y0100482D01*
X0137130Y0100084D02*
X0148430Y0100084D01*
X0148430Y0099685D02*
X0137141Y0099685D01*
X0137235Y0099287D02*
X0148430Y0099287D01*
X0148430Y0098888D02*
X0137498Y0098888D01*
X0138374Y0098489D02*
X0148430Y0098489D01*
X0148430Y0082820D02*
X0138430Y0082820D01*
X0138141Y0082787D01*
X0137866Y0082691D01*
X0137619Y0082536D01*
X0137414Y0082331D01*
X0137259Y0082084D01*
X0137163Y0081809D01*
X0137130Y0081520D01*
X0137130Y0078620D01*
X0137160Y0078353D01*
X0137249Y0078099D01*
X0137392Y0077872D01*
X0137582Y0077682D01*
X0137809Y0077539D01*
X0138063Y0077450D01*
X0138330Y0077420D01*
X0145230Y0077420D01*
X0145268Y0077412D01*
X0145301Y0077391D01*
X0145322Y0077358D01*
X0145330Y0077320D01*
X0145330Y0075420D01*
X0148430Y0075420D01*
X0148430Y0082820D01*
X0148430Y0082549D02*
X0137640Y0082549D01*
X0137301Y0082151D02*
X0148430Y0082151D01*
X0148430Y0081752D02*
X0137156Y0081752D01*
X0137130Y0081353D02*
X0148430Y0081353D01*
X0148430Y0080955D02*
X0137130Y0080955D01*
X0137130Y0080556D02*
X0148430Y0080556D01*
X0148430Y0080158D02*
X0137130Y0080158D01*
X0137130Y0079759D02*
X0148430Y0079759D01*
X0148430Y0079361D02*
X0137130Y0079361D01*
X0137130Y0078962D02*
X0148430Y0078962D01*
X0148430Y0078564D02*
X0137136Y0078564D01*
X0137226Y0078165D02*
X0148430Y0078165D01*
X0148430Y0077767D02*
X0137497Y0077767D01*
X0145316Y0077368D02*
X0148430Y0077368D01*
X0148430Y0076970D02*
X0145330Y0076970D01*
X0145330Y0076571D02*
X0148430Y0076571D01*
X0148430Y0076173D02*
X0145330Y0076173D01*
X0145330Y0075774D02*
X0148430Y0075774D01*
X0148430Y0063883D02*
X0145330Y0063883D01*
X0145330Y0061983D01*
X0145322Y0061945D01*
X0145301Y0061912D01*
X0145268Y0061891D01*
X0145230Y0061883D01*
X0138330Y0061883D01*
X0138063Y0061853D01*
X0137809Y0061764D01*
X0137582Y0061621D01*
X0137392Y0061431D01*
X0137249Y0061204D01*
X0137160Y0060950D01*
X0137130Y0060683D01*
X0137130Y0057783D01*
X0137163Y0057494D01*
X0137259Y0057219D01*
X0137414Y0056973D01*
X0137619Y0056767D01*
X0137866Y0056612D01*
X0138141Y0056516D01*
X0138430Y0056483D01*
X0148430Y0056483D01*
X0148430Y0063883D01*
X0148430Y0063819D02*
X0145330Y0063819D01*
X0145330Y0063420D02*
X0148430Y0063420D01*
X0148430Y0063022D02*
X0145330Y0063022D01*
X0145330Y0062623D02*
X0148430Y0062623D01*
X0148430Y0062225D02*
X0145330Y0062225D01*
X0148430Y0061826D02*
X0137987Y0061826D01*
X0137390Y0061428D02*
X0148430Y0061428D01*
X0148430Y0061029D02*
X0137188Y0061029D01*
X0137130Y0060631D02*
X0148430Y0060631D01*
X0148430Y0060232D02*
X0137130Y0060232D01*
X0137130Y0059834D02*
X0148430Y0059834D01*
X0148430Y0059435D02*
X0137130Y0059435D01*
X0137130Y0059037D02*
X0148430Y0059037D01*
X0148430Y0058638D02*
X0137130Y0058638D01*
X0137130Y0058240D02*
X0148430Y0058240D01*
X0148430Y0057841D02*
X0137130Y0057841D01*
X0137180Y0057443D02*
X0148430Y0057443D01*
X0148430Y0057044D02*
X0137369Y0057044D01*
X0137812Y0056646D02*
X0148430Y0056646D01*
X0148430Y0040820D02*
X0138430Y0040820D01*
X0138141Y0040787D01*
X0137866Y0040691D01*
X0137619Y0040536D01*
X0137414Y0040331D01*
X0137259Y0040084D01*
X0137163Y0039809D01*
X0137130Y0039520D01*
X0137130Y0036620D01*
X0137160Y0036353D01*
X0137249Y0036099D01*
X0137392Y0035872D01*
X0137582Y0035682D01*
X0137809Y0035539D01*
X0138063Y0035450D01*
X0138330Y0035420D01*
X0145230Y0035420D01*
X0145268Y0035412D01*
X0145301Y0035391D01*
X0145322Y0035358D01*
X0145330Y0035320D01*
X0145330Y0033420D01*
X0148430Y0033420D01*
X0148430Y0040820D01*
X0148430Y0040705D02*
X0137906Y0040705D01*
X0137399Y0040307D02*
X0148430Y0040307D01*
X0148430Y0039908D02*
X0137197Y0039908D01*
X0137130Y0039510D02*
X0148430Y0039510D01*
X0148430Y0039111D02*
X0137130Y0039111D01*
X0137130Y0038713D02*
X0148430Y0038713D01*
X0148430Y0038314D02*
X0137130Y0038314D01*
X0137130Y0037916D02*
X0148430Y0037916D01*
X0148430Y0037517D02*
X0137130Y0037517D01*
X0137130Y0037119D02*
X0148430Y0037119D01*
X0148430Y0036720D02*
X0137130Y0036720D01*
X0137171Y0036322D02*
X0148430Y0036322D01*
X0148430Y0035923D02*
X0137359Y0035923D01*
X0137850Y0035525D02*
X0148430Y0035525D01*
X0148430Y0035126D02*
X0145330Y0035126D01*
X0145330Y0034728D02*
X0148430Y0034728D01*
X0148430Y0034329D02*
X0145330Y0034329D01*
X0145330Y0033931D02*
X0148430Y0033931D01*
X0148430Y0033532D02*
X0145330Y0033532D01*
X0244130Y0036620D02*
X0244160Y0036353D01*
X0244249Y0036099D01*
X0244392Y0035872D01*
X0244582Y0035682D01*
X0244809Y0035539D01*
X0245063Y0035450D01*
X0245330Y0035420D01*
X0252230Y0035420D01*
X0252268Y0035412D01*
X0252301Y0035391D01*
X0252322Y0035358D01*
X0252330Y0035320D01*
X0252330Y0033420D01*
X0255430Y0033420D01*
X0255430Y0040820D01*
X0245430Y0040820D01*
X0245141Y0040787D01*
X0244866Y0040691D01*
X0244619Y0040536D01*
X0244414Y0040331D01*
X0244259Y0040084D01*
X0244163Y0039809D01*
X0244130Y0039520D01*
X0244130Y0036620D01*
X0244130Y0036720D02*
X0255430Y0036720D01*
X0255430Y0036322D02*
X0244171Y0036322D01*
X0244359Y0035923D02*
X0255430Y0035923D01*
X0255430Y0035525D02*
X0244850Y0035525D01*
X0244130Y0037119D02*
X0255430Y0037119D01*
X0255430Y0037517D02*
X0244130Y0037517D01*
X0244130Y0037916D02*
X0255430Y0037916D01*
X0255430Y0038314D02*
X0244130Y0038314D01*
X0244130Y0038713D02*
X0255430Y0038713D01*
X0255430Y0039111D02*
X0244130Y0039111D01*
X0244130Y0039510D02*
X0255430Y0039510D01*
X0255430Y0039908D02*
X0244197Y0039908D01*
X0244399Y0040307D02*
X0255430Y0040307D01*
X0255430Y0040705D02*
X0244906Y0040705D01*
X0252330Y0035126D02*
X0255430Y0035126D01*
X0255430Y0034728D02*
X0252330Y0034728D01*
X0252330Y0034329D02*
X0255430Y0034329D01*
X0255430Y0033931D02*
X0252330Y0033931D01*
X0252330Y0033532D02*
X0255430Y0033532D01*
X0255430Y0056483D02*
X0245430Y0056483D01*
X0245141Y0056516D01*
X0244866Y0056612D01*
X0244619Y0056767D01*
X0244414Y0056973D01*
X0244259Y0057219D01*
X0244163Y0057494D01*
X0244130Y0057783D01*
X0244130Y0060683D01*
X0244160Y0060950D01*
X0244249Y0061204D01*
X0244392Y0061431D01*
X0244582Y0061621D01*
X0244809Y0061764D01*
X0245063Y0061853D01*
X0245330Y0061883D01*
X0252230Y0061883D01*
X0252268Y0061891D01*
X0252301Y0061912D01*
X0252322Y0061945D01*
X0252330Y0061983D01*
X0252330Y0063883D01*
X0255430Y0063883D01*
X0255430Y0056483D01*
X0255430Y0056646D02*
X0244812Y0056646D01*
X0244369Y0057044D02*
X0255430Y0057044D01*
X0255430Y0057443D02*
X0244180Y0057443D01*
X0244130Y0057841D02*
X0255430Y0057841D01*
X0255430Y0058240D02*
X0244130Y0058240D01*
X0244130Y0058638D02*
X0255430Y0058638D01*
X0255430Y0059037D02*
X0244130Y0059037D01*
X0244130Y0059435D02*
X0255430Y0059435D01*
X0255430Y0059834D02*
X0244130Y0059834D01*
X0244130Y0060232D02*
X0255430Y0060232D01*
X0255430Y0060631D02*
X0244130Y0060631D01*
X0244188Y0061029D02*
X0255430Y0061029D01*
X0255430Y0061428D02*
X0244390Y0061428D01*
X0244987Y0061826D02*
X0255430Y0061826D01*
X0255430Y0062225D02*
X0252330Y0062225D01*
X0252330Y0062623D02*
X0255430Y0062623D01*
X0255430Y0063022D02*
X0252330Y0063022D01*
X0252330Y0063420D02*
X0255430Y0063420D01*
X0255430Y0063819D02*
X0252330Y0063819D01*
X0252330Y0075420D02*
X0255430Y0075420D01*
X0255430Y0082820D01*
X0245430Y0082820D01*
X0245141Y0082787D01*
X0244866Y0082691D01*
X0244619Y0082536D01*
X0244414Y0082331D01*
X0244259Y0082084D01*
X0244163Y0081809D01*
X0244130Y0081520D01*
X0244130Y0078620D01*
X0244160Y0078353D01*
X0244249Y0078099D01*
X0244392Y0077872D01*
X0244582Y0077682D01*
X0244809Y0077539D01*
X0245063Y0077450D01*
X0245330Y0077420D01*
X0252230Y0077420D01*
X0252268Y0077412D01*
X0252301Y0077391D01*
X0252322Y0077358D01*
X0252330Y0077320D01*
X0252330Y0075420D01*
X0252330Y0075774D02*
X0255430Y0075774D01*
X0255430Y0076173D02*
X0252330Y0076173D01*
X0252330Y0076571D02*
X0255430Y0076571D01*
X0255430Y0076970D02*
X0252330Y0076970D01*
X0252316Y0077368D02*
X0255430Y0077368D01*
X0255430Y0077767D02*
X0244497Y0077767D01*
X0244226Y0078165D02*
X0255430Y0078165D01*
X0255430Y0078564D02*
X0244136Y0078564D01*
X0244130Y0078962D02*
X0255430Y0078962D01*
X0255430Y0079361D02*
X0244130Y0079361D01*
X0244130Y0079759D02*
X0255430Y0079759D01*
X0255430Y0080158D02*
X0244130Y0080158D01*
X0244130Y0080556D02*
X0255430Y0080556D01*
X0255430Y0080955D02*
X0244130Y0080955D01*
X0244130Y0081353D02*
X0255430Y0081353D01*
X0255430Y0081752D02*
X0244156Y0081752D01*
X0244301Y0082151D02*
X0255430Y0082151D01*
X0255430Y0082549D02*
X0244640Y0082549D01*
X0245430Y0098483D02*
X0245141Y0098516D01*
X0244866Y0098612D01*
X0244619Y0098767D01*
X0244414Y0098973D01*
X0244259Y0099219D01*
X0244163Y0099494D01*
X0244130Y0099783D01*
X0244130Y0102683D01*
X0244160Y0102950D01*
X0244249Y0103204D01*
X0244392Y0103431D01*
X0244582Y0103621D01*
X0244809Y0103764D01*
X0245063Y0103853D01*
X0245330Y0103883D01*
X0252230Y0103883D01*
X0252268Y0103891D01*
X0252301Y0103912D01*
X0252322Y0103945D01*
X0252330Y0103983D01*
X0252330Y0105883D01*
X0255430Y0105883D01*
X0255430Y0098483D01*
X0245430Y0098483D01*
X0245374Y0098489D02*
X0255430Y0098489D01*
X0255430Y0098888D02*
X0244498Y0098888D01*
X0244235Y0099287D02*
X0255430Y0099287D01*
X0255430Y0099685D02*
X0244141Y0099685D01*
X0244130Y0100084D02*
X0255430Y0100084D01*
X0255430Y0100482D02*
X0244130Y0100482D01*
X0244130Y0100881D02*
X0255430Y0100881D01*
X0255430Y0101279D02*
X0244130Y0101279D01*
X0244130Y0101678D02*
X0255430Y0101678D01*
X0255430Y0102076D02*
X0244130Y0102076D01*
X0244130Y0102475D02*
X0255430Y0102475D01*
X0255430Y0102873D02*
X0244151Y0102873D01*
X0244291Y0103272D02*
X0255430Y0103272D01*
X0255430Y0103670D02*
X0244659Y0103670D01*
X0252330Y0104069D02*
X0255430Y0104069D01*
X0255430Y0104467D02*
X0252330Y0104467D01*
X0252330Y0104866D02*
X0255430Y0104866D01*
X0255430Y0105264D02*
X0252330Y0105264D01*
X0252330Y0105663D02*
X0255430Y0105663D01*
X0255430Y0117420D02*
X0252330Y0117420D01*
X0252330Y0119320D01*
X0252322Y0119358D01*
X0252301Y0119391D01*
X0252268Y0119412D01*
X0252230Y0119420D01*
X0245330Y0119420D01*
X0245063Y0119450D01*
X0244809Y0119539D01*
X0244582Y0119682D01*
X0244392Y0119872D01*
X0244249Y0120099D01*
X0244160Y0120353D01*
X0244130Y0120620D01*
X0244130Y0123520D01*
X0244163Y0123809D01*
X0244259Y0124084D01*
X0244414Y0124331D01*
X0244619Y0124536D01*
X0244866Y0124691D01*
X0245141Y0124787D01*
X0245430Y0124820D01*
X0255430Y0124820D01*
X0255430Y0117420D01*
X0255430Y0117618D02*
X0252330Y0117618D01*
X0252330Y0118017D02*
X0255430Y0118017D01*
X0255430Y0118415D02*
X0252330Y0118415D01*
X0252330Y0118814D02*
X0255430Y0118814D01*
X0255430Y0119212D02*
X0252330Y0119212D01*
X0255430Y0119611D02*
X0244695Y0119611D01*
X0244306Y0120009D02*
X0255430Y0120009D01*
X0255430Y0120408D02*
X0244154Y0120408D01*
X0244130Y0120806D02*
X0255430Y0120806D01*
X0255430Y0121205D02*
X0244130Y0121205D01*
X0244130Y0121603D02*
X0255430Y0121603D01*
X0255430Y0122002D02*
X0244130Y0122002D01*
X0244130Y0122400D02*
X0255430Y0122400D01*
X0255430Y0122799D02*
X0244130Y0122799D01*
X0244130Y0123197D02*
X0255430Y0123197D01*
X0255430Y0123596D02*
X0244139Y0123596D01*
X0244227Y0123994D02*
X0255430Y0123994D01*
X0255430Y0124393D02*
X0244476Y0124393D01*
X0245175Y0124791D02*
X0255430Y0124791D01*
X0255430Y0140483D02*
X0245430Y0140483D01*
X0245141Y0140516D01*
X0244866Y0140612D01*
X0244619Y0140767D01*
X0244414Y0140973D01*
X0244259Y0141219D01*
X0244163Y0141494D01*
X0244130Y0141783D01*
X0244130Y0144683D01*
X0244160Y0144950D01*
X0244249Y0145204D01*
X0244392Y0145431D01*
X0244582Y0145621D01*
X0244809Y0145764D01*
X0245063Y0145853D01*
X0245330Y0145883D01*
X0252230Y0145883D01*
X0252268Y0145891D01*
X0252301Y0145912D01*
X0252322Y0145945D01*
X0252330Y0145983D01*
X0252330Y0147883D01*
X0255430Y0147883D01*
X0255430Y0140483D01*
X0255430Y0140732D02*
X0244675Y0140732D01*
X0244315Y0141130D02*
X0255430Y0141130D01*
X0255430Y0141529D02*
X0244159Y0141529D01*
X0244130Y0141927D02*
X0255430Y0141927D01*
X0255430Y0142326D02*
X0244130Y0142326D01*
X0244130Y0142724D02*
X0255430Y0142724D01*
X0255430Y0143123D02*
X0244130Y0143123D01*
X0244130Y0143521D02*
X0255430Y0143521D01*
X0255430Y0143920D02*
X0244130Y0143920D01*
X0244130Y0144318D02*
X0255430Y0144318D01*
X0255430Y0144717D02*
X0244134Y0144717D01*
X0244218Y0145115D02*
X0255430Y0145115D01*
X0255430Y0145514D02*
X0244474Y0145514D01*
X0252301Y0145912D02*
X0255430Y0145912D01*
X0255430Y0146311D02*
X0252330Y0146311D01*
X0252330Y0146709D02*
X0255430Y0146709D01*
X0255430Y0147108D02*
X0252330Y0147108D01*
X0252330Y0147506D02*
X0255430Y0147506D01*
X0255430Y0159420D02*
X0252330Y0159420D01*
X0252330Y0161320D01*
X0252322Y0161358D01*
X0252301Y0161391D01*
X0252268Y0161412D01*
X0252230Y0161420D01*
X0245330Y0161420D01*
X0245063Y0161450D01*
X0244809Y0161539D01*
X0244582Y0161682D01*
X0244392Y0161872D01*
X0244249Y0162099D01*
X0244160Y0162353D01*
X0244130Y0162620D01*
X0244130Y0165520D01*
X0244163Y0165809D01*
X0244259Y0166084D01*
X0244414Y0166331D01*
X0244619Y0166536D01*
X0244866Y0166691D01*
X0245141Y0166787D01*
X0245430Y0166820D01*
X0255430Y0166820D01*
X0255430Y0159420D01*
X0255430Y0159462D02*
X0252330Y0159462D01*
X0252330Y0159860D02*
X0255430Y0159860D01*
X0255430Y0160259D02*
X0252330Y0160259D01*
X0252330Y0160657D02*
X0255430Y0160657D01*
X0255430Y0161056D02*
X0252330Y0161056D01*
X0255430Y0161454D02*
X0245051Y0161454D01*
X0244411Y0161853D02*
X0255430Y0161853D01*
X0255430Y0162251D02*
X0244196Y0162251D01*
X0244130Y0162650D02*
X0255430Y0162650D01*
X0255430Y0163048D02*
X0244130Y0163048D01*
X0244130Y0163447D02*
X0255430Y0163447D01*
X0255430Y0163845D02*
X0244130Y0163845D01*
X0244130Y0164244D02*
X0255430Y0164244D01*
X0255430Y0164642D02*
X0244130Y0164642D01*
X0244130Y0165041D02*
X0255430Y0165041D01*
X0255430Y0165439D02*
X0244130Y0165439D01*
X0244173Y0165838D02*
X0255430Y0165838D01*
X0255430Y0166236D02*
X0244354Y0166236D01*
X0244776Y0166635D02*
X0255430Y0166635D01*
X0255430Y0182483D02*
X0245430Y0182483D01*
X0245141Y0182516D01*
X0244866Y0182612D01*
X0244619Y0182767D01*
X0244414Y0182973D01*
X0244259Y0183219D01*
X0244163Y0183494D01*
X0244130Y0183783D01*
X0244130Y0186683D01*
X0244160Y0186950D01*
X0244249Y0187204D01*
X0244392Y0187431D01*
X0244582Y0187621D01*
X0244809Y0187764D01*
X0245063Y0187853D01*
X0245330Y0187883D01*
X0252230Y0187883D01*
X0252268Y0187891D01*
X0252301Y0187912D01*
X0252322Y0187945D01*
X0252330Y0187983D01*
X0252330Y0189883D01*
X0255430Y0189883D01*
X0255430Y0182483D01*
X0255430Y0182575D02*
X0244970Y0182575D01*
X0244413Y0182974D02*
X0255430Y0182974D01*
X0255430Y0183372D02*
X0244205Y0183372D01*
X0244131Y0183771D02*
X0255430Y0183771D01*
X0255430Y0184169D02*
X0244130Y0184169D01*
X0244130Y0184568D02*
X0255430Y0184568D01*
X0255430Y0184966D02*
X0244130Y0184966D01*
X0244130Y0185365D02*
X0255430Y0185365D01*
X0255430Y0185763D02*
X0244130Y0185763D01*
X0244130Y0186162D02*
X0255430Y0186162D01*
X0255430Y0186560D02*
X0244130Y0186560D01*
X0244163Y0186959D02*
X0255430Y0186959D01*
X0255430Y0187358D02*
X0244345Y0187358D01*
X0244796Y0187756D02*
X0255430Y0187756D01*
X0255430Y0188155D02*
X0252330Y0188155D01*
X0252330Y0188553D02*
X0255430Y0188553D01*
X0255430Y0188952D02*
X0252330Y0188952D01*
X0252330Y0189350D02*
X0255430Y0189350D01*
X0255430Y0189749D02*
X0252330Y0189749D01*
X0252330Y0201420D02*
X0255430Y0201420D01*
X0255430Y0208820D01*
X0245430Y0208820D01*
X0245141Y0208787D01*
X0244866Y0208691D01*
X0244619Y0208536D01*
X0244414Y0208331D01*
X0244259Y0208084D01*
X0244163Y0207809D01*
X0244130Y0207520D01*
X0244130Y0204620D01*
X0244160Y0204353D01*
X0244249Y0204099D01*
X0244392Y0203872D01*
X0244582Y0203682D01*
X0244809Y0203539D01*
X0245063Y0203450D01*
X0245330Y0203420D01*
X0252230Y0203420D01*
X0252268Y0203412D01*
X0252301Y0203391D01*
X0252322Y0203358D01*
X0252330Y0203320D01*
X0252330Y0201420D01*
X0252330Y0201704D02*
X0255430Y0201704D01*
X0255430Y0202102D02*
X0252330Y0202102D01*
X0252330Y0202501D02*
X0255430Y0202501D01*
X0255430Y0202899D02*
X0252330Y0202899D01*
X0252330Y0203298D02*
X0255430Y0203298D01*
X0255430Y0203696D02*
X0244567Y0203696D01*
X0244252Y0204095D02*
X0255430Y0204095D01*
X0255430Y0204493D02*
X0244144Y0204493D01*
X0244130Y0204892D02*
X0255430Y0204892D01*
X0255430Y0205291D02*
X0244130Y0205291D01*
X0244130Y0205689D02*
X0255430Y0205689D01*
X0255430Y0206088D02*
X0244130Y0206088D01*
X0244130Y0206486D02*
X0255430Y0206486D01*
X0255430Y0206885D02*
X0244130Y0206885D01*
X0244130Y0207283D02*
X0255430Y0207283D01*
X0255430Y0207682D02*
X0244148Y0207682D01*
X0244257Y0208080D02*
X0255430Y0208080D01*
X0255430Y0208479D02*
X0244562Y0208479D01*
X0245430Y0224483D02*
X0245141Y0224516D01*
X0244866Y0224612D01*
X0244619Y0224767D01*
X0244414Y0224973D01*
X0244259Y0225219D01*
X0244163Y0225494D01*
X0244130Y0225783D01*
X0244130Y0228683D01*
X0244160Y0228950D01*
X0244249Y0229204D01*
X0244392Y0229431D01*
X0244582Y0229621D01*
X0244809Y0229764D01*
X0245063Y0229853D01*
X0245330Y0229883D01*
X0252230Y0229883D01*
X0252268Y0229891D01*
X0252301Y0229912D01*
X0252322Y0229945D01*
X0252330Y0229983D01*
X0252330Y0231883D01*
X0255430Y0231883D01*
X0255430Y0224483D01*
X0245430Y0224483D01*
X0244569Y0224818D02*
X0255430Y0224818D01*
X0255430Y0225216D02*
X0244261Y0225216D01*
X0244149Y0225615D02*
X0255430Y0225615D01*
X0255430Y0226013D02*
X0244130Y0226013D01*
X0244130Y0226412D02*
X0255430Y0226412D01*
X0255430Y0226810D02*
X0244130Y0226810D01*
X0244130Y0227209D02*
X0255430Y0227209D01*
X0255430Y0227607D02*
X0244130Y0227607D01*
X0244130Y0228006D02*
X0255430Y0228006D01*
X0255430Y0228404D02*
X0244130Y0228404D01*
X0244143Y0228803D02*
X0255430Y0228803D01*
X0255430Y0229201D02*
X0244248Y0229201D01*
X0244560Y0229600D02*
X0255430Y0229600D01*
X0255430Y0229998D02*
X0252330Y0229998D01*
X0252330Y0230397D02*
X0255430Y0230397D01*
X0255430Y0230795D02*
X0252330Y0230795D01*
X0252330Y0231194D02*
X0255430Y0231194D01*
X0255430Y0231592D02*
X0252330Y0231592D01*
X0252330Y0243420D02*
X0255430Y0243420D01*
X0255430Y0250820D01*
X0245430Y0250820D01*
X0245141Y0250787D01*
X0244866Y0250691D01*
X0244619Y0250536D01*
X0244414Y0250331D01*
X0244259Y0250084D01*
X0244163Y0249809D01*
X0244130Y0249520D01*
X0244130Y0246620D01*
X0244160Y0246353D01*
X0244249Y0246099D01*
X0244392Y0245872D01*
X0244582Y0245682D01*
X0244809Y0245539D01*
X0245063Y0245450D01*
X0245330Y0245420D01*
X0252230Y0245420D01*
X0252268Y0245412D01*
X0252301Y0245391D01*
X0252322Y0245358D01*
X0252330Y0245320D01*
X0252330Y0243420D01*
X0252330Y0243548D02*
X0255430Y0243548D01*
X0255430Y0243946D02*
X0252330Y0243946D01*
X0252330Y0244345D02*
X0255430Y0244345D01*
X0255430Y0244743D02*
X0252330Y0244743D01*
X0252330Y0245142D02*
X0255430Y0245142D01*
X0255430Y0245540D02*
X0244807Y0245540D01*
X0244350Y0245939D02*
X0255430Y0245939D01*
X0255430Y0246337D02*
X0244166Y0246337D01*
X0244130Y0246736D02*
X0255430Y0246736D01*
X0255430Y0247134D02*
X0244130Y0247134D01*
X0244130Y0247533D02*
X0255430Y0247533D01*
X0255430Y0247931D02*
X0244130Y0247931D01*
X0244130Y0248330D02*
X0255430Y0248330D01*
X0255430Y0248728D02*
X0244130Y0248728D01*
X0244130Y0249127D02*
X0255430Y0249127D01*
X0255430Y0249525D02*
X0244131Y0249525D01*
X0244203Y0249924D02*
X0255430Y0249924D01*
X0255430Y0250322D02*
X0244408Y0250322D01*
X0244950Y0250721D02*
X0255430Y0250721D01*
X0255430Y0266483D02*
X0245430Y0266483D01*
X0245141Y0266516D01*
X0244866Y0266612D01*
X0244619Y0266767D01*
X0244414Y0266973D01*
X0244259Y0267219D01*
X0244163Y0267494D01*
X0244130Y0267783D01*
X0244130Y0270683D01*
X0244160Y0270950D01*
X0244249Y0271204D01*
X0244392Y0271431D01*
X0244582Y0271621D01*
X0244809Y0271764D01*
X0245063Y0271853D01*
X0245330Y0271883D01*
X0252230Y0271883D01*
X0252268Y0271891D01*
X0252301Y0271912D01*
X0252322Y0271945D01*
X0252330Y0271983D01*
X0252330Y0273883D01*
X0255430Y0273883D01*
X0255430Y0266483D01*
X0255430Y0266661D02*
X0244787Y0266661D01*
X0244359Y0267060D02*
X0255430Y0267060D01*
X0255430Y0267458D02*
X0244175Y0267458D01*
X0244130Y0267857D02*
X0255430Y0267857D01*
X0255430Y0268255D02*
X0244130Y0268255D01*
X0244130Y0268654D02*
X0255430Y0268654D01*
X0255430Y0269052D02*
X0244130Y0269052D01*
X0244130Y0269451D02*
X0255430Y0269451D01*
X0255430Y0269849D02*
X0244130Y0269849D01*
X0244130Y0270248D02*
X0255430Y0270248D01*
X0255430Y0270646D02*
X0244130Y0270646D01*
X0244193Y0271045D02*
X0255430Y0271045D01*
X0255430Y0271443D02*
X0244404Y0271443D01*
X0245031Y0271842D02*
X0255430Y0271842D01*
X0255430Y0272240D02*
X0252330Y0272240D01*
X0252330Y0272639D02*
X0255430Y0272639D01*
X0255430Y0273037D02*
X0252330Y0273037D01*
X0252330Y0273436D02*
X0255430Y0273436D01*
X0255430Y0273834D02*
X0252330Y0273834D01*
X0252330Y0285420D02*
X0255430Y0285420D01*
X0255430Y0292820D01*
X0245430Y0292820D01*
X0245141Y0292787D01*
X0244866Y0292691D01*
X0244619Y0292536D01*
X0244414Y0292331D01*
X0244259Y0292084D01*
X0244163Y0291809D01*
X0244130Y0291520D01*
X0244130Y0288620D01*
X0244160Y0288353D01*
X0244249Y0288099D01*
X0244392Y0287872D01*
X0244582Y0287682D01*
X0244809Y0287539D01*
X0245063Y0287450D01*
X0245330Y0287420D01*
X0252230Y0287420D01*
X0252268Y0287412D01*
X0252301Y0287391D01*
X0252322Y0287358D01*
X0252330Y0287320D01*
X0252330Y0285420D01*
X0252330Y0285790D02*
X0255430Y0285790D01*
X0255430Y0286188D02*
X0252330Y0286188D01*
X0252330Y0286587D02*
X0255430Y0286587D01*
X0255430Y0286985D02*
X0252330Y0286985D01*
X0252305Y0287384D02*
X0255430Y0287384D01*
X0255430Y0287782D02*
X0244481Y0287782D01*
X0244220Y0288181D02*
X0255430Y0288181D01*
X0255430Y0288579D02*
X0244135Y0288579D01*
X0244130Y0288978D02*
X0255430Y0288978D01*
X0255430Y0289376D02*
X0244130Y0289376D01*
X0244130Y0289775D02*
X0255430Y0289775D01*
X0255430Y0290173D02*
X0244130Y0290173D01*
X0244130Y0290572D02*
X0255430Y0290572D01*
X0255430Y0290970D02*
X0244130Y0290970D01*
X0244130Y0291369D02*
X0255430Y0291369D01*
X0255430Y0291767D02*
X0244158Y0291767D01*
X0244310Y0292166D02*
X0255430Y0292166D01*
X0255430Y0292564D02*
X0244664Y0292564D01*
X0245430Y0308483D02*
X0245141Y0308516D01*
X0244866Y0308612D01*
X0244619Y0308767D01*
X0244414Y0308973D01*
X0244259Y0309219D01*
X0244163Y0309494D01*
X0244130Y0309783D01*
X0244130Y0312683D01*
X0244160Y0312950D01*
X0244249Y0313204D01*
X0244392Y0313431D01*
X0244582Y0313621D01*
X0244809Y0313764D01*
X0245063Y0313853D01*
X0245330Y0313883D01*
X0252230Y0313883D01*
X0252268Y0313891D01*
X0252301Y0313912D01*
X0252322Y0313945D01*
X0252330Y0313983D01*
X0252330Y0315883D01*
X0255430Y0315883D01*
X0255430Y0308483D01*
X0245430Y0308483D01*
X0245237Y0308505D02*
X0255430Y0308505D01*
X0255430Y0308903D02*
X0244483Y0308903D01*
X0244230Y0309302D02*
X0255430Y0309302D01*
X0255430Y0309700D02*
X0244139Y0309700D01*
X0244130Y0310099D02*
X0255430Y0310099D01*
X0255430Y0310498D02*
X0244130Y0310498D01*
X0244130Y0310896D02*
X0255430Y0310896D01*
X0255430Y0311295D02*
X0244130Y0311295D01*
X0244130Y0311693D02*
X0255430Y0311693D01*
X0255430Y0312092D02*
X0244130Y0312092D01*
X0244130Y0312490D02*
X0255430Y0312490D01*
X0255430Y0312889D02*
X0244153Y0312889D01*
X0244301Y0313287D02*
X0255430Y0313287D01*
X0255430Y0313686D02*
X0244684Y0313686D01*
X0252330Y0314084D02*
X0255430Y0314084D01*
X0255430Y0314483D02*
X0252330Y0314483D01*
X0252330Y0314881D02*
X0255430Y0314881D01*
X0255430Y0315280D02*
X0252330Y0315280D01*
X0252330Y0315678D02*
X0255430Y0315678D01*
X0255430Y0327420D02*
X0252330Y0327420D01*
X0252330Y0329320D01*
X0252322Y0329358D01*
X0252301Y0329391D01*
X0252268Y0329412D01*
X0252230Y0329420D01*
X0245330Y0329420D01*
X0245063Y0329450D01*
X0244809Y0329539D01*
X0244582Y0329682D01*
X0244392Y0329872D01*
X0244249Y0330099D01*
X0244160Y0330353D01*
X0244130Y0330620D01*
X0244130Y0333520D01*
X0244163Y0333809D01*
X0244259Y0334084D01*
X0244414Y0334331D01*
X0244619Y0334536D01*
X0244866Y0334691D01*
X0245141Y0334787D01*
X0245430Y0334820D01*
X0255430Y0334820D01*
X0255430Y0327420D01*
X0255430Y0327633D02*
X0252330Y0327633D01*
X0252330Y0328032D02*
X0255430Y0328032D01*
X0255430Y0328431D02*
X0252330Y0328431D01*
X0252330Y0328829D02*
X0255430Y0328829D01*
X0255430Y0329228D02*
X0252330Y0329228D01*
X0255430Y0329626D02*
X0244671Y0329626D01*
X0244296Y0330025D02*
X0255430Y0330025D01*
X0255430Y0330423D02*
X0244152Y0330423D01*
X0244130Y0330822D02*
X0255430Y0330822D01*
X0255430Y0331220D02*
X0244130Y0331220D01*
X0244130Y0331619D02*
X0255430Y0331619D01*
X0255430Y0332017D02*
X0244130Y0332017D01*
X0244130Y0332416D02*
X0255430Y0332416D01*
X0255430Y0332814D02*
X0244130Y0332814D01*
X0244130Y0333213D02*
X0255430Y0333213D01*
X0255430Y0333611D02*
X0244140Y0333611D01*
X0244233Y0334010D02*
X0255430Y0334010D01*
X0255430Y0334408D02*
X0244491Y0334408D01*
X0245312Y0334807D02*
X0255430Y0334807D01*
X0255430Y0350483D02*
X0245430Y0350483D01*
X0245141Y0350516D01*
X0244866Y0350612D01*
X0244619Y0350767D01*
X0244414Y0350973D01*
X0244259Y0351219D01*
X0244163Y0351494D01*
X0244130Y0351783D01*
X0244130Y0354683D01*
X0244160Y0354950D01*
X0244249Y0355204D01*
X0244392Y0355431D01*
X0244582Y0355621D01*
X0244809Y0355764D01*
X0245063Y0355853D01*
X0245330Y0355883D01*
X0252230Y0355883D01*
X0252268Y0355891D01*
X0252301Y0355912D01*
X0252322Y0355945D01*
X0252330Y0355983D01*
X0252330Y0357883D01*
X0255430Y0357883D01*
X0255430Y0350483D01*
X0255430Y0350747D02*
X0244651Y0350747D01*
X0244305Y0351146D02*
X0255430Y0351146D01*
X0255430Y0351544D02*
X0244157Y0351544D01*
X0244130Y0351943D02*
X0255430Y0351943D01*
X0255430Y0352341D02*
X0244130Y0352341D01*
X0244130Y0352740D02*
X0255430Y0352740D01*
X0255430Y0353138D02*
X0244130Y0353138D01*
X0244130Y0353537D02*
X0255430Y0353537D01*
X0255430Y0353935D02*
X0244130Y0353935D01*
X0244130Y0354334D02*
X0255430Y0354334D01*
X0255430Y0354732D02*
X0244136Y0354732D01*
X0244223Y0355131D02*
X0255430Y0355131D01*
X0255430Y0355529D02*
X0244490Y0355529D01*
X0252311Y0355928D02*
X0255430Y0355928D01*
X0255430Y0356326D02*
X0252330Y0356326D01*
X0252330Y0356725D02*
X0255430Y0356725D01*
X0255430Y0357123D02*
X0252330Y0357123D01*
X0252330Y0357522D02*
X0255430Y0357522D01*
D16*
X0254773Y0348256D02*
X0261191Y0348256D01*
X0261191Y0347272D01*
X0254773Y0347272D01*
X0254773Y0348256D01*
X0254773Y0348166D02*
X0261191Y0348166D01*
X0261191Y0347971D02*
X0254773Y0347971D01*
X0254773Y0347776D02*
X0261191Y0347776D01*
X0261191Y0347580D02*
X0254773Y0347580D01*
X0254773Y0347385D02*
X0261191Y0347385D01*
X0261191Y0345737D02*
X0254773Y0345737D01*
X0254773Y0344752D01*
X0261191Y0344752D01*
X0261191Y0345737D01*
X0261191Y0345627D02*
X0254773Y0345627D01*
X0254773Y0345431D02*
X0261191Y0345431D01*
X0261191Y0345236D02*
X0254773Y0345236D01*
X0254773Y0345041D02*
X0261191Y0345041D01*
X0261191Y0344845D02*
X0254773Y0344845D01*
X0254813Y0343177D02*
X0261230Y0343177D01*
X0261230Y0342193D01*
X0254813Y0342193D01*
X0254813Y0343177D01*
X0254813Y0343087D02*
X0261230Y0343087D01*
X0261230Y0342892D02*
X0254813Y0342892D01*
X0254813Y0342696D02*
X0261230Y0342696D01*
X0261230Y0342501D02*
X0254813Y0342501D01*
X0254813Y0342306D02*
X0261230Y0342306D01*
X0261230Y0340579D02*
X0254813Y0340579D01*
X0254813Y0339595D01*
X0261230Y0339595D01*
X0261230Y0340579D01*
X0261230Y0340547D02*
X0254813Y0340547D01*
X0254813Y0340352D02*
X0261230Y0340352D01*
X0261230Y0340157D02*
X0254813Y0340157D01*
X0254813Y0339961D02*
X0261230Y0339961D01*
X0261230Y0339766D02*
X0254813Y0339766D01*
X0254773Y0338020D02*
X0261191Y0338020D01*
X0261191Y0337036D01*
X0254773Y0337036D01*
X0254773Y0338020D01*
X0254773Y0338008D02*
X0261191Y0338008D01*
X0261191Y0337812D02*
X0254773Y0337812D01*
X0254773Y0337617D02*
X0261191Y0337617D01*
X0261191Y0337422D02*
X0254773Y0337422D01*
X0254773Y0337226D02*
X0261191Y0337226D01*
X0261191Y0306256D02*
X0254773Y0306256D01*
X0254773Y0305272D01*
X0261191Y0305272D01*
X0261191Y0306256D01*
X0261191Y0306164D02*
X0254773Y0306164D01*
X0254773Y0305968D02*
X0261191Y0305968D01*
X0261191Y0305773D02*
X0254773Y0305773D01*
X0254773Y0305578D02*
X0261191Y0305578D01*
X0261191Y0305382D02*
X0254773Y0305382D01*
X0254773Y0303737D02*
X0261191Y0303737D01*
X0261191Y0302752D01*
X0254773Y0302752D01*
X0254773Y0303737D01*
X0254773Y0303624D02*
X0261191Y0303624D01*
X0261191Y0303429D02*
X0254773Y0303429D01*
X0254773Y0303233D02*
X0261191Y0303233D01*
X0261191Y0303038D02*
X0254773Y0303038D01*
X0254773Y0302842D02*
X0261191Y0302842D01*
X0261230Y0301177D02*
X0254813Y0301177D01*
X0254813Y0300193D01*
X0261230Y0300193D01*
X0261230Y0301177D01*
X0261230Y0301084D02*
X0254813Y0301084D01*
X0254813Y0300889D02*
X0261230Y0300889D01*
X0261230Y0300694D02*
X0254813Y0300694D01*
X0254813Y0300498D02*
X0261230Y0300498D01*
X0261230Y0300303D02*
X0254813Y0300303D01*
X0254813Y0298579D02*
X0261230Y0298579D01*
X0261230Y0297595D01*
X0254813Y0297595D01*
X0254813Y0298579D01*
X0254813Y0298545D02*
X0261230Y0298545D01*
X0261230Y0298349D02*
X0254813Y0298349D01*
X0254813Y0298154D02*
X0261230Y0298154D01*
X0261230Y0297958D02*
X0254813Y0297958D01*
X0254813Y0297763D02*
X0261230Y0297763D01*
X0261191Y0296020D02*
X0254773Y0296020D01*
X0254773Y0295036D01*
X0261191Y0295036D01*
X0261191Y0296020D01*
X0261191Y0296005D02*
X0254773Y0296005D01*
X0254773Y0295809D02*
X0261191Y0295809D01*
X0261191Y0295614D02*
X0254773Y0295614D01*
X0254773Y0295419D02*
X0261191Y0295419D01*
X0261191Y0295223D02*
X0254773Y0295223D01*
X0254773Y0264256D02*
X0261191Y0264256D01*
X0261191Y0263272D01*
X0254773Y0263272D01*
X0254773Y0264256D01*
X0254773Y0264161D02*
X0261191Y0264161D01*
X0261191Y0263966D02*
X0254773Y0263966D01*
X0254773Y0263770D02*
X0261191Y0263770D01*
X0261191Y0263575D02*
X0254773Y0263575D01*
X0254773Y0263379D02*
X0261191Y0263379D01*
X0261191Y0261737D02*
X0254773Y0261737D01*
X0254773Y0260752D01*
X0261191Y0260752D01*
X0261191Y0261737D01*
X0261191Y0261621D02*
X0254773Y0261621D01*
X0254773Y0261426D02*
X0261191Y0261426D01*
X0261191Y0261230D02*
X0254773Y0261230D01*
X0254773Y0261035D02*
X0261191Y0261035D01*
X0261191Y0260840D02*
X0254773Y0260840D01*
X0254813Y0259177D02*
X0261230Y0259177D01*
X0261230Y0258193D01*
X0254813Y0258193D01*
X0254813Y0259177D01*
X0254813Y0259081D02*
X0261230Y0259081D01*
X0261230Y0258886D02*
X0254813Y0258886D01*
X0254813Y0258691D02*
X0261230Y0258691D01*
X0261230Y0258495D02*
X0254813Y0258495D01*
X0254813Y0258300D02*
X0261230Y0258300D01*
X0261230Y0256579D02*
X0254813Y0256579D01*
X0254813Y0255595D01*
X0261230Y0255595D01*
X0261230Y0256579D01*
X0261230Y0256542D02*
X0254813Y0256542D01*
X0254813Y0256346D02*
X0261230Y0256346D01*
X0261230Y0256151D02*
X0254813Y0256151D01*
X0254813Y0255956D02*
X0261230Y0255956D01*
X0261230Y0255760D02*
X0254813Y0255760D01*
X0254773Y0254020D02*
X0261191Y0254020D01*
X0261191Y0253036D01*
X0254773Y0253036D01*
X0254773Y0254020D01*
X0254773Y0254002D02*
X0261191Y0254002D01*
X0261191Y0253807D02*
X0254773Y0253807D01*
X0254773Y0253611D02*
X0261191Y0253611D01*
X0261191Y0253416D02*
X0254773Y0253416D01*
X0254773Y0253221D02*
X0261191Y0253221D01*
X0261191Y0222256D02*
X0254773Y0222256D01*
X0254773Y0221272D01*
X0261191Y0221272D01*
X0261191Y0222256D01*
X0261191Y0222158D02*
X0254773Y0222158D01*
X0254773Y0221963D02*
X0261191Y0221963D01*
X0261191Y0221767D02*
X0254773Y0221767D01*
X0254773Y0221572D02*
X0261191Y0221572D01*
X0261191Y0221377D02*
X0254773Y0221377D01*
X0254773Y0219737D02*
X0261191Y0219737D01*
X0261191Y0218752D01*
X0254773Y0218752D01*
X0254773Y0219737D01*
X0254773Y0219618D02*
X0261191Y0219618D01*
X0261191Y0219423D02*
X0254773Y0219423D01*
X0254773Y0219228D02*
X0261191Y0219228D01*
X0261191Y0219032D02*
X0254773Y0219032D01*
X0254773Y0218837D02*
X0261191Y0218837D01*
X0261230Y0217177D02*
X0254813Y0217177D01*
X0254813Y0216193D01*
X0261230Y0216193D01*
X0261230Y0217177D01*
X0261230Y0217079D02*
X0254813Y0217079D01*
X0254813Y0216883D02*
X0261230Y0216883D01*
X0261230Y0216688D02*
X0254813Y0216688D01*
X0254813Y0216493D02*
X0261230Y0216493D01*
X0261230Y0216297D02*
X0254813Y0216297D01*
X0254813Y0214579D02*
X0261230Y0214579D01*
X0261230Y0213595D01*
X0254813Y0213595D01*
X0254813Y0214579D01*
X0254813Y0214539D02*
X0261230Y0214539D01*
X0261230Y0214344D02*
X0254813Y0214344D01*
X0254813Y0214148D02*
X0261230Y0214148D01*
X0261230Y0213953D02*
X0254813Y0213953D01*
X0254813Y0213758D02*
X0261230Y0213758D01*
X0261191Y0212020D02*
X0254773Y0212020D01*
X0254773Y0211036D01*
X0261191Y0211036D01*
X0261191Y0212020D01*
X0261191Y0211999D02*
X0254773Y0211999D01*
X0254773Y0211804D02*
X0261191Y0211804D01*
X0261191Y0211609D02*
X0254773Y0211609D01*
X0254773Y0211413D02*
X0261191Y0211413D01*
X0261191Y0211218D02*
X0254773Y0211218D01*
X0254773Y0180256D02*
X0261191Y0180256D01*
X0261191Y0179272D01*
X0254773Y0179272D01*
X0254773Y0180256D01*
X0254773Y0180155D02*
X0261191Y0180155D01*
X0261191Y0179960D02*
X0254773Y0179960D01*
X0254773Y0179765D02*
X0261191Y0179765D01*
X0261191Y0179569D02*
X0254773Y0179569D01*
X0254773Y0179374D02*
X0261191Y0179374D01*
X0261191Y0177737D02*
X0254773Y0177737D01*
X0254773Y0176752D01*
X0261191Y0176752D01*
X0261191Y0177737D01*
X0261191Y0177616D02*
X0254773Y0177616D01*
X0254773Y0177420D02*
X0261191Y0177420D01*
X0261191Y0177225D02*
X0254773Y0177225D01*
X0254773Y0177030D02*
X0261191Y0177030D01*
X0261191Y0176834D02*
X0254773Y0176834D01*
X0254813Y0175177D02*
X0261230Y0175177D01*
X0261230Y0174193D01*
X0254813Y0174193D01*
X0254813Y0175177D01*
X0254813Y0175076D02*
X0261230Y0175076D01*
X0261230Y0174881D02*
X0254813Y0174881D01*
X0254813Y0174685D02*
X0261230Y0174685D01*
X0261230Y0174490D02*
X0254813Y0174490D01*
X0254813Y0174294D02*
X0261230Y0174294D01*
X0261230Y0172579D02*
X0254813Y0172579D01*
X0254813Y0171595D01*
X0261230Y0171595D01*
X0261230Y0172579D01*
X0261230Y0172536D02*
X0254813Y0172536D01*
X0254813Y0172341D02*
X0261230Y0172341D01*
X0261230Y0172145D02*
X0254813Y0172145D01*
X0254813Y0171950D02*
X0261230Y0171950D01*
X0261230Y0171755D02*
X0254813Y0171755D01*
X0254773Y0170020D02*
X0261191Y0170020D01*
X0261191Y0169036D01*
X0254773Y0169036D01*
X0254773Y0170020D01*
X0254773Y0169997D02*
X0261191Y0169997D01*
X0261191Y0169801D02*
X0254773Y0169801D01*
X0254773Y0169606D02*
X0261191Y0169606D01*
X0261191Y0169410D02*
X0254773Y0169410D01*
X0254773Y0169215D02*
X0261191Y0169215D01*
X0261191Y0138256D02*
X0254773Y0138256D01*
X0254773Y0137272D01*
X0261191Y0137272D01*
X0261191Y0138256D01*
X0261191Y0138153D02*
X0254773Y0138153D01*
X0254773Y0137957D02*
X0261191Y0137957D01*
X0261191Y0137762D02*
X0254773Y0137762D01*
X0254773Y0137566D02*
X0261191Y0137566D01*
X0261191Y0137371D02*
X0254773Y0137371D01*
X0254773Y0135737D02*
X0261191Y0135737D01*
X0261191Y0134752D01*
X0254773Y0134752D01*
X0254773Y0135737D01*
X0254773Y0135613D02*
X0261191Y0135613D01*
X0261191Y0135417D02*
X0254773Y0135417D01*
X0254773Y0135222D02*
X0261191Y0135222D01*
X0261191Y0135027D02*
X0254773Y0135027D01*
X0254773Y0134831D02*
X0261191Y0134831D01*
X0261230Y0133177D02*
X0254813Y0133177D01*
X0254813Y0132193D01*
X0261230Y0132193D01*
X0261230Y0133177D01*
X0261230Y0133073D02*
X0254813Y0133073D01*
X0254813Y0132878D02*
X0261230Y0132878D01*
X0261230Y0132682D02*
X0254813Y0132682D01*
X0254813Y0132487D02*
X0261230Y0132487D01*
X0261230Y0132292D02*
X0254813Y0132292D01*
X0254813Y0130579D02*
X0261230Y0130579D01*
X0261230Y0129595D01*
X0254813Y0129595D01*
X0254813Y0130579D01*
X0254813Y0130533D02*
X0261230Y0130533D01*
X0261230Y0130338D02*
X0254813Y0130338D01*
X0254813Y0130143D02*
X0261230Y0130143D01*
X0261230Y0129947D02*
X0254813Y0129947D01*
X0254813Y0129752D02*
X0261230Y0129752D01*
X0261191Y0128020D02*
X0254773Y0128020D01*
X0254773Y0127036D01*
X0261191Y0127036D01*
X0261191Y0128020D01*
X0261191Y0127994D02*
X0254773Y0127994D01*
X0254773Y0127798D02*
X0261191Y0127798D01*
X0261191Y0127603D02*
X0254773Y0127603D01*
X0254773Y0127408D02*
X0261191Y0127408D01*
X0261191Y0127212D02*
X0254773Y0127212D01*
X0254773Y0096256D02*
X0261191Y0096256D01*
X0261191Y0095272D01*
X0254773Y0095272D01*
X0254773Y0096256D01*
X0254773Y0096150D02*
X0261191Y0096150D01*
X0261191Y0095954D02*
X0254773Y0095954D01*
X0254773Y0095759D02*
X0261191Y0095759D01*
X0261191Y0095564D02*
X0254773Y0095564D01*
X0254773Y0095368D02*
X0261191Y0095368D01*
X0261191Y0093737D02*
X0254773Y0093737D01*
X0254773Y0092752D01*
X0261191Y0092752D01*
X0261191Y0093737D01*
X0261191Y0093610D02*
X0254773Y0093610D01*
X0254773Y0093415D02*
X0261191Y0093415D01*
X0261191Y0093219D02*
X0254773Y0093219D01*
X0254773Y0093024D02*
X0261191Y0093024D01*
X0261191Y0092829D02*
X0254773Y0092829D01*
X0254813Y0091177D02*
X0261230Y0091177D01*
X0261230Y0090193D01*
X0254813Y0090193D01*
X0254813Y0091177D01*
X0254813Y0091070D02*
X0261230Y0091070D01*
X0261230Y0090875D02*
X0254813Y0090875D01*
X0254813Y0090680D02*
X0261230Y0090680D01*
X0261230Y0090484D02*
X0254813Y0090484D01*
X0254813Y0090289D02*
X0261230Y0090289D01*
X0261230Y0088579D02*
X0254813Y0088579D01*
X0254813Y0087595D01*
X0261230Y0087595D01*
X0261230Y0088579D01*
X0261230Y0088531D02*
X0254813Y0088531D01*
X0254813Y0088335D02*
X0261230Y0088335D01*
X0261230Y0088140D02*
X0254813Y0088140D01*
X0254813Y0087945D02*
X0261230Y0087945D01*
X0261230Y0087749D02*
X0254813Y0087749D01*
X0254773Y0086020D02*
X0261191Y0086020D01*
X0261191Y0085036D01*
X0254773Y0085036D01*
X0254773Y0086020D01*
X0254773Y0085991D02*
X0261191Y0085991D01*
X0261191Y0085796D02*
X0254773Y0085796D01*
X0254773Y0085600D02*
X0261191Y0085600D01*
X0261191Y0085405D02*
X0254773Y0085405D01*
X0254773Y0085210D02*
X0261191Y0085210D01*
X0261191Y0054256D02*
X0254773Y0054256D01*
X0254773Y0053272D01*
X0261191Y0053272D01*
X0261191Y0054256D01*
X0261191Y0054147D02*
X0254773Y0054147D01*
X0254773Y0053952D02*
X0261191Y0053952D01*
X0261191Y0053756D02*
X0254773Y0053756D01*
X0254773Y0053561D02*
X0261191Y0053561D01*
X0261191Y0053366D02*
X0254773Y0053366D01*
X0254773Y0051737D02*
X0261191Y0051737D01*
X0261191Y0050752D01*
X0254773Y0050752D01*
X0254773Y0051737D01*
X0254773Y0051607D02*
X0261191Y0051607D01*
X0261191Y0051412D02*
X0254773Y0051412D01*
X0254773Y0051217D02*
X0261191Y0051217D01*
X0261191Y0051021D02*
X0254773Y0051021D01*
X0254773Y0050826D02*
X0261191Y0050826D01*
X0261230Y0049177D02*
X0254813Y0049177D01*
X0254813Y0048193D01*
X0261230Y0048193D01*
X0261230Y0049177D01*
X0261230Y0049068D02*
X0254813Y0049068D01*
X0254813Y0048872D02*
X0261230Y0048872D01*
X0261230Y0048677D02*
X0254813Y0048677D01*
X0254813Y0048482D02*
X0261230Y0048482D01*
X0261230Y0048286D02*
X0254813Y0048286D01*
X0254813Y0046579D02*
X0261230Y0046579D01*
X0261230Y0045595D01*
X0254813Y0045595D01*
X0254813Y0046579D01*
X0254813Y0046528D02*
X0261230Y0046528D01*
X0261230Y0046333D02*
X0254813Y0046333D01*
X0254813Y0046137D02*
X0261230Y0046137D01*
X0261230Y0045942D02*
X0254813Y0045942D01*
X0254813Y0045746D02*
X0261230Y0045746D01*
X0261191Y0044020D02*
X0254773Y0044020D01*
X0254773Y0043036D01*
X0261191Y0043036D01*
X0261191Y0044020D01*
X0261191Y0043988D02*
X0254773Y0043988D01*
X0254773Y0043793D02*
X0261191Y0043793D01*
X0261191Y0043597D02*
X0254773Y0043597D01*
X0254773Y0043402D02*
X0261191Y0043402D01*
X0261191Y0043207D02*
X0254773Y0043207D01*
X0154230Y0045595D02*
X0147813Y0045595D01*
X0147813Y0046579D01*
X0154230Y0046579D01*
X0154230Y0045595D01*
X0154230Y0045746D02*
X0147813Y0045746D01*
X0147813Y0045942D02*
X0154230Y0045942D01*
X0154230Y0046137D02*
X0147813Y0046137D01*
X0147813Y0046333D02*
X0154230Y0046333D01*
X0154230Y0046528D02*
X0147813Y0046528D01*
X0147813Y0048193D02*
X0147813Y0049177D01*
X0154230Y0049177D01*
X0154230Y0048193D01*
X0147813Y0048193D01*
X0147813Y0048286D02*
X0154230Y0048286D01*
X0154230Y0048482D02*
X0147813Y0048482D01*
X0147813Y0048677D02*
X0154230Y0048677D01*
X0154230Y0048872D02*
X0147813Y0048872D01*
X0147813Y0049068D02*
X0154230Y0049068D01*
X0154191Y0050752D02*
X0147773Y0050752D01*
X0147773Y0051737D01*
X0154191Y0051737D01*
X0154191Y0050752D01*
X0154191Y0050826D02*
X0147773Y0050826D01*
X0147773Y0051021D02*
X0154191Y0051021D01*
X0154191Y0051217D02*
X0147773Y0051217D01*
X0147773Y0051412D02*
X0154191Y0051412D01*
X0154191Y0051607D02*
X0147773Y0051607D01*
X0147773Y0053272D02*
X0147773Y0054256D01*
X0154191Y0054256D01*
X0154191Y0053272D01*
X0147773Y0053272D01*
X0147773Y0053366D02*
X0154191Y0053366D01*
X0154191Y0053561D02*
X0147773Y0053561D01*
X0147773Y0053756D02*
X0154191Y0053756D01*
X0154191Y0053952D02*
X0147773Y0053952D01*
X0147773Y0054147D02*
X0154191Y0054147D01*
X0154191Y0044020D02*
X0147773Y0044020D01*
X0147773Y0043036D01*
X0154191Y0043036D01*
X0154191Y0044020D01*
X0154191Y0043988D02*
X0147773Y0043988D01*
X0147773Y0043793D02*
X0154191Y0043793D01*
X0154191Y0043597D02*
X0147773Y0043597D01*
X0147773Y0043402D02*
X0154191Y0043402D01*
X0154191Y0043207D02*
X0147773Y0043207D01*
X0147773Y0085036D02*
X0147773Y0086020D01*
X0154191Y0086020D01*
X0154191Y0085036D01*
X0147773Y0085036D01*
X0147773Y0085210D02*
X0154191Y0085210D01*
X0154191Y0085405D02*
X0147773Y0085405D01*
X0147773Y0085600D02*
X0154191Y0085600D01*
X0154191Y0085796D02*
X0147773Y0085796D01*
X0147773Y0085991D02*
X0154191Y0085991D01*
X0154230Y0087595D02*
X0147813Y0087595D01*
X0147813Y0088579D01*
X0154230Y0088579D01*
X0154230Y0087595D01*
X0154230Y0087749D02*
X0147813Y0087749D01*
X0147813Y0087945D02*
X0154230Y0087945D01*
X0154230Y0088140D02*
X0147813Y0088140D01*
X0147813Y0088335D02*
X0154230Y0088335D01*
X0154230Y0088531D02*
X0147813Y0088531D01*
X0147813Y0090193D02*
X0147813Y0091177D01*
X0154230Y0091177D01*
X0154230Y0090193D01*
X0147813Y0090193D01*
X0147813Y0090289D02*
X0154230Y0090289D01*
X0154230Y0090484D02*
X0147813Y0090484D01*
X0147813Y0090680D02*
X0154230Y0090680D01*
X0154230Y0090875D02*
X0147813Y0090875D01*
X0147813Y0091070D02*
X0154230Y0091070D01*
X0154191Y0092752D02*
X0147773Y0092752D01*
X0147773Y0093737D01*
X0154191Y0093737D01*
X0154191Y0092752D01*
X0154191Y0092829D02*
X0147773Y0092829D01*
X0147773Y0093024D02*
X0154191Y0093024D01*
X0154191Y0093219D02*
X0147773Y0093219D01*
X0147773Y0093415D02*
X0154191Y0093415D01*
X0154191Y0093610D02*
X0147773Y0093610D01*
X0147773Y0095272D02*
X0147773Y0096256D01*
X0154191Y0096256D01*
X0154191Y0095272D01*
X0147773Y0095272D01*
X0147773Y0095368D02*
X0154191Y0095368D01*
X0154191Y0095564D02*
X0147773Y0095564D01*
X0147773Y0095759D02*
X0154191Y0095759D01*
X0154191Y0095954D02*
X0147773Y0095954D01*
X0147773Y0096150D02*
X0154191Y0096150D01*
X0154191Y0127036D02*
X0147773Y0127036D01*
X0147773Y0128020D01*
X0154191Y0128020D01*
X0154191Y0127036D01*
X0154191Y0127212D02*
X0147773Y0127212D01*
X0147773Y0127408D02*
X0154191Y0127408D01*
X0154191Y0127603D02*
X0147773Y0127603D01*
X0147773Y0127798D02*
X0154191Y0127798D01*
X0154191Y0127994D02*
X0147773Y0127994D01*
X0147813Y0129595D02*
X0147813Y0130579D01*
X0154230Y0130579D01*
X0154230Y0129595D01*
X0147813Y0129595D01*
X0147813Y0129752D02*
X0154230Y0129752D01*
X0154230Y0129947D02*
X0147813Y0129947D01*
X0147813Y0130143D02*
X0154230Y0130143D01*
X0154230Y0130338D02*
X0147813Y0130338D01*
X0147813Y0130533D02*
X0154230Y0130533D01*
X0154230Y0132193D02*
X0147813Y0132193D01*
X0147813Y0133177D01*
X0154230Y0133177D01*
X0154230Y0132193D01*
X0154230Y0132292D02*
X0147813Y0132292D01*
X0147813Y0132487D02*
X0154230Y0132487D01*
X0154230Y0132682D02*
X0147813Y0132682D01*
X0147813Y0132878D02*
X0154230Y0132878D01*
X0154230Y0133073D02*
X0147813Y0133073D01*
X0147773Y0134752D02*
X0147773Y0135737D01*
X0154191Y0135737D01*
X0154191Y0134752D01*
X0147773Y0134752D01*
X0147773Y0134831D02*
X0154191Y0134831D01*
X0154191Y0135027D02*
X0147773Y0135027D01*
X0147773Y0135222D02*
X0154191Y0135222D01*
X0154191Y0135417D02*
X0147773Y0135417D01*
X0147773Y0135613D02*
X0154191Y0135613D01*
X0154191Y0137272D02*
X0147773Y0137272D01*
X0147773Y0138256D01*
X0154191Y0138256D01*
X0154191Y0137272D01*
X0154191Y0137371D02*
X0147773Y0137371D01*
X0147773Y0137566D02*
X0154191Y0137566D01*
X0154191Y0137762D02*
X0147773Y0137762D01*
X0147773Y0137957D02*
X0154191Y0137957D01*
X0154191Y0138153D02*
X0147773Y0138153D01*
X0147773Y0169036D02*
X0147773Y0170020D01*
X0154191Y0170020D01*
X0154191Y0169036D01*
X0147773Y0169036D01*
X0147773Y0169215D02*
X0154191Y0169215D01*
X0154191Y0169410D02*
X0147773Y0169410D01*
X0147773Y0169606D02*
X0154191Y0169606D01*
X0154191Y0169801D02*
X0147773Y0169801D01*
X0147773Y0169997D02*
X0154191Y0169997D01*
X0154230Y0171595D02*
X0147813Y0171595D01*
X0147813Y0172579D01*
X0154230Y0172579D01*
X0154230Y0171595D01*
X0154230Y0171755D02*
X0147813Y0171755D01*
X0147813Y0171950D02*
X0154230Y0171950D01*
X0154230Y0172145D02*
X0147813Y0172145D01*
X0147813Y0172341D02*
X0154230Y0172341D01*
X0154230Y0172536D02*
X0147813Y0172536D01*
X0147813Y0174193D02*
X0147813Y0175177D01*
X0154230Y0175177D01*
X0154230Y0174193D01*
X0147813Y0174193D01*
X0147813Y0174294D02*
X0154230Y0174294D01*
X0154230Y0174490D02*
X0147813Y0174490D01*
X0147813Y0174685D02*
X0154230Y0174685D01*
X0154230Y0174881D02*
X0147813Y0174881D01*
X0147813Y0175076D02*
X0154230Y0175076D01*
X0154191Y0176752D02*
X0147773Y0176752D01*
X0147773Y0177737D01*
X0154191Y0177737D01*
X0154191Y0176752D01*
X0154191Y0176834D02*
X0147773Y0176834D01*
X0147773Y0177030D02*
X0154191Y0177030D01*
X0154191Y0177225D02*
X0147773Y0177225D01*
X0147773Y0177420D02*
X0154191Y0177420D01*
X0154191Y0177616D02*
X0147773Y0177616D01*
X0147773Y0179272D02*
X0147773Y0180256D01*
X0154191Y0180256D01*
X0154191Y0179272D01*
X0147773Y0179272D01*
X0147773Y0179374D02*
X0154191Y0179374D01*
X0154191Y0179569D02*
X0147773Y0179569D01*
X0147773Y0179765D02*
X0154191Y0179765D01*
X0154191Y0179960D02*
X0147773Y0179960D01*
X0147773Y0180155D02*
X0154191Y0180155D01*
X0154191Y0211036D02*
X0147773Y0211036D01*
X0147773Y0212020D01*
X0154191Y0212020D01*
X0154191Y0211036D01*
X0154191Y0211218D02*
X0147773Y0211218D01*
X0147773Y0211413D02*
X0154191Y0211413D01*
X0154191Y0211609D02*
X0147773Y0211609D01*
X0147773Y0211804D02*
X0154191Y0211804D01*
X0154191Y0211999D02*
X0147773Y0211999D01*
X0147813Y0213595D02*
X0147813Y0214579D01*
X0154230Y0214579D01*
X0154230Y0213595D01*
X0147813Y0213595D01*
X0147813Y0213758D02*
X0154230Y0213758D01*
X0154230Y0213953D02*
X0147813Y0213953D01*
X0147813Y0214148D02*
X0154230Y0214148D01*
X0154230Y0214344D02*
X0147813Y0214344D01*
X0147813Y0214539D02*
X0154230Y0214539D01*
X0154230Y0216193D02*
X0147813Y0216193D01*
X0147813Y0217177D01*
X0154230Y0217177D01*
X0154230Y0216193D01*
X0154230Y0216297D02*
X0147813Y0216297D01*
X0147813Y0216493D02*
X0154230Y0216493D01*
X0154230Y0216688D02*
X0147813Y0216688D01*
X0147813Y0216883D02*
X0154230Y0216883D01*
X0154230Y0217079D02*
X0147813Y0217079D01*
X0147773Y0218752D02*
X0147773Y0219737D01*
X0154191Y0219737D01*
X0154191Y0218752D01*
X0147773Y0218752D01*
X0147773Y0218837D02*
X0154191Y0218837D01*
X0154191Y0219032D02*
X0147773Y0219032D01*
X0147773Y0219228D02*
X0154191Y0219228D01*
X0154191Y0219423D02*
X0147773Y0219423D01*
X0147773Y0219618D02*
X0154191Y0219618D01*
X0154191Y0221272D02*
X0147773Y0221272D01*
X0147773Y0222256D01*
X0154191Y0222256D01*
X0154191Y0221272D01*
X0154191Y0221377D02*
X0147773Y0221377D01*
X0147773Y0221572D02*
X0154191Y0221572D01*
X0154191Y0221767D02*
X0147773Y0221767D01*
X0147773Y0221963D02*
X0154191Y0221963D01*
X0154191Y0222158D02*
X0147773Y0222158D01*
X0147773Y0253036D02*
X0147773Y0254020D01*
X0154191Y0254020D01*
X0154191Y0253036D01*
X0147773Y0253036D01*
X0147773Y0253221D02*
X0154191Y0253221D01*
X0154191Y0253416D02*
X0147773Y0253416D01*
X0147773Y0253611D02*
X0154191Y0253611D01*
X0154191Y0253807D02*
X0147773Y0253807D01*
X0147773Y0254002D02*
X0154191Y0254002D01*
X0154230Y0255595D02*
X0147813Y0255595D01*
X0147813Y0256579D01*
X0154230Y0256579D01*
X0154230Y0255595D01*
X0154230Y0255760D02*
X0147813Y0255760D01*
X0147813Y0255956D02*
X0154230Y0255956D01*
X0154230Y0256151D02*
X0147813Y0256151D01*
X0147813Y0256346D02*
X0154230Y0256346D01*
X0154230Y0256542D02*
X0147813Y0256542D01*
X0147813Y0258193D02*
X0147813Y0259177D01*
X0154230Y0259177D01*
X0154230Y0258193D01*
X0147813Y0258193D01*
X0147813Y0258300D02*
X0154230Y0258300D01*
X0154230Y0258495D02*
X0147813Y0258495D01*
X0147813Y0258691D02*
X0154230Y0258691D01*
X0154230Y0258886D02*
X0147813Y0258886D01*
X0147813Y0259081D02*
X0154230Y0259081D01*
X0154191Y0260752D02*
X0147773Y0260752D01*
X0147773Y0261737D01*
X0154191Y0261737D01*
X0154191Y0260752D01*
X0154191Y0260840D02*
X0147773Y0260840D01*
X0147773Y0261035D02*
X0154191Y0261035D01*
X0154191Y0261230D02*
X0147773Y0261230D01*
X0147773Y0261426D02*
X0154191Y0261426D01*
X0154191Y0261621D02*
X0147773Y0261621D01*
X0147773Y0263272D02*
X0147773Y0264256D01*
X0154191Y0264256D01*
X0154191Y0263272D01*
X0147773Y0263272D01*
X0147773Y0263379D02*
X0154191Y0263379D01*
X0154191Y0263575D02*
X0147773Y0263575D01*
X0147773Y0263770D02*
X0154191Y0263770D01*
X0154191Y0263966D02*
X0147773Y0263966D01*
X0147773Y0264161D02*
X0154191Y0264161D01*
X0154191Y0295036D02*
X0147773Y0295036D01*
X0147773Y0296020D01*
X0154191Y0296020D01*
X0154191Y0295036D01*
X0154191Y0295223D02*
X0147773Y0295223D01*
X0147773Y0295419D02*
X0154191Y0295419D01*
X0154191Y0295614D02*
X0147773Y0295614D01*
X0147773Y0295809D02*
X0154191Y0295809D01*
X0154191Y0296005D02*
X0147773Y0296005D01*
X0147813Y0297595D02*
X0147813Y0298579D01*
X0154230Y0298579D01*
X0154230Y0297595D01*
X0147813Y0297595D01*
X0147813Y0297763D02*
X0154230Y0297763D01*
X0154230Y0297958D02*
X0147813Y0297958D01*
X0147813Y0298154D02*
X0154230Y0298154D01*
X0154230Y0298349D02*
X0147813Y0298349D01*
X0147813Y0298545D02*
X0154230Y0298545D01*
X0154230Y0300193D02*
X0147813Y0300193D01*
X0147813Y0301177D01*
X0154230Y0301177D01*
X0154230Y0300193D01*
X0154230Y0300303D02*
X0147813Y0300303D01*
X0147813Y0300498D02*
X0154230Y0300498D01*
X0154230Y0300694D02*
X0147813Y0300694D01*
X0147813Y0300889D02*
X0154230Y0300889D01*
X0154230Y0301084D02*
X0147813Y0301084D01*
X0147773Y0302752D02*
X0147773Y0303737D01*
X0154191Y0303737D01*
X0154191Y0302752D01*
X0147773Y0302752D01*
X0147773Y0302842D02*
X0154191Y0302842D01*
X0154191Y0303038D02*
X0147773Y0303038D01*
X0147773Y0303233D02*
X0154191Y0303233D01*
X0154191Y0303429D02*
X0147773Y0303429D01*
X0147773Y0303624D02*
X0154191Y0303624D01*
X0154191Y0305272D02*
X0147773Y0305272D01*
X0147773Y0306256D01*
X0154191Y0306256D01*
X0154191Y0305272D01*
X0154191Y0305382D02*
X0147773Y0305382D01*
X0147773Y0305578D02*
X0154191Y0305578D01*
X0154191Y0305773D02*
X0147773Y0305773D01*
X0147773Y0305968D02*
X0154191Y0305968D01*
X0154191Y0306164D02*
X0147773Y0306164D01*
X0147773Y0337036D02*
X0147773Y0338020D01*
X0154191Y0338020D01*
X0154191Y0337036D01*
X0147773Y0337036D01*
X0147773Y0337226D02*
X0154191Y0337226D01*
X0154191Y0337422D02*
X0147773Y0337422D01*
X0147773Y0337617D02*
X0154191Y0337617D01*
X0154191Y0337812D02*
X0147773Y0337812D01*
X0147773Y0338008D02*
X0154191Y0338008D01*
X0154230Y0339595D02*
X0147813Y0339595D01*
X0147813Y0340579D01*
X0154230Y0340579D01*
X0154230Y0339595D01*
X0154230Y0339766D02*
X0147813Y0339766D01*
X0147813Y0339961D02*
X0154230Y0339961D01*
X0154230Y0340157D02*
X0147813Y0340157D01*
X0147813Y0340352D02*
X0154230Y0340352D01*
X0154230Y0340547D02*
X0147813Y0340547D01*
X0147813Y0342193D02*
X0147813Y0343177D01*
X0154230Y0343177D01*
X0154230Y0342193D01*
X0147813Y0342193D01*
X0147813Y0342306D02*
X0154230Y0342306D01*
X0154230Y0342501D02*
X0147813Y0342501D01*
X0147813Y0342696D02*
X0154230Y0342696D01*
X0154230Y0342892D02*
X0147813Y0342892D01*
X0147813Y0343087D02*
X0154230Y0343087D01*
X0154191Y0344752D02*
X0147773Y0344752D01*
X0147773Y0345737D01*
X0154191Y0345737D01*
X0154191Y0344752D01*
X0154191Y0344845D02*
X0147773Y0344845D01*
X0147773Y0345041D02*
X0154191Y0345041D01*
X0154191Y0345236D02*
X0147773Y0345236D01*
X0147773Y0345431D02*
X0154191Y0345431D01*
X0154191Y0345627D02*
X0147773Y0345627D01*
X0147773Y0347272D02*
X0147773Y0348256D01*
X0154191Y0348256D01*
X0154191Y0347272D01*
X0147773Y0347272D01*
X0147773Y0347385D02*
X0154191Y0347385D01*
X0154191Y0347580D02*
X0147773Y0347580D01*
X0147773Y0347776D02*
X0154191Y0347776D01*
X0154191Y0347971D02*
X0147773Y0347971D01*
X0147773Y0348166D02*
X0154191Y0348166D01*
X0047191Y0348166D02*
X0040773Y0348166D01*
X0040773Y0348256D02*
X0047191Y0348256D01*
X0047191Y0347272D01*
X0040773Y0347272D01*
X0040773Y0348256D01*
X0040773Y0347971D02*
X0047191Y0347971D01*
X0047191Y0347776D02*
X0040773Y0347776D01*
X0040773Y0347580D02*
X0047191Y0347580D01*
X0047191Y0347385D02*
X0040773Y0347385D01*
X0040773Y0345737D02*
X0047191Y0345737D01*
X0047191Y0344752D01*
X0040773Y0344752D01*
X0040773Y0345737D01*
X0040773Y0345627D02*
X0047191Y0345627D01*
X0047191Y0345431D02*
X0040773Y0345431D01*
X0040773Y0345236D02*
X0047191Y0345236D01*
X0047191Y0345041D02*
X0040773Y0345041D01*
X0040773Y0344845D02*
X0047191Y0344845D01*
X0047230Y0343177D02*
X0040813Y0343177D01*
X0040813Y0342193D01*
X0047230Y0342193D01*
X0047230Y0343177D01*
X0047230Y0343087D02*
X0040813Y0343087D01*
X0040813Y0342892D02*
X0047230Y0342892D01*
X0047230Y0342696D02*
X0040813Y0342696D01*
X0040813Y0342501D02*
X0047230Y0342501D01*
X0047230Y0342306D02*
X0040813Y0342306D01*
X0040813Y0340579D02*
X0047230Y0340579D01*
X0047230Y0339595D01*
X0040813Y0339595D01*
X0040813Y0340579D01*
X0040813Y0340547D02*
X0047230Y0340547D01*
X0047230Y0340352D02*
X0040813Y0340352D01*
X0040813Y0340157D02*
X0047230Y0340157D01*
X0047230Y0339961D02*
X0040813Y0339961D01*
X0040813Y0339766D02*
X0047230Y0339766D01*
X0047191Y0338020D02*
X0040773Y0338020D01*
X0040773Y0337036D01*
X0047191Y0337036D01*
X0047191Y0338020D01*
X0047191Y0338008D02*
X0040773Y0338008D01*
X0040773Y0337812D02*
X0047191Y0337812D01*
X0047191Y0337617D02*
X0040773Y0337617D01*
X0040773Y0337422D02*
X0047191Y0337422D01*
X0047191Y0337226D02*
X0040773Y0337226D01*
X0040773Y0306256D02*
X0047191Y0306256D01*
X0047191Y0305272D01*
X0040773Y0305272D01*
X0040773Y0306256D01*
X0040773Y0306164D02*
X0047191Y0306164D01*
X0047191Y0305968D02*
X0040773Y0305968D01*
X0040773Y0305773D02*
X0047191Y0305773D01*
X0047191Y0305578D02*
X0040773Y0305578D01*
X0040773Y0305382D02*
X0047191Y0305382D01*
X0047191Y0303737D02*
X0040773Y0303737D01*
X0040773Y0302752D01*
X0047191Y0302752D01*
X0047191Y0303737D01*
X0047191Y0303624D02*
X0040773Y0303624D01*
X0040773Y0303429D02*
X0047191Y0303429D01*
X0047191Y0303233D02*
X0040773Y0303233D01*
X0040773Y0303038D02*
X0047191Y0303038D01*
X0047191Y0302842D02*
X0040773Y0302842D01*
X0040813Y0301177D02*
X0047230Y0301177D01*
X0047230Y0300193D01*
X0040813Y0300193D01*
X0040813Y0301177D01*
X0040813Y0301084D02*
X0047230Y0301084D01*
X0047230Y0300889D02*
X0040813Y0300889D01*
X0040813Y0300694D02*
X0047230Y0300694D01*
X0047230Y0300498D02*
X0040813Y0300498D01*
X0040813Y0300303D02*
X0047230Y0300303D01*
X0047230Y0298579D02*
X0040813Y0298579D01*
X0040813Y0297595D01*
X0047230Y0297595D01*
X0047230Y0298579D01*
X0047230Y0298545D02*
X0040813Y0298545D01*
X0040813Y0298349D02*
X0047230Y0298349D01*
X0047230Y0298154D02*
X0040813Y0298154D01*
X0040813Y0297958D02*
X0047230Y0297958D01*
X0047230Y0297763D02*
X0040813Y0297763D01*
X0040773Y0296020D02*
X0047191Y0296020D01*
X0047191Y0295036D01*
X0040773Y0295036D01*
X0040773Y0296020D01*
X0040773Y0296005D02*
X0047191Y0296005D01*
X0047191Y0295809D02*
X0040773Y0295809D01*
X0040773Y0295614D02*
X0047191Y0295614D01*
X0047191Y0295419D02*
X0040773Y0295419D01*
X0040773Y0295223D02*
X0047191Y0295223D01*
X0047191Y0264256D02*
X0040773Y0264256D01*
X0040773Y0263272D01*
X0047191Y0263272D01*
X0047191Y0264256D01*
X0047191Y0264161D02*
X0040773Y0264161D01*
X0040773Y0263966D02*
X0047191Y0263966D01*
X0047191Y0263770D02*
X0040773Y0263770D01*
X0040773Y0263575D02*
X0047191Y0263575D01*
X0047191Y0263379D02*
X0040773Y0263379D01*
X0040773Y0261737D02*
X0047191Y0261737D01*
X0047191Y0260752D01*
X0040773Y0260752D01*
X0040773Y0261737D01*
X0040773Y0261621D02*
X0047191Y0261621D01*
X0047191Y0261426D02*
X0040773Y0261426D01*
X0040773Y0261230D02*
X0047191Y0261230D01*
X0047191Y0261035D02*
X0040773Y0261035D01*
X0040773Y0260840D02*
X0047191Y0260840D01*
X0047230Y0259177D02*
X0040813Y0259177D01*
X0040813Y0258193D01*
X0047230Y0258193D01*
X0047230Y0259177D01*
X0047230Y0259081D02*
X0040813Y0259081D01*
X0040813Y0258886D02*
X0047230Y0258886D01*
X0047230Y0258691D02*
X0040813Y0258691D01*
X0040813Y0258495D02*
X0047230Y0258495D01*
X0047230Y0258300D02*
X0040813Y0258300D01*
X0040813Y0256579D02*
X0047230Y0256579D01*
X0047230Y0255595D01*
X0040813Y0255595D01*
X0040813Y0256579D01*
X0040813Y0256542D02*
X0047230Y0256542D01*
X0047230Y0256346D02*
X0040813Y0256346D01*
X0040813Y0256151D02*
X0047230Y0256151D01*
X0047230Y0255956D02*
X0040813Y0255956D01*
X0040813Y0255760D02*
X0047230Y0255760D01*
X0047191Y0254020D02*
X0040773Y0254020D01*
X0040773Y0253036D01*
X0047191Y0253036D01*
X0047191Y0254020D01*
X0047191Y0254002D02*
X0040773Y0254002D01*
X0040773Y0253807D02*
X0047191Y0253807D01*
X0047191Y0253611D02*
X0040773Y0253611D01*
X0040773Y0253416D02*
X0047191Y0253416D01*
X0047191Y0253221D02*
X0040773Y0253221D01*
X0040773Y0222256D02*
X0047191Y0222256D01*
X0047191Y0221272D01*
X0040773Y0221272D01*
X0040773Y0222256D01*
X0040773Y0222158D02*
X0047191Y0222158D01*
X0047191Y0221963D02*
X0040773Y0221963D01*
X0040773Y0221767D02*
X0047191Y0221767D01*
X0047191Y0221572D02*
X0040773Y0221572D01*
X0040773Y0221377D02*
X0047191Y0221377D01*
X0047191Y0219737D02*
X0040773Y0219737D01*
X0040773Y0218752D01*
X0047191Y0218752D01*
X0047191Y0219737D01*
X0047191Y0219618D02*
X0040773Y0219618D01*
X0040773Y0219423D02*
X0047191Y0219423D01*
X0047191Y0219228D02*
X0040773Y0219228D01*
X0040773Y0219032D02*
X0047191Y0219032D01*
X0047191Y0218837D02*
X0040773Y0218837D01*
X0040813Y0217177D02*
X0047230Y0217177D01*
X0047230Y0216193D01*
X0040813Y0216193D01*
X0040813Y0217177D01*
X0040813Y0217079D02*
X0047230Y0217079D01*
X0047230Y0216883D02*
X0040813Y0216883D01*
X0040813Y0216688D02*
X0047230Y0216688D01*
X0047230Y0216493D02*
X0040813Y0216493D01*
X0040813Y0216297D02*
X0047230Y0216297D01*
X0047230Y0214579D02*
X0040813Y0214579D01*
X0040813Y0213595D01*
X0047230Y0213595D01*
X0047230Y0214579D01*
X0047230Y0214539D02*
X0040813Y0214539D01*
X0040813Y0214344D02*
X0047230Y0214344D01*
X0047230Y0214148D02*
X0040813Y0214148D01*
X0040813Y0213953D02*
X0047230Y0213953D01*
X0047230Y0213758D02*
X0040813Y0213758D01*
X0040773Y0212020D02*
X0047191Y0212020D01*
X0047191Y0211036D01*
X0040773Y0211036D01*
X0040773Y0212020D01*
X0040773Y0211999D02*
X0047191Y0211999D01*
X0047191Y0211804D02*
X0040773Y0211804D01*
X0040773Y0211609D02*
X0047191Y0211609D01*
X0047191Y0211413D02*
X0040773Y0211413D01*
X0040773Y0211218D02*
X0047191Y0211218D01*
X0047191Y0180256D02*
X0040773Y0180256D01*
X0040773Y0179272D01*
X0047191Y0179272D01*
X0047191Y0180256D01*
X0047191Y0180155D02*
X0040773Y0180155D01*
X0040773Y0179960D02*
X0047191Y0179960D01*
X0047191Y0179765D02*
X0040773Y0179765D01*
X0040773Y0179569D02*
X0047191Y0179569D01*
X0047191Y0179374D02*
X0040773Y0179374D01*
X0040773Y0177737D02*
X0047191Y0177737D01*
X0047191Y0176752D01*
X0040773Y0176752D01*
X0040773Y0177737D01*
X0040773Y0177616D02*
X0047191Y0177616D01*
X0047191Y0177420D02*
X0040773Y0177420D01*
X0040773Y0177225D02*
X0047191Y0177225D01*
X0047191Y0177030D02*
X0040773Y0177030D01*
X0040773Y0176834D02*
X0047191Y0176834D01*
X0047230Y0175177D02*
X0040813Y0175177D01*
X0040813Y0174193D01*
X0047230Y0174193D01*
X0047230Y0175177D01*
X0047230Y0175076D02*
X0040813Y0175076D01*
X0040813Y0174881D02*
X0047230Y0174881D01*
X0047230Y0174685D02*
X0040813Y0174685D01*
X0040813Y0174490D02*
X0047230Y0174490D01*
X0047230Y0174294D02*
X0040813Y0174294D01*
X0040813Y0172579D02*
X0047230Y0172579D01*
X0047230Y0171595D01*
X0040813Y0171595D01*
X0040813Y0172579D01*
X0040813Y0172536D02*
X0047230Y0172536D01*
X0047230Y0172341D02*
X0040813Y0172341D01*
X0040813Y0172145D02*
X0047230Y0172145D01*
X0047230Y0171950D02*
X0040813Y0171950D01*
X0040813Y0171755D02*
X0047230Y0171755D01*
X0047191Y0170020D02*
X0040773Y0170020D01*
X0040773Y0169036D01*
X0047191Y0169036D01*
X0047191Y0170020D01*
X0047191Y0169997D02*
X0040773Y0169997D01*
X0040773Y0169801D02*
X0047191Y0169801D01*
X0047191Y0169606D02*
X0040773Y0169606D01*
X0040773Y0169410D02*
X0047191Y0169410D01*
X0047191Y0169215D02*
X0040773Y0169215D01*
X0040773Y0138256D02*
X0047191Y0138256D01*
X0047191Y0137272D01*
X0040773Y0137272D01*
X0040773Y0138256D01*
X0040773Y0138153D02*
X0047191Y0138153D01*
X0047191Y0137957D02*
X0040773Y0137957D01*
X0040773Y0137762D02*
X0047191Y0137762D01*
X0047191Y0137566D02*
X0040773Y0137566D01*
X0040773Y0137371D02*
X0047191Y0137371D01*
X0047191Y0135737D02*
X0040773Y0135737D01*
X0040773Y0134752D01*
X0047191Y0134752D01*
X0047191Y0135737D01*
X0047191Y0135613D02*
X0040773Y0135613D01*
X0040773Y0135417D02*
X0047191Y0135417D01*
X0047191Y0135222D02*
X0040773Y0135222D01*
X0040773Y0135027D02*
X0047191Y0135027D01*
X0047191Y0134831D02*
X0040773Y0134831D01*
X0040813Y0133177D02*
X0047230Y0133177D01*
X0047230Y0132193D01*
X0040813Y0132193D01*
X0040813Y0133177D01*
X0040813Y0133073D02*
X0047230Y0133073D01*
X0047230Y0132878D02*
X0040813Y0132878D01*
X0040813Y0132682D02*
X0047230Y0132682D01*
X0047230Y0132487D02*
X0040813Y0132487D01*
X0040813Y0132292D02*
X0047230Y0132292D01*
X0047230Y0130579D02*
X0040813Y0130579D01*
X0040813Y0129595D01*
X0047230Y0129595D01*
X0047230Y0130579D01*
X0047230Y0130533D02*
X0040813Y0130533D01*
X0040813Y0130338D02*
X0047230Y0130338D01*
X0047230Y0130143D02*
X0040813Y0130143D01*
X0040813Y0129947D02*
X0047230Y0129947D01*
X0047230Y0129752D02*
X0040813Y0129752D01*
X0040773Y0128020D02*
X0047191Y0128020D01*
X0047191Y0127036D01*
X0040773Y0127036D01*
X0040773Y0128020D01*
X0040773Y0127994D02*
X0047191Y0127994D01*
X0047191Y0127798D02*
X0040773Y0127798D01*
X0040773Y0127603D02*
X0047191Y0127603D01*
X0047191Y0127408D02*
X0040773Y0127408D01*
X0040773Y0127212D02*
X0047191Y0127212D01*
X0047191Y0096256D02*
X0040773Y0096256D01*
X0040773Y0095272D01*
X0047191Y0095272D01*
X0047191Y0096256D01*
X0047191Y0096150D02*
X0040773Y0096150D01*
X0040773Y0095954D02*
X0047191Y0095954D01*
X0047191Y0095759D02*
X0040773Y0095759D01*
X0040773Y0095564D02*
X0047191Y0095564D01*
X0047191Y0095368D02*
X0040773Y0095368D01*
X0040773Y0093737D02*
X0047191Y0093737D01*
X0047191Y0092752D01*
X0040773Y0092752D01*
X0040773Y0093737D01*
X0040773Y0093610D02*
X0047191Y0093610D01*
X0047191Y0093415D02*
X0040773Y0093415D01*
X0040773Y0093219D02*
X0047191Y0093219D01*
X0047191Y0093024D02*
X0040773Y0093024D01*
X0040773Y0092829D02*
X0047191Y0092829D01*
X0047230Y0091177D02*
X0040813Y0091177D01*
X0040813Y0090193D01*
X0047230Y0090193D01*
X0047230Y0091177D01*
X0047230Y0091070D02*
X0040813Y0091070D01*
X0040813Y0090875D02*
X0047230Y0090875D01*
X0047230Y0090680D02*
X0040813Y0090680D01*
X0040813Y0090484D02*
X0047230Y0090484D01*
X0047230Y0090289D02*
X0040813Y0090289D01*
X0040813Y0088579D02*
X0047230Y0088579D01*
X0047230Y0087595D01*
X0040813Y0087595D01*
X0040813Y0088579D01*
X0040813Y0088531D02*
X0047230Y0088531D01*
X0047230Y0088335D02*
X0040813Y0088335D01*
X0040813Y0088140D02*
X0047230Y0088140D01*
X0047230Y0087945D02*
X0040813Y0087945D01*
X0040813Y0087749D02*
X0047230Y0087749D01*
X0047191Y0086020D02*
X0040773Y0086020D01*
X0040773Y0085036D01*
X0047191Y0085036D01*
X0047191Y0086020D01*
X0047191Y0085991D02*
X0040773Y0085991D01*
X0040773Y0085796D02*
X0047191Y0085796D01*
X0047191Y0085600D02*
X0040773Y0085600D01*
X0040773Y0085405D02*
X0047191Y0085405D01*
X0047191Y0085210D02*
X0040773Y0085210D01*
X0040773Y0054256D02*
X0047191Y0054256D01*
X0047191Y0053272D01*
X0040773Y0053272D01*
X0040773Y0054256D01*
X0040773Y0054147D02*
X0047191Y0054147D01*
X0047191Y0053952D02*
X0040773Y0053952D01*
X0040773Y0053756D02*
X0047191Y0053756D01*
X0047191Y0053561D02*
X0040773Y0053561D01*
X0040773Y0053366D02*
X0047191Y0053366D01*
X0047191Y0051737D02*
X0040773Y0051737D01*
X0040773Y0050752D01*
X0047191Y0050752D01*
X0047191Y0051737D01*
X0047191Y0051607D02*
X0040773Y0051607D01*
X0040773Y0051412D02*
X0047191Y0051412D01*
X0047191Y0051217D02*
X0040773Y0051217D01*
X0040773Y0051021D02*
X0047191Y0051021D01*
X0047191Y0050826D02*
X0040773Y0050826D01*
X0040813Y0049177D02*
X0047230Y0049177D01*
X0047230Y0048193D01*
X0040813Y0048193D01*
X0040813Y0049177D01*
X0040813Y0049068D02*
X0047230Y0049068D01*
X0047230Y0048872D02*
X0040813Y0048872D01*
X0040813Y0048677D02*
X0047230Y0048677D01*
X0047230Y0048482D02*
X0040813Y0048482D01*
X0040813Y0048286D02*
X0047230Y0048286D01*
X0047230Y0046579D02*
X0040813Y0046579D01*
X0040813Y0045595D01*
X0047230Y0045595D01*
X0047230Y0046579D01*
X0047230Y0046528D02*
X0040813Y0046528D01*
X0040813Y0046333D02*
X0047230Y0046333D01*
X0047230Y0046137D02*
X0040813Y0046137D01*
X0040813Y0045942D02*
X0047230Y0045942D01*
X0047230Y0045746D02*
X0040813Y0045746D01*
X0040773Y0044020D02*
X0047191Y0044020D01*
X0047191Y0043036D01*
X0040773Y0043036D01*
X0040773Y0044020D01*
X0040773Y0043988D02*
X0047191Y0043988D01*
X0047191Y0043793D02*
X0040773Y0043793D01*
X0040773Y0043597D02*
X0047191Y0043597D01*
X0047191Y0043402D02*
X0040773Y0043402D01*
X0040773Y0043207D02*
X0047191Y0043207D01*
D17*
X0071250Y0045096D03*
X0071250Y0038404D03*
X0070750Y0052404D03*
X0070750Y0059096D03*
X0071250Y0080404D03*
X0071250Y0087096D03*
X0070750Y0094404D03*
X0070750Y0101096D03*
X0071250Y0122404D03*
X0071250Y0129096D03*
X0070750Y0136404D03*
X0070750Y0143096D03*
X0071250Y0164404D03*
X0071250Y0171096D03*
X0070750Y0178404D03*
X0070750Y0185096D03*
X0071250Y0206404D03*
X0071250Y0213096D03*
X0070750Y0220404D03*
X0070750Y0227096D03*
X0071250Y0248404D03*
X0071250Y0255096D03*
X0070750Y0262404D03*
X0070750Y0269096D03*
X0071250Y0290404D03*
X0071250Y0297096D03*
X0070750Y0304404D03*
X0070750Y0311096D03*
X0071250Y0332404D03*
X0071250Y0339096D03*
X0070750Y0346404D03*
X0070750Y0353096D03*
X0177750Y0353096D03*
X0177750Y0346404D03*
X0178250Y0339096D03*
X0178250Y0332404D03*
X0177750Y0311096D03*
X0177750Y0304404D03*
X0178250Y0297096D03*
X0178250Y0290404D03*
X0177750Y0269096D03*
X0177750Y0262404D03*
X0178250Y0255096D03*
X0178250Y0248404D03*
X0177750Y0227096D03*
X0177750Y0220404D03*
X0178250Y0213096D03*
X0178250Y0206404D03*
X0177750Y0185096D03*
X0177750Y0178404D03*
X0178250Y0171096D03*
X0178250Y0164404D03*
X0177750Y0143096D03*
X0177750Y0136404D03*
X0178250Y0129096D03*
X0178250Y0122404D03*
X0177750Y0101096D03*
X0177750Y0094404D03*
X0178250Y0087096D03*
X0178250Y0080404D03*
X0177750Y0059096D03*
X0177750Y0052404D03*
X0178250Y0045096D03*
X0178250Y0038404D03*
X0285250Y0038404D03*
X0285250Y0045096D03*
X0284750Y0052404D03*
X0284750Y0059096D03*
X0285250Y0080404D03*
X0285250Y0087096D03*
X0284750Y0094404D03*
X0284750Y0101096D03*
X0285250Y0122404D03*
X0285250Y0129096D03*
X0284750Y0136404D03*
X0284750Y0143096D03*
X0285250Y0164404D03*
X0285250Y0171096D03*
X0284750Y0178404D03*
X0284750Y0185096D03*
X0285250Y0206404D03*
X0285250Y0213096D03*
X0284750Y0220404D03*
X0284750Y0227096D03*
X0285250Y0248404D03*
X0285250Y0255096D03*
X0284750Y0262404D03*
X0284750Y0269096D03*
X0285250Y0290404D03*
X0285250Y0297096D03*
X0284750Y0304404D03*
X0284750Y0311096D03*
X0285250Y0332404D03*
X0285250Y0339096D03*
X0284750Y0346404D03*
X0284750Y0353096D03*
D18*
X0337750Y0355152D03*
X0337750Y0330348D03*
X0337750Y0313152D03*
X0337750Y0288348D03*
X0337750Y0271152D03*
X0337750Y0246348D03*
X0337750Y0229152D03*
X0337750Y0204348D03*
X0337750Y0187152D03*
X0337750Y0162348D03*
X0337750Y0145152D03*
X0337750Y0120348D03*
X0337750Y0103152D03*
X0337750Y0078348D03*
X0337750Y0061152D03*
X0337750Y0036348D03*
X0230750Y0036348D03*
X0230750Y0061152D03*
X0230750Y0078348D03*
X0230750Y0103152D03*
X0230750Y0120348D03*
X0230750Y0145152D03*
X0230750Y0162348D03*
X0230750Y0187152D03*
X0230750Y0204348D03*
X0230750Y0229152D03*
X0230750Y0246348D03*
X0230750Y0271152D03*
X0230750Y0288348D03*
X0230750Y0313152D03*
X0230750Y0330348D03*
X0230750Y0355152D03*
X0123750Y0355152D03*
X0123750Y0330348D03*
X0123750Y0313152D03*
X0123750Y0288348D03*
X0123750Y0271152D03*
X0123750Y0246348D03*
X0123750Y0229152D03*
X0123750Y0204348D03*
X0123750Y0187152D03*
X0123750Y0162348D03*
X0123750Y0145152D03*
X0123750Y0120348D03*
X0123750Y0103152D03*
X0123750Y0078348D03*
X0123750Y0061152D03*
X0123750Y0036348D03*
D19*
X0090250Y0051750D03*
X0090250Y0093750D03*
X0090250Y0135750D03*
X0090250Y0177750D03*
X0090250Y0219750D03*
X0090250Y0261750D03*
X0090250Y0303750D03*
X0090250Y0345750D03*
X0197250Y0345750D03*
X0197250Y0303750D03*
X0197250Y0261750D03*
X0197250Y0219750D03*
X0197250Y0177750D03*
X0197250Y0135750D03*
X0197250Y0093750D03*
X0197250Y0051750D03*
X0304250Y0051750D03*
X0304250Y0093750D03*
X0304250Y0135750D03*
X0304250Y0177750D03*
X0304250Y0219750D03*
X0304250Y0261750D03*
X0304250Y0303750D03*
X0304250Y0345750D03*
D20*
X0304250Y0353050D03*
X0302300Y0353050D03*
X0300300Y0353050D03*
X0306200Y0353050D03*
X0308200Y0353050D03*
X0308200Y0338450D03*
X0306200Y0338450D03*
X0304250Y0338450D03*
X0302300Y0338450D03*
X0300300Y0338450D03*
X0300300Y0311050D03*
X0302300Y0311050D03*
X0304250Y0311050D03*
X0306200Y0311050D03*
X0308200Y0311050D03*
X0308200Y0296450D03*
X0306200Y0296450D03*
X0304250Y0296450D03*
X0302300Y0296450D03*
X0300300Y0296450D03*
X0300300Y0269050D03*
X0302300Y0269050D03*
X0304250Y0269050D03*
X0306200Y0269050D03*
X0308200Y0269050D03*
X0308200Y0254450D03*
X0306200Y0254450D03*
X0304250Y0254450D03*
X0302300Y0254450D03*
X0300300Y0254450D03*
X0300300Y0227050D03*
X0302300Y0227050D03*
X0304250Y0227050D03*
X0306200Y0227050D03*
X0308200Y0227050D03*
X0308200Y0212450D03*
X0306200Y0212450D03*
X0304250Y0212450D03*
X0302300Y0212450D03*
X0300300Y0212450D03*
X0300300Y0185050D03*
X0302300Y0185050D03*
X0304250Y0185050D03*
X0306200Y0185050D03*
X0308200Y0185050D03*
X0308200Y0170450D03*
X0306200Y0170450D03*
X0304250Y0170450D03*
X0302300Y0170450D03*
X0300300Y0170450D03*
X0300300Y0143050D03*
X0302300Y0143050D03*
X0304250Y0143050D03*
X0306200Y0143050D03*
X0308200Y0143050D03*
X0308200Y0128450D03*
X0306200Y0128450D03*
X0304250Y0128450D03*
X0302300Y0128450D03*
X0300300Y0128450D03*
X0300300Y0101050D03*
X0302300Y0101050D03*
X0304250Y0101050D03*
X0306200Y0101050D03*
X0308200Y0101050D03*
X0308200Y0086450D03*
X0306200Y0086450D03*
X0304250Y0086450D03*
X0302300Y0086450D03*
X0300300Y0086450D03*
X0300300Y0059050D03*
X0302300Y0059050D03*
X0304250Y0059050D03*
X0306200Y0059050D03*
X0308200Y0059050D03*
X0308200Y0044450D03*
X0306200Y0044450D03*
X0304250Y0044450D03*
X0302300Y0044450D03*
X0300300Y0044450D03*
X0201200Y0044450D03*
X0199200Y0044450D03*
X0197250Y0044450D03*
X0195300Y0044450D03*
X0193300Y0044450D03*
X0193300Y0059050D03*
X0195300Y0059050D03*
X0197250Y0059050D03*
X0199200Y0059050D03*
X0201200Y0059050D03*
X0201200Y0086450D03*
X0199200Y0086450D03*
X0197250Y0086450D03*
X0195300Y0086450D03*
X0193300Y0086450D03*
X0193300Y0101050D03*
X0195300Y0101050D03*
X0197250Y0101050D03*
X0199200Y0101050D03*
X0201200Y0101050D03*
X0201200Y0128450D03*
X0199200Y0128450D03*
X0197250Y0128450D03*
X0195300Y0128450D03*
X0193300Y0128450D03*
X0193300Y0143050D03*
X0195300Y0143050D03*
X0197250Y0143050D03*
X0199200Y0143050D03*
X0201200Y0143050D03*
X0201200Y0170450D03*
X0199200Y0170450D03*
X0197250Y0170450D03*
X0195300Y0170450D03*
X0193300Y0170450D03*
X0193300Y0185050D03*
X0195300Y0185050D03*
X0197250Y0185050D03*
X0199200Y0185050D03*
X0201200Y0185050D03*
X0201200Y0212450D03*
X0199200Y0212450D03*
X0197250Y0212450D03*
X0195300Y0212450D03*
X0193300Y0212450D03*
X0193300Y0227050D03*
X0195300Y0227050D03*
X0197250Y0227050D03*
X0199200Y0227050D03*
X0201200Y0227050D03*
X0201200Y0254450D03*
X0199200Y0254450D03*
X0197250Y0254450D03*
X0195300Y0254450D03*
X0193300Y0254450D03*
X0193300Y0269050D03*
X0195300Y0269050D03*
X0197250Y0269050D03*
X0199200Y0269050D03*
X0201200Y0269050D03*
X0201200Y0296450D03*
X0199200Y0296450D03*
X0197250Y0296450D03*
X0195300Y0296450D03*
X0193300Y0296450D03*
X0193300Y0311050D03*
X0195300Y0311050D03*
X0197250Y0311050D03*
X0199200Y0311050D03*
X0201200Y0311050D03*
X0201200Y0338450D03*
X0199200Y0338450D03*
X0197250Y0338450D03*
X0195300Y0338450D03*
X0193300Y0338450D03*
X0193300Y0353050D03*
X0195300Y0353050D03*
X0197250Y0353050D03*
X0199200Y0353050D03*
X0201200Y0353050D03*
X0094200Y0353050D03*
X0092200Y0353050D03*
X0090250Y0353050D03*
X0088300Y0353050D03*
X0086300Y0353050D03*
X0086300Y0338450D03*
X0088300Y0338450D03*
X0090250Y0338450D03*
X0092200Y0338450D03*
X0094200Y0338450D03*
X0094200Y0311050D03*
X0092200Y0311050D03*
X0090250Y0311050D03*
X0088300Y0311050D03*
X0086300Y0311050D03*
X0086300Y0296450D03*
X0088300Y0296450D03*
X0090250Y0296450D03*
X0092200Y0296450D03*
X0094200Y0296450D03*
X0094200Y0269050D03*
X0092200Y0269050D03*
X0090250Y0269050D03*
X0088300Y0269050D03*
X0086300Y0269050D03*
X0086300Y0254450D03*
X0088300Y0254450D03*
X0090250Y0254450D03*
X0092200Y0254450D03*
X0094200Y0254450D03*
X0094200Y0227050D03*
X0092200Y0227050D03*
X0090250Y0227050D03*
X0088300Y0227050D03*
X0086300Y0227050D03*
X0086300Y0212450D03*
X0088300Y0212450D03*
X0090250Y0212450D03*
X0092200Y0212450D03*
X0094200Y0212450D03*
X0094200Y0185050D03*
X0092200Y0185050D03*
X0090250Y0185050D03*
X0088300Y0185050D03*
X0086300Y0185050D03*
X0086300Y0170450D03*
X0088300Y0170450D03*
X0090250Y0170450D03*
X0092200Y0170450D03*
X0094200Y0170450D03*
X0094200Y0143050D03*
X0092200Y0143050D03*
X0090250Y0143050D03*
X0088300Y0143050D03*
X0086300Y0143050D03*
X0086300Y0128450D03*
X0088300Y0128450D03*
X0090250Y0128450D03*
X0092200Y0128450D03*
X0094200Y0128450D03*
X0094200Y0101050D03*
X0092200Y0101050D03*
X0090250Y0101050D03*
X0088300Y0101050D03*
X0086300Y0101050D03*
X0086300Y0086450D03*
X0088300Y0086450D03*
X0090250Y0086450D03*
X0092200Y0086450D03*
X0094200Y0086450D03*
X0094200Y0059050D03*
X0092200Y0059050D03*
X0090250Y0059050D03*
X0088300Y0059050D03*
X0086300Y0059050D03*
X0086300Y0044450D03*
X0088300Y0044450D03*
X0090250Y0044450D03*
X0092200Y0044450D03*
X0094200Y0044450D03*
D21*
X0097550Y0047800D03*
X0097550Y0049800D03*
X0097550Y0051750D03*
X0097550Y0053700D03*
X0097550Y0055700D03*
X0082950Y0055700D03*
X0082950Y0053700D03*
X0082950Y0051750D03*
X0082950Y0049800D03*
X0082950Y0047800D03*
X0082950Y0089800D03*
X0082950Y0091800D03*
X0082950Y0093750D03*
X0082950Y0095700D03*
X0082950Y0097700D03*
X0097550Y0097700D03*
X0097550Y0095700D03*
X0097550Y0093750D03*
X0097550Y0091800D03*
X0097550Y0089800D03*
X0097550Y0131800D03*
X0097550Y0133800D03*
X0097550Y0135750D03*
X0097550Y0137700D03*
X0097550Y0139700D03*
X0082950Y0139700D03*
X0082950Y0137700D03*
X0082950Y0135750D03*
X0082950Y0133800D03*
X0082950Y0131800D03*
X0082950Y0173800D03*
X0082950Y0175800D03*
X0082950Y0177750D03*
X0082950Y0179700D03*
X0082950Y0181700D03*
X0097550Y0181700D03*
X0097550Y0179700D03*
X0097550Y0177750D03*
X0097550Y0175800D03*
X0097550Y0173800D03*
X0097550Y0215800D03*
X0097550Y0217800D03*
X0097550Y0219750D03*
X0097550Y0221700D03*
X0097550Y0223700D03*
X0082950Y0223700D03*
X0082950Y0221700D03*
X0082950Y0219750D03*
X0082950Y0217800D03*
X0082950Y0215800D03*
X0082950Y0257800D03*
X0082950Y0259800D03*
X0082950Y0261750D03*
X0082950Y0263700D03*
X0082950Y0265700D03*
X0097550Y0265700D03*
X0097550Y0263700D03*
X0097550Y0261750D03*
X0097550Y0259800D03*
X0097550Y0257800D03*
X0097550Y0299800D03*
X0097550Y0301800D03*
X0097550Y0303750D03*
X0097550Y0305700D03*
X0097550Y0307700D03*
X0082950Y0307700D03*
X0082950Y0305700D03*
X0082950Y0303750D03*
X0082950Y0301800D03*
X0082950Y0299800D03*
X0082950Y0341800D03*
X0082950Y0343800D03*
X0082950Y0345750D03*
X0082950Y0347700D03*
X0082950Y0349700D03*
X0097550Y0349700D03*
X0097550Y0347700D03*
X0097550Y0345750D03*
X0097550Y0343800D03*
X0097550Y0341800D03*
X0189950Y0341800D03*
X0189950Y0343800D03*
X0189950Y0345750D03*
X0189950Y0347700D03*
X0189950Y0349700D03*
X0204550Y0349700D03*
X0204550Y0347700D03*
X0204550Y0345750D03*
X0204550Y0343800D03*
X0204550Y0341800D03*
X0204550Y0307700D03*
X0204550Y0305700D03*
X0204550Y0303750D03*
X0204550Y0301800D03*
X0204550Y0299800D03*
X0189950Y0299800D03*
X0189950Y0301800D03*
X0189950Y0303750D03*
X0189950Y0305700D03*
X0189950Y0307700D03*
X0189950Y0265700D03*
X0189950Y0263700D03*
X0189950Y0261750D03*
X0189950Y0259800D03*
X0189950Y0257800D03*
X0204550Y0257800D03*
X0204550Y0259800D03*
X0204550Y0261750D03*
X0204550Y0263700D03*
X0204550Y0265700D03*
X0204550Y0223700D03*
X0204550Y0221700D03*
X0204550Y0219750D03*
X0204550Y0217800D03*
X0204550Y0215800D03*
X0189950Y0215800D03*
X0189950Y0217800D03*
X0189950Y0219750D03*
X0189950Y0221700D03*
X0189950Y0223700D03*
X0189950Y0181700D03*
X0189950Y0179700D03*
X0189950Y0177750D03*
X0189950Y0175800D03*
X0189950Y0173800D03*
X0204550Y0173800D03*
X0204550Y0175800D03*
X0204550Y0177750D03*
X0204550Y0179700D03*
X0204550Y0181700D03*
X0204550Y0139700D03*
X0204550Y0137700D03*
X0204550Y0135750D03*
X0204550Y0133800D03*
X0204550Y0131800D03*
X0189950Y0131800D03*
X0189950Y0133800D03*
X0189950Y0135750D03*
X0189950Y0137700D03*
X0189950Y0139700D03*
X0189950Y0097700D03*
X0189950Y0095700D03*
X0189950Y0093750D03*
X0189950Y0091800D03*
X0189950Y0089800D03*
X0204550Y0089800D03*
X0204550Y0091800D03*
X0204550Y0093750D03*
X0204550Y0095700D03*
X0204550Y0097700D03*
X0204550Y0055700D03*
X0204550Y0053700D03*
X0204550Y0051750D03*
X0204550Y0049800D03*
X0204550Y0047800D03*
X0189950Y0047800D03*
X0189950Y0049800D03*
X0189950Y0051750D03*
X0189950Y0053700D03*
X0189950Y0055700D03*
X0296950Y0055700D03*
X0296950Y0053700D03*
X0296950Y0051750D03*
X0296950Y0049800D03*
X0296950Y0047800D03*
X0311550Y0047800D03*
X0311550Y0049800D03*
X0311550Y0051750D03*
X0311550Y0053700D03*
X0311550Y0055700D03*
X0311550Y0089800D03*
X0311550Y0091800D03*
X0311550Y0093750D03*
X0311550Y0095700D03*
X0311550Y0097700D03*
X0296950Y0097700D03*
X0296950Y0095700D03*
X0296950Y0093750D03*
X0296950Y0091800D03*
X0296950Y0089800D03*
X0296950Y0131800D03*
X0296950Y0133800D03*
X0296950Y0135750D03*
X0296950Y0137700D03*
X0296950Y0139700D03*
X0311550Y0139700D03*
X0311550Y0137700D03*
X0311550Y0135750D03*
X0311550Y0133800D03*
X0311550Y0131800D03*
X0311550Y0173800D03*
X0311550Y0175800D03*
X0311550Y0177750D03*
X0311550Y0179700D03*
X0311550Y0181700D03*
X0296950Y0181700D03*
X0296950Y0179700D03*
X0296950Y0177750D03*
X0296950Y0175800D03*
X0296950Y0173800D03*
X0296950Y0215800D03*
X0296950Y0217800D03*
X0296950Y0219750D03*
X0296950Y0221700D03*
X0296950Y0223700D03*
X0311550Y0223700D03*
X0311550Y0221700D03*
X0311550Y0219750D03*
X0311550Y0217800D03*
X0311550Y0215800D03*
X0311550Y0257800D03*
X0311550Y0259800D03*
X0311550Y0261750D03*
X0311550Y0263700D03*
X0311550Y0265700D03*
X0296950Y0265700D03*
X0296950Y0263700D03*
X0296950Y0261750D03*
X0296950Y0259800D03*
X0296950Y0257800D03*
X0296950Y0299800D03*
X0296950Y0301800D03*
X0296950Y0303750D03*
X0296950Y0305700D03*
X0296950Y0307700D03*
X0311550Y0307700D03*
X0311550Y0305700D03*
X0311550Y0303750D03*
X0311550Y0301800D03*
X0311550Y0299800D03*
X0311550Y0341800D03*
X0311550Y0343800D03*
X0311550Y0345750D03*
X0311550Y0347700D03*
X0311550Y0349700D03*
X0296950Y0349700D03*
X0296950Y0347700D03*
X0296950Y0345750D03*
X0296950Y0343800D03*
X0296950Y0341800D03*
M02*
