%
M48
M72
T01C0.0150
T02C0.0400
%
T01
X5375Y3375
X5125Y4975
X6375Y4875
X7875Y4975
X7875Y5375
X8375Y3575
X9325Y3725
X10075Y4175
X10425Y4875
X10875Y4875
X9925Y5925
X9325Y7925
X10075Y8375
X10425Y9075
X10875Y9075
X9925Y10125
X7875Y9575
X7875Y9175
X8375Y7775
X6375Y9075
X5125Y9175
X5375Y7575
X5375Y11775
X6375Y13275
X5125Y13375
X5375Y15975
X5125Y17575
X6375Y17475
X7875Y17575
X7875Y17975
X8375Y16175
X9325Y16325
X10075Y16775
X10425Y17475
X10875Y17475
X9925Y18525
X9325Y20525
X10075Y20975
X10425Y21675
X10875Y21675
X9925Y22725
X7875Y22175
X7875Y21775
X8375Y20375
X6375Y21675
X5125Y21775
X5375Y20175
X5375Y24375
X5125Y25975
X6375Y25875
X7875Y25975
X7875Y26375
X8375Y24575
X9325Y24725
X10075Y25175
X10425Y25875
X10875Y25875
X9925Y26925
X8375Y28775
X9325Y28925
X10075Y29375
X10425Y30075
X10875Y30075
X9925Y31125
X9325Y33125
X10075Y33575
X10425Y34275
X10875Y34275
X9925Y35325
X7875Y34775
X7875Y34375
X8375Y32975
X6375Y34275
X5125Y34375
X5375Y32775
X5125Y30175
X6375Y30075
X7875Y30175
X7875Y30575
X5375Y28575
X15825Y30175
X17075Y30075
X18575Y30175
X18575Y30575
X20025Y28925
X20775Y29375
X21125Y30075
X21575Y30075
X20625Y31125
X20025Y33125
X20775Y33575
X21125Y34275
X21575Y34275
X20625Y35325
X18575Y34775
X18575Y34375
X19075Y32975
X17075Y34275
X15825Y34375
X16075Y32775
X16075Y28575
X18575Y26375
X18575Y25975
X19075Y24575
X20025Y24725
X20775Y25175
X21125Y25875
X21575Y25875
X20625Y26925
X19075Y28775
X17075Y25875
X15825Y25975
X16075Y24375
X18575Y22175
X18575Y21775
X19075Y20375
X20025Y20525
X20775Y20975
X21125Y21675
X21575Y21675
X20625Y22725
X17075Y21675
X15825Y21775
X16075Y20175
X18575Y17975
X18575Y17575
X19075Y16175
X20025Y16325
X20775Y16775
X21125Y17475
X21575Y17475
X20625Y18525
X17075Y17475
X15825Y17575
X16075Y15975
X15825Y13375
X17075Y13275
X18575Y13375
X18575Y13775
X19075Y11975
X20025Y12125
X20775Y12575
X21125Y13275
X21575Y13275
X20625Y14325
X20625Y10125
X21125Y9075
X21575Y9075
X20775Y8375
X20025Y7925
X19075Y7775
X18575Y9175
X18575Y9575
X17075Y9075
X15825Y9175
X16075Y7575
X18575Y5375
X18575Y4975
X19075Y3575
X20025Y3725
X20775Y4175
X21125Y4875
X21575Y4875
X20625Y5925
X17075Y4875
X15825Y4975
X16075Y3375
X16075Y11775
X10875Y13275
X10425Y13275
X10075Y12575
X9325Y12125
X8375Y11975
X7875Y13375
X7875Y13775
X9925Y14325
X26525Y13375
X27775Y13275
X29275Y13375
X29275Y13775
X30725Y12125
X31475Y12575
X31825Y13275
X32275Y13275
X31325Y14325
X30725Y16325
X31475Y16775
X31825Y17475
X32275Y17475
X31325Y18525
X30725Y20525
X31475Y20975
X31825Y21675
X32275Y21675
X31325Y22725
X29275Y22175
X29275Y21775
X29775Y20375
X27775Y21675
X26525Y21775
X26775Y20175
X26525Y17575
X27775Y17475
X29275Y17575
X29275Y17975
X29775Y16175
X26775Y15975
X26775Y11775
X26525Y9175
X27775Y9075
X29275Y9175
X29275Y9575
X29775Y7775
X30725Y7925
X31475Y8375
X31825Y9075
X32275Y9075
X31325Y10125
X29775Y11975
X26775Y7575
X26525Y4975
X27775Y4875
X29275Y4975
X29275Y5375
X29775Y3575
X30725Y3725
X31475Y4175
X31825Y4875
X32275Y4875
X31325Y5925
X26775Y3375
X26775Y24375
X26525Y25975
X27775Y25875
X29275Y25975
X29275Y26375
X29775Y24575
X30725Y24725
X31475Y25175
X31825Y25875
X32275Y25875
X31325Y26925
X29775Y28775
X30725Y28925
X31475Y29375
X31825Y30075
X32275Y30075
X31325Y31125
X30725Y33125
X31475Y33575
X31825Y34275
X32275Y34275
X31325Y35325
X29275Y34775
X29275Y34375
X29775Y32975
X27775Y34275
X26525Y34375
X26775Y32775
X26525Y30175
X27775Y30075
X29275Y30175
X29275Y30575
X26775Y28575
T02
X3875Y2875
X4875Y2875
X5875Y2875
X6875Y2875
X7875Y2875
X8875Y2875
X9875Y2875
X10875Y2875
X11875Y2875
X12875Y2875
X14575Y2875
X15575Y2875
X16575Y2875
X17575Y2875
X18575Y2875
X19575Y2875
X20575Y2875
X21575Y2875
X22575Y2875
X23575Y2875
X25275Y2875
X26275Y2875
X27275Y2875
X28275Y2875
X29275Y2875
X30275Y2875
X31275Y2875
X32275Y2875
X33275Y2875
X34275Y2875
X34275Y6875
X34275Y7075
X33275Y7075
X33275Y6875
X32275Y6875
X32275Y7075
X31275Y7075
X31275Y6875
X30275Y6875
X30275Y7075
X29275Y7075
X29275Y6875
X28275Y6875
X28275Y7075
X27275Y7075
X27275Y6875
X26275Y6875
X26275Y7075
X25275Y7075
X25275Y6875
X23575Y6875
X23575Y7075
X22575Y7075
X22575Y6875
X21575Y6875
X21575Y7075
X20575Y7075
X20575Y6875
X19575Y6875
X19575Y7075
X18575Y7075
X18575Y6875
X17575Y6875
X17575Y7075
X16575Y7075
X16575Y6875
X15575Y6875
X15575Y7075
X14575Y7075
X14575Y6875
X12875Y6875
X12875Y7075
X11875Y7075
X11875Y6875
X10875Y6875
X10875Y7075
X9875Y7075
X9875Y6875
X8875Y6875
X8875Y7075
X7875Y7075
X7875Y6875
X6875Y6875
X6875Y7075
X5875Y7075
X5875Y6875
X4875Y6875
X4875Y7075
X3875Y7075
X3875Y6875
X3875Y11075
X3875Y11275
X4875Y11275
X4875Y11075
X5875Y11075
X5875Y11275
X6875Y11275
X6875Y11075
X7875Y11075
X7875Y11275
X8875Y11275
X8875Y11075
X9875Y11075
X9875Y11275
X10875Y11275
X10875Y11075
X11875Y11075
X11875Y11275
X12875Y11275
X12875Y11075
X14575Y11075
X14575Y11275
X15575Y11275
X15575Y11075
X16575Y11075
X16575Y11275
X17575Y11275
X17575Y11075
X18575Y11075
X18575Y11275
X19575Y11275
X19575Y11075
X20575Y11075
X20575Y11275
X21575Y11275
X21575Y11075
X22575Y11075
X22575Y11275
X23575Y11275
X23575Y11075
X25275Y11075
X25275Y11275
X26275Y11275
X26275Y11075
X27275Y11075
X27275Y11275
X28275Y11275
X28275Y11075
X29275Y11075
X29275Y11275
X30275Y11275
X30275Y11075
X31275Y11075
X31275Y11275
X32275Y11275
X32275Y11075
X33275Y11075
X33275Y11275
X34275Y11275
X34275Y11075
X34275Y15275
X34275Y15475
X33275Y15475
X33275Y15275
X32275Y15275
X32275Y15475
X31275Y15475
X31275Y15275
X30275Y15275
X30275Y15475
X29275Y15475
X29275Y15275
X28275Y15275
X28275Y15475
X27275Y15475
X27275Y15275
X26275Y15275
X26275Y15475
X25275Y15475
X25275Y15275
X23575Y15275
X23575Y15475
X22575Y15475
X22575Y15275
X21575Y15275
X21575Y15475
X20575Y15475
X20575Y15275
X19575Y15275
X19575Y15475
X18575Y15475
X18575Y15275
X17575Y15275
X17575Y15475
X16575Y15475
X16575Y15275
X15575Y15275
X15575Y15475
X14575Y15475
X14575Y15275
X12875Y15275
X12875Y15475
X11875Y15475
X11875Y15275
X10875Y15275
X10875Y15475
X9875Y15475
X9875Y15275
X8875Y15275
X8875Y15475
X7875Y15475
X7875Y15275
X6875Y15275
X6875Y15475
X5875Y15475
X5875Y15275
X4875Y15275
X4875Y15475
X3875Y15475
X3875Y15275
X3875Y19475
X3875Y19675
X4875Y19675
X4875Y19475
X5875Y19475
X5875Y19675
X6875Y19675
X6875Y19475
X7875Y19475
X7875Y19675
X8875Y19675
X8875Y19475
X9875Y19475
X9875Y19675
X10875Y19675
X10875Y19475
X11875Y19475
X11875Y19675
X12875Y19675
X12875Y19475
X14575Y19475
X14575Y19675
X15575Y19675
X15575Y19475
X16575Y19475
X16575Y19675
X17575Y19675
X17575Y19475
X18575Y19475
X18575Y19675
X19575Y19675
X19575Y19475
X20575Y19475
X20575Y19675
X21575Y19675
X21575Y19475
X22575Y19475
X22575Y19675
X23575Y19675
X23575Y19475
X25275Y19475
X25275Y19675
X26275Y19675
X26275Y19475
X27275Y19475
X27275Y19675
X28275Y19675
X28275Y19475
X29275Y19475
X29275Y19675
X30275Y19675
X30275Y19475
X31275Y19475
X31275Y19675
X32275Y19675
X32275Y19475
X33275Y19475
X33275Y19675
X34275Y19675
X34275Y19475
X34275Y23675
X34275Y23875
X33275Y23875
X33275Y23675
X32275Y23675
X32275Y23875
X31275Y23875
X31275Y23675
X30275Y23675
X30275Y23875
X29275Y23875
X29275Y23675
X28275Y23675
X28275Y23875
X27275Y23875
X27275Y23675
X26275Y23675
X26275Y23875
X25275Y23875
X25275Y23675
X23575Y23675
X23575Y23875
X22575Y23875
X22575Y23675
X21575Y23675
X21575Y23875
X20575Y23875
X20575Y23675
X19575Y23675
X19575Y23875
X18575Y23875
X18575Y23675
X17575Y23675
X17575Y23875
X16575Y23875
X16575Y23675
X15575Y23675
X15575Y23875
X14575Y23875
X14575Y23675
X12875Y23675
X12875Y23875
X11875Y23875
X11875Y23675
X10875Y23675
X10875Y23875
X9875Y23875
X9875Y23675
X8875Y23675
X8875Y23875
X7875Y23875
X7875Y23675
X6875Y23675
X6875Y23875
X5875Y23875
X5875Y23675
X4875Y23675
X4875Y23875
X3875Y23875
X3875Y23675
X3875Y27875
X3875Y28075
X4875Y28075
X4875Y27875
X5875Y27875
X5875Y28075
X6875Y28075
X6875Y27875
X7875Y27875
X7875Y28075
X8875Y28075
X8875Y27875
X9875Y27875
X9875Y28075
X10875Y28075
X10875Y27875
X11875Y27875
X11875Y28075
X12875Y28075
X12875Y27875
X14575Y27875
X14575Y28075
X15575Y28075
X15575Y27875
X16575Y27875
X16575Y28075
X17575Y28075
X17575Y27875
X18575Y27875
X18575Y28075
X19575Y28075
X19575Y27875
X20575Y27875
X20575Y28075
X21575Y28075
X21575Y27875
X22575Y27875
X22575Y28075
X23575Y28075
X23575Y27875
X25275Y27875
X25275Y28075
X26275Y28075
X26275Y27875
X27275Y27875
X27275Y28075
X28275Y28075
X28275Y27875
X29275Y27875
X29275Y28075
X30275Y28075
X30275Y27875
X31275Y27875
X31275Y28075
X32275Y28075
X32275Y27875
X33275Y27875
X33275Y28075
X34275Y28075
X34275Y27875
X34275Y32075
X34275Y32275
X33275Y32275
X33275Y32075
X32275Y32075
X32275Y32275
X31275Y32275
X31275Y32075
X30275Y32075
X30275Y32275
X29275Y32275
X29275Y32075
X28275Y32075
X28275Y32275
X27275Y32275
X27275Y32075
X26275Y32075
X26275Y32275
X25275Y32275
X25275Y32075
X23575Y32075
X23575Y32275
X22575Y32275
X22575Y32075
X21575Y32075
X21575Y32275
X20575Y32275
X20575Y32075
X19575Y32075
X19575Y32275
X18575Y32275
X18575Y32075
X17575Y32075
X17575Y32275
X16575Y32275
X16575Y32075
X15575Y32075
X15575Y32275
X14575Y32275
X14575Y32075
X12875Y32075
X12875Y32275
X11875Y32275
X11875Y32075
X10875Y32075
X10875Y32275
X9875Y32275
X9875Y32075
X8875Y32075
X8875Y32275
X7875Y32275
X7875Y32075
X6875Y32075
X6875Y32275
X5875Y32275
X5875Y32075
X4875Y32075
X4875Y32275
X3875Y32275
X3875Y32075
X3875Y36275
X4875Y36275
X5875Y36275
X6875Y36275
X7875Y36275
X8875Y36275
X9875Y36275
X10875Y36275
X11875Y36275
X12875Y36275
X14575Y36275
X15575Y36275
X16575Y36275
X17575Y36275
X18575Y36275
X19575Y36275
X20575Y36275
X21575Y36275
X22575Y36275
X23575Y36275
X25275Y36275
X26275Y36275
X27275Y36275
X28275Y36275
X29275Y36275
X30275Y36275
X31275Y36275
X32275Y36275
X33275Y36275
X34275Y36275
M30
