%
M48
M72
T01C0.0150
T02C0.0400
%
T01
X6950Y8200
X6950Y9700
X7950Y9700
X9400Y9550
X9450Y10200
X9950Y8400
X10950Y8550
X11650Y9000
X12000Y9700
X12450Y9700
X11500Y10750
X10950Y14550
X11650Y15000
X12000Y15700
X12450Y15700
X11500Y16750
X9450Y16200
X9400Y15550
X9950Y14400
X7950Y15700
X6950Y15700
X6950Y14200
X4800Y11350
X4800Y17350
X6950Y20200
X6950Y21700
X7950Y21700
X9400Y21550
X9450Y22200
X9950Y20400
X10950Y20550
X11650Y21000
X12000Y21700
X12450Y21700
X11500Y22750
X9950Y26400
X10950Y26550
X11650Y27000
X12000Y27700
X12450Y27700
X11500Y28750
X9450Y28200
X9400Y27550
X7950Y27700
X6950Y27700
X6950Y26200
X4800Y23350
X4800Y29350
X6950Y32200
X6950Y33700
X7950Y33700
X9400Y33550
X9450Y34200
X10950Y32550
X11650Y33000
X12000Y33700
X12450Y33700
X11500Y34750
X9950Y32400
X4800Y35350
X18800Y35350
X20950Y33700
X21950Y33700
X20950Y32200
X23400Y33550
X23450Y34200
X24950Y32550
X25650Y33000
X26000Y33700
X26450Y33700
X25500Y34750
X23950Y32400
X25500Y28750
X26000Y27700
X26450Y27700
X25650Y27000
X24950Y26550
X23950Y26400
X23400Y27550
X23450Y28200
X21950Y27700
X20950Y27700
X20950Y26200
X18800Y23350
X20950Y21700
X21950Y21700
X20950Y20200
X23400Y21550
X23450Y22200
X23950Y20400
X24950Y20550
X25650Y21000
X26000Y21700
X26450Y21700
X25500Y22750
X25500Y16750
X26000Y15700
X26450Y15700
X25650Y15000
X24950Y14550
X23950Y14400
X23400Y15550
X23450Y16200
X21950Y15700
X20950Y15700
X20950Y14200
X18800Y11350
X20950Y9700
X21950Y9700
X20950Y8200
X23400Y9550
X23450Y10200
X23950Y8400
X24950Y8550
X25650Y9000
X26000Y9700
X26450Y9700
X25500Y10750
X18800Y17350
X18800Y29350
X32800Y29350
X34950Y27700
X35950Y27700
X37400Y27550
X37450Y28200
X37950Y26400
X38950Y26550
X39650Y27000
X40000Y27700
X40450Y27700
X39500Y28750
X37950Y32400
X38950Y32550
X39650Y33000
X40000Y33700
X40450Y33700
X39500Y34750
X37450Y34200
X37400Y33550
X35950Y33700
X34950Y33700
X34950Y32200
X32800Y35350
X34950Y26200
X32800Y23350
X34950Y21700
X35950Y21700
X37400Y21550
X37450Y22200
X37950Y20400
X38950Y20550
X39650Y21000
X40000Y21700
X40450Y21700
X39500Y22750
X34950Y20200
X32800Y17350
X34950Y15700
X35950Y15700
X37400Y15550
X37450Y16200
X37950Y14400
X38950Y14550
X39650Y15000
X40000Y15700
X40450Y15700
X39500Y16750
X34950Y14200
X32800Y11350
X34950Y9700
X35950Y9700
X37400Y9550
X37450Y10200
X37950Y8400
X38950Y8550
X39650Y9000
X40000Y9700
X40450Y9700
X39500Y10750
X34950Y8200
T02
X5450Y7700
X6450Y7700
X7450Y7700
X8450Y7700
X9450Y7700
X10450Y7700
X11450Y7700
X12450Y7700
X13450Y7700
X14450Y7700
X14450Y11700
X13450Y11700
X12450Y11700
X11450Y11700
X10450Y11700
X9450Y11700
X8450Y11700
X7450Y11700
X6450Y11700
X5450Y11700
X5450Y13700
X6450Y13700
X7450Y13700
X8450Y13700
X9450Y13700
X10450Y13700
X11450Y13700
X12450Y13700
X13450Y13700
X14450Y13700
X14450Y17700
X13450Y17700
X12450Y17700
X11450Y17700
X10450Y17700
X9450Y17700
X8450Y17700
X7450Y17700
X6450Y17700
X5450Y17700
X5450Y19700
X6450Y19700
X7450Y19700
X8450Y19700
X9450Y19700
X10450Y19700
X11450Y19700
X12450Y19700
X13450Y19700
X14450Y19700
X14450Y23700
X13450Y23700
X12450Y23700
X11450Y23700
X10450Y23700
X9450Y23700
X8450Y23700
X7450Y23700
X6450Y23700
X5450Y23700
X5450Y25700
X6450Y25700
X7450Y25700
X8450Y25700
X9450Y25700
X10450Y25700
X11450Y25700
X12450Y25700
X13450Y25700
X14450Y25700
X14450Y29700
X13450Y29700
X12450Y29700
X11450Y29700
X10450Y29700
X9450Y29700
X8450Y29700
X7450Y29700
X6450Y29700
X5450Y29700
X5450Y31700
X6450Y31700
X7450Y31700
X8450Y31700
X9450Y31700
X10450Y31700
X11450Y31700
X12450Y31700
X13450Y31700
X14450Y31700
X14450Y35700
X13450Y35700
X12450Y35700
X11450Y35700
X10450Y35700
X9450Y35700
X8450Y35700
X7450Y35700
X6450Y35700
X5450Y35700
X19450Y35700
X20450Y35700
X21450Y35700
X22450Y35700
X23450Y35700
X24450Y35700
X25450Y35700
X26450Y35700
X27450Y35700
X28450Y35700
X28450Y31700
X27450Y31700
X26450Y31700
X25450Y31700
X24450Y31700
X23450Y31700
X22450Y31700
X21450Y31700
X20450Y31700
X19450Y31700
X19450Y29700
X20450Y29700
X21450Y29700
X22450Y29700
X23450Y29700
X24450Y29700
X25450Y29700
X26450Y29700
X27450Y29700
X28450Y29700
X28450Y25700
X27450Y25700
X26450Y25700
X25450Y25700
X24450Y25700
X23450Y25700
X22450Y25700
X21450Y25700
X20450Y25700
X19450Y25700
X19450Y23700
X20450Y23700
X21450Y23700
X22450Y23700
X23450Y23700
X24450Y23700
X25450Y23700
X26450Y23700
X27450Y23700
X28450Y23700
X28450Y19700
X27450Y19700
X26450Y19700
X25450Y19700
X24450Y19700
X23450Y19700
X22450Y19700
X21450Y19700
X20450Y19700
X19450Y19700
X19450Y17700
X20450Y17700
X21450Y17700
X22450Y17700
X23450Y17700
X24450Y17700
X25450Y17700
X26450Y17700
X27450Y17700
X28450Y17700
X28450Y13700
X27450Y13700
X26450Y13700
X25450Y13700
X24450Y13700
X23450Y13700
X22450Y13700
X21450Y13700
X20450Y13700
X19450Y13700
X19450Y11700
X20450Y11700
X21450Y11700
X22450Y11700
X23450Y11700
X24450Y11700
X25450Y11700
X26450Y11700
X27450Y11700
X28450Y11700
X28450Y7700
X27450Y7700
X26450Y7700
X25450Y7700
X24450Y7700
X23450Y7700
X22450Y7700
X21450Y7700
X20450Y7700
X19450Y7700
X33450Y7700
X34450Y7700
X35450Y7700
X36450Y7700
X37450Y7700
X38450Y7700
X39450Y7700
X40450Y7700
X41450Y7700
X42450Y7700
X42450Y11700
X41450Y11700
X40450Y11700
X39450Y11700
X38450Y11700
X37450Y11700
X36450Y11700
X35450Y11700
X34450Y11700
X33450Y11700
X33450Y13700
X34450Y13700
X35450Y13700
X36450Y13700
X37450Y13700
X38450Y13700
X39450Y13700
X40450Y13700
X41450Y13700
X42450Y13700
X42450Y17700
X41450Y17700
X40450Y17700
X39450Y17700
X38450Y17700
X37450Y17700
X36450Y17700
X35450Y17700
X34450Y17700
X33450Y17700
X33450Y19700
X34450Y19700
X35450Y19700
X36450Y19700
X37450Y19700
X38450Y19700
X39450Y19700
X40450Y19700
X41450Y19700
X42450Y19700
X42450Y23700
X41450Y23700
X40450Y23700
X39450Y23700
X38450Y23700
X37450Y23700
X36450Y23700
X35450Y23700
X34450Y23700
X33450Y23700
X33450Y25700
X34450Y25700
X35450Y25700
X36450Y25700
X37450Y25700
X38450Y25700
X39450Y25700
X40450Y25700
X41450Y25700
X42450Y25700
X42450Y29700
X41450Y29700
X40450Y29700
X39450Y29700
X38450Y29700
X37450Y29700
X36450Y29700
X35450Y29700
X34450Y29700
X33450Y29700
X33450Y31700
X34450Y31700
X35450Y31700
X36450Y31700
X37450Y31700
X38450Y31700
X39450Y31700
X40450Y31700
X41450Y31700
X42450Y31700
X42450Y35700
X41450Y35700
X40450Y35700
X39450Y35700
X38450Y35700
X37450Y35700
X36450Y35700
X35450Y35700
X34450Y35700
X33450Y35700
M30
